<svg width="866" height="683" viewBox="0 0 866 683" fill="none" xmlns="http://www.w3.org/2000/svg">
<path d="M530.9 389.84C530.9 389.84 533.19 391.42 532.04 392.84C531.785 393.143 531.443 393.361 531.06 393.463C530.677 393.565 530.272 393.546 529.9 393.41C525.76 392.06 510.49 385.2 516.27 358.57C516.27 358.61 515.47 387.14 530.9 389.84Z" fill="#0071F2"/>
<path d="M624.51 611.63C738.016 611.63 830.03 596.537 830.03 577.92C830.03 559.302 738.016 544.21 624.51 544.21C511.004 544.21 418.99 559.302 418.99 577.92C418.99 596.537 511.004 611.63 624.51 611.63Z" fill="#E6E6E6"/>
<path d="M440.53 538.6C473.3 625.68 719.88 581.93 719.88 581.93C838.19 555 829.67 459.25 829.67 459.25C831.73 423.2 829.36 395.43 824.67 374.07C824.67 374.07 824.67 374.02 824.67 373.99C811.12 312.34 778.38 304.1 778.38 304.1L768.84 301.1L744.75 293.54L715.8 310.14L625.92 456.21L463.84 453.44C422.54 490.94 440.53 538.6 440.53 538.6Z" fill="#CCCCCC"/>
<path d="M719.55 474C719.55 474 726.1 505.83 681.16 506.77L569.74 504.89L529.48 499.28C529.48 499.28 520.12 452.46 477.05 426.28L472.05 432.13C472.05 432.13 465.82 426.28 484.55 421.6C484.55 421.6 540.31 400.6 608.4 420L719.55 474Z" fill="#2F2E41"/>
<path d="M525.6 545.3C525.6 545.3 544.46 571.37 603.45 565.75C603.45 565.75 740.45 563.88 788.96 506.75C788.96 506.75 837.96 457.52 824.66 374.05C824.66 374.05 824.66 374 824.66 373.97C811.11 312.32 778.37 304.08 778.37 304.08L768.83 301.08C768.83 301.08 800.07 445 725.17 500.21L716.74 498.34C716.74 498.34 690.52 487.1 656.82 490.85C656.82 490.85 590.34 499.28 569.74 504.85C569.74 504.85 547.95 512.39 525.6 515.17C525.6 515.21 506.76 526.73 525.6 545.3Z" fill="#B3B3B3"/>
<path d="M700 231.53L702.68 253.03C702.68 253.03 714.96 253.88 724.97 257.84L729.19 266.44C729.19 266.44 722.07 302.96 721.58 302.65C721.09 302.34 661.58 305 661.58 305L647 307L649.32 271.09L655.11 252.55C658.109 251.454 661.217 250.679 664.38 250.24C668.411 249.684 672.499 249.684 676.53 250.24L673.6 239.8L700 231.53Z" fill="#F9B499"/>
<path d="M454.51 71.2598H45.94C40.4116 71.2598 35.93 75.7414 35.93 81.2698V404.12C35.93 409.648 40.4116 414.13 45.94 414.13H454.51C460.038 414.13 464.52 409.648 464.52 404.12V81.2698C464.52 75.7414 460.038 71.2598 454.51 71.2598Z" fill="#0071F2"/>
<path d="M451.77 110.65H46.35V403.71H451.77V110.65Z" fill="white"/>
<path opacity="0.29" d="M243 213H62V387H243V213Z" fill="#0071F2"/>
<path opacity="0.29" d="M437 213H256V387H437V213Z" fill="#0071F2"/>
<path d="M427.45 198.1H71.84C68.9226 198.1 66.1248 196.941 64.0619 194.878C61.999 192.815 60.84 190.017 60.84 187.1V141.92C60.84 139.003 61.999 136.205 64.0619 134.142C66.1248 132.079 68.9226 130.92 71.84 130.92H427.45C430.367 130.92 433.165 132.079 435.228 134.142C437.291 136.205 438.45 139.003 438.45 141.92V187.1C438.45 190.017 437.291 192.815 435.228 194.878C433.165 196.941 430.367 198.1 427.45 198.1ZM71.84 132.1C69.2354 132.105 66.7386 133.141 64.895 134.981C63.0513 136.821 62.0106 139.315 62 141.92V187.1C62.0027 189.711 63.0416 192.213 64.8886 194.058C66.7355 195.904 69.2394 196.94 71.85 196.94H427.45C430.059 196.937 432.56 195.9 434.405 194.055C436.25 192.21 437.287 189.709 437.29 187.1V141.92C437.29 139.309 436.254 136.805 434.409 134.958C432.563 133.112 430.061 132.073 427.45 132.07L71.84 132.1Z" fill="#0071F2"/>
<path d="M409.569 169.99L408.722 170.782L418.899 181.665L419.746 180.873L409.569 169.99Z" fill="white"/>
<path d="M369.53 91.5303H354.47V92.6903H369.53V91.5303Z" fill="white"/>
<path d="M409.49 100.8H394.44V85.7402H409.49V100.8ZM395.59 99.6402H408.34V86.9002H395.59V99.6402Z" fill="white"/>
<path d="M449.056 83.6296L433.102 99.8477L433.929 100.661L449.883 84.4431L449.056 83.6296Z" fill="white"/>
<path d="M433.928 83.617L433.101 84.4307L449.058 100.646L449.885 99.8323L433.928 83.617Z" fill="white"/>
<path opacity="0.29" d="M223 229H82V265H223V229Z" fill="#0071F2"/>
<path opacity="0.29" d="M417 229H276V265H417V229Z" fill="#0071F2"/>
<path opacity="0.29" d="M223 282H82V318H223V282Z" fill="#0071F2"/>
<path opacity="0.29" d="M417 282H276V318H417V282Z" fill="#0071F2"/>
<path opacity="0.29" d="M223 334H82V370H223V334Z" fill="#0071F2"/>
<path opacity="0.29" d="M417 334H276V370H417V334Z" fill="#0071F2"/>
<path d="M168 238H95V242H168V238Z" fill="white"/>
<path d="M363 238H289V242H363V238Z" fill="white"/>
<path d="M210 238H183V242H210V238Z" fill="white"/>
<path d="M404 238H377V242H404V238Z" fill="white"/>
<path d="M136 248H210V245H136V248Z" fill="white"/>
<path d="M331 248H404V245H331V248Z" fill="white"/>
<path d="M95 255H168V252H95V255Z" fill="white"/>
<path d="M289 255H363V252H289V255Z" fill="white"/>
<path d="M93 305H122V297H93V305Z" fill="white"/>
<path d="M288 305H316V297H288V305Z" fill="white"/>
<path d="M138 305H167V297H138V305Z" fill="white"/>
<path d="M332 305H361V297H332V305Z" fill="white"/>
<path d="M183 305H211V297H183V305Z" fill="white"/>
<path d="M377 305H406V297H377V305Z" fill="white"/>
<path d="M95 248H122V245H95V248Z" fill="white"/>
<path d="M289 248H316V245H289V248Z" fill="white"/>
<path d="M170 343H96V347H170V343Z" fill="white"/>
<path d="M364 343H291V347H364V343Z" fill="white"/>
<path d="M211 343H184V347H211V343Z" fill="white"/>
<path d="M406 343H379V347H406V343Z" fill="white"/>
<path d="M138 354H211V350H138V354Z" fill="white"/>
<path d="M332 354H406V350H332V354Z" fill="white"/>
<path d="M96 361H170V357H96V361Z" fill="white"/>
<path d="M291 361H364V357H291V361Z" fill="white"/>
<path d="M96 354H124V350H96V354Z" fill="white"/>
<path d="M291 354H318V350H291V354Z" fill="white"/>
<path opacity="0.2" d="M140.17 543.87H59.09V556.61H140.17V543.87Z" fill="white"/>
<path d="M700 231.53L701.65 244.75C701.65 244.75 694.26 253.03 676.47 250.22L675.76 246.11C675.76 246.11 688.66 244.43 700 231.53Z" fill="#F7A48B"/>
<path d="M587.53 319.51L607.19 416.88C607.54 417.88 607.94 418.94 608.39 419.95C626.04 459.74 719.55 473.95 719.55 473.95C731.72 475.82 728.91 462.71 728.91 462.71L730.78 419.64C786.96 416.83 804.78 399.04 804.78 399.04C805.555 397.925 806.005 396.616 806.08 395.26C808.25 376.5 781.37 310.09 781.37 310.09C761.71 267.03 725.01 257.79 725.01 257.79C714.52 300.07 680.25 294.18 680.25 294.18C649.33 291.42 657.11 252 657.11 252C648.03 252.86 639.03 257.69 639.03 257.69C601.58 268 587.53 319.51 587.53 319.51ZM765.43 382.24L732.66 386C734.53 359.79 741.08 326.08 741.08 326.08C743 331.68 765.43 382.24 765.43 382.24Z" fill="#0071F2"/>
<path opacity="0.2" d="M696.85 386C696.85 386 719.55 378.51 724.23 351.36C724.23 351.36 730.32 310.73 736.75 300.3C736.973 299.943 737.299 299.661 737.685 299.494C738.072 299.327 738.5 299.282 738.913 299.364C739.326 299.447 739.704 299.654 739.996 299.957C740.289 300.259 740.482 300.644 740.55 301.06C741.36 306.13 743.74 317.22 750.45 332.64L772 374.81C772.287 375.37 772.692 375.862 773.188 376.25C773.683 376.639 774.257 376.915 774.87 377.06C779.54 378.15 791.1 381.13 792.59 384.11L765.44 382.24L741.09 326.06L732.66 386H696.85Z" fill="black"/>
<path opacity="0.2" d="M608.39 420C626.04 459.79 719.55 474 719.55 474C731.72 475.87 728.91 462.76 728.91 462.76L730.78 419.69C786.96 416.88 804.78 399.09 804.78 399.09C805.555 397.974 806.005 396.666 806.08 395.31C803.29 396.57 753.08 418.88 696.88 408.2V418.38C696.88 418.38 692.88 427.86 675.8 436.88C675.77 436.88 648.9 449.25 608.39 420Z" fill="black"/>
<path d="M569.74 504.89C569.74 504.89 497.64 531.11 486.41 502.09C486.41 502.09 480.79 492.73 484.54 477.74C484.54 477.74 462.07 476.8 463.94 449.65C463.94 449.65 463.94 440.2 472.94 430.26C474.231 428.84 475.61 427.504 477.07 426.26C477.07 426.26 477.94 426.65 479.47 427.52C487.73 432.24 515.28 451.09 529.47 499.28L569.74 504.89Z" fill="#F9B499"/>
<path d="M569.74 504.89C569.74 504.89 534.05 506.77 516.74 504.89C516.74 504.89 510.74 473.06 494.8 457.14C494.8 457.14 485.43 470.25 484.5 477.74C484.5 477.74 480.75 459.96 490.12 447.74C490.12 447.74 481.12 434.31 472.88 430.22C474.171 428.8 475.55 427.464 477.01 426.22C477.01 426.22 477.88 426.61 479.41 427.48C487.9 432.27 516.74 451.63 529.41 499.24L569.74 504.89Z" fill="#F7A48B"/>
<path d="M696.85 418.38C694.819 420.974 692.078 422.922 688.961 423.987C685.843 425.052 682.484 425.189 679.29 424.38C679.29 424.38 679.29 424.43 679.29 424.51C679.394 425.221 679.317 425.948 679.066 426.622C678.815 427.296 678.398 427.896 677.854 428.367C677.31 428.837 676.656 429.163 675.953 429.314C675.249 429.464 674.519 429.436 673.83 429.23L660 425.16C659.298 424.961 658.659 424.587 658.142 424.072C657.626 423.557 657.25 422.918 657.049 422.217C656.849 421.516 656.831 420.775 656.998 420.065C657.164 419.355 657.509 418.699 658 418.16C658.77 417.336 659.625 416.595 660.55 415.95C660.55 415.95 654 413.14 659.62 405.65C659.62 405.65 653.06 402.84 663.36 390.65L641.5 389.1C640.319 389.016 639.213 388.488 638.406 387.621C637.598 386.755 637.15 385.614 637.15 384.43C637.151 383.783 637.285 383.144 637.545 382.551C637.805 381.959 638.184 381.427 638.659 380.989C639.134 380.55 639.695 380.215 640.306 380.003C640.917 379.792 641.565 379.709 642.21 379.76L673.67 382.24C673.67 382.24 684.75 382.24 692.8 384.86C693.695 385.156 694.497 385.681 695.127 386.382C695.757 387.084 696.192 387.938 696.39 388.86C697.39 393.14 698.67 401.41 696.85 408.19V418.38Z" fill="#F9B499"/>
<path d="M696.85 410.66C696.85 410.66 687.71 421.56 664.31 420.66L679.21 426.27L679.29 424.4C679.29 424.4 690.07 427.4 696.85 418.4V410.66Z" fill="#F7A48B"/>
<path d="M661.52 430L647 341.33C646.849 340.399 646.443 339.527 645.827 338.812C645.211 338.097 644.409 337.567 643.51 337.28L522.51 298.28C521.852 298.071 521.152 298.033 520.475 298.169C519.798 298.305 519.167 298.61 518.641 299.057C518.115 299.504 517.711 300.078 517.468 300.724C517.225 301.37 517.15 302.067 517.25 302.75L532.25 392.53L657.04 433.83C657.603 434.024 658.207 434.067 658.792 433.956C659.376 433.845 659.922 433.583 660.375 433.196C660.827 432.809 661.171 432.31 661.372 431.75C661.573 431.19 661.624 430.586 661.52 430Z" fill="#0071F2"/>
<path opacity="0.4" d="M661.52 430L647 341.33C646.849 340.399 646.443 339.527 645.827 338.812C645.211 338.097 644.409 337.567 643.51 337.28L522.51 298.28C521.852 298.071 521.152 298.033 520.475 298.169C519.798 298.305 519.167 298.61 518.641 299.057C518.115 299.504 517.711 300.078 517.468 300.724C517.225 301.37 517.15 302.067 517.25 302.75L532.25 392.53L657.04 433.83C657.603 434.024 658.207 434.067 658.792 433.956C659.376 433.845 659.922 433.583 660.375 433.196C660.827 432.809 661.171 432.31 661.372 431.75C661.573 431.19 661.624 430.586 661.52 430Z" fill="white"/>
<path opacity="0.4" d="M638.09 342C599.65 330.09 557.18 316 519.18 302.67C557.65 314.61 600.12 328.67 638.09 342Z" fill="white"/>
<path opacity="0.4" d="M645 339C638.13 338.28 643.81 358 644.06 362C647.22 381.31 651.42 408.26 654.06 427.56C654.17 431.25 656.32 433.44 660.11 432.42C656.17 433.65 653.98 431.51 653.63 427.63C651.9 418 648.55 397 647 387.1L643.25 362.1C643.04 357.87 637.93 338.1 645.07 338.95L645 339Z" fill="white"/>
<path d="M530.9 389.84C530.9 389.84 527.61 379.43 538.84 369.13L544.11 363.86C545.883 362.111 547.826 360.543 549.91 359.18C551.037 358.472 552.048 357.595 552.91 356.58C553.164 356.261 553.328 355.88 553.385 355.477C553.443 355.073 553.391 354.661 553.237 354.284C553.082 353.907 552.829 353.578 552.504 353.331C552.18 353.084 551.795 352.929 551.39 352.88C548.61 352.54 542.87 353.69 532.8 363.1C532.8 363.1 534.19 357.9 548.24 350.41C548.24 350.41 554.85 347.24 555.07 343.1C555.103 342.532 554.92 341.973 554.559 341.534C554.197 341.094 553.684 340.807 553.12 340.73C551.35 340.47 548.66 341.24 541.68 345.73L535.13 350.42C535.13 350.42 554.79 335.42 551.98 329.82C551.98 329.82 550.11 325.14 540.75 335.43L529.51 345.73C529.51 345.73 543.51 331.73 540.75 327.94C540.75 327.94 536.06 324.2 526.7 336.37C526.7 336.37 517.13 345.04 516.3 361.31C516.27 361.3 516.4 387.14 530.9 389.84Z" fill="#F9B499"/>
<path d="M533.16 376.17C533.16 376.17 529.51 381.52 530.9 389.84C530.9 389.84 516.16 389.29 516.27 358.61C516.899 354.275 518.155 350.054 520 346.08C520 346.08 519 376.66 533.16 376.17Z" fill="#F7A48B"/>
<path opacity="0.2" d="M616.06 328.43L608.71 326.06C608.71 326.06 611.87 292.35 631.54 279.25C621.885 293.875 616.523 310.912 616.06 328.43Z" fill="black"/>
<path d="M710.747 208.055C715.197 183.222 701.402 159.973 679.934 156.125C658.466 152.278 637.456 169.29 633.006 194.123C628.555 218.956 642.351 242.206 663.819 246.053C685.286 249.9 706.297 232.888 710.747 208.055Z" fill="#F9B499"/>
<path d="M675.77 246.11L676.48 250.22C653.07 250.22 639.03 257.71 639.03 257.71C606.26 247.41 627.79 199.71 627.79 199.71C633.41 185.71 639.03 169.71 639.03 169.71C647.45 140.71 664.31 142.56 664.31 142.56C670.48 139.658 677.184 138.061 684 137.87C702.39 138.76 713.26 146.76 719.6 154.87C724.36 161.129 727.413 168.517 728.46 176.31C730.022 186.16 733.447 195.622 738.55 204.19C740.95 208.19 743.12 212.36 745.12 216.59L749.54 225.91C763.54 255.91 746.6 268.79 746.6 268.79C730.36 256 702.69 253 702.69 253L700 231.53C707.395 222.337 711.475 210.918 711.58 199.12C673.66 185.48 659.58 165.02 659.58 165.02C659.58 165.02 646.86 176.85 636.83 181.7C636.83 181.7 623.37 207.45 641.47 232.11C641.52 232.11 652.59 249.49 675.77 246.11Z" fill="#2F2E41"/>
<path d="M721.392 215.9C724.317 209.562 722.31 202.403 716.909 199.911C711.508 197.419 704.759 200.537 701.834 206.875C698.909 213.214 700.916 220.373 706.317 222.865C711.718 225.357 718.467 222.239 721.392 215.9Z" fill="#F9B499"/>
<path d="M82.7159 150.909L91.3523 175.398H91.6932L100.33 150.909H104.023L93.3409 180H89.7045L79.0227 150.909H82.7159ZM112.489 180.511C111.106 180.511 109.851 180.251 108.724 179.73C107.598 179.2 106.703 178.438 106.04 177.443C105.377 176.439 105.045 175.227 105.045 173.807C105.045 172.557 105.292 171.544 105.784 170.767C106.277 169.981 106.935 169.366 107.759 168.92C108.582 168.475 109.491 168.144 110.486 167.926C111.49 167.699 112.498 167.519 113.511 167.386C114.837 167.216 115.912 167.088 116.736 167.003C117.569 166.908 118.175 166.752 118.554 166.534C118.942 166.316 119.136 165.937 119.136 165.398V165.284C119.136 163.883 118.753 162.794 117.986 162.017C117.228 161.241 116.078 160.852 114.534 160.852C112.934 160.852 111.679 161.203 110.77 161.903C109.861 162.604 109.222 163.352 108.852 164.148L105.67 163.011C106.239 161.686 106.996 160.653 107.943 159.915C108.9 159.167 109.941 158.646 111.068 158.352C112.205 158.049 113.322 157.898 114.42 157.898C115.121 157.898 115.926 157.983 116.835 158.153C117.754 158.314 118.639 158.651 119.491 159.162C120.353 159.673 121.068 160.445 121.636 161.477C122.205 162.509 122.489 163.892 122.489 165.625V180H119.136V177.045H118.966C118.739 177.519 118.36 178.026 117.83 178.565C117.299 179.105 116.594 179.564 115.713 179.943C114.832 180.322 113.758 180.511 112.489 180.511ZM113 177.5C114.326 177.5 115.443 177.24 116.352 176.719C117.271 176.198 117.962 175.526 118.426 174.702C118.9 173.878 119.136 173.011 119.136 172.102V169.034C118.994 169.205 118.682 169.361 118.199 169.503C117.725 169.635 117.176 169.754 116.551 169.858C115.936 169.953 115.334 170.038 114.747 170.114C114.17 170.18 113.701 170.237 113.341 170.284C112.47 170.398 111.655 170.582 110.898 170.838C110.15 171.084 109.544 171.458 109.08 171.96C108.625 172.453 108.398 173.125 108.398 173.977C108.398 175.142 108.829 176.023 109.69 176.619C110.562 177.206 111.665 177.5 113 177.5ZM137.471 180.455C135.425 180.455 133.664 179.972 132.187 179.006C130.71 178.04 129.573 176.709 128.778 175.014C127.982 173.319 127.585 171.383 127.585 169.205C127.585 166.989 127.992 165.033 128.806 163.338C129.63 161.634 130.776 160.303 132.244 159.347C133.721 158.381 135.444 157.898 137.414 157.898C138.948 157.898 140.331 158.182 141.562 158.75C142.793 159.318 143.801 160.114 144.587 161.136C145.373 162.159 145.861 163.352 146.05 164.716H142.698C142.442 163.722 141.874 162.841 140.994 162.074C140.122 161.297 138.948 160.909 137.471 160.909C136.164 160.909 135.018 161.25 134.033 161.932C133.058 162.604 132.296 163.556 131.746 164.787C131.207 166.009 130.937 167.443 130.937 169.091C130.937 170.777 131.202 172.244 131.732 173.494C132.272 174.744 133.03 175.715 134.005 176.406C134.99 177.098 136.145 177.443 137.471 177.443C138.342 177.443 139.133 177.292 139.843 176.989C140.553 176.686 141.155 176.25 141.647 175.682C142.139 175.114 142.49 174.432 142.698 173.636H146.05C145.861 174.924 145.392 176.084 144.644 177.116C143.906 178.139 142.925 178.954 141.704 179.56C140.492 180.156 139.081 180.455 137.471 180.455ZM159.815 180.455C157.769 180.455 156.008 179.972 154.531 179.006C153.053 178.04 151.917 176.709 151.121 175.014C150.326 173.319 149.928 171.383 149.928 169.205C149.928 166.989 150.335 165.033 151.15 163.338C151.974 161.634 153.12 160.303 154.587 159.347C156.065 158.381 157.788 157.898 159.758 157.898C161.292 157.898 162.674 158.182 163.906 158.75C165.137 159.318 166.145 160.114 166.931 161.136C167.717 162.159 168.205 163.352 168.394 164.716H165.042C164.786 163.722 164.218 162.841 163.337 162.074C162.466 161.297 161.292 160.909 159.815 160.909C158.508 160.909 157.362 161.25 156.377 161.932C155.402 162.604 154.639 163.556 154.09 164.787C153.55 166.009 153.281 167.443 153.281 169.091C153.281 170.777 153.546 172.244 154.076 173.494C154.616 174.744 155.373 175.715 156.349 176.406C157.334 177.098 158.489 177.443 159.815 177.443C160.686 177.443 161.477 177.292 162.187 176.989C162.897 176.686 163.498 176.25 163.991 175.682C164.483 175.114 164.834 174.432 165.042 173.636H168.394C168.205 174.924 167.736 176.084 166.988 177.116C166.249 178.139 165.269 178.954 164.048 179.56C162.835 180.156 161.424 180.455 159.815 180.455ZM173.295 180V158.182H176.647V180H173.295ZM174.999 154.545C174.346 154.545 173.782 154.323 173.309 153.878C172.845 153.433 172.613 152.898 172.613 152.273C172.613 151.648 172.845 151.113 173.309 150.668C173.782 150.223 174.346 150 174.999 150C175.653 150 176.211 150.223 176.675 150.668C177.149 151.113 177.386 151.648 177.386 152.273C177.386 152.898 177.149 153.433 176.675 153.878C176.211 154.323 175.653 154.545 174.999 154.545ZM186.139 166.875V180H182.787V158.182H186.026V161.591H186.31C186.821 160.483 187.598 159.593 188.639 158.92C189.681 158.239 191.026 157.898 192.673 157.898C194.151 157.898 195.443 158.201 196.551 158.807C197.659 159.403 198.521 160.312 199.136 161.534C199.752 162.746 200.06 164.28 200.06 166.136V180H196.707V166.364C196.707 164.65 196.262 163.314 195.372 162.358C194.482 161.392 193.26 160.909 191.707 160.909C190.637 160.909 189.681 161.141 188.838 161.605C188.005 162.069 187.347 162.746 186.864 163.636C186.381 164.527 186.139 165.606 186.139 166.875ZM215.333 180.455C213.231 180.455 211.417 179.991 209.893 179.062C208.378 178.125 207.208 176.818 206.384 175.142C205.57 173.456 205.163 171.496 205.163 169.261C205.163 167.027 205.57 165.057 206.384 163.352C207.208 161.638 208.354 160.303 209.822 159.347C211.299 158.381 213.022 157.898 214.992 157.898C216.129 157.898 217.251 158.087 218.359 158.466C219.467 158.845 220.475 159.46 221.384 160.312C222.293 161.155 223.018 162.273 223.558 163.665C224.097 165.057 224.367 166.771 224.367 168.807V170.227H207.549V167.33H220.958C220.958 166.098 220.712 165 220.219 164.034C219.737 163.068 219.045 162.306 218.146 161.747C217.255 161.188 216.204 160.909 214.992 160.909C213.657 160.909 212.502 161.241 211.526 161.903C210.56 162.557 209.817 163.409 209.296 164.46C208.775 165.511 208.515 166.638 208.515 167.841V169.773C208.515 171.42 208.799 172.817 209.367 173.963C209.945 175.099 210.745 175.966 211.768 176.562C212.79 177.15 213.979 177.443 215.333 177.443C216.214 177.443 217.009 177.32 217.719 177.074C218.439 176.818 219.059 176.439 219.58 175.938C220.101 175.426 220.504 174.792 220.788 174.034L224.026 174.943C223.685 176.042 223.112 177.008 222.308 177.841C221.503 178.665 220.508 179.309 219.325 179.773C218.141 180.227 216.81 180.455 215.333 180.455ZM242.364 150.909L251.001 175.398H251.342L259.978 150.909H263.671L252.989 180H249.353L238.671 150.909H242.364ZM272.137 180.511C270.754 180.511 269.5 180.251 268.373 179.73C267.246 179.2 266.351 178.438 265.688 177.443C265.025 176.439 264.694 175.227 264.694 173.807C264.694 172.557 264.94 171.544 265.433 170.767C265.925 169.981 266.583 169.366 267.407 168.92C268.231 168.475 269.14 168.144 270.134 167.926C271.138 167.699 272.147 167.519 273.16 167.386C274.486 167.216 275.56 167.088 276.384 167.003C277.218 166.908 277.824 166.752 278.202 166.534C278.591 166.316 278.785 165.937 278.785 165.398V165.284C278.785 163.883 278.401 162.794 277.634 162.017C276.877 161.241 275.726 160.852 274.183 160.852C272.582 160.852 271.327 161.203 270.418 161.903C269.509 162.604 268.87 163.352 268.501 164.148L265.319 163.011C265.887 161.686 266.645 160.653 267.592 159.915C268.548 159.167 269.59 158.646 270.717 158.352C271.853 158.049 272.97 157.898 274.069 157.898C274.77 157.898 275.575 157.983 276.484 158.153C277.402 158.314 278.288 158.651 279.14 159.162C280.002 159.673 280.717 160.445 281.285 161.477C281.853 162.509 282.137 163.892 282.137 165.625V180H278.785V177.045H278.614C278.387 177.519 278.008 178.026 277.478 178.565C276.948 179.105 276.242 179.564 275.362 179.943C274.481 180.322 273.406 180.511 272.137 180.511ZM272.648 177.5C273.974 177.5 275.092 177.24 276.001 176.719C276.919 176.198 277.611 175.526 278.075 174.702C278.548 173.878 278.785 173.011 278.785 172.102V169.034C278.643 169.205 278.33 169.361 277.847 169.503C277.374 169.635 276.825 169.754 276.2 169.858C275.584 169.953 274.983 170.038 274.396 170.114C273.818 170.18 273.349 170.237 272.989 170.284C272.118 170.398 271.304 170.582 270.546 170.838C269.798 171.084 269.192 171.458 268.728 171.96C268.273 172.453 268.046 173.125 268.046 173.977C268.046 175.142 268.477 176.023 269.339 176.619C270.21 177.206 271.313 177.5 272.648 177.5ZM291.608 150.909V180H288.256V150.909H291.608ZM297.748 180V158.182H301.1V180H297.748ZM299.452 154.545C298.799 154.545 298.236 154.323 297.762 153.878C297.298 153.433 297.066 152.898 297.066 152.273C297.066 151.648 297.298 151.113 297.762 150.668C298.236 150.223 298.799 150 299.452 150C300.106 150 300.665 150.223 301.129 150.668C301.602 151.113 301.839 151.648 301.839 152.273C301.839 152.898 301.602 153.433 301.129 153.878C300.665 154.323 300.106 154.545 299.452 154.545ZM315.479 180.455C313.661 180.455 312.055 179.995 310.663 179.077C309.271 178.149 308.182 176.842 307.396 175.156C306.61 173.461 306.217 171.458 306.217 169.148C306.217 166.856 306.61 164.867 307.396 163.182C308.182 161.496 309.276 160.194 310.678 159.276C312.079 158.357 313.698 157.898 315.536 157.898C316.956 157.898 318.078 158.134 318.902 158.608C319.735 159.072 320.37 159.602 320.805 160.199C321.25 160.786 321.596 161.269 321.842 161.648H322.126V150.909H325.479V180H322.24V176.648H321.842C321.596 177.045 321.246 177.547 320.791 178.153C320.337 178.75 319.688 179.285 318.845 179.759C318.002 180.223 316.88 180.455 315.479 180.455ZM315.933 177.443C317.278 177.443 318.414 177.093 319.342 176.392C320.27 175.682 320.976 174.702 321.459 173.452C321.942 172.192 322.183 170.739 322.183 169.091C322.183 167.462 321.946 166.037 321.473 164.815C321 163.584 320.299 162.628 319.371 161.946C318.443 161.255 317.297 160.909 315.933 160.909C314.513 160.909 313.329 161.274 312.382 162.003C311.445 162.723 310.739 163.703 310.266 164.943C309.802 166.174 309.57 167.557 309.57 169.091C309.57 170.644 309.806 172.055 310.28 173.324C310.763 174.583 311.473 175.587 312.411 176.335C313.357 177.074 314.532 177.443 315.933 177.443ZM338.504 180.511C337.122 180.511 335.867 180.251 334.74 179.73C333.613 179.2 332.718 178.438 332.055 177.443C331.393 176.439 331.061 175.227 331.061 173.807C331.061 172.557 331.307 171.544 331.8 170.767C332.292 169.981 332.95 169.366 333.774 168.92C334.598 168.475 335.507 168.144 336.501 167.926C337.505 167.699 338.514 167.519 339.527 167.386C340.853 167.216 341.928 167.088 342.751 167.003C343.585 166.908 344.191 166.752 344.57 166.534C344.958 166.316 345.152 165.937 345.152 165.398V165.284C345.152 163.883 344.768 162.794 344.001 162.017C343.244 161.241 342.093 160.852 340.55 160.852C338.949 160.852 337.695 161.203 336.786 161.903C335.876 162.604 335.237 163.352 334.868 164.148L331.686 163.011C332.254 161.686 333.012 160.653 333.959 159.915C334.915 159.167 335.957 158.646 337.084 158.352C338.22 158.049 339.338 157.898 340.436 157.898C341.137 157.898 341.942 157.983 342.851 158.153C343.769 158.314 344.655 158.651 345.507 159.162C346.369 159.673 347.084 160.445 347.652 161.477C348.22 162.509 348.504 163.892 348.504 165.625V180H345.152V177.045H344.982C344.754 177.519 344.375 178.026 343.845 178.565C343.315 179.105 342.609 179.564 341.729 179.943C340.848 180.322 339.773 180.511 338.504 180.511ZM339.016 177.5C340.341 177.5 341.459 177.24 342.368 176.719C343.286 176.198 343.978 175.526 344.442 174.702C344.915 173.878 345.152 173.011 345.152 172.102V169.034C345.01 169.205 344.697 169.361 344.214 169.503C343.741 169.635 343.192 169.754 342.567 169.858C341.951 169.953 341.35 170.038 340.763 170.114C340.185 170.18 339.716 170.237 339.357 170.284C338.485 170.398 337.671 170.582 336.913 170.838C336.165 171.084 335.559 171.458 335.095 171.96C334.641 172.453 334.413 173.125 334.413 173.977C334.413 175.142 334.844 176.023 335.706 176.619C336.577 177.206 337.68 177.5 339.016 177.5ZM364.112 158.182V161.023H352.805V158.182H364.112ZM356.1 152.955H359.452V173.75C359.452 174.697 359.59 175.407 359.864 175.881C360.148 176.345 360.508 176.657 360.944 176.818C361.389 176.97 361.858 177.045 362.35 177.045C362.719 177.045 363.022 177.027 363.259 176.989C363.496 176.941 363.685 176.903 363.827 176.875L364.509 179.886C364.282 179.972 363.965 180.057 363.558 180.142C363.15 180.237 362.634 180.284 362.009 180.284C361.062 180.284 360.134 180.08 359.225 179.673C358.326 179.266 357.577 178.646 356.981 177.812C356.394 176.979 356.1 175.928 356.1 174.659V152.955ZM369.154 180V158.182H372.506V180H369.154ZM370.859 154.545C370.205 154.545 369.642 154.323 369.168 153.878C368.704 153.433 368.472 152.898 368.472 152.273C368.472 151.648 368.704 151.113 369.168 150.668C369.642 150.223 370.205 150 370.859 150C371.512 150 372.071 150.223 372.535 150.668C373.008 151.113 373.245 151.648 373.245 152.273C373.245 152.898 373.008 153.433 372.535 153.878C372.071 154.323 371.512 154.545 370.859 154.545ZM387.51 180.455C385.54 180.455 383.812 179.986 382.325 179.048C380.848 178.111 379.693 176.799 378.859 175.114C378.036 173.428 377.624 171.458 377.624 169.205C377.624 166.932 378.036 164.948 378.859 163.253C379.693 161.558 380.848 160.241 382.325 159.304C383.812 158.366 385.54 157.898 387.51 157.898C389.48 157.898 391.203 158.366 392.68 159.304C394.167 160.241 395.322 161.558 396.146 163.253C396.98 164.948 397.396 166.932 397.396 169.205C397.396 171.458 396.98 173.428 396.146 175.114C395.322 176.799 394.167 178.111 392.68 179.048C391.203 179.986 389.48 180.455 387.51 180.455ZM387.51 177.443C389.006 177.443 390.237 177.06 391.203 176.293C392.169 175.526 392.884 174.517 393.348 173.267C393.812 172.017 394.044 170.663 394.044 169.205C394.044 167.746 393.812 166.387 393.348 165.128C392.884 163.868 392.169 162.85 391.203 162.074C390.237 161.297 389.006 160.909 387.51 160.909C386.014 160.909 384.783 161.297 383.817 162.074C382.851 162.85 382.136 163.868 381.672 165.128C381.208 166.387 380.976 167.746 380.976 169.205C380.976 170.663 381.208 172.017 381.672 173.267C382.136 174.517 382.851 175.526 383.817 176.293C384.783 177.06 386.014 177.443 387.51 177.443ZM405.866 166.875V180H402.513V158.182H405.752V161.591H406.036C406.548 160.483 407.324 159.593 408.366 158.92C409.407 158.239 410.752 157.898 412.4 157.898C413.877 157.898 415.17 158.201 416.278 158.807C417.386 159.403 418.247 160.312 418.863 161.534C419.478 162.746 419.786 164.28 419.786 166.136V180H416.434V166.364C416.434 164.65 415.989 163.314 415.099 162.358C414.209 161.392 412.987 160.909 411.434 160.909C410.364 160.909 409.407 161.141 408.565 161.605C407.731 162.069 407.073 162.746 406.59 163.636C406.107 164.527 405.866 165.606 405.866 166.875Z" fill="#2F2E41"/>
</svg>
