<svg width="866" height="683" viewBox="0 0 866 683" fill="none" xmlns="http://www.w3.org/2000/svg">
<path d="M651.44 151.74C627.597 128.19 599.974 108.804 569.72 94.3899C524.66 73.3199 475 63.1599 425.39 62.5599C280.3 60.7999 269.28 231.2 224.69 254.91C180.1 278.62 99.25 281.38 96.46 376.12C94.71 435.73 108.62 497.02 147.75 543.48C183.56 586.02 236.25 607.57 288.12 623.48C346.38 641.38 408.12 658.9 469.44 646.89C532.31 634.5 576.49 584.72 628.14 551.07C660.64 529.88 689.83 507.57 709.91 473.58C712.31 469.51 714.55 465.31 716.69 461.18C743.57 408.36 748.84 347.42 734.02 290.26C720.72 239 690.75 190.08 651.44 151.74Z" fill="#0071F2"/>
<path opacity="0.7" d="M651.44 151.74C627.597 128.19 599.974 108.804 569.72 94.3899C524.66 73.3199 475 63.1599 425.39 62.5599C280.3 60.7999 269.28 231.2 224.69 254.91C180.1 278.62 99.25 281.38 96.46 376.12C94.71 435.73 108.62 497.02 147.75 543.48C183.56 586.02 236.25 607.57 288.12 623.48C346.38 641.38 408.12 658.9 469.44 646.89C532.31 634.5 576.49 584.72 628.14 551.07C660.64 529.88 689.83 507.57 709.91 473.58C712.31 469.51 714.55 465.31 716.69 461.18C743.57 408.36 748.84 347.42 734.02 290.26C720.72 239 690.75 190.08 651.44 151.74Z" fill="white"/>
<path d="M420.79 651.91C598.035 651.91 741.72 639.441 741.72 624.06C741.72 608.679 598.035 596.21 420.79 596.21C243.545 596.21 99.86 608.679 99.86 624.06C99.86 639.441 243.545 651.91 420.79 651.91Z" fill="#0071F2"/>
<g opacity="0.5">
<path d="M420.79 651.91C598.035 651.91 741.72 639.441 741.72 624.06C741.72 608.679 598.035 596.21 420.79 596.21C243.545 596.21 99.86 608.679 99.86 624.06C99.86 639.441 243.545 651.91 420.79 651.91Z" fill="white"/>
</g>
<path d="M510.3 207.57C510.3 207.57 523.81 180.72 531.84 170.95C531.84 170.95 537.13 156.63 535.67 149.04C535.67 149 513.44 162.24 510.3 207.57Z" fill="#0071F2"/>
<path opacity="0.5" d="M510.3 207.57C510.3 207.57 523.81 180.72 531.84 170.95C531.84 170.95 537.13 156.63 535.67 149.04C535.67 149 513.44 162.24 510.3 207.57Z" fill="white"/>
<path d="M530.91 136.4C530.91 136.4 538.48 142.4 534.62 160.14C534.62 160.14 533.53 165.43 531.84 170.95C530.703 174.676 529.157 178.264 527.23 181.65C523.9 187.53 516.84 201.06 521.64 202.29C521.64 202.29 527.21 204.75 548.64 173.18C554.541 160.394 561.502 148.124 569.45 136.5C569.45 136.5 557.65 124 554.07 108.7C554.07 108.7 555.95 100.7 551.97 96.6099L546.64 106.39C546.64 106.39 550.55 131.34 530.91 136.4Z" fill="#F9B499"/>
<path d="M437.43 237.15C437.43 237.15 429.69 242.87 434.79 243.31C434.867 243.318 434.94 243.349 435 243.399C435.059 243.45 435.101 243.517 435.121 243.592C435.14 243.668 435.136 243.747 435.109 243.82C435.082 243.893 435.034 243.956 434.97 244C433.27 245.11 430.4 247.37 432.22 248.92C432.22 248.92 433.34 250.2 437.62 247.92C437.693 247.874 437.78 247.854 437.866 247.864C437.953 247.875 438.033 247.914 438.093 247.976C438.154 248.038 438.192 248.118 438.2 248.205C438.209 248.291 438.188 248.378 438.14 248.45C437.19 250.06 435.96 252.67 437.41 253.32C437.41 253.32 439.36 254.37 443.6 249.99C443.6 249.99 452.47 253.49 457.1 251.48C457.1 251.48 461.1 247.73 455.35 236.16C455.35 236.19 452.47 229.25 437.43 237.15Z" fill="#0071F2"/>
<path opacity="0.2" d="M437.43 237.15C437.43 237.15 429.69 242.87 434.79 243.31C434.867 243.318 434.94 243.349 435 243.399C435.059 243.45 435.101 243.517 435.121 243.592C435.14 243.668 435.136 243.747 435.109 243.82C435.082 243.893 435.034 243.956 434.97 244C433.27 245.11 430.4 247.37 432.22 248.92C432.22 248.92 433.34 250.2 437.62 247.92C437.693 247.874 437.78 247.854 437.866 247.864C437.953 247.875 438.033 247.914 438.093 247.976C438.154 248.038 438.192 248.118 438.2 248.205C438.209 248.291 438.188 248.378 438.14 248.45C437.19 250.06 435.96 252.67 437.41 253.32C437.41 253.32 439.36 254.37 443.6 249.99C443.6 249.99 452.47 253.49 457.1 251.48C457.1 251.48 461.1 247.73 455.35 236.16C455.35 236.19 452.47 229.25 437.43 237.15Z" fill="black"/>
<path d="M493.86 379.72H508.86C508.86 379.72 518.31 324.59 518.31 314.35C518.31 314.35 518.6 280.11 512.75 258.25L493.86 379.72Z" fill="#0071F2"/>
<path opacity="0.5" d="M493.86 379.72H508.86C508.86 379.72 518.31 324.59 518.31 314.35C518.31 314.35 518.6 280.11 512.75 258.25L493.86 379.72Z" fill="white"/>
<path d="M465.86 281.28L473.73 258.28L511.8 264.77C512.781 268.798 513.516 272.882 514 277C514.36 280 514.55 282.84 514.64 285.49L497.36 291.91L465.86 281.28Z" fill="#0071F2"/>
<path opacity="0.6" d="M465.86 281.28L473.73 258.28L511.8 264.77C512.781 268.798 513.516 272.882 514 277C514.36 280 514.55 282.84 514.64 285.49L497.36 291.91L465.86 281.28Z" fill="white"/>
<path d="M614 615.56C614 615.56 616.56 610.7 616.56 606.79L639.56 605.79C639.56 605.79 642.13 631.95 639.56 630.99C639.62 631 624 631 614 615.56Z" fill="#F9B499"/>
<path d="M506.94 616.05C508.638 612.226 509.654 608.134 509.94 603.96L532.82 606.41C532.82 606.41 535.16 632.48 532.58 631.51C532.54 631.51 515.19 634.65 506.94 616.05Z" fill="#F9B499"/>
<path d="M531.84 171C531.84 171 522.84 182 510.3 207.62C510.3 207.62 496.86 223.85 510.3 258.3C510.3 258.3 519.41 296.63 514.06 331.3L506.42 379.73C506.42 379.73 490.66 463.6 494.6 485.65C494.6 485.65 503.66 586.06 508.78 608.11C508.78 608.11 535.16 608.9 540.28 606.54C540.28 606.54 537.92 510.46 540.28 490.38C540.28 490.38 545.79 451.79 559.97 424.62C559.97 424.62 554.51 394.55 553.7 382.62L548.63 173.2C548.63 173.2 534.78 194.29 525.2 200.88C524.771 201.188 524.284 201.405 523.768 201.517C523.251 201.629 522.718 201.633 522.2 201.53C520.63 201.22 519.05 199.84 521.12 194.85C522.492 191.034 524.136 187.321 526.04 183.74C526.04 183.74 530.68 175.49 531.84 171Z" fill="#0071F2"/>
<path d="M608.8 607.93C608.8 607.93 567.06 501.55 564.86 467.87L560 424.61C560 424.61 554 393.2 553.73 382.61C553.73 382.61 603.59 384.77 621.73 382.01L615.73 462.34C614.643 479.687 616.153 497.099 620.21 514L641.87 607.91C641.87 607.91 621.46 608.67 608.8 607.93Z" fill="#0071F2"/>
<path opacity="0.2" d="M608.8 607.93C608.8 607.93 567.06 501.55 564.86 467.87L560 424.61C560 424.61 554 393.2 553.73 382.61C553.73 382.61 603.59 384.77 621.73 382.01L615.73 462.34C614.643 479.687 616.153 497.099 620.21 514L641.87 607.91C641.87 607.91 621.46 608.67 608.8 607.93Z" fill="black"/>
<path d="M355.54 488.26H345V563.07H355.54V488.26Z" fill="#A7A9AC"/>
<path d="M352.24 559.91H348.29V603.11H352.24V559.91Z" fill="#A7A9AC"/>
<path d="M298.21 620.53V612.66C298.21 610.695 298.991 608.81 300.38 607.42C301.77 606.031 303.655 605.25 305.62 605.25H395.48C397.445 605.25 399.33 606.031 400.72 607.42C402.109 608.81 402.89 610.695 402.89 612.66V620.53H407.4L407.16 611.53C407.084 608.568 405.854 605.752 403.732 603.684C401.61 601.616 398.763 600.459 395.8 600.46H304.52C303.003 600.461 301.502 600.765 300.104 601.355C298.706 601.945 297.441 602.809 296.382 603.896C295.324 604.982 294.493 606.27 293.94 607.682C293.386 609.095 293.121 610.603 293.16 612.12L293.38 620.57L298.21 620.53Z" fill="#A7A9AC"/>
<path d="M302.89 472.92H396.89C401.863 472.92 406.632 474.895 410.148 478.412C413.665 481.928 415.64 486.697 415.64 491.67V492.48H284.14V491.67C284.14 486.697 286.115 481.928 289.632 478.412C293.148 474.895 297.917 472.92 302.89 472.92Z" fill="#D1D3D4"/>
<path d="M326.41 170.72C326.41 170.72 330.58 153.83 351.95 160.32C359.913 162.758 367.016 167.412 372.43 173.74C379.43 181.95 387.1 195.61 380.63 212.12C380.63 212.12 373.86 226.27 365.23 230.82L309.31 266.34L295.53 277.51C295.53 277.51 276.99 264.2 289.53 244.17C289.53 244.17 293.27 237.23 305.15 224.17C305.15 224.17 322.09 209.61 317.54 189.01C316.824 186.005 316.906 182.864 317.78 179.9C318.401 177.802 319.505 175.879 321.004 174.284C322.503 172.69 324.354 171.469 326.41 170.72Z" fill="#2F2E41"/>
<path d="M242.7 608.46C242.661 608.456 242.625 608.439 242.597 608.412C242.569 608.386 242.55 608.351 242.543 608.313C242.536 608.274 242.542 608.235 242.56 608.2C242.577 608.166 242.605 608.137 242.64 608.12C244.64 606.93 251.29 601.56 246.4 585.9L207.73 468.77C207.73 468.77 182 413.72 236 411.68L316.25 412.23L350.31 473.1L286 472.92L263.19 608.28C261.914 607.765 260.497 607.719 259.19 608.15C259.19 608.15 255.29 610.28 251.3 616.32C251.27 616.32 246.47 609.22 242.7 608.46Z" fill="#2F2E41"/>
<path opacity="0.2" d="M242.7 608.46C242.661 608.456 242.625 608.439 242.597 608.412C242.569 608.386 242.55 608.351 242.543 608.313C242.536 608.274 242.542 608.235 242.56 608.2C242.577 608.166 242.605 608.137 242.64 608.12C244.64 606.93 251.29 601.56 246.4 585.9L207.73 468.77C207.73 468.77 182 413.72 236 411.68L316.25 412.23L350.31 473.1L286 472.92L263.19 608.28C261.914 607.765 260.497 607.719 259.19 608.15C259.19 608.15 255.29 610.28 251.3 616.32C251.27 616.32 246.47 609.22 242.7 608.46Z" fill="black"/>
<path d="M372.45 250.1C356.34 274.35 341.54 273.99 339.92 273.67C323.34 271.9 330.74 251.77 330.74 251.77C333.97 251.45 337.83 246.94 337.83 246.94V232.23L338.08 231.97C338.993 232.142 339.921 232.229 340.85 232.23C351.04 232.23 359.57 221.69 361.76 207.57C362.71 209.16 365.23 209.45 365.23 209.45V241.38C365.211 243.355 365.859 245.279 367.07 246.84C368.28 248.4 369.982 249.507 371.9 249.98C372.08 250 372.55 249.94 372.45 250.1Z" fill="#F9B499"/>
<path d="M388.1 286.84C386.4 292.12 384.57 301.22 388.66 308.84L393.48 318.01C393.48 318.01 388.89 355.85 402.43 391.17L409.35 411.72C409.441 411.989 409.477 412.274 409.457 412.557C409.437 412.84 409.361 413.117 409.234 413.371C409.107 413.624 408.93 413.851 408.715 414.036C408.5 414.221 408.25 414.362 407.98 414.45C403.81 415.79 392.67 417.94 370.32 413.64C361.897 412.361 353.377 411.825 344.86 412.04L314.36 412.27C314.36 412.27 310.69 383.83 313.21 368.47C313.21 368.47 321.7 325.12 309.77 317.1C309.77 317.1 297.57 365.02 275.03 389.5L258.13 411.87L234.13 411.72L266.34 363.09C266.34 363.09 273.75 350.85 278.58 329.91C278.58 329.91 293.39 267.43 307.89 260.02C314.714 255.435 322.568 252.614 330.75 251.81C330.75 251.81 323.35 271.94 339.93 273.71C341.55 274.03 356.35 274.39 372.46 250.14C372.46 250.14 410.69 247.14 412.07 278.57C412.07 278.57 404.15 269.64 394.66 277.2C391.575 279.7 389.293 283.053 388.1 286.84Z" fill="#0071F2"/>
<path d="M311.74 273.88C312.693 278.793 312.666 283.847 311.66 288.75C311.398 290.008 311.033 291.242 310.57 292.44C310.35 293.04 310.05 293.63 309.78 294.23C309.51 294.83 309.27 295.23 309.05 295.81C308.111 297.888 307.546 300.115 307.38 302.39C307.197 304.691 307.332 307.006 307.78 309.27C308.193 311.507 309.042 313.641 310.28 315.55C311.573 317.476 313.243 319.119 315.19 320.38C317.249 321.651 319.442 322.691 321.73 323.48C319.231 323.277 316.781 322.666 314.48 321.67C312.109 320.585 310.024 318.962 308.39 316.93C306.767 314.871 305.613 312.482 305.01 309.93C304.43 307.4 304.221 304.8 304.39 302.21C304.621 299.591 305.326 297.036 306.47 294.67C306.75 294.1 307.08 293.52 307.38 292.98C307.68 292.44 307.93 291.98 308.16 291.45C308.633 290.386 309.051 289.298 309.41 288.19C310.738 283.526 311.52 278.724 311.74 273.88Z" fill="#0071F2"/>
<path opacity="0.2" d="M311.74 273.88C312.693 278.793 312.666 283.847 311.66 288.75C311.398 290.008 311.033 291.242 310.57 292.44C310.35 293.04 310.05 293.63 309.78 294.23C309.51 294.83 309.27 295.23 309.05 295.81C308.111 297.888 307.546 300.115 307.38 302.39C307.197 304.691 307.332 307.006 307.78 309.27C308.193 311.507 309.042 313.641 310.28 315.55C311.573 317.476 313.243 319.119 315.19 320.38C317.249 321.651 319.442 322.691 321.73 323.48C319.231 323.277 316.781 322.666 314.48 321.67C312.109 320.585 310.024 318.962 308.39 316.93C306.767 314.871 305.613 312.482 305.01 309.93C304.43 307.4 304.221 304.8 304.39 302.21C304.621 299.591 305.326 297.036 306.47 294.67C306.75 294.1 307.08 293.52 307.38 292.98C307.68 292.44 307.93 291.98 308.16 291.45C308.633 290.386 309.051 289.298 309.41 288.19C310.738 283.526 311.52 278.724 311.74 273.88Z" fill="black"/>
<path d="M390.67 312.62C387.226 309.517 384.282 305.901 381.94 301.9C379.515 297.875 377.756 293.486 376.73 288.9C375.702 284.233 375.808 279.388 377.04 274.77C378.301 270.23 380.78 266.121 384.21 262.89C381.823 266.682 380.167 270.888 379.33 275.29C378.613 279.605 378.728 284.018 379.67 288.29C380.112 290.448 380.714 292.571 381.47 294.64C382.18 296.74 383.08 298.78 384 300.82C385.959 304.897 388.187 308.839 390.67 312.62Z" fill="#0071F2"/>
<path opacity="0.2" d="M390.67 312.62C387.226 309.517 384.282 305.901 381.94 301.9C379.515 297.875 377.756 293.486 376.73 288.9C375.702 284.233 375.808 279.388 377.04 274.77C378.301 270.23 380.78 266.121 384.21 262.89C381.823 266.682 380.167 270.888 379.33 275.29C378.613 279.605 378.728 284.018 379.67 288.29C380.112 290.448 380.714 292.571 381.47 294.64C382.18 296.74 383.08 298.78 384 300.82C385.959 304.897 388.187 308.839 390.67 312.62Z" fill="black"/>
<path d="M384.06 275.44C384.837 272.83 386.206 270.435 388.06 268.44C389.939 266.319 392.358 264.746 395.06 263.89C397.838 263.072 400.805 263.174 403.52 264.18C406.091 265.144 408.375 266.744 410.16 268.83C407.83 267.786 405.396 266.988 402.9 266.45C400.575 265.996 398.176 266.102 395.9 266.76C393.612 267.49 391.482 268.643 389.62 270.16C387.619 271.757 385.758 273.524 384.06 275.44Z" fill="#0071F2"/>
<path opacity="0.2" d="M384.06 275.44C384.837 272.83 386.206 270.435 388.06 268.44C389.939 266.319 392.358 264.746 395.06 263.89C397.838 263.072 400.805 263.174 403.52 264.18C406.091 265.144 408.375 266.744 410.16 268.83C407.83 267.786 405.396 266.988 402.9 266.45C400.575 265.996 398.176 266.102 395.9 266.76C393.612 267.49 391.482 268.643 389.62 270.16C387.619 271.757 385.758 273.524 384.06 275.44Z" fill="black"/>
<path d="M314.36 412.23H263.11C263.11 412.23 227 417.48 238 461.93L255.71 556.93C255.71 556.93 263.44 591.39 257.32 608.14C257.32 608.14 262.47 605.88 268.27 614.26C268.27 614.26 276.64 625.85 280.51 617.48C280.51 617.48 280.83 613.61 283.41 613.61C280.097 595.962 279.877 577.873 282.76 560.15C282.76 560.15 293.39 519.57 285.34 482.21C285.34 482.21 279.87 466.1 291.46 467.39C291.46 467.39 366.46 479.31 390.98 469.32C390.98 469.32 422.1 458.68 407.98 414.4C407.98 414.4 396.36 418.09 370.32 413.59C370.32 413.6 357.89 410.19 314.36 412.23Z" fill="#2F2E41"/>
<path d="M216.69 639.71H256.45C256.45 639.71 266.55 638.85 264.08 628.11C263.725 626.498 263.455 624.87 263.27 623.23C262.85 619.83 261.81 614.59 259.35 613.62C259.35 613.62 256.77 613.14 256.45 617.49C256.45 617.49 259.19 625.49 249.71 613.64C249.71 613.64 245.21 605.91 238.71 607.52C238.71 607.52 232 609.86 228.25 614.03C226.136 616.346 223.79 618.441 221.25 620.28C218.03 622.65 213.94 625.56 210.87 627.47C210.87 627.47 203.35 633.47 210.31 637.94C212.226 639.122 214.439 639.736 216.69 639.71Z" fill="#0071F2"/>
<path opacity="0.2" d="M216.69 639.71H256.45C256.45 639.71 266.55 638.85 264.08 628.11C263.725 626.498 263.455 624.87 263.27 623.23C262.85 619.83 261.81 614.59 259.35 613.62C259.35 613.62 256.77 613.14 256.45 617.49C256.45 617.49 259.19 625.49 249.71 613.64C249.71 613.64 245.21 605.91 238.71 607.52C238.71 607.52 232 609.86 228.25 614.03C226.136 616.346 223.79 618.441 221.25 620.28C218.03 622.65 213.94 625.56 210.87 627.47C210.87 627.47 203.35 633.47 210.31 637.94C212.226 639.122 214.439 639.736 216.69 639.71Z" fill="black"/>
<path d="M295.2 641.97C301.838 641.97 307.22 636.589 307.22 629.95C307.22 623.312 301.838 617.93 295.2 617.93C288.562 617.93 283.18 623.312 283.18 629.95C283.18 636.589 288.562 641.97 295.2 641.97Z" fill="#D1D3D4"/>
<path opacity="0.2" d="M295.2 637.14C299.171 637.14 302.39 633.921 302.39 629.95C302.39 625.979 299.171 622.76 295.2 622.76C291.229 622.76 288.01 625.979 288.01 629.95C288.01 633.921 291.229 637.14 295.2 637.14Z" fill="black"/>
<path d="M405.26 641.97C411.898 641.97 417.28 636.589 417.28 629.95C417.28 623.312 411.898 617.93 405.26 617.93C398.622 617.93 393.24 623.312 393.24 629.95C393.24 636.589 398.622 641.97 405.26 641.97Z" fill="#D1D3D4"/>
<path opacity="0.2" d="M405.26 637.14C409.231 637.14 412.45 633.921 412.45 629.95C412.45 625.979 409.231 622.76 405.26 622.76C401.289 622.76 398.07 625.979 398.07 629.95C398.07 633.921 401.289 637.14 405.26 637.14Z" fill="black"/>
<path d="M413.32 354.75L393.48 318C393.48 318 374.7 294.56 394.65 277.19C394.65 277.19 403.24 268.97 412.06 278.56L441.22 359.21C441.22 359.21 446.05 370.57 426.48 377.81L357.15 409.22C357.15 409.22 354.23 410.22 348.2 411.71L297.57 412.26C297.57 412.26 288.23 410.1 297.57 404.95C297.57 404.95 318.83 392.39 332.35 397.22C332.35 397.22 342.65 398.83 355.54 393.03L413.32 354.75Z" fill="#F9B499"/>
<path d="M337.83 231.92V240.66C337.83 240.66 360.01 243.07 360.04 214.66C360 214.65 355.92 233.06 337.83 231.92Z" fill="#F7A48B"/>
<path d="M532.546 136.006C544.253 132.695 550.033 116.889 545.456 100.701C540.878 84.5129 527.676 74.074 515.969 77.3848C504.261 80.6955 498.481 96.5022 503.058 112.69C507.636 128.878 520.838 139.317 532.546 136.006Z" fill="#F9B499"/>
<path d="M530.91 136.4C530.91 136.4 534.76 140.24 535.24 145.34C535.24 145.34 544.85 140.8 545.48 122.06C545.48 122.06 542.11 134.08 530.91 136.4Z" fill="#F7A48B"/>
<path d="M542.8 194.83C542.8 194.83 551.85 189.61 559.1 168.59C559.1 168.59 568.76 143.71 580.35 143.47" stroke="#ED1C24" stroke-miterlimit="10"/>
<path d="M403.34 319.87C403.34 319.87 401.03 324.65 421.69 323.24L420.58 319C420.58 319 409 321 403.34 319.87Z" fill="#0071F2"/>
<path opacity="0.2" d="M403.34 319.87C403.34 319.87 401.03 324.65 421.69 323.24L420.58 319C420.58 319 409 321 403.34 319.87Z" fill="black"/>
<path d="M445.574 238.958L440.326 239.999L441.687 246.865L446.934 245.825L445.574 238.958Z" fill="#D1D3D4"/>
<path d="M432.98 186.19L432.48 188.25L435.52 203.59L436.39 203.42L432.98 186.19Z" fill="#D1D3D4"/>
<path d="M436.39 203.42L435.52 203.59L432.89 204.12L433.5 207.19L439.63 205.97L439.03 202.9L436.39 203.42Z" fill="#2F2E41"/>
<path opacity="0.2" d="M436.39 203.42L435.52 203.59L432.89 204.12L433.5 207.19L439.63 205.97L439.03 202.9L436.39 203.42Z" fill="black"/>
<path d="M431.97 207.49L432.19 208.63L434.72 208.13L434.77 208.41L432.25 208.91L432.55 210.41L435.07 209.91L435.13 210.19L432.6 210.69L432.9 212.19L435.43 211.69L435.48 211.97L432.95 212.47L433.25 213.97L435.78 213.47L435.83 213.75L433.31 214.25L433.6 215.75L436.13 215.25L436.18 215.53L433.66 216.03L433.96 217.53L436.48 217.03L436.54 217.31L434.01 217.81L434.31 219.31L436.83 218.81L436.89 219.09L434.36 219.59L434.66 221.09L437.19 220.59L437.24 220.87L434.72 221.37L435.01 222.87L437.54 222.37L437.6 222.65L435.07 223.15L435.37 224.65L437.89 224.15L437.95 224.43L435.42 224.93L435.72 226.43L438.25 225.93L438.3 226.21L435.77 226.71L436.07 228.21L438.6 227.71L438.65 227.98L436.13 228.49L436.83 232.03L446.03 230.21L441.16 205.67L439.63 205.97L433.5 207.19L431.97 207.49Z" fill="#2F2E41"/>
<path d="M436.83 232.03L438.19 238.9L447.39 237.08L446.03 230.21L436.83 232.03Z" fill="#D1D3D4"/>
<path d="M434.77 208.41L434.72 208.13L432.19 208.63L432.06 208.66L432.11 208.94L432.25 208.91L434.77 208.41Z" fill="white"/>
<path d="M435.07 209.91L432.55 210.41L432.41 210.44L432.46 210.72L432.6 210.69L435.13 210.19L435.07 209.91Z" fill="white"/>
<path d="M435.43 211.69L432.9 212.19L432.76 212.22L432.82 212.5L432.95 212.47L435.48 211.97L435.43 211.69Z" fill="white"/>
<path d="M435.78 213.47L433.25 213.97L433.11 214L433.17 214.28L433.31 214.25L435.83 213.75L435.78 213.47Z" fill="white"/>
<path d="M436.13 215.25L433.6 215.75L433.47 215.78L433.52 216.05L433.66 216.03L436.18 215.53L436.13 215.25Z" fill="white"/>
<path d="M436.48 217.03L433.96 217.53L433.82 217.56L433.87 217.83L434.01 217.81L436.54 217.31L436.48 217.03Z" fill="white"/>
<path d="M436.83 218.81L434.31 219.31L434.17 219.34L434.23 219.61L434.36 219.59L436.89 219.09L436.83 218.81Z" fill="white"/>
<path d="M437.19 220.59L434.66 221.09L434.52 221.12L434.58 221.39L434.72 221.37L437.24 220.87L437.19 220.59Z" fill="white"/>
<path d="M437.54 222.37L435.01 222.87L434.88 222.9L434.93 223.17L435.07 223.15L437.6 222.65L437.54 222.37Z" fill="white"/>
<path d="M437.89 224.15L435.37 224.65L435.23 224.68L435.28 224.95L435.42 224.93L437.95 224.43L437.89 224.15Z" fill="white"/>
<path d="M438.25 225.93L435.72 226.43L435.58 226.46L435.64 226.73L435.77 226.71L438.3 226.21L438.25 225.93Z" fill="white"/>
<path d="M438.6 227.71L436.07 228.21L435.94 228.24L435.99 228.51L436.13 228.49L438.65 227.98L438.6 227.71Z" fill="white"/>
<path d="M435.39 241L440.32 240.03L445.57 238.99L450.78 237.96L450.51 236.59L435.12 239.64L435.39 241Z" fill="#BCBEC0"/>
<path d="M438.88 247.45L439.15 248.84L449.42 246.81L449.14 245.42L446.93 245.86L441.68 246.9L438.88 247.45Z" fill="#BCBEC0"/>
<path d="M240.74 639.71H280.5C280.5 639.71 290.6 638.85 288.13 628.11C287.775 626.498 287.505 624.869 287.32 623.23C286.9 619.83 285.86 614.59 283.4 613.62C283.4 613.62 280.82 613.14 280.5 617.49C280.5 617.49 277.73 626.11 268.26 614.27C268.26 614.27 263.75 606.54 257.31 608.15C254.088 610.232 251.388 613.027 249.42 616.32C249.42 616.32 240.88 623.77 234.93 627.47C234.93 627.47 227.4 633.47 234.37 637.94C236.283 639.12 238.492 639.734 240.74 639.71Z" fill="#0071F2"/>
<path d="M362.31 200.41C362.312 202.807 362.128 205.201 361.76 207.57C359.57 221.69 351.04 232.23 340.85 232.23C339.921 232.229 338.993 232.142 338.08 231.97C327.54 229.97 319.39 216.59 319.39 200.41C319.39 182.84 328.99 168.59 340.85 168.59C352.71 168.59 362.31 182.84 362.31 200.41Z" fill="#F9B499"/>
<path d="M377.44 200.41L363.54 176.59L336.54 163.24L322.11 178.59C319.414 184.284 318.504 190.66 319.5 196.88C320.5 187.05 322.5 183.3 324.27 181.76C324.62 181.45 328.01 178.59 328.01 178.59C328.01 178.59 337.85 197.82 360.01 199.18C360.01 199.18 364.08 193.11 366.49 195.05C366.49 195.05 371.49 197 370.22 204.05C370.22 204.05 369.11 208.98 365.22 209.45V214.65C365.22 214.65 374 213.07 377.44 200.41Z" fill="#2F2E41"/>
<path d="M365.23 209.45C368.096 209.45 370.42 206.177 370.42 202.14C370.42 198.103 368.096 194.83 365.23 194.83C362.364 194.83 360.04 198.103 360.04 202.14C360.04 206.177 362.364 209.45 365.23 209.45Z" fill="#F9B499"/>
<path d="M541.55 275.44C541.55 275.44 532.03 220.59 548.63 173.18C548.63 173.18 566.63 127.08 576.01 133.7C576.01 133.7 578.42 134.53 580.35 143.47C580.35 143.47 616.1 172.22 610.79 230.19C610.79 230.19 606.93 278.02 616.1 301.69C616.1 301.69 632.62 353.85 631.85 377.77C631.822 378.769 631.427 379.723 630.741 380.449C630.055 381.176 629.126 381.625 628.13 381.71C614.4 382.89 563.43 386.8 546.54 381.41L541.55 275.44Z" fill="#0071F2"/>
<path opacity="0.5" d="M541.55 275.44C541.55 275.44 532.03 220.59 548.63 173.18C548.63 173.18 566.63 127.08 576.01 133.7C576.01 133.7 578.42 134.53 580.35 143.47C580.35 143.47 616.1 172.22 610.79 230.19C610.79 230.19 606.93 278.02 616.1 301.69C616.1 301.69 632.62 353.85 631.85 377.77C631.822 378.769 631.427 379.723 630.741 380.449C630.055 381.176 629.126 381.625 628.13 381.71C614.4 382.89 563.43 386.8 546.54 381.41L541.55 275.44Z" fill="white"/>
<path opacity="0.1" d="M542.8 309.43L543.6 318.98C543.6 318.98 589.5 320.61 594.22 287.75C594.22 287.75 609.82 226.39 601.83 214.65C601.83 214.65 598.02 244.42 587.92 266.32C587.92 266.32 580.35 295.66 561.58 302.54L542.8 309.43Z" fill="black"/>
<path d="M563.12 189C570.78 171.63 580.23 169.78 587.43 171.85C590.72 172.843 593.689 174.688 596.036 177.197C598.384 179.707 600.027 182.792 600.8 186.14C608.62 218.23 587.92 266.37 587.92 266.37C578.47 297.47 561.58 302.59 561.58 302.59C545.86 310.47 465.07 331.34 465.07 331.34L458 306.48L541.57 275.48C541.57 275.48 550.14 270.29 550.57 256.12C550.52 256.08 556.42 204.11 563.12 189Z" fill="#0071F2"/>
<path opacity="0.5" d="M563.12 189C570.78 171.63 580.23 169.78 587.43 171.85C590.72 172.843 593.689 174.688 596.036 177.197C598.384 179.707 600.027 182.792 600.8 186.14C608.62 218.23 587.92 266.37 587.92 266.37C578.47 297.47 561.58 302.59 561.58 302.59C545.86 310.47 465.07 331.34 465.07 331.34L458 306.48L541.57 275.48C541.57 275.48 550.14 270.29 550.57 256.12C550.52 256.08 556.42 204.11 563.12 189Z" fill="white"/>
<path d="M614 615.56C614 615.56 611.59 608.47 605.47 613.79C605.47 613.79 591.62 623.29 580.34 626.02C580.34 626.02 571.81 628.44 575.03 635.85C575.03 635.85 576.48 639.55 583.73 639.85H639.8C640.478 639.852 641.148 639.712 641.768 639.438C642.388 639.164 642.944 638.763 643.398 638.26C643.853 637.757 644.197 637.164 644.407 636.52C644.618 635.876 644.69 635.194 644.62 634.52C644.615 634.474 644.615 634.427 644.62 634.38C644.62 634.38 643.49 630.19 639.62 631C634.421 630.683 629.376 629.113 624.915 626.425C620.454 623.736 616.709 620.009 614 615.56Z" fill="#0071F2"/>
<path d="M506.94 616.05C506.94 616.05 504.52 608.97 498.4 614.28C498.4 614.28 484.55 623.78 473.28 626.52C473.28 626.52 464.75 628.94 467.97 636.34C467.97 636.34 469.42 640.05 476.66 640.34H532.74C533.418 640.343 534.09 640.202 534.71 639.927C535.33 639.652 535.885 639.25 536.339 638.746C536.793 638.242 537.136 637.648 537.345 637.002C537.553 636.357 537.623 635.674 537.55 635C537.55 635 537.55 634.91 537.55 634.86C537.55 634.81 536.42 630.68 532.55 631.48C527.354 631.163 522.311 629.594 517.851 626.908C513.392 624.221 509.649 620.496 506.94 616.05Z" fill="#0071F2"/>
<path d="M468.39 273.88C468.39 273.88 454.73 275.54 451.7 262.33C451.371 260.868 450.591 259.546 449.47 258.55C446.16 255.66 439.64 249.4 440.47 245.64C440.47 245.64 440.28 242.55 449.34 248.53C449.34 248.53 455.13 253.74 456.86 248.14C456.86 248.14 457.86 245.45 454.37 241.4C454.075 240.796 453.741 240.211 453.37 239.65C452.354 238.159 450.819 237.099 449.064 236.68C447.309 236.26 445.461 236.51 443.88 237.38C441.64 238.57 438.74 239.47 437.42 237.15C437.42 237.15 436.7 234.1 444.6 231.01C444.6 231.01 449.6 226.93 453.6 230.6L463.85 241C463.85 241 467.51 244.28 468.39 253C468.39 253 470.02 259.36 473.3 259.55L468.39 273.88Z" fill="#0071F2"/>
<path d="M420.58 319C420.58 319 405.4 321.7 401.43 319.19C401.244 319.059 401.093 318.885 400.988 318.683C400.884 318.481 400.829 318.257 400.829 318.03C400.829 317.803 400.884 317.579 400.988 317.377C401.093 317.175 401.244 317.001 401.43 316.87C403.43 315.4 409.43 312.27 427.48 308.78C428.88 308.51 432.77 306.4 443.87 307.2L458.5 308.2L463.68 326.35C463.68 326.35 452.68 335.89 438.84 329.57C438.616 329.423 438.342 329.371 438.08 329.425C437.817 329.479 437.587 329.636 437.44 329.86C437.293 330.084 437.241 330.358 437.295 330.62C437.349 330.883 437.506 331.113 437.73 331.26L437.82 331.34C438.072 331.536 438.271 331.791 438.4 332.082C438.529 332.373 438.584 332.692 438.56 333.01C438.46 333.92 437.68 334.84 434.48 334.09C434.48 334.09 431.26 338.26 426.11 333.09C426.08 333.09 423 329.51 420.58 319Z" fill="#0071F2"/>
<path d="M498.37 77.1898C490.77 93.5998 501.57 103.96 501.57 103.96C500.89 94.1598 504.17 88.3998 504.17 88.3998C504.17 88.3998 523.17 104.97 539.92 95.2598L552 96.6098C552 96.6098 555.65 105.11 550.56 109.93C550.56 109.93 567.44 107.25 564.76 82.3298C564.76 82.3298 579.24 86.0798 583.53 67.8598C583.53 67.8598 587.38 54.6898 571.53 44.4398C567.861 42.016 563.656 40.5229 559.28 40.0898C552.16 39.4698 542.62 41.6898 542.28 57.9398C542.28 57.9398 528.15 51.8798 511.28 62.7598C505.695 66.2479 501.217 71.2526 498.37 77.1898Z" fill="#2F2E41"/>
<path d="M548.318 106.217C551.57 105.297 553.198 100.985 551.954 96.5842C550.71 92.1838 547.064 89.3622 543.812 90.2819C540.559 91.2017 538.931 95.5145 540.176 99.9148C541.42 104.315 545.065 107.137 548.318 106.217Z" fill="#F9B499"/>
<path d="M754.34 545.39C754.245 545.39 754.152 545.371 754.064 545.335C753.977 545.299 753.898 545.246 753.831 545.179C753.764 545.112 753.711 545.033 753.675 544.945C753.639 544.858 753.62 544.764 753.62 544.67C753.87 517.04 745.01 411.92 723.62 380.67C723.513 380.512 723.472 380.318 723.508 380.13C723.544 379.943 723.652 379.777 723.81 379.67C723.968 379.566 724.16 379.528 724.346 379.561C724.532 379.594 724.698 379.698 724.81 379.85C746.67 411.85 755.21 515.94 755.02 544.64C755.026 544.828 754.958 545.012 754.831 545.152C754.704 545.292 754.528 545.377 754.34 545.39Z" fill="#0071F2"/>
<path d="M762.1 537.75H746.59C734.32 571.32 739.59 643.51 746.59 643.51H762.1C769.09 643.51 774.36 571.32 762.1 537.75Z" fill="#2F2E41"/>
<path d="M729.81 394.42C733.1 396.74 733.5 399.36 732.17 401.22C730.84 403.08 728.3 403.69 724.96 401.37C721.62 399.05 719.14 392.16 719.14 392.16C719.14 392.16 726.47 392.1 729.81 394.42Z" fill="#0071F2"/>
<path d="M749.57 425.7C748.47 429.62 746.16 430.79 743.9 430.14C741.64 429.49 740.3 427.3 741.4 423.39C742.5 419.48 748.22 414.92 748.22 414.92C748.22 414.92 750.67 421.8 749.57 425.7Z" fill="#0071F2"/>
<path d="M744.18 451.76C746.97 454.71 746.8 457.29 745.11 458.89C743.42 460.49 740.83 460.54 738.03 457.59C735.23 454.64 734.21 447.38 734.21 447.38C734.21 447.38 741.39 448.81 744.18 451.76Z" fill="#0071F2"/>
<path d="M760.11 498.55C758.46 502.29 756.11 503.16 753.91 502.24C751.71 501.32 750.72 498.95 752.27 495.24C753.82 491.53 760.2 487.68 760.2 487.68C760.2 487.68 761.7 494.83 760.11 498.55Z" fill="#0071F2"/>
<path d="M718.29 372.49C715.6 369.95 721.58 362.61 725.71 362.79C727.85 362.92 727.36 365.95 727.49 368.47C727.62 370.99 727.19 373.31 723.85 373.94C720.51 374.57 719.57 373.76 718.29 372.49Z" fill="#0071F2"/>
<path opacity="0.2" d="M718.29 372.49C715.6 369.95 721.58 362.61 725.71 362.79C727.85 362.92 727.36 365.95 727.49 368.47C727.62 370.99 727.19 373.31 723.85 373.94C720.51 374.57 719.57 373.76 718.29 372.49Z" fill="black"/>
<path d="M724.77 369.43C724.53 365.74 714.9 365.67 712.57 368.96C711.31 370.71 715.34 371.09 716.57 373.31C717.8 375.53 719.75 376.82 722.36 374.64C724.97 372.46 724.89 371.19 724.77 369.43Z" fill="#0071F2"/>
<path d="M727.74 372.24C727.41 367.3 714.81 367.3 711.64 371.63C709.99 373.92 713.43 376.01 715.92 378.22C718.41 380.43 721.09 381.99 724.54 379.12C727.99 376.25 727.89 374.56 727.74 372.24Z" fill="#407BFF"/>
<path opacity="0.2" d="M727.74 372.24C727.41 367.3 714.81 367.3 711.64 371.63C709.99 373.92 713.43 376.01 715.92 378.22C718.41 380.43 721.09 381.99 724.54 379.12C727.99 376.25 727.89 374.56 727.74 372.24Z" fill="black"/>
<path d="M719.18 376.27C715.64 372.98 723.59 363.1 729.05 363.48C731.87 363.65 728.89 368.08 730.11 371.17C731.33 374.26 731.01 377.36 726.6 378.17C722.19 378.98 720.87 377.86 719.18 376.27Z" fill="#407BFF"/>
<path d="M727.74 372.24C727.41 367.3 714.81 367.3 711.64 371.63C709.99 373.92 713.43 376.01 715.92 378.22C718.41 380.43 721.09 381.99 724.54 379.12C727.99 376.25 727.89 374.56 727.74 372.24Z" fill="#0071F2"/>
<path opacity="0.2" d="M727.74 372.24C727.41 367.3 714.81 367.3 711.64 371.63C709.99 373.92 713.43 376.01 715.92 378.22C718.41 380.43 721.09 381.99 724.54 379.12C727.99 376.25 727.89 374.56 727.74 372.24Z" fill="black"/>
<path d="M719.18 376.27C715.64 372.98 723.59 363.1 729.05 363.48C731.87 363.65 728.89 368.08 730.11 371.17C731.33 374.26 731.01 377.36 726.6 378.17C722.19 378.98 720.87 377.86 719.18 376.27Z" fill="#0071F2"/>
<path d="M720.1 381.84C716.02 377.99 725.17 366.74 731.36 367.12C734.65 367.32 733.93 371.91 734.06 375.75C734.19 379.59 733.61 383.09 728.54 383.98C723.47 384.87 722 383.63 720.1 381.84Z" fill="#0071F2"/>
<path opacity="0.2" d="M720.1 381.84C716.02 377.99 725.17 366.74 731.36 367.12C734.65 367.32 733.93 371.91 734.06 375.75C734.19 379.59 733.61 383.09 728.54 383.98C723.47 384.87 722 383.63 720.1 381.84Z" fill="black"/>
<path d="M729.93 377.21C729.56 371.62 715.11 371.5 711.41 376.51C709.5 379.14 715.6 379.8 717.41 383.09C719.22 386.38 722.25 388.43 726.22 385.09C730.19 381.75 730.11 379.86 729.93 377.21Z" fill="#0071F2"/>
<path d="M432.3 119.65C432.54 120.33 433.11 121.42 433.72 121.42C434.64 121.42 435.39 120.08 435.39 118.42C435.39 116.76 434.64 115.42 433.72 115.42C433.17 115.42 432.62 116.42 432.37 116.95L426.16 116.77C425.95 112.849 424.929 109.015 423.16 105.51L431.35 100.46C431.95 100.99 433.1 101.71 433.67 101.37C434.55 100.86 434.53 99.1797 433.62 97.5997C432.71 96.0197 431.26 95.1597 430.38 95.6697C429.86 95.9697 429.86 97.1798 429.94 97.8698L421.42 102.46C419.243 99.1943 416.426 96.4047 413.14 94.2598L416.05 88.8698C416.76 89.0098 417.99 89.0597 418.29 88.5297C418.75 87.7297 417.97 86.4097 416.54 85.5897C415.11 84.7697 413.54 84.7397 413.11 85.5897C412.83 86.0597 413.38 87.0197 413.76 87.5197L410.58 92.7598C407.078 91.0005 403.253 89.9794 399.34 89.7598L399.06 80.1397C399.82 79.8797 401.01 79.2498 401.01 78.5798C401.01 77.5798 399.54 76.7397 397.72 76.7397C395.9 76.7397 394.42 77.5598 394.42 78.5798C394.42 79.1798 395.47 79.7897 396.11 80.0597L395.83 89.7598C391.917 89.9794 388.092 91.0005 384.59 92.7598L381.37 87.5397C381.85 86.9997 382.5 85.9597 382.2 85.4297C381.74 84.6297 380.2 84.6497 378.77 85.4297C377.34 86.2097 376.55 87.5698 377.02 88.3698C377.29 88.8498 378.39 88.8497 379.02 88.7697L382.02 94.2197C378.736 96.3675 375.919 99.1566 373.74 102.42L365.29 97.8698C365.44 97.0898 365.49 95.7397 364.91 95.3997C364.03 94.8897 362.58 95.7598 361.67 97.3298C360.76 98.8998 360.74 100.6 361.62 101.11C362.14 101.41 363.19 100.8 363.74 100.38L372 105.47C370.231 108.975 369.21 112.809 369 116.73L362.86 116.91C362.62 116.23 362.05 115.14 361.44 115.14C360.52 115.14 359.77 116.48 359.77 118.14C359.77 119.8 360.52 121.14 361.44 121.14C361.99 121.14 362.54 120.14 362.79 119.61L369 119.79C369.209 123.71 370.23 127.545 372 131.05L363.81 136.05C363.21 135.53 362.07 134.81 361.49 135.15C360.61 135.65 360.63 137.34 361.54 138.92C362.45 140.5 363.9 141.36 364.78 140.85C365.3 140.55 365.3 139.34 365.22 138.65L373.74 134.05C375.911 137.323 378.729 140.117 382.02 142.26L379.11 147.64C378.4 147.5 377.17 147.46 376.87 147.98C376.41 148.79 377.19 150.11 378.62 150.98C380.05 151.85 381.62 151.83 382.05 150.98C382.33 150.5 381.78 149.55 381.4 149.05L384.65 143.77C388.15 145.533 391.977 146.554 395.89 146.77L396.17 156.39C395.41 156.65 394.22 157.28 394.22 157.95C394.22 158.95 395.7 159.79 397.51 159.79C399.32 159.79 400.81 158.97 400.81 157.95C400.81 157.35 399.76 156.74 399.12 156.47L399.4 146.77C403.293 146.55 407.099 145.529 410.58 143.77L413.8 148.99C413.32 149.53 412.67 150.57 412.97 151.1C413.43 151.9 414.97 151.88 416.4 151.05C417.83 150.22 418.62 148.91 418.15 148.1C417.88 147.63 416.78 147.63 416.15 147.71L413.2 142.25C416.495 140.116 419.314 137.324 421.48 134.05L429.93 138.61C429.78 139.39 429.73 140.74 430.31 141.08C431.19 141.59 432.64 140.72 433.55 139.15C434.46 137.58 434.48 135.88 433.6 135.37C433.08 135.07 432.03 135.68 431.48 136.09L423.22 131.01C424.99 127.501 426.011 123.664 426.22 119.74L432.3 119.65Z" stroke="#787878" stroke-linecap="round" stroke-linejoin="round"/>
<path d="M399.79 96.4C399.828 96.9924 399.69 97.5829 399.393 98.0968C399.096 98.6106 398.652 99.0247 398.12 99.2865C397.587 99.5484 396.988 99.6463 396.4 99.5679C395.811 99.4894 395.259 99.2381 394.814 98.8457C394.368 98.4534 394.049 97.9377 393.897 97.3639C393.744 96.7901 393.766 96.184 393.958 95.6223C394.15 95.0606 394.505 94.5687 394.977 94.2087C395.449 93.8487 396.017 93.6368 396.61 93.6H396.79C397.556 93.5729 398.301 93.8501 398.864 94.371C399.426 94.8919 399.759 95.6142 399.79 96.38V96.4Z" stroke="#787878" stroke-linecap="round" stroke-linejoin="round"/>
<path d="M382 119.15C382.038 119.742 381.9 120.333 381.603 120.847C381.306 121.361 380.862 121.775 380.33 122.037C379.797 122.298 379.198 122.396 378.61 122.318C378.021 122.239 377.469 121.988 377.024 121.596C376.578 121.203 376.259 120.688 376.107 120.114C375.954 119.54 375.976 118.934 376.168 118.372C376.36 117.811 376.715 117.319 377.187 116.959C377.659 116.599 378.227 116.387 378.82 116.35H379C379.378 116.341 379.755 116.406 380.108 116.542C380.461 116.678 380.783 116.883 381.057 117.144C381.331 117.405 381.551 117.717 381.704 118.063C381.857 118.409 381.941 118.782 381.95 119.16L382 119.15Z" stroke="#787878" stroke-linecap="round" stroke-linejoin="round"/>
<path d="M395.17 111.84C395.201 112.432 395.055 113.019 394.752 113.528C394.449 114.038 394.003 114.446 393.468 114.701C392.933 114.957 392.335 115.049 391.749 114.964C391.162 114.88 390.613 114.625 390.172 114.229C389.731 113.834 389.416 113.317 389.269 112.743C389.121 112.169 389.146 111.564 389.342 111.005C389.538 110.446 389.894 109.957 390.367 109.6C390.84 109.243 391.408 109.034 392 109H392.18C392.946 108.973 393.691 109.25 394.254 109.771C394.816 110.292 395.149 111.014 395.18 111.78L395.17 111.84Z" stroke="#787878" stroke-linecap="round" stroke-linejoin="round"/>
<path d="M388.28 136.3C388.318 136.892 388.18 137.483 387.883 137.997C387.586 138.511 387.142 138.925 386.61 139.186C386.077 139.448 385.478 139.546 384.89 139.468C384.301 139.389 383.749 139.138 383.304 138.746C382.858 138.353 382.539 137.838 382.387 137.264C382.234 136.69 382.256 136.084 382.448 135.522C382.64 134.961 382.995 134.469 383.467 134.109C383.939 133.749 384.507 133.537 385.1 133.5H385.28C386.046 133.473 386.791 133.75 387.354 134.271C387.916 134.792 388.249 135.514 388.28 136.28V136.3Z" stroke="#787878" stroke-linecap="round" stroke-linejoin="round"/>
<path d="M420.47 124.49C420.508 125.082 420.37 125.673 420.073 126.187C419.775 126.701 419.332 127.115 418.8 127.377C418.267 127.638 417.668 127.736 417.08 127.658C416.491 127.579 415.939 127.328 415.494 126.936C415.048 126.543 414.729 126.028 414.577 125.454C414.424 124.88 414.446 124.274 414.638 123.712C414.83 123.151 415.185 122.659 415.657 122.299C416.129 121.939 416.697 121.727 417.29 121.69H417.52C417.902 121.674 418.284 121.734 418.643 121.867C419.002 122.001 419.33 122.204 419.61 122.466C419.889 122.727 420.113 123.042 420.27 123.391C420.426 123.74 420.511 124.117 420.52 124.5L420.47 124.49Z" stroke="#787878" stroke-linecap="round" stroke-linejoin="round"/>
<path d="M399.34 128.33C399.378 128.923 399.24 129.513 398.943 130.027C398.646 130.541 398.202 130.955 397.67 131.217C397.137 131.479 396.538 131.577 395.95 131.498C395.361 131.42 394.809 131.168 394.364 130.776C393.918 130.384 393.599 129.868 393.447 129.294C393.294 128.72 393.316 128.114 393.508 127.553C393.7 126.991 394.055 126.499 394.527 126.139C394.999 125.779 395.567 125.567 396.16 125.53H396.39C396.768 125.521 397.145 125.586 397.498 125.722C397.851 125.859 398.173 126.063 398.447 126.324C398.721 126.585 398.941 126.897 399.094 127.243C399.247 127.589 399.331 127.962 399.34 128.34V128.33Z" stroke="#787878" stroke-linecap="round" stroke-linejoin="round"/>
<path d="M408.9 117.09C408.936 117.682 408.796 118.272 408.498 118.785C408.199 119.297 407.755 119.71 407.222 119.97C406.689 120.231 406.091 120.327 405.503 120.247C404.915 120.168 404.364 119.915 403.919 119.522C403.475 119.13 403.156 118.614 403.005 118.04C402.854 117.467 402.876 116.861 403.068 116.3C403.261 115.739 403.616 115.247 404.088 114.888C404.56 114.528 405.128 114.317 405.72 114.28H406C406.378 114.271 406.755 114.336 407.108 114.472C407.461 114.609 407.783 114.813 408.057 115.074C408.331 115.335 408.551 115.647 408.704 115.993C408.857 116.339 408.941 116.712 408.95 117.09H408.9Z" stroke="#787878" stroke-linecap="round" stroke-linejoin="round"/>
<path d="M416 104C416.036 104.592 415.896 105.182 415.598 105.694C415.299 106.207 414.855 106.62 414.322 106.88C413.789 107.14 413.191 107.237 412.603 107.157C412.015 107.077 411.464 106.825 411.019 106.432C410.575 106.039 410.256 105.524 410.105 104.95C409.954 104.376 409.976 103.771 410.168 103.21C410.361 102.649 410.716 102.157 411.188 101.798C411.66 101.438 412.228 101.227 412.82 101.19H413.05C413.432 101.174 413.814 101.234 414.173 101.367C414.532 101.501 414.86 101.704 415.14 101.966C415.419 102.227 415.643 102.542 415.8 102.891C415.956 103.24 416.041 103.617 416.05 104H416Z" stroke="#787878" stroke-linecap="round" stroke-linejoin="round"/>
<path d="M409.22 137.71C409.256 138.3 409.116 138.888 408.819 139.399C408.522 139.911 408.08 140.323 407.549 140.584C407.018 140.845 406.422 140.943 405.836 140.866C405.249 140.789 404.699 140.541 404.253 140.152C403.807 139.763 403.487 139.251 403.331 138.68C403.175 138.11 403.192 137.506 403.379 136.945C403.566 136.383 403.914 135.89 404.38 135.526C404.847 135.162 405.41 134.944 406 134.9H406.23C406.612 134.884 406.994 134.944 407.353 135.077C407.712 135.211 408.04 135.414 408.32 135.676C408.599 135.937 408.823 136.252 408.98 136.601C409.136 136.95 409.221 137.327 409.23 137.71H409.22Z" stroke="#787878" stroke-linecap="round" stroke-linejoin="round"/>
<path d="M385 101.4C385.038 101.993 384.9 102.583 384.603 103.097C384.306 103.611 383.862 104.025 383.33 104.287C382.797 104.549 382.198 104.647 381.61 104.568C381.021 104.49 380.469 104.238 380.024 103.846C379.578 103.454 379.259 102.938 379.107 102.364C378.954 101.79 378.976 101.184 379.168 100.623C379.36 100.061 379.715 99.5689 380.187 99.2089C380.659 98.8489 381.227 98.6371 381.82 98.6002H382.05C382.432 98.5841 382.814 98.6445 383.173 98.7776C383.532 98.9108 383.86 99.1141 384.14 99.3757C384.419 99.6373 384.643 99.952 384.8 100.301C384.956 100.651 385.041 101.028 385.05 101.41L385 101.4Z" stroke="#787878" stroke-linecap="round" stroke-linejoin="round"/>
<path d="M695.41 210.58C695.52 210.9 695.78 211.4 696.06 211.4C696.49 211.4 696.84 210.78 696.84 210.02C696.84 209.26 696.49 208.63 696.06 208.63C695.81 208.63 695.56 209.07 695.44 209.34L692.58 209.26C692.488 207.45 692.022 205.68 691.21 204.06L694.99 201.74C695.27 201.98 695.79 202.31 696.06 202.16C696.33 202.01 696.46 201.16 696.06 200.42C695.66 199.68 694.97 199.29 694.56 199.53C694.32 199.66 694.32 200.22 694.36 200.53L690.43 202.65C689.432 201.139 688.131 199.852 686.61 198.87L687.95 196.38C688.28 196.45 688.85 196.47 688.95 196.22C688.961 195.939 688.891 195.661 688.747 195.42C688.603 195.178 688.392 194.984 688.14 194.86C687.48 194.5 686.77 194.47 686.55 194.86C686.43 195.08 686.68 195.52 686.86 195.75L685.36 198.19C683.745 197.369 681.978 196.889 680.17 196.78L680.04 192.34C680.39 192.22 680.94 191.93 680.94 191.63C680.94 191.16 680.26 190.78 679.42 190.78C678.58 190.78 677.91 191.16 677.91 191.63C677.91 191.9 678.39 192.18 678.68 192.31L678.55 196.78C676.745 196.89 674.982 197.37 673.37 198.19L671.89 195.78C672.11 195.53 672.41 195.05 672.27 194.78C672.13 194.51 671.35 194.42 670.68 194.78C670.01 195.14 669.68 195.78 669.88 196.14C670.08 196.5 670.51 196.36 670.8 196.32L672.15 198.84C670.637 199.828 669.34 201.114 668.34 202.62L664.44 200.52C664.51 200.16 664.53 199.52 664.27 199.38C664.01 199.24 663.19 199.54 662.77 200.27C662.35 201 662.34 201.78 662.77 202.01C663.01 202.15 663.49 201.87 663.77 201.68L667.57 204.03C666.766 205.648 666.303 207.415 666.21 209.22L663.38 209.3C663.27 208.98 663 208.48 662.72 208.48C662.44 208.48 661.95 209.1 661.95 209.87C661.95 210.64 662.3 211.25 662.72 211.25C662.98 211.25 663.23 210.81 663.34 210.54L666.21 210.62C666.308 212.427 666.77 214.196 667.57 215.82L663.8 218.14C663.52 217.9 662.99 217.57 662.73 217.72C662.47 217.87 662.33 218.72 662.73 219.47C663.13 220.22 663.82 220.59 664.23 220.36C664.47 220.22 664.47 219.66 664.43 219.36L668.36 217.24C669.36 218.745 670.657 220.031 672.17 221.02L670.83 223.51C670.51 223.45 669.94 223.42 669.83 223.67C669.816 223.951 669.886 224.23 670.03 224.472C670.174 224.714 670.386 224.908 670.64 225.03C671.3 225.39 672.01 225.42 672.22 225.03C672.35 224.81 672.09 224.37 671.92 224.14L673.42 221.7C675.032 222.519 676.795 222.999 678.6 223.11L678.73 227.55C678.38 227.67 677.83 227.96 677.83 228.26C677.83 228.73 678.51 229.12 679.35 229.12C680.19 229.12 680.87 228.73 680.87 228.26C680.87 227.99 680.39 227.71 680.09 227.58L680.22 223.11C682.028 223.001 683.795 222.521 685.41 221.7L686.89 224.11C686.67 224.36 686.37 224.84 686.51 225.11C686.65 225.38 687.43 225.47 688.09 225.11C688.75 224.75 689.09 224.11 688.9 223.75C688.71 223.39 688.27 223.53 687.98 223.57L686.59 221C688.111 220.017 689.412 218.73 690.41 217.22L694.31 219.32C694.24 219.68 694.21 220.32 694.48 220.46C694.75 220.6 695.56 220.3 695.98 219.57C696.4 218.84 696.41 218.06 695.98 217.83C695.74 217.69 695.25 217.97 694.98 218.16L691.17 215.82C691.982 214.2 692.448 212.429 692.54 210.62L695.41 210.58Z" stroke="#787878" stroke-linecap="round" stroke-linejoin="round"/>
<path d="M679.05 201.16C679.801 201.16 680.41 200.578 680.41 199.86C680.41 199.142 679.801 198.56 679.05 198.56C678.299 198.56 677.69 199.142 677.69 199.86C677.69 200.578 678.299 201.16 679.05 201.16Z" stroke="#787878" stroke-linecap="round" stroke-linejoin="round"/>
<path d="M672.19 210.35C672.203 210.62 672.137 210.889 671.998 211.121C671.859 211.353 671.654 211.54 671.409 211.656C671.164 211.772 670.891 211.813 670.623 211.773C670.355 211.734 670.105 211.616 669.904 211.435C669.703 211.253 669.56 211.016 669.494 210.754C669.427 210.491 669.44 210.215 669.531 209.96C669.621 209.705 669.785 209.482 670.002 209.32C670.219 209.158 670.48 209.064 670.75 209.05H670.82C670.995 209.043 671.17 209.071 671.334 209.133C671.498 209.194 671.648 209.288 671.775 209.408C671.903 209.528 672.005 209.672 672.076 209.832C672.148 209.992 672.186 210.165 672.19 210.34V210.35Z" stroke="#787878" stroke-linecap="round" stroke-linejoin="round"/>
<path d="M678.28 207C678.302 207.186 678.285 207.374 678.231 207.553C678.177 207.732 678.087 207.898 677.966 208.04C677.845 208.183 677.695 208.299 677.527 208.381C677.359 208.463 677.176 208.51 676.99 208.518C676.803 208.527 676.616 208.496 676.442 208.429C676.267 208.362 676.108 208.26 675.975 208.128C675.842 207.997 675.737 207.84 675.667 207.666C675.598 207.493 675.565 207.307 675.57 207.12C675.561 206.942 675.587 206.763 675.646 206.595C675.706 206.427 675.799 206.273 675.919 206.141C676.039 206.009 676.184 205.902 676.345 205.826C676.507 205.75 676.682 205.708 676.86 205.7H676.92C677.095 205.695 677.269 205.724 677.433 205.787C677.596 205.849 677.746 205.944 677.872 206.065C677.999 206.186 678.1 206.331 678.17 206.491C678.24 206.652 678.277 206.825 678.28 207Z" stroke="#787878" stroke-linecap="round" stroke-linejoin="round"/>
<path d="M675.1 218.26C675.122 218.446 675.105 218.634 675.051 218.813C674.997 218.992 674.907 219.158 674.786 219.301C674.665 219.443 674.515 219.559 674.347 219.641C674.18 219.724 673.996 219.77 673.81 219.779C673.623 219.787 673.436 219.756 673.262 219.689C673.087 219.622 672.928 219.52 672.795 219.389C672.662 219.257 672.557 219.1 672.487 218.927C672.418 218.753 672.385 218.567 672.39 218.38C672.381 218.202 672.407 218.024 672.466 217.856C672.526 217.688 672.619 217.533 672.739 217.401C672.859 217.269 673.004 217.162 673.165 217.086C673.327 217.011 673.502 216.968 673.68 216.96H673.74C673.915 216.955 674.089 216.984 674.253 217.047C674.416 217.11 674.566 217.204 674.692 217.325C674.819 217.446 674.92 217.591 674.99 217.752C675.06 217.912 675.097 218.085 675.1 218.26Z" stroke="#787878" stroke-linecap="round" stroke-linejoin="round"/>
<path d="M690 212.81C690.013 213.078 689.947 213.345 689.809 213.576C689.671 213.806 689.468 213.991 689.225 214.106C688.982 214.222 688.711 214.263 688.445 214.224C688.179 214.185 687.93 214.068 687.731 213.888C687.531 213.708 687.389 213.473 687.323 213.212C687.257 212.951 687.27 212.677 687.36 212.424C687.45 212.17 687.613 211.949 687.828 211.788C688.043 211.627 688.302 211.534 688.57 211.52H688.64C688.991 211.512 689.331 211.643 689.586 211.885C689.841 212.126 689.99 212.459 690 212.81Z" stroke="#787878" stroke-linecap="round" stroke-linejoin="round"/>
<path d="M680.21 214.59C680.223 214.861 680.156 215.129 680.017 215.361C679.878 215.594 679.674 215.78 679.429 215.896C679.184 216.012 678.911 216.053 678.643 216.014C678.375 215.974 678.125 215.857 677.924 215.675C677.723 215.494 677.58 215.257 677.513 214.994C677.447 214.732 677.46 214.455 677.551 214.2C677.641 213.945 677.805 213.722 678.022 213.56C678.239 213.398 678.5 213.304 678.77 213.29H678.85C679.025 213.285 679.199 213.314 679.363 213.377C679.526 213.44 679.676 213.534 679.802 213.655C679.929 213.776 680.03 213.921 680.1 214.082C680.17 214.242 680.207 214.415 680.21 214.59Z" stroke="#787878" stroke-linecap="round" stroke-linejoin="round"/>
<path d="M684.62 209.4C684.633 209.671 684.567 209.939 684.428 210.171C684.289 210.404 684.084 210.59 683.839 210.706C683.594 210.822 683.321 210.863 683.053 210.824C682.785 210.785 682.535 210.667 682.334 210.485C682.133 210.304 681.99 210.067 681.924 209.804C681.857 209.542 681.87 209.265 681.961 209.01C682.051 208.755 682.215 208.532 682.432 208.37C682.649 208.208 682.91 208.114 683.18 208.1H683.26C683.435 208.095 683.609 208.124 683.773 208.187C683.936 208.25 684.086 208.344 684.212 208.465C684.339 208.586 684.44 208.731 684.51 208.892C684.58 209.052 684.617 209.225 684.62 209.4Z" stroke="#787878" stroke-linecap="round" stroke-linejoin="round"/>
<path d="M687.91 203.36C687.923 203.631 687.856 203.899 687.717 204.131C687.578 204.364 687.374 204.55 687.129 204.666C686.884 204.782 686.611 204.823 686.343 204.784C686.075 204.745 685.825 204.627 685.624 204.445C685.423 204.264 685.28 204.027 685.214 203.764C685.147 203.502 685.16 203.225 685.251 202.97C685.341 202.715 685.505 202.492 685.722 202.33C685.939 202.168 686.2 202.074 686.47 202.06H686.55C686.725 202.055 686.899 202.084 687.063 202.147C687.226 202.21 687.376 202.304 687.502 202.425C687.629 202.546 687.73 202.691 687.8 202.852C687.87 203.012 687.907 203.185 687.91 203.36Z" stroke="#787878" stroke-linecap="round" stroke-linejoin="round"/>
<path d="M684.77 218.91C684.784 219.18 684.716 219.449 684.577 219.681C684.438 219.914 684.234 220.1 683.989 220.216C683.744 220.332 683.471 220.373 683.203 220.333C682.935 220.294 682.685 220.176 682.484 219.995C682.283 219.813 682.14 219.576 682.074 219.314C682.007 219.051 682.02 218.775 682.111 218.52C682.201 218.265 682.365 218.042 682.582 217.88C682.799 217.718 683.06 217.624 683.33 217.61H683.4C683.575 217.603 683.75 217.631 683.914 217.693C684.078 217.754 684.228 217.848 684.355 217.968C684.483 218.088 684.585 218.232 684.656 218.392C684.727 218.552 684.766 218.725 684.77 218.9V218.91Z" stroke="#787878" stroke-linecap="round" stroke-linejoin="round"/>
<path d="M673.61 202.18C673.632 202.366 673.615 202.554 673.561 202.733C673.507 202.912 673.417 203.078 673.296 203.221C673.175 203.363 673.025 203.479 672.857 203.561C672.69 203.643 672.506 203.69 672.32 203.698C672.133 203.707 671.946 203.676 671.772 203.609C671.597 203.542 671.438 203.44 671.305 203.309C671.172 203.177 671.067 203.02 670.997 202.847C670.928 202.673 670.895 202.487 670.9 202.3C670.891 202.122 670.917 201.944 670.976 201.776C671.036 201.608 671.129 201.453 671.249 201.321C671.369 201.189 671.514 201.082 671.675 201.006C671.837 200.931 672.012 200.888 672.19 200.88H672.25C672.602 200.875 672.942 201.008 673.197 201.251C673.451 201.494 673.6 201.828 673.61 202.18Z" stroke="#787878" stroke-linecap="round" stroke-linejoin="round"/>
<path d="M178.8 123.72C178.91 124.04 179.17 124.54 179.45 124.54C179.73 124.54 180.23 123.92 180.23 123.16C180.23 122.4 179.88 121.78 179.45 121.78C179.2 121.78 178.95 122.22 178.83 122.48L176 122.4C175.9 120.592 175.427 118.825 174.61 117.21L178.39 114.88C178.67 115.12 179.19 115.45 179.46 115.3C179.73 115.15 179.86 114.3 179.46 113.56C179.06 112.82 178.37 112.43 177.96 112.67C177.72 112.8 177.72 113.36 177.76 113.67L173.83 115.79C172.824 114.28 171.521 112.99 170 112L171.34 109.51C171.67 109.58 172.24 109.6 172.34 109.35C172.351 109.069 172.281 108.791 172.137 108.55C171.993 108.308 171.782 108.114 171.53 107.99C170.87 107.63 170.16 107.6 169.95 107.99C169.82 108.21 170.07 108.65 170.25 108.88L168.75 111.32C167.144 110.511 165.394 110.028 163.6 109.9L163.47 105.47C163.82 105.35 164.37 105.05 164.37 104.75C164.37 104.28 163.69 103.9 162.85 103.9C162.01 103.9 161.34 104.28 161.34 104.75C161.34 105.02 161.82 105.3 162.11 105.43L161.98 109.9C160.176 110.019 158.415 110.498 156.8 111.31L155.32 108.9C155.54 108.65 155.84 108.17 155.7 107.9C155.56 107.63 154.78 107.54 154.12 107.9C153.46 108.26 153.12 108.9 153.31 109.26C153.5 109.62 153.94 109.48 154.23 109.44L155.6 112.01C154.089 113.001 152.793 114.287 151.79 115.79L147.89 113.69C147.96 113.33 147.98 112.69 147.72 112.55C147.46 112.41 146.64 112.71 146.22 113.44C145.8 114.17 145.79 114.95 146.22 115.18C146.46 115.32 146.94 115.04 147.22 114.85L151.02 117.2C150.197 118.815 149.714 120.581 149.6 122.39L146.77 122.47C146.66 122.16 146.39 121.66 146.11 121.66C145.83 121.66 145.34 122.27 145.34 123.04C145.34 123.81 145.69 124.42 146.11 124.42C146.37 124.42 146.62 123.98 146.73 123.71L149.6 123.79C149.698 125.597 150.16 127.366 150.96 128.99L147.19 131.31C146.91 131.07 146.38 130.74 146.12 130.9C145.86 131.06 145.72 131.9 146.12 132.64C146.52 133.38 147.21 133.76 147.62 133.53C147.86 133.39 147.86 132.83 147.82 132.53L151.77 130.39C152.767 131.905 154.072 133.193 155.6 134.17L154.25 136.66C153.93 136.6 153.36 136.58 153.25 136.82C153.237 137.101 153.307 137.379 153.451 137.621C153.595 137.863 153.807 138.057 154.06 138.18C154.72 138.54 155.43 138.57 155.64 138.18C155.77 137.96 155.51 137.52 155.34 137.29L156.84 134.85C158.448 135.68 160.213 136.16 162.02 136.26L162.15 140.7C161.8 140.82 161.25 141.11 161.25 141.42C161.25 141.89 161.93 142.27 162.77 142.27C163.61 142.27 164.29 141.89 164.29 141.42C164.29 141.14 163.81 140.86 163.51 140.73L163.64 136.26C165.45 136.16 167.218 135.68 168.83 134.85L170.31 137.26C170.09 137.51 169.79 137.99 169.93 138.26C170.07 138.53 170.85 138.62 171.51 138.26C172.17 137.9 172.51 137.26 172.32 136.9C172.13 136.54 171.69 136.68 171.4 136.72L170 134.21C171.511 133.217 172.799 131.919 173.78 130.4L177.68 132.5C177.61 132.86 177.58 133.5 177.85 133.64C178.12 133.78 178.93 133.48 179.35 132.75C179.77 132.02 179.78 131.25 179.35 131.01C179.11 130.87 178.62 131.15 178.35 131.34L174.58 129C175.387 127.378 175.854 125.609 175.95 123.8L178.8 123.72Z" stroke="#787878" stroke-linecap="round" stroke-linejoin="round"/>
<path d="M163.8 113C163.814 113.269 163.747 113.536 163.609 113.767C163.47 113.998 163.267 114.183 163.023 114.298C162.78 114.413 162.508 114.454 162.241 114.414C161.975 114.374 161.727 114.256 161.527 114.075C161.328 113.894 161.187 113.658 161.122 113.397C161.057 113.135 161.071 112.861 161.162 112.607C161.254 112.354 161.418 112.134 161.635 111.974C161.852 111.814 162.111 111.722 162.38 111.71H162.44C162.792 111.705 163.132 111.838 163.387 112.081C163.641 112.325 163.79 112.658 163.8 113.01V113Z" stroke="#787878" stroke-linecap="round" stroke-linejoin="round"/>
<path d="M155.58 123.49C155.595 123.761 155.53 124.03 155.392 124.264C155.255 124.497 155.051 124.685 154.806 124.803C154.562 124.92 154.288 124.963 154.02 124.925C153.751 124.886 153.5 124.77 153.298 124.589C153.096 124.408 152.952 124.171 152.885 123.908C152.818 123.645 152.83 123.369 152.92 123.113C153.01 122.857 153.174 122.634 153.392 122.471C153.609 122.309 153.869 122.214 154.14 122.2H154.21C154.562 122.192 154.903 122.323 155.16 122.564C155.416 122.806 155.567 123.138 155.58 123.49Z" stroke="#787878" stroke-linecap="round" stroke-linejoin="round"/>
<path d="M160.31 121.42C161.061 121.42 161.67 120.838 161.67 120.12C161.67 119.402 161.061 118.82 160.31 118.82C159.559 118.82 158.95 119.402 158.95 120.12C158.95 120.838 159.559 121.42 160.31 121.42Z" stroke="#787878" stroke-linecap="round" stroke-linejoin="round"/>
<path d="M158.49 131.4C158.504 131.669 158.437 131.936 158.299 132.167C158.16 132.398 157.957 132.583 157.713 132.698C157.47 132.813 157.198 132.853 156.931 132.814C156.665 132.774 156.417 132.656 156.217 132.475C156.018 132.294 155.877 132.058 155.812 131.797C155.747 131.535 155.761 131.261 155.852 131.007C155.944 130.754 156.108 130.534 156.325 130.374C156.542 130.214 156.801 130.122 157.07 130.11H157.13C157.482 130.105 157.822 130.238 158.077 130.481C158.331 130.724 158.48 131.058 158.49 131.41V131.4Z" stroke="#787878" stroke-linecap="round" stroke-linejoin="round"/>
<path d="M173.34 126C173.359 126.36 173.233 126.714 172.991 126.982C172.749 127.25 172.411 127.411 172.05 127.43C171.689 127.448 171.336 127.323 171.068 127.081C170.8 126.839 170.639 126.5 170.62 126.14C170.611 125.962 170.637 125.783 170.696 125.615C170.756 125.447 170.849 125.293 170.969 125.161C171.089 125.029 171.234 124.922 171.395 124.846C171.557 124.77 171.732 124.727 171.91 124.72H172C172.346 124.717 172.679 124.849 172.93 125.088C173.18 125.327 173.327 125.654 173.34 126Z" stroke="#787878" stroke-linecap="round" stroke-linejoin="round"/>
<path d="M163.58 127.73C163.595 128.001 163.53 128.27 163.392 128.504C163.255 128.737 163.051 128.925 162.806 129.043C162.562 129.16 162.288 129.203 162.02 129.165C161.751 129.127 161.5 129.01 161.298 128.829C161.096 128.648 160.952 128.411 160.885 128.148C160.818 127.885 160.83 127.609 160.92 127.353C161.01 127.097 161.174 126.874 161.392 126.711C161.609 126.549 161.869 126.454 162.14 126.44H162.22C162.572 126.435 162.912 126.568 163.166 126.811C163.421 127.055 163.57 127.388 163.58 127.74V127.73Z" stroke="#787878" stroke-linecap="round" stroke-linejoin="round"/>
<path d="M168 122.54C168.015 122.811 167.95 123.08 167.812 123.314C167.675 123.548 167.471 123.735 167.226 123.853C166.982 123.97 166.708 124.013 166.44 123.975C166.171 123.937 165.92 123.82 165.718 123.639C165.516 123.458 165.372 123.221 165.305 122.958C165.238 122.695 165.25 122.419 165.34 122.163C165.43 121.907 165.594 121.684 165.811 121.521C166.029 121.359 166.289 121.264 166.56 121.25H166.64C166.992 121.245 167.332 121.378 167.586 121.621C167.841 121.865 167.99 122.198 168 122.55V122.54Z" stroke="#787878" stroke-linecap="round" stroke-linejoin="round"/>
<path d="M171.3 116.5C171.315 116.771 171.25 117.04 171.112 117.274C170.975 117.507 170.771 117.695 170.526 117.813C170.282 117.93 170.008 117.973 169.74 117.935C169.471 117.897 169.22 117.78 169.018 117.599C168.816 117.418 168.672 117.181 168.605 116.918C168.538 116.655 168.55 116.379 168.64 116.123C168.73 115.867 168.894 115.644 169.111 115.481C169.329 115.319 169.589 115.224 169.86 115.21H169.94C170.292 115.205 170.632 115.338 170.886 115.581C171.141 115.825 171.29 116.158 171.3 116.51V116.5Z" stroke="#787878" stroke-linecap="round" stroke-linejoin="round"/>
<path d="M168.16 132.05C168.175 132.321 168.11 132.59 167.972 132.824C167.835 133.057 167.631 133.245 167.386 133.363C167.142 133.48 166.868 133.523 166.6 133.485C166.331 133.447 166.08 133.33 165.878 133.149C165.676 132.968 165.532 132.731 165.465 132.468C165.398 132.205 165.41 131.929 165.5 131.673C165.59 131.417 165.754 131.194 165.971 131.031C166.189 130.869 166.449 130.774 166.72 130.76H166.79C167.142 130.752 167.483 130.883 167.74 131.124C167.996 131.366 168.147 131.698 168.16 132.05Z" stroke="#787878" stroke-linecap="round" stroke-linejoin="round"/>
<path d="M157 115.32C157.014 115.589 156.947 115.856 156.809 116.087C156.67 116.318 156.467 116.503 156.223 116.618C155.98 116.733 155.708 116.773 155.441 116.734C155.175 116.694 154.927 116.576 154.727 116.395C154.528 116.214 154.387 115.978 154.322 115.717C154.257 115.455 154.271 115.181 154.362 114.927C154.454 114.674 154.618 114.453 154.835 114.294C155.052 114.134 155.311 114.042 155.58 114.03H155.64C155.992 114.025 156.332 114.158 156.586 114.401C156.841 114.644 156.99 114.978 157 115.33V115.32Z" stroke="#787878" stroke-linecap="round" stroke-linejoin="round"/>
<path d="M482.3 50.82C482.41 51.13 482.68 51.63 482.96 51.63C483.24 51.63 483.73 51.02 483.73 50.25C483.73 49.48 483.38 48.87 482.96 48.87C482.7 48.87 482.45 49.31 482.34 49.58L479.47 49.5C479.374 47.6923 478.912 45.923 478.11 44.3L481.88 42C482.16 42.25 482.69 42.58 482.95 42.42C483.21 42.26 483.35 41.42 482.95 40.68C482.55 39.94 481.86 39.56 481.46 39.79C481.22 39.93 481.22 40.49 481.25 40.79L477.32 42.91C476.315 41.406 475.019 40.1175 473.51 39.12L474.85 36.64C475.17 36.7 475.74 36.72 475.85 36.48C475.863 36.199 475.793 35.9204 475.649 35.6787C475.505 35.437 475.293 35.2428 475.04 35.12C474.38 34.76 473.67 34.73 473.46 35.12C473.25 35.51 473.59 35.78 473.76 36.01L472.27 38.43C470.66 37.6021 468.897 37.1153 467.09 37L467 32.55C467.35 32.43 467.9 32.14 467.9 31.83C467.9 31.36 467.22 30.98 466.38 30.98C465.54 30.98 464.86 31.36 464.86 31.83C464.86 32.11 465.34 32.39 465.64 32.51L465.47 37C463.662 37.1091 461.895 37.5891 460.28 38.41L458.8 36C459.02 35.75 459.32 35.27 459.18 35C459.04 34.73 458.26 34.64 457.6 35C456.94 35.36 456.6 36 456.79 36.36C456.98 36.72 457.42 36.57 457.71 36.54L459.07 39C457.551 39.989 456.251 41.2788 455.25 42.79L451.35 40.69C451.42 40.32 451.45 39.69 451.18 39.55C450.91 39.41 450.1 39.71 449.68 40.44C449.26 41.17 449.26 41.94 449.68 42.18C449.92 42.32 450.41 42.04 450.68 41.85L454.49 44.19C453.678 45.8097 453.212 47.5805 453.12 49.39L450.29 49.47C450.18 49.15 449.92 48.65 449.64 48.65C449.36 48.65 448.87 49.27 448.87 50.03C448.87 50.79 449.21 51.41 449.64 51.41C449.89 51.41 450.14 50.97 450.26 50.71L453.12 50.79C453.208 52.6033 453.675 54.378 454.49 56L450.67 58.38C450.4 58.14 449.87 57.81 449.6 57.96C449.33 58.11 449.2 58.96 449.6 59.7C450 60.44 450.69 60.83 451.1 60.59C451.34 60.45 451.34 59.9 451.3 59.59L455.23 57.47C456.228 58.9804 457.529 60.2675 459.05 61.25L457.71 63.74C457.38 63.67 456.81 63.65 456.71 63.89C456.7 64.1706 456.771 64.4481 456.915 64.6893C457.058 64.9305 457.269 65.1252 457.52 65.25C458.18 65.61 458.89 65.64 459.11 65.25C459.33 64.86 458.98 64.59 458.8 64.36L460.3 61.92C461.905 62.7564 463.665 63.2534 465.47 63.38L465.6 67.81C465.25 67.93 464.7 68.23 464.7 68.53C464.7 69 465.38 69.38 466.22 69.38C467.06 69.38 467.74 69 467.74 68.53C467.74 68.26 467.25 67.98 466.96 67.85L467.09 63.38C468.893 63.2788 470.656 62.8092 472.27 62L473.75 64.41C473.53 64.66 473.23 65.14 473.37 65.41C473.51 65.68 474.3 65.77 474.96 65.41C475.62 65.05 475.96 64.41 475.76 64.05C475.56 63.69 475.13 63.83 474.84 63.87L473.49 61.35C475.004 60.3591 476.303 59.0736 477.31 57.57L481.2 59.67C481.13 60.03 481.11 60.67 481.37 60.81C481.63 60.95 482.45 60.64 482.87 59.92C483.29 59.2 483.3 58.41 482.87 58.18C482.63 58.04 482.15 58.32 481.87 58.51L478.07 56.16C478.871 54.551 479.334 52.7949 479.43 51L482.3 50.82Z" stroke="#787878" stroke-linecap="round" stroke-linejoin="round"/>
<path d="M467.31 40.1001C467.325 40.3708 467.26 40.6401 467.122 40.8737C466.985 41.1074 466.781 41.2949 466.536 41.4126C466.292 41.5302 466.018 41.5727 465.75 41.5346C465.481 41.4965 465.23 41.3795 465.028 41.1986C464.826 41.0176 464.682 40.7808 464.615 40.518C464.548 40.2553 464.56 39.9785 464.65 39.7227C464.74 39.4669 464.904 39.2437 465.122 39.0812C465.339 38.9187 465.599 38.8244 465.87 38.8101H466C466.342 38.8175 466.668 38.9552 466.911 39.195C467.155 39.4348 467.297 39.7585 467.31 40.1001Z" stroke="#787878" stroke-linecap="round" stroke-linejoin="round"/>
<path d="M459.08 50.59C459.094 50.8589 459.027 51.1258 458.889 51.3569C458.75 51.5879 458.547 51.7728 458.303 51.8879C458.06 52.0031 457.788 52.0434 457.521 52.0037C457.255 51.9641 457.007 51.8463 456.807 51.6652C456.608 51.4841 456.467 51.248 456.402 50.9867C456.337 50.7253 456.351 50.4506 456.442 50.1973C456.534 49.944 456.698 49.7235 456.915 49.5637C457.132 49.404 457.391 49.3122 457.66 49.3H457.72C458.072 49.2946 458.412 49.4279 458.666 49.6712C458.921 49.9144 459.069 50.2481 459.08 50.6V50.59Z" stroke="#787878" stroke-linecap="round" stroke-linejoin="round"/>
<path d="M465.18 47.22C465.195 47.4908 465.13 47.7601 464.992 47.9937C464.855 48.2274 464.651 48.4149 464.406 48.5325C464.162 48.6502 463.888 48.6927 463.62 48.6546C463.351 48.6165 463.1 48.4995 462.898 48.3186C462.696 48.1376 462.552 47.9007 462.485 47.638C462.418 47.3753 462.43 47.0985 462.52 46.8427C462.61 46.5869 462.774 46.3637 462.991 46.2012C463.209 46.0387 463.469 45.9443 463.74 45.93H463.81C464.162 45.9219 464.503 46.0527 464.76 46.2941C465.016 46.5355 465.167 46.8681 465.18 47.22Z" stroke="#787878" stroke-linecap="round" stroke-linejoin="round"/>
<path d="M462 58.5001C462.015 58.7709 461.95 59.0402 461.812 59.2738C461.675 59.5075 461.471 59.695 461.226 59.8126C460.982 59.9303 460.708 59.9727 460.44 59.9346C460.171 59.8965 459.92 59.7796 459.718 59.5986C459.516 59.4177 459.372 59.1808 459.305 58.9181C459.238 58.6554 459.25 58.3786 459.34 58.1228C459.43 57.867 459.594 57.6437 459.812 57.4813C460.029 57.3188 460.289 57.2244 460.56 57.2101H460.64C460.99 57.2047 461.329 57.3366 461.583 57.5778C461.837 57.8189 461.987 58.15 462 58.5001Z" stroke="#787878" stroke-linecap="round" stroke-linejoin="round"/>
<path d="M476.85 53.0499C476.865 53.3207 476.8 53.59 476.663 53.8236C476.525 54.0573 476.321 54.2448 476.076 54.3624C475.832 54.4801 475.558 54.5225 475.29 54.4844C475.021 54.4463 474.77 54.3294 474.568 54.1484C474.366 53.9675 474.222 53.7306 474.155 53.4679C474.088 53.2052 474.1 52.9284 474.19 52.6726C474.28 52.4168 474.444 52.1935 474.662 52.0311C474.879 51.8686 475.139 51.7742 475.41 51.7599H475.49C475.842 51.7545 476.182 51.8879 476.437 52.1311C476.691 52.3744 476.84 52.708 476.85 53.0599V53.0499Z" stroke="#787878" stroke-linecap="round" stroke-linejoin="round"/>
<path d="M467.1 54.8199C467.119 55.1806 466.993 55.5339 466.751 55.8021C466.509 56.0703 466.171 56.2313 465.81 56.2499C465.449 56.2685 465.096 56.143 464.828 55.9011C464.56 55.6591 464.399 55.3206 464.38 54.9599C464.371 54.7818 464.397 54.6035 464.456 54.4355C464.516 54.2674 464.609 54.1129 464.729 53.9809C464.849 53.8489 464.994 53.7419 465.155 53.6662C465.317 53.5905 465.492 53.5476 465.67 53.5399H465.74C466.089 53.5318 466.428 53.6615 466.682 53.901C466.937 54.1406 467.087 54.4707 467.1 54.8199Z" stroke="#787878" stroke-linecap="round" stroke-linejoin="round"/>
<path d="M471.51 49.6398C471.524 49.9087 471.457 50.1756 471.319 50.4067C471.181 50.6378 470.977 50.8226 470.733 50.9377C470.49 51.0529 470.218 51.0932 469.951 51.0535C469.685 51.0139 469.437 50.8961 469.237 50.715C469.038 50.5339 468.897 50.2978 468.832 50.0365C468.767 49.7751 468.781 49.5004 468.872 49.2471C468.964 48.9938 469.128 48.7733 469.345 48.6135C469.562 48.4538 469.821 48.362 470.09 48.3498H470.15C470.502 48.3444 470.842 48.4777 471.097 48.721C471.351 48.9642 471.5 49.2979 471.51 49.6498V49.6398Z" stroke="#787878" stroke-linecap="round" stroke-linejoin="round"/>
<path d="M474.8 43.5899C474.809 43.7685 474.783 43.9472 474.723 44.1157C474.663 44.2842 474.571 44.4393 474.451 44.5721C474.331 44.7049 474.187 44.8128 474.025 44.8896C473.864 44.9665 473.689 45.0107 473.51 45.0199C473.331 45.0291 473.153 45.003 472.984 44.9432C472.816 44.8833 472.661 44.7909 472.528 44.6711C472.395 44.5513 472.287 44.4065 472.21 44.245C472.133 44.0836 472.089 43.9085 472.08 43.7299C472.071 43.5518 472.097 43.3735 472.156 43.2055C472.216 43.0375 472.309 42.883 472.429 42.7509C472.549 42.6189 472.694 42.5119 472.855 42.4362C473.017 42.3605 473.192 42.3176 473.37 42.3099H473.44C473.789 42.3018 474.128 42.4315 474.382 42.6711C474.637 42.9106 474.787 43.2407 474.8 43.5899Z" stroke="#787878" stroke-linecap="round" stroke-linejoin="round"/>
<path d="M471.66 59.15C471.674 59.419 471.607 59.6859 471.469 59.9169C471.33 60.148 471.127 60.3328 470.883 60.448C470.64 60.5631 470.368 60.6034 470.101 60.5638C469.835 60.5241 469.587 60.4063 469.387 60.2253C469.188 60.0442 469.047 59.808 468.982 59.5467C468.917 59.2854 468.931 59.0107 469.022 58.7574C469.114 58.504 469.278 58.2835 469.495 58.1238C469.712 57.964 469.971 57.8722 470.24 57.86H470.3C470.652 57.8546 470.992 57.988 471.247 58.2312C471.501 58.4745 471.65 58.8081 471.66 59.16V59.15Z" stroke="#787878" stroke-linecap="round" stroke-linejoin="round"/>
<path d="M460.51 42.4002C460.525 42.671 460.46 42.9403 460.322 43.1739C460.185 43.4076 459.981 43.5951 459.736 43.7127C459.492 43.8304 459.218 43.8728 458.95 43.8347C458.681 43.7966 458.43 43.6797 458.228 43.4987C458.026 43.3178 457.882 43.0809 457.815 42.8182C457.748 42.5555 457.76 42.2787 457.85 42.0229C457.94 41.7671 458.104 41.5438 458.321 41.3814C458.539 41.2189 458.799 41.1245 459.07 41.1102H459.14C459.492 41.1021 459.833 41.2329 460.09 41.4743C460.346 41.7157 460.497 42.0483 460.51 42.4002Z" stroke="#787878" stroke-linecap="round" stroke-linejoin="round"/>
<path d="M175 319.81C175.11 320.13 175.38 320.63 175.66 320.63C175.94 320.63 176.43 320.01 176.43 319.25C176.43 318.49 176.08 317.87 175.66 317.87C175.4 317.87 175.15 318.31 175.04 318.57L172.14 318.49C172.042 316.686 171.579 314.92 170.78 313.3L174.55 310.97C174.83 311.21 175.36 311.54 175.62 311.39C176.03 311.15 176.02 310.39 175.62 309.65C175.22 308.91 174.53 308.52 174.12 308.76C173.88 308.9 173.88 309.45 173.92 309.76L170 311.88C169 310.375 167.703 309.088 166.19 308.1L167.53 305.61C167.85 305.68 168.42 305.7 168.53 305.45C168.545 305.17 168.475 304.892 168.331 304.651C168.187 304.411 167.974 304.219 167.72 304.1C167.06 303.75 166.35 303.7 166.14 304.1C166.01 304.32 166.27 304.76 166.44 304.99L164.94 307.43C163.328 306.61 161.565 306.131 159.76 306.02L159.63 301.59C159.98 301.47 160.53 301.17 160.53 300.87C160.53 300.4 159.85 300.02 159.01 300.02C158.17 300.02 157.49 300.4 157.49 300.87C157.49 301.14 157.97 301.42 158.27 301.55L158.14 306.02C156.332 306.131 154.566 306.61 152.95 307.43L151.44 305C151.66 304.75 151.96 304.27 151.82 304C151.68 303.73 150.9 303.64 150.24 304C149.58 304.36 149.24 305 149.43 305.36C149.62 305.72 150.06 305.58 150.35 305.54L151.71 308.06C150.189 309.042 148.888 310.33 147.89 311.84L143.99 309.74C144.06 309.38 144.09 308.74 143.82 308.6C143.55 308.46 142.74 308.76 142.32 309.49C141.9 310.22 141.89 311 142.32 311.23C142.56 311.37 143.05 311.09 143.32 310.9L147.12 313.27C146.307 314.886 145.841 316.654 145.75 318.46L142.92 318.54C142.81 318.23 142.55 317.73 142.27 317.73C141.84 317.73 141.49 318.34 141.49 319.11C141.49 319.88 141.84 320.49 142.27 320.49C142.52 320.49 142.77 320.05 142.89 319.78L145.75 319.86C145.842 321.67 146.308 323.44 147.12 325.06L143.34 327.39C143.06 327.14 142.54 326.81 142.27 326.97C142 327.13 141.87 327.97 142.27 328.71C142.67 329.45 143.36 329.83 143.77 329.6C144.01 329.46 144.01 328.9 143.97 328.6L147.9 326.48C148.901 327.991 150.201 329.281 151.72 330.27L150.38 332.75C150.05 332.69 149.48 332.67 149.38 332.91C149.37 333.191 149.441 333.468 149.585 333.709C149.728 333.951 149.939 334.145 150.19 334.27C150.85 334.63 151.56 334.66 151.78 334.27C151.9 334.05 151.65 333.61 151.47 333.38L153 331C154.611 331.83 156.38 332.31 158.19 332.41L158.32 336.85C157.97 336.97 157.42 337.26 157.42 337.57C157.42 338.04 158.1 338.42 158.94 338.42C159.78 338.42 160.45 338.04 160.45 337.57C160.45 337.29 159.97 337.01 159.68 336.88L159.81 332.41C161.619 332.302 163.385 331.822 165 331L166.48 333.41C166.26 333.66 165.96 334.14 166.1 334.41C166.24 334.68 167.02 334.77 167.68 334.41C168.34 334.05 168.68 333.41 168.49 333.05C168.3 332.69 167.86 332.83 167.57 332.87L166.21 330.33C167.721 329.324 169.01 328.021 170 326.5L173.9 328.6C173.83 328.97 173.81 329.6 174.07 329.74C174.33 329.88 175.15 329.58 175.57 328.85C175.99 328.12 176 327.35 175.57 327.11C175.33 326.97 174.85 327.25 174.57 327.44L170.77 325.1C171.57 323.476 172.032 321.707 172.13 319.9L175 319.81Z" stroke="#787878" stroke-linecap="round" stroke-linejoin="round"/>
<path d="M160 309.09C160.013 309.361 159.946 309.629 159.807 309.861C159.668 310.094 159.464 310.28 159.219 310.396C158.974 310.512 158.701 310.553 158.433 310.514C158.165 310.474 157.915 310.357 157.714 310.175C157.513 309.994 157.37 309.757 157.303 309.494C157.237 309.232 157.25 308.955 157.341 308.7C157.431 308.445 157.595 308.222 157.812 308.06C158.029 307.898 158.29 307.804 158.56 307.79H158.63C158.805 307.785 158.979 307.814 159.142 307.876C159.305 307.938 159.455 308.031 159.582 308.151C159.71 308.271 159.812 308.415 159.884 308.574C159.955 308.734 159.995 308.905 160 309.08V309.09Z" stroke="#787878" stroke-linecap="round" stroke-linejoin="round"/>
<path d="M151.76 319.58C151.772 319.849 151.703 320.115 151.564 320.345C151.424 320.574 151.22 320.758 150.976 320.871C150.732 320.985 150.46 321.024 150.195 320.983C149.929 320.942 149.681 320.823 149.483 320.642C149.285 320.46 149.145 320.224 149.08 319.963C149.016 319.702 149.031 319.428 149.123 319.175C149.215 318.922 149.379 318.702 149.596 318.543C149.812 318.384 150.071 318.292 150.34 318.28H150.4C150.575 318.276 150.748 318.307 150.911 318.37C151.074 318.433 151.223 318.528 151.349 318.648C151.476 318.769 151.577 318.914 151.647 319.073C151.718 319.233 151.756 319.405 151.76 319.58Z" stroke="#787878" stroke-linecap="round" stroke-linejoin="round"/>
<path d="M156.49 317.51C157.241 317.51 157.85 316.928 157.85 316.21C157.85 315.492 157.241 314.91 156.49 314.91C155.739 314.91 155.13 315.492 155.13 316.21C155.13 316.928 155.739 317.51 156.49 317.51Z" stroke="#787878" stroke-linecap="round" stroke-linejoin="round"/>
<path d="M154.68 327.49C154.695 327.76 154.63 328.029 154.493 328.262C154.355 328.496 154.152 328.683 153.908 328.801C153.665 328.919 153.391 328.962 153.123 328.924C152.855 328.887 152.604 328.771 152.402 328.591C152.199 328.411 152.055 328.175 151.987 327.913C151.918 327.651 151.929 327.375 152.018 327.119C152.106 326.863 152.269 326.639 152.485 326.476C152.7 326.312 152.96 326.216 153.23 326.2H153.31C153.485 326.195 153.659 326.224 153.822 326.286C153.985 326.348 154.135 326.441 154.262 326.561C154.39 326.681 154.492 326.824 154.564 326.984C154.635 327.143 154.675 327.315 154.68 327.49Z" stroke="#787878" stroke-linecap="round" stroke-linejoin="round"/>
<path d="M169.53 322C169.545 322.27 169.48 322.539 169.343 322.772C169.205 323.006 169.002 323.193 168.758 323.311C168.515 323.429 168.241 323.472 167.973 323.434C167.705 323.397 167.454 323.281 167.252 323.101C167.049 322.921 166.905 322.685 166.837 322.423C166.768 322.161 166.779 321.885 166.868 321.629C166.956 321.373 167.119 321.149 167.335 320.986C167.55 320.822 167.81 320.726 168.08 320.71H168.17C168.521 320.702 168.861 320.833 169.116 321.075C169.371 321.316 169.52 321.649 169.53 322Z" stroke="#787878" stroke-linecap="round" stroke-linejoin="round"/>
<path d="M159.78 323.82C159.792 324.089 159.723 324.355 159.584 324.584C159.444 324.814 159.24 324.997 158.996 325.111C158.752 325.225 158.48 325.264 158.215 325.223C157.949 325.182 157.701 325.063 157.503 324.882C157.305 324.7 157.165 324.464 157.1 324.203C157.036 323.942 157.051 323.667 157.143 323.415C157.235 323.162 157.399 322.942 157.616 322.783C157.832 322.623 158.091 322.532 158.36 322.52H158.42C158.595 322.516 158.768 322.546 158.931 322.61C159.094 322.673 159.243 322.767 159.369 322.888C159.496 323.009 159.597 323.153 159.667 323.313C159.738 323.473 159.776 323.645 159.78 323.82Z" stroke="#787878" stroke-linecap="round" stroke-linejoin="round"/>
<path d="M164.19 318.63C164.202 318.899 164.133 319.165 163.994 319.394C163.854 319.624 163.65 319.808 163.406 319.921C163.162 320.035 162.89 320.074 162.625 320.033C162.359 319.992 162.111 319.873 161.913 319.692C161.715 319.51 161.575 319.274 161.51 319.013C161.446 318.752 161.461 318.477 161.553 318.225C161.645 317.972 161.809 317.752 162.026 317.593C162.242 317.434 162.501 317.342 162.77 317.33H162.83C163.005 317.326 163.178 317.356 163.341 317.42C163.504 317.483 163.653 317.577 163.779 317.698C163.906 317.819 164.007 317.963 164.077 318.123C164.148 318.283 164.186 318.455 164.19 318.63Z" stroke="#787878" stroke-linecap="round" stroke-linejoin="round"/>
<path d="M167.48 312.59C167.492 312.859 167.423 313.125 167.284 313.354C167.144 313.584 166.94 313.767 166.696 313.881C166.452 313.995 166.18 314.034 165.915 313.993C165.649 313.952 165.401 313.833 165.203 313.652C165.005 313.47 164.865 313.234 164.8 312.973C164.736 312.712 164.751 312.437 164.843 312.185C164.935 311.932 165.099 311.712 165.316 311.553C165.532 311.393 165.791 311.302 166.06 311.29H166.12C166.295 311.286 166.468 311.316 166.631 311.38C166.794 311.443 166.943 311.537 167.069 311.658C167.196 311.779 167.297 311.923 167.367 312.083C167.438 312.243 167.476 312.415 167.48 312.59Z" stroke="#787878" stroke-linecap="round" stroke-linejoin="round"/>
<path d="M164.34 328.14C164.352 328.409 164.283 328.675 164.144 328.905C164.004 329.134 163.8 329.318 163.556 329.431C163.312 329.545 163.04 329.584 162.775 329.543C162.509 329.502 162.261 329.383 162.063 329.202C161.865 329.02 161.725 328.784 161.66 328.523C161.596 328.262 161.611 327.988 161.703 327.735C161.795 327.482 161.959 327.262 162.176 327.103C162.392 326.944 162.651 326.852 162.92 326.84H163C163.175 326.836 163.348 326.867 163.511 326.93C163.674 326.993 163.823 327.088 163.949 327.208C164.076 327.329 164.177 327.474 164.247 327.633C164.318 327.793 164.356 327.966 164.36 328.14H164.34Z" stroke="#787878" stroke-linecap="round" stroke-linejoin="round"/>
<path d="M153.19 311.41C153.203 311.68 153.136 311.949 152.997 312.181C152.858 312.414 152.654 312.6 152.409 312.716C152.164 312.832 151.891 312.873 151.623 312.834C151.355 312.794 151.105 312.677 150.904 312.495C150.703 312.314 150.56 312.077 150.493 311.814C150.427 311.552 150.44 311.275 150.531 311.02C150.621 310.765 150.785 310.542 151.002 310.38C151.219 310.218 151.48 310.124 151.75 310.11H151.82C151.995 310.105 152.169 310.134 152.332 310.196C152.495 310.258 152.645 310.351 152.772 310.471C152.9 310.591 153.002 310.735 153.074 310.894C153.145 311.053 153.185 311.225 153.19 311.4V311.41Z" stroke="#787878" stroke-linecap="round" stroke-linejoin="round"/>
<path d="M283.08 51.9399C283.19 52.2599 283.45 52.7599 283.73 52.7599C284.01 52.7599 284.51 52.1399 284.51 51.3799C284.51 50.6199 284.16 49.9999 283.73 49.9999C283.48 49.9999 283.23 50.4399 283.11 50.6999L280.25 50.6199C280.157 48.8042 279.691 47.0272 278.88 45.3999L282.66 43.0699C282.94 43.3099 283.46 43.6399 283.73 43.4899C284 43.3399 284.13 42.4899 283.73 41.7499C283.33 41.0099 282.64 40.6199 282.23 40.8599C281.99 40.9899 281.99 41.5499 282.03 41.8599L278.1 43.9999C277.096 42.4942 275.796 41.2082 274.28 40.2199L275.58 37.7699C275.91 37.8399 276.48 37.8599 276.58 37.6099C276.591 37.3291 276.521 37.0511 276.377 36.8096C276.233 36.5682 276.022 36.3737 275.77 36.2499C275.11 35.8899 274.4 35.8599 274.19 36.2499C274.06 36.4699 274.31 36.9099 274.49 37.1399L273 39.5599C271.381 38.7494 269.617 38.27 267.81 38.1499L267.68 33.7199C268.03 33.5999 268.58 33.2999 268.58 32.9999C268.58 32.5299 267.9 32.1499 267.06 32.1499C266.22 32.1499 265.55 32.5299 265.55 32.9999C265.55 33.2699 266.03 33.5499 266.32 33.6799L266.19 38.1499C264.383 38.2673 262.618 38.7468 261 39.5599L259.58 37.1299C259.8 36.8799 260.1 36.3999 259.96 36.1299C259.82 35.8599 259.04 35.7699 258.38 36.1299C257.72 36.4899 257.38 37.1299 257.57 37.4899C257.76 37.8499 258.2 37.7099 258.49 37.6699L259.85 40.1899C258.32 41.1837 257.01 42.4803 256 43.9999L252.1 41.8999C252.17 41.5399 252.19 40.8999 251.93 40.7599C251.52 40.5299 250.85 40.9199 250.43 41.6499C250.01 42.3799 250 43.1599 250.43 43.3899C250.67 43.5299 251.15 43.2499 251.43 43.0599L255.23 45.4099C254.427 47.029 253.964 48.7952 253.87 50.5999L251.04 50.6799C250.93 50.3699 250.66 49.8599 250.39 49.8599C249.96 49.8599 249.61 50.4799 249.61 51.2499C249.61 52.0199 249.96 52.6299 250.39 52.6299C250.64 52.6299 250.89 52.1899 251 51.9199L253.87 51.9999C253.968 53.8073 254.43 55.5761 255.23 57.1999L251.46 59.5199C251.18 59.2799 250.65 58.9499 250.39 59.1099C250.13 59.2699 249.99 60.1099 250.39 60.8499C250.79 61.5899 251.48 61.9699 251.89 61.7399C252.13 61.5999 252.13 61.0399 252.09 60.7399L256.02 58.6199C257.007 60.141 258.301 61.4388 259.82 62.4299L258.48 64.9199C258.15 64.8599 257.58 64.8399 257.48 65.0799C257.47 65.3605 257.541 65.638 257.685 65.8792C257.828 66.1204 258.039 66.3151 258.29 66.4399C258.95 66.7999 259.66 66.8299 259.87 66.4399C260 66.2199 259.74 65.7799 259.57 65.5499L261.07 63.1099C262.678 63.9399 264.443 64.4204 266.25 64.5199L266.38 68.9599C266.04 69.0799 265.48 69.3699 265.48 69.6799C265.48 69.9899 266.16 70.5299 267 70.5299C267.84 70.5299 268.52 70.1399 268.52 69.6799C268.52 69.3999 268.04 69.1199 267.74 68.9899L267.87 64.5199C269.68 64.4203 271.448 63.9399 273.06 63.1099L274.55 65.5399C274.33 65.7899 274.03 66.2699 274.17 66.5399C274.31 66.8099 275.09 66.8999 275.75 66.5399C276.41 66.1799 276.75 65.5399 276.56 65.1799C276.37 64.8199 275.93 64.9599 275.64 64.9999L274.23 62.4299C275.751 61.4474 277.052 60.1604 278.05 58.6499L281.95 60.7499C281.88 61.1099 281.86 61.7499 282.12 61.8899C282.53 62.1299 283.2 61.7299 283.62 60.9999C284.04 60.2699 284.05 59.4999 283.62 59.2599C283.38 59.1199 282.9 59.3999 282.62 59.5899L278.81 57.2499C279.617 55.6284 280.084 53.8587 280.18 52.0499L283.08 51.9399Z" stroke="#787878" stroke-linecap="round" stroke-linejoin="round"/>
<path d="M268.08 41.2198C268.094 41.4888 268.027 41.7557 267.889 41.9868C267.75 42.2178 267.547 42.4026 267.303 42.5178C267.06 42.633 266.788 42.6733 266.521 42.6336C266.255 42.594 266.007 42.4761 265.807 42.2951C265.608 42.114 265.467 41.8779 265.402 41.6165C265.337 41.3552 265.351 41.0805 265.442 40.8272C265.534 40.5739 265.698 40.3534 265.915 40.1936C266.132 40.0339 266.391 39.9421 266.66 39.9298H266.72C267.072 39.9244 267.412 40.0578 267.666 40.301C267.921 40.5443 268.069 40.8779 268.08 41.2298V41.2198Z" stroke="#787878" stroke-linecap="round" stroke-linejoin="round"/>
<path d="M259.86 51.7098C259.875 51.9806 259.81 52.2498 259.672 52.4835C259.535 52.7171 259.331 52.9047 259.086 53.0223C258.842 53.1399 258.568 53.1824 258.3 53.1443C258.031 53.1062 257.78 52.9893 257.578 52.8083C257.376 52.6273 257.232 52.3905 257.165 52.1278C257.098 51.865 257.11 51.5882 257.2 51.3325C257.29 51.0767 257.454 50.8534 257.671 50.6909C257.889 50.5285 258.149 50.4341 258.42 50.4198H258.49C258.842 50.4117 259.183 50.5425 259.44 50.7839C259.696 51.0253 259.847 51.3579 259.86 51.7098Z" stroke="#787878" stroke-linecap="round" stroke-linejoin="round"/>
<path d="M264.59 49.64C265.341 49.64 265.95 49.058 265.95 48.34C265.95 47.6221 265.341 47.04 264.59 47.04C263.839 47.04 263.23 47.6221 263.23 48.34C263.23 49.058 263.839 49.64 264.59 49.64Z" stroke="#787878" stroke-linecap="round" stroke-linejoin="round"/>
<path d="M262.77 59.6197C262.784 59.8887 262.717 60.1556 262.579 60.3867C262.44 60.6177 262.237 60.8026 261.993 60.9177C261.75 61.0329 261.478 61.0732 261.211 61.0335C260.945 60.9939 260.697 60.876 260.497 60.695C260.298 60.5139 260.157 60.2778 260.092 60.0164C260.027 59.7551 260.041 59.4804 260.132 59.2271C260.224 58.9738 260.388 58.7533 260.605 58.5935C260.822 58.4338 261.081 58.342 261.35 58.3297H261.41C261.762 58.3243 262.102 58.4577 262.356 58.7009C262.611 58.9442 262.759 59.2778 262.77 59.6297V59.6197Z" stroke="#787878" stroke-linecap="round" stroke-linejoin="round"/>
<path d="M277.58 54.17C277.589 54.3486 277.563 54.5273 277.503 54.6958C277.443 54.8643 277.351 55.0194 277.231 55.1522C277.111 55.285 276.967 55.3929 276.805 55.4697C276.644 55.5465 276.469 55.5908 276.29 55.6C275.929 55.6186 275.576 55.4931 275.308 55.2512C275.04 55.0093 274.879 54.6707 274.86 54.31C274.851 54.1319 274.877 53.9536 274.936 53.7856C274.996 53.6175 275.089 53.463 275.209 53.331C275.329 53.199 275.474 53.092 275.635 53.0163C275.797 52.9406 275.972 52.8977 276.15 52.89H276.22C276.569 52.8819 276.908 53.0116 277.162 53.2511C277.417 53.4907 277.567 53.8208 277.58 54.17Z" stroke="#787878" stroke-linecap="round" stroke-linejoin="round"/>
<path d="M267.88 56.0001C267.894 56.2691 267.827 56.536 267.689 56.767C267.55 56.9981 267.347 57.1829 267.103 57.2981C266.86 57.4132 266.588 57.4535 266.321 57.4139C266.055 57.3742 265.807 57.2564 265.607 57.0754C265.408 56.8943 265.267 56.6581 265.202 56.3968C265.137 56.1355 265.151 55.8608 265.242 55.6075C265.334 55.3541 265.498 55.1336 265.715 54.9739C265.932 54.8141 266.191 54.7223 266.46 54.7101H266.52C266.872 54.7047 267.212 54.838 267.467 55.0813C267.721 55.3246 267.87 55.6582 267.88 56.0101V56.0001Z" stroke="#787878" stroke-linecap="round" stroke-linejoin="round"/>
<path d="M272.29 50.7599C272.304 51.0288 272.237 51.2957 272.099 51.5268C271.96 51.7579 271.757 51.9427 271.513 52.0578C271.27 52.173 270.998 52.2133 270.731 52.1737C270.465 52.134 270.217 52.0162 270.017 51.8351C269.818 51.6541 269.677 51.4179 269.612 51.1566C269.547 50.8953 269.561 50.6205 269.652 50.3672C269.744 50.1139 269.908 49.8934 270.125 49.7337C270.342 49.5739 270.601 49.4821 270.87 49.4699H270.93C271.28 49.4644 271.619 49.5964 271.873 49.8375C272.127 50.0786 272.277 50.4097 272.29 50.7599Z" stroke="#787878" stroke-linecap="round" stroke-linejoin="round"/>
<path d="M275.58 44.7198C275.594 44.9888 275.527 45.2557 275.389 45.4868C275.25 45.7178 275.047 45.9026 274.803 46.0178C274.56 46.133 274.288 46.1733 274.021 46.1336C273.755 46.094 273.507 45.9761 273.307 45.7951C273.108 45.614 272.967 45.3779 272.902 45.1165C272.837 44.8552 272.851 44.5805 272.942 44.3272C273.034 44.0739 273.198 43.8534 273.415 43.6936C273.632 43.5339 273.891 43.4421 274.16 43.4298H274.22C274.572 43.4244 274.912 43.5578 275.166 43.801C275.421 44.0443 275.569 44.3779 275.58 44.7298V44.7198Z" stroke="#787878" stroke-linecap="round" stroke-linejoin="round"/>
<path d="M272.44 60.2699C272.459 60.5412 272.398 60.8121 272.263 61.0482C272.128 61.2843 271.925 61.4749 271.682 61.5956C271.438 61.7163 271.164 61.7617 270.894 61.7261C270.624 61.6904 270.371 61.5753 270.167 61.3954C269.963 61.2155 269.817 60.9789 269.748 60.7158C269.679 60.4527 269.69 60.175 269.779 59.9181C269.869 59.6612 270.033 59.4366 270.25 59.2731C270.467 59.1096 270.728 59.0145 271 58.9999H271.07C271.422 58.9917 271.763 59.1225 272.02 59.3639C272.276 59.6053 272.427 59.938 272.44 60.2899V60.2699Z" stroke="#787878" stroke-linecap="round" stroke-linejoin="round"/>
<path d="M261.28 43.5402C261.294 43.8091 261.227 44.076 261.089 44.3071C260.95 44.5381 260.747 44.723 260.503 44.8381C260.26 44.9533 259.988 44.9936 259.721 44.9539C259.455 44.9143 259.207 44.7965 259.007 44.6154C258.808 44.4343 258.667 44.1982 258.602 43.9369C258.537 43.6755 258.551 43.4008 258.642 43.1475C258.734 42.8942 258.898 42.6737 259.115 42.5139C259.332 42.3542 259.591 42.2624 259.86 42.2502H259.92C260.272 42.2447 260.612 42.3781 260.866 42.6214C261.121 42.8646 261.27 43.1983 261.28 43.5502V43.5402Z" stroke="#787878" stroke-linecap="round" stroke-linejoin="round"/>
</svg>
