<svg width="556" height="639" viewBox="0 0 556 639" fill="none" xmlns="http://www.w3.org/2000/svg">
<path d="M287.631 529.3V528.3C289.631 528.3 291.631 528.3 293.631 528.22V529.22C291.651 529.27 289.631 529.3 287.631 529.3ZM281.631 529.24C279.631 529.24 277.631 529.12 275.631 529.03L275.681 528.03C277.681 528.12 279.681 528.19 281.681 528.24L281.631 529.24ZM299.631 529L299.581 528C301.581 527.9 303.581 527.78 305.581 527.63L305.661 528.63C303.681 528.75 301.661 528.9 299.651 529H299.631ZM269.631 528.68C267.631 528.53 265.631 528.37 263.631 528.18L263.731 527.18C265.731 527.37 267.731 527.54 269.731 527.68L269.631 528.68ZM311.631 528.12L311.531 527.12C313.531 526.92 315.531 526.7 317.481 526.46L317.601 527.46C315.651 527.75 313.641 527.92 311.641 528.12H311.631ZM257.631 527.54C255.631 527.3 253.631 527.03 251.631 526.75L251.771 525.75C253.721 526.03 255.721 526.3 257.711 526.53L257.631 527.54ZM323.551 526.66L323.401 525.66C325.401 525.38 327.351 525.06 329.311 524.72L329.481 525.72C327.531 526.05 325.531 526.37 323.571 526.66H323.551ZM245.731 525.82C243.731 525.49 241.781 525.12 239.821 524.74L240.011 523.74C242.011 524.12 243.951 524.48 245.901 524.81L245.731 525.82ZM335.391 524.61L335.201 523.61C337.201 523.23 339.141 522.81 341.061 522.38L341.281 523.38C339.371 523.81 337.391 524.22 335.411 524.61H335.391ZM233.931 523.52C231.981 523.09 230.011 522.63 228.081 522.16L228.321 521.16C230.241 521.63 232.201 522.09 234.151 522.51L233.931 523.52ZM347.131 522L346.881 521C348.821 520.51 350.771 520 352.671 519.48L352.941 520.48C351.041 521 349.091 521.51 347.151 522H347.131ZM222.281 520.65C220.351 520.12 218.401 519.57 216.501 519L216.781 518C218.681 518.57 220.621 519.12 222.541 519.64L222.281 520.65ZM358.741 518.81L358.451 517.81C360.341 517.24 362.261 516.63 364.161 516.01L364.471 517.01C362.571 517.63 360.641 518.24 358.741 518.81ZM210.741 517.21C208.841 516.59 206.921 515.94 205.031 515.27L205.361 514.32C207.251 514.99 209.161 515.64 211.051 516.26L210.741 517.21ZM370.131 515.05L369.801 514.11C371.651 513.45 373.541 512.75 375.411 512.03L375.771 512.97C373.911 513.69 372.021 514.39 370.151 515.05H370.131ZM199.371 513.19C197.491 512.48 195.611 511.73 193.761 510.97L194.141 510.05C195.981 510.8 197.861 511.54 199.721 512.26L199.371 513.19ZM381.371 510.74L380.991 509.82C382.821 509.06 384.661 508.28 386.471 507.48L386.881 508.39C385.071 509.19 383.221 509.99 381.381 510.75L381.371 510.74ZM188.221 508.62C186.391 507.82 184.551 506.98 182.731 506.13L183.161 505.23C184.961 506.07 186.801 506.91 188.621 507.7L188.221 508.62ZM392.331 505.91L391.901 505C393.711 504.15 395.521 503.27 397.271 502.39L397.721 503.29C395.971 504.17 394.161 505.05 392.341 505.91H392.331ZM177.331 503.51C175.551 502.63 173.751 501.7 171.971 500.76L172.441 499.87C174.211 500.81 176.001 501.74 177.771 502.62L177.331 503.51ZM403.071 500.51L402.601 499.63C404.351 498.69 406.121 497.73 407.841 496.76L408.331 497.63C406.591 498.63 404.861 499.6 403.061 500.54L403.071 500.51ZM166.681 497.85C164.921 496.85 163.161 495.85 161.471 494.85L161.981 493.99C163.671 494.99 165.411 495.99 167.171 496.99L166.681 497.85ZM413.521 494.62L413.011 493.76C414.741 492.76 416.451 491.68 418.101 490.64L418.631 491.49C416.971 492.56 415.241 493.62 413.511 494.65L413.521 494.62ZM156.321 491.75C154.611 490.68 152.911 489.59 151.261 488.49L151.811 487.66C153.451 488.75 155.151 489.84 156.811 490.91L156.321 491.75ZM423.661 488.28L423.111 487.45C424.781 486.34 426.441 485.21 428.051 484.08L428.621 484.9C427.011 486.01 425.341 487.15 423.661 488.26V488.28ZM146.281 485.11C144.631 483.97 142.991 482.79 141.391 481.61L141.981 480.81C143.571 481.98 145.211 483.15 146.851 484.29L146.281 485.11ZM433.501 481.4L432.911 480.6C434.511 479.42 436.121 478.2 437.681 477L438.291 477.79C436.721 478.98 435.111 480.2 433.501 481.38V481.4ZM136.581 478C134.981 476.77 133.401 475.51 131.861 474.26L132.491 473.49C134.021 474.73 135.601 475.98 137.191 477.2L136.581 478ZM443.001 474L442.361 473.23C443.921 471.96 445.471 470.67 446.961 469.4L447.611 470.16C446.111 471.47 444.561 472.75 443.001 474.03V474ZM127.241 470.37C125.711 469.06 124.181 467.73 122.711 466.37L123.381 465.63C124.841 466.94 126.381 468.27 127.891 469.57L127.241 470.37ZM452.131 466.2L451.461 465.46C452.951 464.12 454.461 462.75 455.871 461.4L456.551 462.13C455.121 463.52 453.631 464.88 452.131 466.23V466.2ZM118.281 462.35C116.821 460.98 115.361 459.58 113.951 458.18L114.651 457.47C116.061 458.86 117.511 460.26 118.961 461.62L118.281 462.35ZM460.861 457.99L460.151 457.28C461.571 455.88 462.991 454.44 464.361 453.02L465.081 453.71C463.721 455.14 462.301 456.58 460.861 457.99ZM109.701 453.94C108.311 452.5 106.921 451.03 105.581 449.57L106.311 448.89C107.651 450.35 109.031 451.81 110.421 453.25L109.701 453.94ZM469.201 449.33L468.461 448.66C469.821 447.18 471.161 445.66 472.461 444.2L473.211 444.86C471.931 446.34 470.581 447.85 469.221 449.33H469.201ZM101.561 445.1C100.241 443.6 98.931 442.1 97.661 440.54L98.421 439.89C99.691 441.42 101.001 442.95 102.311 444.44L101.561 445.1ZM477.121 440.28L476.351 439.64C477.621 438.11 478.891 436.54 480.121 434.99L480.911 435.62C479.691 437.17 478.421 438.75 477.141 440.28H477.121ZM93.861 435.88C92.631 434.33 91.391 432.73 90.181 431.13L90.981 430.53C92.181 432.12 93.421 433.71 94.651 435.26L93.861 435.88ZM484.591 430.88L483.791 430.27C484.991 428.68 486.181 427.05 487.331 425.45L488.151 426.03C487.011 427.62 485.861 429.25 484.611 430.86L484.591 430.88ZM86.591 426.32C85.431 424.7 84.271 423.05 83.151 421.4L83.981 420.84C85.091 422.48 86.251 424.12 87.411 425.74L86.591 426.32ZM491.591 421.1L490.761 420.53C491.881 418.89 492.991 417.21 494.071 415.53L494.911 416.08C493.861 417.75 492.731 419.43 491.611 421.08L491.591 421.1ZM79.861 416.39C78.771 414.71 77.691 413 76.661 411.31L77.511 410.79C78.511 412.47 79.611 414.17 80.701 415.79L79.861 416.39ZM498.121 410.96L497.261 410.44C498.261 408.74 499.331 407.01 500.331 405.28L501.191 405.78C500.211 407.52 499.181 409.26 498.141 410.96H498.121ZM73.581 406.16C72.581 404.43 71.581 402.67 70.641 400.94L71.511 400.45C72.511 402.18 73.451 403.93 74.451 405.66L73.581 406.16ZM504.141 400.53L503.261 400.05C504.261 398.33 505.161 396.54 506.081 394.76L506.961 395.21C506.061 397.01 505.111 398.8 504.161 400.53H504.141ZM67.861 395.64C66.941 393.87 66.041 392.07 65.171 390.29L66.071 389.85C66.931 391.62 67.831 393.42 68.751 395.19L67.861 395.64ZM509.691 389.82L508.791 389.39C509.671 387.57 510.531 385.74 511.341 383.95L512.251 384.37C511.421 386.16 510.561 388 509.671 389.82H509.691ZM62.611 384.87C61.791 383.05 60.971 381.21 60.191 379.39L61.111 378.99C61.891 380.81 62.701 382.64 63.521 384.45L62.611 384.87ZM514.681 378.87L513.761 378.48C514.541 376.64 515.311 374.77 516.041 372.93L516.971 373.29C516.211 375.12 515.441 377 514.661 378.85L514.681 378.87ZM57.861 373.85C57.121 372 56.401 370.11 55.711 368.24L56.641 367.89C57.331 369.75 58.061 371.63 58.791 373.48L57.861 373.85ZM519.081 367.64L518.141 367.3C518.831 365.42 519.501 363.51 520.141 361.63L521.141 361.95C520.471 363.84 519.791 365.75 519.101 367.64H519.081ZM53.681 362.58C53.041 360.69 52.401 358.77 51.801 356.87L52.801 356.57C53.391 358.46 54.021 360.37 54.671 362.26L53.681 362.58ZM522.961 356.22L521.961 355.92C522.551 354.02 523.131 352.09 523.671 350.19L524.671 350.46C524.161 352.37 523.581 354.31 522.981 356.22H522.961ZM50.061 351.12C49.511 349.19 48.971 347.24 48.461 345.32L49.461 345.07C49.961 346.98 50.461 348.92 51.051 350.84L50.061 351.12ZM526.271 344.66L525.271 344.41C525.771 342.48 526.271 340.52 526.711 338.6L527.711 338.83C527.281 340.75 526.791 342.75 526.291 344.66H526.271ZM47.011 339.49C46.551 337.55 46.101 335.58 45.691 333.63L46.691 333.42C47.101 335.36 47.541 337.33 48.001 339.26L47.011 339.49ZM529.011 332.96L528.011 332.75C528.411 330.8 528.801 328.83 529.151 326.88L530.151 327.06C529.861 329.01 529.431 331 529.031 332.96H529.011ZM44.541 327.75C44.181 325.75 43.841 323.75 43.541 321.83L44.541 321.67C44.851 323.67 45.201 325.67 45.541 327.57L44.541 327.75ZM531.191 321.15L530.191 321C530.501 319 530.791 317.06 531.051 315.07L532.051 315.2C531.791 317.18 531.501 319.18 531.191 321.13V321.15ZM42.641 315.88C42.371 313.88 42.121 311.88 41.901 309.88L42.901 309.77C43.121 311.77 43.361 313.77 43.631 315.71L42.641 315.88ZM532.771 309.24L531.771 309.13C531.981 307.13 532.171 305.13 532.341 303.13L533.341 303.21C533.181 305.24 532.981 307.25 532.771 309.22V309.24ZM41.321 303.93C41.141 301.93 40.991 299.93 40.871 297.93L41.871 297.87C41.991 299.87 42.141 301.87 42.311 303.87L41.321 303.93ZM533.771 297.26L532.771 297.2C532.891 295.2 532.981 293.2 533.051 291.2H534.051C533.981 293.22 533.861 295.24 533.771 297.24V297.26ZM40.571 291.94C40.491 289.94 40.441 287.94 40.411 285.94H41.411C41.411 287.94 41.491 289.94 41.571 291.94H40.571ZM534.191 285.25H533.191C533.191 284.31 533.191 283.37 533.191 282.43C533.191 281.49 533.191 280.32 533.191 279.27H534.191C534.191 280.33 534.191 281.39 534.191 282.45C534.191 283.51 534.201 284.28 534.191 285.23V285.25ZM41.401 279.94H40.401C40.401 277.94 40.471 275.94 40.531 273.94H41.531C41.461 275.91 41.421 277.92 41.401 279.92V279.94ZM533.041 273.27C532.971 271.27 532.871 269.27 532.751 267.27L533.751 267.21C533.871 269.21 533.971 271.21 534.041 273.21L533.041 273.27ZM41.861 267.95L40.861 267.89C40.971 265.89 41.111 263.89 41.281 261.89L42.281 261.97C42.061 263.95 41.921 265.96 41.861 267.95ZM532.371 261.3C532.201 259.3 532.001 257.3 531.791 255.3L532.791 255.19C533.011 257.19 533.201 259.19 533.381 261.19L532.371 261.3ZM42.841 256.02L41.841 255.91C42.051 253.91 42.291 251.91 42.551 249.91L43.551 250.04C43.231 252.05 43.001 254.05 42.791 256.02H42.841ZM531.071 249.4C530.801 247.4 530.511 245.4 530.201 243.48L531.201 243.32C531.511 245.32 531.801 247.32 532.071 249.27L531.071 249.4ZM44.351 244.15L43.351 244C43.661 242 43.991 240 44.351 238.07L45.351 238.25C44.991 240.2 44.651 242.18 44.351 244.15ZM529.141 237.58C528.771 235.58 528.381 233.63 527.981 231.7L528.981 231.5C529.381 233.43 529.771 235.42 530.141 237.39L529.141 237.58ZM46.481 232.37L45.481 232.17C45.881 230.22 46.321 228.24 46.771 226.3L47.771 226.52C47.311 228.46 46.861 230.43 46.481 232.37ZM526.681 225.86C526.221 223.86 525.741 221.95 525.241 220.05L526.241 219.79C526.741 221.71 527.241 223.67 527.681 225.63L526.681 225.86ZM49.191 220.75L48.191 220.5C48.691 218.58 49.191 216.62 49.771 214.7L50.771 214.97C50.211 216.85 49.681 218.75 49.191 220.75ZM523.651 214.32C523.101 212.39 522.521 210.46 521.931 208.58L522.881 208.28C523.471 210.16 524.061 212.1 524.611 214.04L523.651 214.32ZM52.471 209.23L51.471 208.94C52.071 207.02 52.701 205.09 53.341 203.2L54.281 203.52C53.691 205.36 53.061 207.29 52.471 209.19V209.23ZM520.061 202.85C519.421 200.98 518.751 199.08 518.061 197.21L519.001 196.87C519.691 198.75 520.371 200.65 521.001 202.53L520.061 202.85ZM56.321 197.85L55.381 197.51C56.071 195.62 56.801 193.72 57.531 191.87L58.461 192.24C57.731 194.04 57.011 195.93 56.321 197.81V197.85ZM515.921 191.66C515.191 189.83 514.421 187.97 513.651 186.15L514.571 185.76C515.351 187.59 516.111 189.45 516.851 191.29L515.921 191.66ZM60.731 186.66L59.811 186.27C60.591 184.42 61.401 182.56 62.221 180.75L63.131 181.16C62.321 182.95 61.511 184.8 60.731 186.64V186.66ZM511.241 180.66C510.421 178.85 509.571 177.04 508.701 175.26L509.601 174.82C510.471 176.61 511.331 178.43 512.151 180.24L511.241 180.66ZM65.671 175.75L64.771 175.31C65.641 173.51 66.541 171.7 67.461 169.92L68.341 170.38C67.441 172.11 66.541 173.92 65.671 175.75ZM506.031 169.95C505.131 168.19 504.191 166.42 503.231 164.67L504.111 164.19C505.111 165.95 506.021 167.73 506.921 169.49L506.031 169.95ZM71.151 165.07L70.271 164.59C71.271 162.84 72.211 161.07 73.211 159.34L74.081 159.84C73.081 161.53 72.101 163.29 71.151 165.03V165.07ZM500.311 159.47C499.311 157.76 498.311 156.03 497.251 154.33L498.111 153.81C499.111 155.52 500.181 157.25 501.171 158.96L500.311 159.47ZM77.131 154.68L76.281 154.16C77.281 152.45 78.401 150.74 79.471 149.06L80.321 149.6C79.241 151.23 78.171 152.94 77.131 154.64V154.68ZM494.071 149.27C492.991 147.59 491.881 145.92 490.771 144.27L491.601 143.71C492.711 145.34 493.821 147.02 494.911 148.71L494.071 149.27ZM83.621 144.6L82.791 144.04C83.911 142.38 85.071 140.72 86.231 139.1L87.041 139.68C85.861 141.26 84.731 142.91 83.621 144.56V144.6ZM487.351 139.39C486.191 137.77 485.001 136.15 483.811 134.57L484.611 133.97C485.801 135.56 487.001 137.18 488.161 138.8L487.351 139.39ZM90.581 134.84L89.781 134.24C90.981 132.66 92.211 131.05 93.461 129.48L94.241 130.1C93.001 131.63 91.771 133.22 90.581 134.8V134.84ZM480.151 129.84C478.921 128.28 477.651 126.72 476.381 125.19L477.151 124.55C478.421 126.08 479.701 127.65 480.941 129.22L480.151 129.84ZM98.011 125.45L97.241 124.81C98.521 123.27 99.831 121.73 101.141 120.23L101.891 120.88C100.591 122.34 99.281 123.88 98.011 125.41V125.45ZM472.501 120.64C471.191 119.15 469.851 117.64 468.501 116.19L469.241 115.51C470.591 116.98 471.941 118.51 473.241 119.98L472.501 120.64ZM105.861 116.38L105.121 115.7C106.471 114.23 107.851 112.76 109.241 111.32L109.961 112.01C108.601 113.44 107.221 114.91 105.861 116.38ZM464.401 111.75C463.021 110.31 461.601 108.88 460.201 107.49L460.901 106.78C462.311 108.17 463.731 109.61 465.121 111.05L464.401 111.75ZM114.181 107.75L113.471 107.04C114.891 105.63 116.351 104.22 117.791 102.86L118.481 103.58C117.041 104.95 115.591 106.35 114.181 107.75ZM455.861 103.37C454.431 102.02 452.941 100.65 451.451 99.3205L452.121 98.5705C453.621 99.9105 455.121 101.28 456.551 102.64L455.861 103.37ZM122.861 99.5305L122.191 98.7905C123.671 97.4605 125.191 96.1205 126.701 94.7905L127.351 95.5505C125.861 96.8805 124.351 98.2105 122.861 99.5305ZM446.961 95.3705C445.441 94.0705 443.891 92.7805 442.361 91.5305L442.991 90.7605C444.531 92.0105 446.091 93.3105 447.611 94.6105L446.961 95.3705ZM131.961 91.7505L131.331 90.9805C132.871 89.7205 134.451 88.4605 136.031 87.2405L136.641 88.0305C135.071 89.2405 133.501 90.4905 131.961 91.7505ZM437.691 87.8205C436.121 86.6105 434.511 85.3905 432.911 84.2105L433.501 83.4105C435.111 84.5905 436.731 85.8105 438.301 87.0305L437.691 87.8205ZM141.411 84.4205L140.821 83.6105C142.421 82.4305 144.061 81.2505 145.691 80.1105L146.261 80.9305C144.641 82.0605 143.011 83.2305 141.411 84.4105V84.4205ZM428.041 80.7505C426.401 79.6105 424.731 78.4705 423.041 77.3705L423.601 76.5405C425.251 77.6405 426.931 78.7805 428.601 79.9305L428.041 80.7505ZM151.201 77.5505L150.651 76.7105C152.311 75.6105 154.001 74.5105 155.651 73.4505L156.181 74.2905C154.541 75.3505 152.861 76.4405 151.201 77.5505ZM418.051 74.0805C416.361 73.0205 414.641 71.9705 412.931 70.9505L413.451 70.0905C415.161 71.0905 416.891 72.1705 418.581 73.2305L418.051 74.0805ZM161.301 71.1705L160.791 70.3105C162.501 69.3105 164.251 68.3105 165.981 67.3105L166.471 68.1805C164.741 69.1405 163.011 70.1505 161.301 71.1705ZM407.751 67.9505C406.011 66.9505 404.241 65.9505 402.481 65.0705L402.951 64.1905C404.711 65.1205 406.491 66.0905 408.241 67.0805L407.751 67.9505ZM171.751 65.2905L171.281 64.4105C173.041 63.4705 174.831 62.5405 176.611 61.6505L177.061 62.5405C175.241 63.4305 173.451 64.3505 171.701 65.2905H171.751ZM397.201 62.2905C395.421 61.4005 393.611 60.5205 391.801 59.6705L392.231 58.7705C394.041 59.6205 395.861 60.5005 397.651 61.3905L397.201 62.2905ZM182.371 59.9305L181.941 59.0205C183.751 58.1705 185.581 57.3305 187.391 56.5305L187.801 57.4405C185.991 58.2405 184.171 59.0805 182.371 59.9305ZM386.291 57.2205C384.451 56.4105 382.591 55.6105 380.771 54.8705L381.151 53.9405C382.981 54.6905 384.841 55.4905 386.691 56.3005L386.291 57.2205ZM193.291 55.0905L192.911 54.1705C194.761 53.4005 196.641 52.6505 198.491 51.9405L198.851 52.8705C197.001 53.5805 195.131 54.3305 193.281 55.0905H193.291ZM375.191 52.6505C373.311 51.9305 371.411 51.2305 369.551 50.5705L369.881 49.6305C371.761 50.2905 373.661 51.0005 375.541 51.7205L375.191 52.6505ZM204.451 50.7505L204.111 49.7505C205.991 49.0805 207.901 48.4305 209.801 47.7505L210.111 48.7505C208.221 49.4605 206.321 50.1205 204.451 50.7505ZM363.861 48.6305C361.951 48.0105 360.021 47.4105 358.121 46.8305L358.411 45.8305C360.321 46.4005 362.261 47.0105 364.171 47.6305L363.861 48.6305ZM215.861 47.0305L215.571 46.0305C217.491 45.4505 219.431 44.8905 221.341 44.3605L221.611 45.3605C219.661 45.8905 217.731 46.4505 215.861 47.0305ZM352.421 45.1805C350.491 44.6605 348.551 44.1805 346.621 43.6705L346.861 42.6705C348.791 43.1505 350.751 43.6705 352.681 44.1905L352.421 45.1805ZM227.421 43.8405L227.171 42.8405C229.111 42.3505 231.081 41.8405 233.021 41.4505L233.241 42.4505C231.241 42.8905 229.281 43.3505 227.361 43.8405H227.421ZM340.821 42.3105C338.881 41.8805 336.911 41.4705 334.961 41.0805L335.151 40.0805C337.151 40.4705 339.091 40.8805 341.031 41.3105L340.821 42.3105ZM239.101 41.2105L238.901 40.2105C240.851 39.8305 242.841 39.4505 244.811 39.1105L244.981 40.1105C242.961 40.4605 240.981 40.8305 239.041 41.2105H239.101ZM329.101 40.0005C327.101 39.6705 325.151 39.3505 323.191 39.0705L323.331 38.0705C325.331 38.3505 327.331 38.6705 329.271 39.0105L329.101 40.0005ZM250.861 39.1605L250.721 38.1605C252.721 37.8605 254.721 37.5905 256.671 37.3405L256.801 38.3405C254.791 38.6005 252.801 38.8705 250.861 39.1605ZM317.191 38.2705C315.191 38.0405 313.191 37.8205 311.241 37.6305L311.341 36.6305C313.341 36.8205 315.341 37.0405 317.341 37.2805L317.191 38.2705ZM262.741 37.6905L262.651 36.6905C264.651 36.4905 266.651 36.3205 268.651 36.1705L268.731 37.1705C266.691 37.3205 264.691 37.5005 262.711 37.6905H262.741ZM305.281 37.1205C303.281 36.9805 301.281 36.8605 299.281 36.7705V35.7705C301.281 35.8605 303.281 35.9805 305.281 36.1305V37.1205ZM274.681 36.8005L274.631 35.8005C276.631 35.7005 278.631 35.6205 280.631 35.5705V36.5705C278.651 36.6205 276.631 36.7505 274.651 36.8005H274.681ZM293.321 36.5505C291.321 36.5505 289.321 36.4805 287.321 36.4805H286.641V35.4805H287.321C289.321 35.4805 291.321 35.4805 293.321 35.5505V36.5505Z" fill="#2F2E41"/>
<path d="M487.121 430.05C486.71 430.049 486.303 429.967 485.924 429.808C485.545 429.65 485.2 429.418 484.911 429.127C484.621 428.835 484.392 428.489 484.235 428.109C484.079 427.729 484 427.322 484.001 426.91C484.008 426.401 484.134 425.901 484.371 425.451L494.581 406.36C494.998 405.678 495.659 405.181 496.431 404.971C497.202 404.761 498.025 404.855 498.73 405.232C499.435 405.609 499.968 406.242 500.222 407.001C500.475 407.759 500.428 408.585 500.091 409.31L489.861 428.4C489.597 428.898 489.202 429.314 488.719 429.605C488.237 429.895 487.684 430.049 487.121 430.05Z" fill="#2F2E41"/>
<path d="M526.631 430.05C526.064 430.051 525.508 429.898 525.022 429.608C524.536 429.317 524.138 428.899 523.871 428.4L513.661 409.31C513.261 408.603 513.152 407.769 513.356 406.983C513.561 406.197 514.062 405.521 514.755 405.098C515.448 404.675 516.278 404.538 517.07 404.715C517.863 404.893 518.555 405.371 519.001 406.05C519.064 406.15 519.12 406.253 519.171 406.36L529.381 425.45C529.634 425.926 529.76 426.459 529.747 426.998C529.733 427.537 529.581 428.063 529.304 428.526C529.028 428.989 528.636 429.372 528.168 429.639C527.699 429.906 527.17 430.047 526.631 430.05Z" fill="#2F2E41"/>
<path d="M506.871 417.16C522.313 417.16 534.831 404.642 534.831 389.2C534.831 373.758 522.313 361.24 506.871 361.24C491.429 361.24 478.911 373.758 478.911 389.2C478.911 404.642 491.429 417.16 506.871 417.16Z" fill="#0071F2"/>
<path d="M506.871 413.16C520.104 413.16 530.831 402.433 530.831 389.2C530.831 375.968 520.104 365.24 506.871 365.24C493.638 365.24 482.911 375.968 482.911 389.2C482.911 402.433 493.638 413.16 506.871 413.16Z" fill="white"/>
<path d="M511.461 399.11L506.711 389.6C506.551 389.51 506.551 389.29 506.551 389.2V387.95C506.631 384.7 506.831 376.29 506.941 371.44H507.581C507.581 371.44 507.481 375.9 507.371 380.37C507.371 382.6 507.261 384.84 507.221 386.51C507.258 387.371 507.228 388.234 507.131 389.09L511.981 398.8L511.461 399.11Z" fill="#2F2E41"/>
<path d="M522.661 359.91C522.134 356.212 520.291 352.829 517.471 350.382C514.65 347.934 511.041 346.587 507.306 346.587C503.571 346.587 499.962 347.934 497.141 350.382C494.321 352.829 492.478 356.212 491.951 359.91H522.661Z" fill="#0071F2"/>
<path d="M506.871 390.98C507.854 390.98 508.651 390.183 508.651 389.2C508.651 388.217 507.854 387.42 506.871 387.42C505.888 387.42 505.091 388.217 505.091 389.2C505.091 390.183 505.888 390.98 506.871 390.98Z" fill="#2F2E41"/>
<path d="M555.291 248.22C555.294 252.267 554.499 256.274 552.952 260.013C551.406 263.752 549.137 267.15 546.277 270.012C543.417 272.874 540.02 275.145 536.282 276.694C532.544 278.243 528.537 279.04 524.491 279.04C522.768 279.049 521.048 278.901 519.351 278.6C513.559 277.62 508.169 275.005 503.814 271.063C499.46 267.121 496.323 262.017 494.773 256.351C493.223 250.685 493.325 244.695 495.067 239.085C496.809 233.476 500.118 228.481 504.604 224.69C509.091 220.898 514.568 218.468 520.389 217.686C526.211 216.904 532.134 217.803 537.462 220.276C542.79 222.749 547.3 226.693 550.461 231.644C553.621 236.595 555.301 242.347 555.301 248.22H555.291Z" fill="#0071F2"/>
<path d="M519.391 278.92L519.281 278.29C526.402 277.118 532.873 273.448 537.533 267.937C542.193 262.427 544.738 255.437 544.711 248.22C544.711 234.02 534.711 220.87 521.401 217.63L521.551 217.01C535.111 220.31 545.351 233.73 545.351 248.22C545.378 255.587 542.78 262.723 538.023 268.349C533.266 273.974 526.66 277.722 519.391 278.92Z" fill="#2F2E41"/>
<path d="M541.981 247.66C535.531 247.66 528.401 243.55 522.481 236.32C515.771 228.12 507.971 226.37 502.601 226.32V225.75C508.111 225.75 516.111 227.57 522.981 235.97C529.341 243.74 537.431 247.97 544.101 246.91C548.531 246.23 552.001 243.27 553.881 238.57L554.471 238.8C552.471 243.72 548.851 246.8 544.201 247.54C543.466 247.64 542.723 247.68 541.981 247.66Z" fill="#2F2E41"/>
<path d="M528.361 258.75C524.597 258.717 520.842 258.383 517.131 257.75C509.064 256.378 501.189 254.052 493.671 250.82L493.931 250.24C494.351 250.43 535.811 269.08 555.061 247.96L555.531 248.39C549.311 255.26 540.031 258.75 528.361 258.75Z" fill="#2F2E41"/>
<path d="M509.751 272.75C508.34 272.75 506.93 272.66 505.531 272.48L505.611 271.85C510.948 272.563 516.378 271.838 521.341 269.75C533.111 264.6 541.041 263.34 544.921 266C545.566 266.377 546.126 266.883 546.565 267.488C547.004 268.092 547.312 268.781 547.471 269.51L546.841 269.61C546.695 268.967 546.416 268.362 546.024 267.831C545.631 267.301 545.133 266.858 544.561 266.53C540.881 264 533.151 265.28 521.561 270.33C517.832 271.938 513.812 272.762 509.751 272.75Z" fill="#2F2E41"/>
<path d="M495.191 126.06C495.191 139.78 483.971 154.34 473.191 154.34C470.561 154.34 463.711 154.34 461.271 153.41C447.941 148.27 442.801 135.51 442.801 124.41C442.801 118.64 444.521 112.41 449.081 108.53C455.081 103.44 461.801 106.64 468.821 106.64C474.921 106.64 483.491 104.14 488.151 107.58C494.051 111.93 495.191 119.24 495.191 126.06Z" fill="#0071F2"/>
<path opacity="0.2" d="M487.991 116.84C487.101 118.38 484.431 118.49 481.991 117.1C479.551 115.71 478.351 113.34 479.231 111.81C480.111 110.28 482.791 110.16 485.231 111.55C487.671 112.94 488.861 115.31 487.991 116.84Z" fill="black"/>
<path d="M467.431 108.77L467.891 107.68L474.431 92.4395L470.091 91.7695L465.761 107.1L467.431 108.77Z" fill="#2F2E41"/>
<path d="M468.431 98.4396C468.431 98.4396 465.431 91.7696 461.091 90.7696C456.751 89.7696 444.761 95.4396 444.761 95.4396C444.761 95.4396 450.761 99.7696 455.431 101.1C460.101 102.43 468.431 98.4396 468.431 98.4396Z" fill="#0071F2"/>
<path d="M303.281 81.6903C302.281 76.2603 300.951 62.0903 302.121 56.8503C302.821 53.6676 303.081 50.4037 302.891 47.1503V28.1503C303.454 25.5861 303.388 22.9239 302.701 20.3903C301.541 16.3203 292.611 7.58031 292.611 7.58031V4.48031H292.041L289.591 4.38031V4.32031H288.151V4.38031L285.691 4.48031H285.121V7.58031C285.121 7.58031 276.201 16.3203 275.031 20.3903C274.35 22.9256 274.292 25.5877 274.861 28.1503V47.1503C274.67 50.4042 274.932 53.6688 275.641 56.8503C276.801 62.0903 275.441 76.2603 274.471 81.6903C273.501 87.1203 273.891 91.2003 276.991 92.7503C279.581 94.0503 286.621 93.1803 288.891 92.8603C291.161 93.1803 298.191 94.0503 300.781 92.7503C303.861 91.2003 304.251 87.1203 303.281 81.6903Z" fill="white"/>
<path d="M281.651 93.7504C280.012 93.8426 278.372 93.5975 276.831 93.0304C273.831 91.5504 273.011 87.9204 274.141 81.6304C275.141 75.7704 276.421 61.9404 275.301 56.9104C274.602 53.6936 274.34 50.3973 274.521 47.1104V28.1104C273.945 25.5028 274.017 22.7937 274.731 20.2204C275.861 16.3604 283.781 8.44039 284.861 7.43039V4.16039L285.721 4.11039L288.211 3.95039H288.931L289.931 3.90039V3.99039L292.931 4.13039V7.40039C293.931 8.40039 301.931 16.3304 303.011 20.2504C303.722 22.8245 303.791 25.5336 303.211 28.1404V47.1404C303.402 50.4174 303.14 53.7052 302.431 56.9104C301.311 61.9104 302.551 75.7704 303.601 81.6304C304.721 87.9204 303.871 91.5504 300.901 93.0304C298.301 94.3304 291.661 93.5704 288.901 93.1704C286.5 93.5237 284.078 93.7174 281.651 93.7504ZM285.441 4.75039V7.75039L285.351 7.84039C285.261 7.93039 276.471 16.5604 275.351 20.5104C274.684 22.9891 274.618 25.5914 275.161 28.1004V47.1504C274.977 50.3805 275.236 53.6206 275.931 56.7804C277.131 62.2104 275.661 76.7804 274.771 81.7804C273.701 87.7804 274.451 91.1604 277.121 92.5004C279.641 93.7604 286.711 92.8804 288.821 92.5704H288.911C291.021 92.8704 298.101 93.7604 300.621 92.5004C303.291 91.1604 304.041 87.7504 302.971 81.7804C302.071 76.7804 300.601 62.2404 301.811 56.7804C302.502 53.6301 302.761 50.4005 302.581 47.1804V28.0504C303.12 25.5406 303.052 22.9383 302.381 20.4604C301.261 16.4604 292.471 7.88039 292.381 7.79039L292.281 7.70039V4.75039H292.011L289.261 4.64039H288.351L288.141 4.69039L285.441 4.75039Z" fill="#2F2E41"/>
<path d="M299.501 57.9004C300.062 55.1818 300.27 52.4022 300.121 49.6304V40.4004H277.611V49.6304C277.462 52.4022 277.67 55.1818 278.231 57.9004C279.171 62.3604 278.081 74.4304 277.301 79.0604C276.521 83.6904 276.831 87.1704 279.301 88.4904C281.381 89.5904 287.031 88.8604 288.851 88.5804C290.671 88.8604 296.311 89.5804 298.391 88.4904C300.881 87.1704 301.191 83.7004 300.391 79.0604C299.591 74.4204 298.571 62.3604 299.501 57.9004Z" fill="#0071F2"/>
<path d="M293.461 0H284.151V5.24H293.461V0Z" fill="#2F2E41"/>
<path d="M92.3011 119.84H99.0811L106.461 106L113.941 122.46L115.221 119.07H124.601L134.601 96.39L141.031 117.51H152.771C156.052 113.699 157.773 108.789 157.587 103.764C157.402 98.7384 155.324 93.9686 151.771 90.41C148.022 86.6728 142.945 84.5742 137.651 84.5742C132.358 84.5742 127.28 86.6728 123.531 90.41L121.471 92.47L119.401 90.4C115.591 86.994 110.621 85.1758 105.513 85.3188C100.404 85.4617 95.5437 87.555 91.9299 91.1688C88.3161 94.7826 86.2228 99.6427 86.0799 104.751C85.9369 109.86 87.755 114.83 91.1611 118.64L92.3011 119.84Z" fill="#0071F2"/>
<path d="M138.421 121.01L133.981 106.42L126.881 122.56H117.641L114.251 131.59L106.211 113.89L101.171 123.34H95.801L121.421 148.96L149.371 121.01H138.421Z" fill="#0071F2"/>
<path d="M27.921 238.55C27.921 238.55 26.661 234.35 22.921 233.55C19.181 232.75 11.171 233.97 9.92102 229.36C8.67102 224.75 14.541 226 13.281 222.22C12.021 218.44 2.78103 218.44 0.68103 211.3C-1.41897 204.16 1.52102 196.61 6.98102 199.13C12.441 201.65 14.981 212.13 17.061 216.34C19.141 220.55 18.741 212.14 24.611 211.34C30.481 210.54 36.371 215.12 32.611 221C28.851 226.88 28.981 231.45 29.671 234.43C30.151 236.52 30.271 236.36 30.271 236.36L27.921 238.55Z" fill="#0071F2"/>
<path d="M6.66103 210.11C4.44103 206.45 4.18102 204.48 4.17102 204.4L4.80103 204.32C5.26811 206.271 6.08463 208.121 7.21103 209.78L6.66103 210.11Z" fill="#2F2E41"/>
<path d="M28.981 237.63C28.0733 234.022 26.279 230.698 23.761 227.96C21.8581 225.919 19.8202 224.008 17.661 222.24C14.5291 219.711 11.6732 216.859 9.14099 213.73C8.78099 213.24 8.44099 212.78 8.14099 212.33L8.661 211.97C8.971 212.41 9.311 212.86 9.661 213.34C12.1607 216.438 14.987 219.257 18.091 221.75C20.2658 223.543 22.3233 225.473 24.251 227.53C26.8633 230.351 28.7117 233.794 29.621 237.53L28.981 237.63Z" fill="#2F2E41"/>
<path d="M41.0911 231.75C41.0911 231.75 21.8611 235.55 21.8611 253.75C21.8611 271.95 73.6611 307.47 77.5011 300.75C81.3411 294.03 62.5011 254.28 57.6911 245.65C52.8811 237.02 47.8011 230.75 41.0911 231.75Z" fill="#E6E7E8"/>
<path d="M27.501 267.1C27.501 267.1 34.221 257.02 40.501 254.1" stroke="#D1D3D4" stroke-miterlimit="10"/>
<path d="M61.091 257.02C56.3901 258.984 52.112 261.836 48.491 265.42" stroke="#D1D3D4" stroke-miterlimit="10"/>
<path d="M51.8611 288.09C51.8611 288.09 54.8011 280.53 61.9311 276.75" stroke="#D1D3D4" stroke-miterlimit="10"/>
<path d="M50.591 248.21L46.391 250.73" stroke="#D1D3D4" stroke-miterlimit="10"/>
<path d="M67.8011 273.81L64.8611 274.65" stroke="#D1D3D4" stroke-miterlimit="10"/>
<path d="M61.1111 419.26C78.37 419.26 92.3611 405.269 92.3611 388.01C92.3611 370.751 78.37 356.76 61.1111 356.76C43.8522 356.76 29.8611 370.751 29.8611 388.01C29.8611 405.269 43.8522 419.26 61.1111 419.26Z" fill="#0071F2"/>
<path opacity="0.5" d="M69.2511 366.33C69.2511 371.67 64.3911 383.18 61.1111 383.18C57.8311 383.18 52.9711 371.67 52.9711 366.33C52.9711 360.99 57.8311 359.41 61.1111 359.41C64.3911 359.41 69.2511 360.99 69.2511 366.33Z" fill="white"/>
<path opacity="0.5" d="M46.401 370.12C51.031 372.79 59.051 381.59 57.401 384.43C55.751 387.27 42.881 386.89 38.251 384.22C33.621 381.55 34.691 376.55 36.331 373.71C37.971 370.87 41.781 367.45 46.401 370.12Z" fill="white"/>
<path opacity="0.5" d="M38.2611 391.8C42.8911 389.13 56.1111 386.8 57.7511 389.63C59.3911 392.46 51.0311 403.23 46.4011 405.9C41.7711 408.57 37.9811 405.15 36.3411 402.31C34.7011 399.47 33.6411 394.47 38.2611 391.8Z" fill="white"/>
<path opacity="0.5" d="M52.9711 409.69C52.9711 404.35 57.8311 391.33 61.1111 391.33C64.3911 391.33 69.2511 404.33 69.2511 409.69C69.2511 415.05 64.3911 416.61 61.1111 416.61C57.8311 416.61 52.9711 415.03 52.9711 409.69Z" fill="white"/>
<path opacity="0.5" d="M75.861 405.9C71.241 403.23 63.631 393.15 65.271 390.31C66.911 387.47 79.381 389.13 84.001 391.8C88.621 394.47 87.561 399.47 85.931 402.31C84.301 405.15 80.441 408.57 75.861 405.9Z" fill="white"/>
<path opacity="0.5" d="M83.951 384.22C79.331 386.89 66.861 388.06 65.221 385.22C63.581 382.38 71.221 372.79 75.811 370.12C80.401 367.45 84.241 370.87 85.881 373.71C87.521 376.55 88.581 381.55 83.951 384.22Z" fill="white"/>
<path d="M535.091 526.91C535.091 526.91 525.621 562.83 508.291 580.34C508.291 580.34 503.201 586.54 501.601 585.23C501.111 584.83 500.931 583.75 501.331 581.58C503.152 576.457 504.141 571.075 504.261 565.64C504.223 562.26 503.459 558.928 502.021 555.87C500.481 552.48 498.111 545.8 501.021 541.26L514.861 522.58C514.861 522.58 513.511 513.85 522.441 519.58C522.441 519.58 530.381 521.15 533.701 524.18C534.108 524.515 534.441 524.93 534.68 525.4C534.919 525.87 535.059 526.384 535.091 526.91Z" fill="#0071F2"/>
<path d="M540.371 530.48C532.861 557.55 514.721 580.84 509.751 586.86C509.211 587.543 508.538 588.11 507.774 588.528C507.009 588.946 506.168 589.205 505.301 589.29C501.391 589.59 501.501 585.42 501.501 585.42L501.601 585.23C503.201 586.54 508.291 580.34 508.291 580.34C525.621 562.83 535.091 526.91 535.091 526.91C535.056 526.38 534.911 525.864 534.664 525.394C534.418 524.924 534.076 524.51 533.661 524.18C535.51 524.531 537.266 525.26 538.821 526.32C539.483 526.763 539.989 527.403 540.267 528.15C540.545 528.896 540.581 529.711 540.371 530.48Z" fill="#2F2E41"/>
<path d="M501.031 541.26C489.251 525.45 468.861 512.81 468.861 512.81C443.861 497.29 416.861 488.09 416.861 488.09C401.351 486.09 390.111 456.21 390.111 456.21C398.661 454.63 405.651 452.95 411.321 451.31C415.431 450.13 418.841 448.95 421.651 447.86C422.651 447.49 423.551 447.12 424.421 446.74C425.911 446.1 427.191 445.5 428.281 444.96C428.591 444.81 428.881 444.66 429.171 444.49C429.921 444.1 430.561 443.73 431.101 443.4C431.641 443.07 432.001 442.84 432.411 442.57C432.875 442.26 433.322 441.927 433.751 441.57V441.66C430.841 463.39 439.571 463.41 439.571 463.41C461.991 470.3 471.181 480.08 471.181 480.08C481.861 489.56 514.861 522.6 514.861 522.6C521.441 536.95 501.031 541.26 501.031 541.26Z" fill="#F9B499"/>
<path d="M501.031 541.26C507.531 537.19 509.191 534.05 509.191 534.05C515.981 525.12 483.631 495.05 483.631 495.05C457.001 470.05 435.201 469.85 435.201 469.85C418.041 470.21 426.801 460.92 426.801 460.92C430.021 456.44 425.191 455.56 425.191 455.56C410.931 455.86 410.971 452.34 411.301 451.27C411.337 451.162 411.384 451.058 411.441 450.96C414.893 450.103 418.295 449.054 421.631 447.82C422.631 447.45 423.531 447.08 424.401 446.7C425.841 446.1 427.131 445.5 428.261 444.92C428.571 444.77 428.861 444.62 429.151 444.45C429.861 444.08 430.501 443.72 431.081 443.36C431.661 443 431.981 442.8 432.391 442.53C432.801 442.26 433.331 441.89 433.721 441.6C430.811 463.33 439.541 463.35 439.541 463.35C461.961 470.24 471.151 480.02 471.151 480.02C481.781 489.5 514.821 522.54 514.821 522.54C521.441 536.95 501.031 541.26 501.031 541.26Z" fill="#F7A48B"/>
<path d="M411.431 450.99C411.431 450.99 427.701 447.64 436.221 439.43C436.221 439.43 432.361 410.03 428.461 395.55C426.912 398.74 425.728 402.094 424.931 405.55L414.451 442.63L411.431 450.99Z" fill="#2F2E41"/>
<path opacity="0.2" d="M411.431 450.99C411.431 450.99 427.701 447.64 436.221 439.43C436.221 439.43 432.361 410.03 428.461 395.55C426.912 398.74 425.728 402.094 424.931 405.55L414.451 442.63L411.431 450.99Z" fill="black"/>
<path d="M346.351 367.8C346.351 367.8 347.351 403.93 345.811 423.99C345.371 428.537 344.332 433.005 342.721 437.28C341.591 440.41 341.421 445.07 348.511 447.64C348.511 447.64 396.511 462.15 407.831 457.42C407.831 457.42 411.611 452.68 414.451 442.59L424.931 405.51C425.872 402.098 427.052 398.756 428.461 395.51C430.831 390.09 434.461 379.3 431.461 369.91L428.371 355.47L401.861 340.05L346.351 367.8Z" fill="#2F2E41"/>
<path d="M317.941 262L329.941 266.39C329.941 266.39 334.231 265.58 336.731 280.59C336.731 280.59 341.381 354.22 346.381 367.8C346.381 367.8 422.151 354.58 431.451 369.95C431.451 369.95 433.231 361.01 427.871 342.78C427.871 342.78 420.721 270.23 422.871 234.84L445.031 245.92C445.031 245.92 453.251 231.98 465.031 234.84C466.699 234.465 468.428 234.463 470.097 234.835C471.765 235.207 473.33 235.942 474.681 236.99C474.681 236.99 471.831 228.05 459.681 219.11L425.011 188.02C425.011 188.02 418.581 180.16 400.011 180.51L382.441 177.1H363.511L347.451 198.8C347.451 198.8 331.341 200.17 326.341 226.26L317.941 262Z" fill="#0071F2"/>
<path opacity="0.2" d="M398.321 220.81L422.841 234.81C421.791 264.517 422.901 294.262 426.161 323.81L427.861 342.75C427.861 342.75 432.861 358.98 431.441 369.92C431.441 369.92 428.531 359.41 383.541 363.22L365.631 365C365.631 365 388.161 347 377.631 331C377.631 331 363.011 312 386.101 287.45C386.101 287.45 387.241 277.8 398.661 270.45C402.398 268.377 405.418 265.218 407.32 261.391C409.222 257.564 409.916 253.25 409.311 249.02C409.124 247.54 408.789 246.083 408.311 244.67C406.611 239.34 401.721 226.75 398.321 220.81Z" fill="black"/>
<path d="M376.991 543.83C376.991 543.83 385.991 543.83 385.411 551.83C385.411 551.83 373.241 614.06 358.591 624.83C358.591 624.83 351.671 630.18 351.671 620.32L376.991 543.83Z" fill="#2F2E41"/>
<path d="M350.081 592.57C346.881 587.35 340.651 575 348.971 568.99C348.971 568.99 358.691 565.49 360.161 549.26V539.68C360.161 539.68 378.221 542.68 378.221 544.93C378.221 544.93 382.651 580.59 353.681 621.13C353.476 621.354 353.191 621.489 352.887 621.504C352.584 621.519 352.287 621.413 352.061 621.21C351.94 621.102 351.843 620.97 351.777 620.821C351.712 620.673 351.679 620.512 351.681 620.35V598.29C351.682 596.272 351.129 594.294 350.081 592.57Z" fill="#0071F2"/>
<path d="M175.311 283.37L158.111 266.37C158.111 266.37 132.441 261.48 138.971 250.51C138.971 250.51 137.111 244.91 141.071 244.21C141.071 244.21 139.211 238.38 144.071 238.38C144.071 238.38 139.401 233.71 147.071 233.94C147.071 233.94 150.841 233.01 156.541 237.21C160.73 240.968 163.68 245.909 165.001 251.38C165.211 252.182 165.621 252.918 166.191 253.52L174.291 261.98C174.291 261.98 174.761 277.21 175.311 283.37Z" fill="#F9B499"/>
<path d="M158.111 266.39C158.111 266.39 162.541 265.47 163.941 255.9C164.459 259.09 164.583 262.331 164.311 265.55C164.221 266.356 164.303 267.173 164.551 267.945C164.799 268.717 165.208 269.428 165.751 270.03C166.549 270.92 167.422 271.74 168.361 272.48C168.529 272.609 168.721 272.704 168.925 272.759C169.13 272.813 169.343 272.827 169.553 272.799C169.763 272.771 169.966 272.702 170.149 272.596C170.332 272.49 170.493 272.349 170.621 272.18C170.843 271.895 170.959 271.542 170.951 271.18V258.44L174.361 262C174.361 262 174.511 273 175.311 283.37L158.111 266.39Z" fill="#F7A48B"/>
<path d="M141.071 255.9C141.071 255.9 152.071 262.51 156.611 258.62C156.611 258.62 162.921 253.38 150.931 243.02L141.071 255.9Z" fill="#F7A48B"/>
<path d="M246.961 145.93C251.386 147.173 255.348 149.69 258.353 153.168C261.358 156.646 263.273 160.931 263.861 165.49C264.079 166.896 264.113 168.325 263.961 169.74C263.391 175.36 262.961 194.31 282.871 197.32C282.871 197.32 261.471 202.57 245.871 193.32C240.04 189.831 235.658 184.363 233.521 177.913C231.384 171.463 231.636 164.46 234.231 158.18L234.351 157.9C237.953 153.32 242.2 149.288 246.961 145.93Z" fill="#2F2E41"/>
<path d="M189.631 170.46C189.631 170.46 206.261 185.46 185.181 207.11L189.581 205.43C189.581 205.43 202.791 203.87 225.351 178.13C225.351 178.13 225.951 177.19 230.101 175.61C230.101 175.61 224.511 174.14 222.431 166.46L226.511 153.3L219.681 139.58L189.631 170.46Z" fill="#F9B499"/>
<path d="M189.631 170.46C189.631 170.46 194.731 174.66 195.791 183.78C195.791 183.78 207.171 167.52 208.701 155.48C208.701 155.48 201.991 169.66 189.631 170.46Z" fill="#F7A48B"/>
<path d="M212.81 143.619C216.043 126.688 209.218 111.159 197.565 108.934C185.913 106.709 173.846 118.631 170.613 135.562C167.38 152.493 174.206 168.021 185.858 170.246C197.511 172.471 209.578 160.55 212.81 143.619Z" fill="#F9B499"/>
<path d="M180.451 115.53C180.451 115.53 183.451 97.8696 202.651 95.0896C209.799 93.8452 217.134 94.2142 224.121 96.1696C230.779 98.1173 236.716 101.982 241.191 107.281C245.667 112.58 248.484 119.08 249.291 125.97C250.064 132.027 249.019 138.177 246.291 143.64C246.291 143.64 235.131 148.85 231.731 158.12C231.731 158.12 227.731 170.79 222.461 166.46C222.461 166.46 219.751 168.09 220.181 145.96L213.571 133.69C213.571 133.69 209.791 136.79 209.091 139.58C208.528 137.784 208.354 135.888 208.581 134.02C208.705 132.457 208.398 130.89 207.693 129.49C206.987 128.089 205.911 126.91 204.581 126.08C199.511 122.9 191.681 117.82 187.111 113.92C186.414 113.324 185.528 112.997 184.611 112.997C183.695 112.997 182.808 113.324 182.111 113.92C181.524 114.42 180.969 114.958 180.451 115.53Z" fill="#2F2E41"/>
<path d="M225.351 225.58C225.351 225.58 238.661 229.74 243.811 225.58C243.811 225.58 245.031 220.48 234.581 220.48C234.581 220.48 229.761 220.95 229.061 218.14C229.061 218.14 237.391 220.01 240.061 212.75C240.061 212.75 247.871 223.02 255.511 225.61C255.471 225.61 237.861 235.6 225.351 225.58Z" stroke="#ED1C24" stroke-width="0.25" stroke-miterlimit="10"/>
<path d="M243.141 177.18C243.141 177.18 230.351 172.44 225.351 178.13C225.351 178.13 204.911 201.71 189.581 205.43C186.66 206.081 183.972 207.52 181.811 209.59C174.361 217 160.741 235.05 174.351 258.31C174.351 258.31 173.891 296.58 181.181 314.57L182.781 329.83C182.781 329.83 199.631 312.98 224.231 312.75L247.011 312.52C247.011 312.52 235.851 280.52 244.731 262C244.731 262 260.021 236.21 259.321 225.85L243.141 177.18Z" fill="#0071F2"/>
<path d="M266.231 471.03C258.631 483.89 240.231 493.54 240.231 493.54C229.131 485.05 218.021 454.66 218.021 454.66C216.281 459.24 212.831 463.92 210.021 467.25C207.273 470.483 205.76 474.586 205.751 478.83V478.91C192.881 481.84 175.431 474.23 175.431 474.23C164.911 470.34 168.571 460.99 168.571 460.99C180.331 428.89 185.201 376.47 186.631 357.47C186.948 353.699 186.485 349.904 185.271 346.32C182.831 339.32 182.801 329.83 182.801 329.83C204.861 310.55 224.241 312.75 224.241 312.75L247.011 312.52C275.471 343.65 266.231 374.68 261.091 386.36C259.495 390.007 258.808 393.988 259.091 397.96L263.001 452.9C264.732 456.677 265.979 460.659 266.711 464.75C267.401 469.5 266.231 471.03 266.231 471.03Z" fill="#2F2E41"/>
<path opacity="0.2" d="M191.691 478.92C191.691 478.92 189.941 472.75 200.171 463.75C200.171 463.75 224.791 422.89 231.171 391C231.85 387.52 233.111 384.18 234.901 381.12C238.271 375.39 243.781 365.12 246.491 354.75C247.409 351.381 247.476 347.838 246.687 344.437C245.898 341.036 244.277 337.885 241.969 335.265C239.662 332.645 236.74 330.639 233.466 329.427C230.192 328.215 226.668 327.834 223.211 328.32C218.614 329.019 214.127 330.31 209.861 332.16C209.861 332.16 195.531 339.16 183.251 336.52C182.948 334.303 182.804 332.067 182.821 329.83C182.821 329.83 201.461 312.98 224.231 312.75L247.011 312.52C247.011 312.52 280.011 341.78 261.011 386.08C259.451 389.712 258.782 393.666 259.061 397.61L260.301 415.02C260.301 415.02 225.131 446.32 241.801 468.39C241.801 468.39 249.871 480.17 256.871 481.88C251.769 486.38 246.173 490.289 240.191 493.53C240.191 493.53 231.131 488.66 217.971 454.65C215.971 459.238 213.273 463.488 209.971 467.25C209.971 467.25 205.971 470.73 205.691 478.92C201.089 480.02 196.293 480.02 191.691 478.92Z" fill="black"/>
<path d="M214.251 313.88C214.701 315.57 215.061 317.29 215.361 319.02L215.791 321.61L216.121 324.22C216.541 327.7 216.814 331.193 216.941 334.7C217.215 341.705 217.027 348.72 216.381 355.7C215.124 369.675 212.519 383.496 208.601 396.97C207.721 400.37 206.601 403.68 205.471 406.97L203.821 411.97C203.241 413.63 202.581 415.25 201.961 416.89L200.081 421.81C199.451 423.44 198.861 425.09 198.141 426.69L193.961 436.34L177.281 474.94L193.861 436.33L198.001 426.67C198.721 425.07 199.301 423.42 199.931 421.78L201.801 416.87C202.411 415.23 203.071 413.6 203.641 411.95L205.271 406.95C206.351 403.62 207.501 400.31 208.371 396.95C212.319 383.502 214.961 369.705 216.261 355.75C216.919 348.77 217.123 341.756 216.871 334.75C216.761 331.25 216.501 327.75 216.081 324.27L215.761 321.66L215.341 319.07C215.051 317.29 214.701 315.57 214.251 313.88Z" fill="white"/>
<path d="M227.981 312.75C228.899 319.889 229.313 327.083 229.221 334.28L229.161 339.68C229.111 341.48 228.991 343.27 228.901 345.07C228.811 346.87 228.761 348.66 228.601 350.46L228.111 355.83C226.67 370.155 224.221 384.36 220.781 398.34L217.861 408.75L217.141 411.35L216.771 412.65L216.351 413.93L214.671 419.06L212.981 424.18L212.131 426.75L211.711 428.03L211.231 429.29L207.361 439.36L205.361 444.36L203.171 449.29L198.861 459.16C198.171 460.82 197.331 462.41 196.521 464.02L194.091 468.84L189.221 478.47L194.061 468.82L196.481 464C197.281 462.39 198.121 460.8 198.811 459.13L203.151 449.25L205.321 444.32L207.251 439.32L211.091 429.24L211.571 427.98L211.991 426.69L212.821 424.13L214.501 419L216.171 413.87L216.591 412.59L216.941 411.29L217.661 408.69L220.511 398.28C224.008 384.299 226.505 370.086 227.981 355.75L228.491 350.38C228.661 348.59 228.701 346.79 228.811 344.99C228.921 343.19 229.021 341.4 229.081 339.61L229.161 334.21C229.263 327.038 228.869 319.868 227.981 312.75Z" fill="white"/>
<path d="M204.911 509.2C207.101 546.55 189.261 582.8 189.261 582.8C183.861 597.45 186.601 606.6 186.601 606.6C162.431 623.08 159.121 587.19 159.121 587.19C171.211 576.58 167.941 495.65 167.941 495.65C167.051 485.903 167.051 476.096 167.941 466.35C169.221 472.54 175.411 474.23 175.411 474.23C178.604 475.538 181.877 476.641 185.211 477.53C201.051 481.03 205.731 478.91 205.731 478.91L204.911 509.2Z" fill="#F9B499"/>
<path d="M188.031 622.84C187.301 628.08 180.531 627.94 175.181 626.97C172.329 626.488 169.563 625.592 166.971 624.31C159.411 620.46 145.481 621 145.481 621C116.631 624.67 107.011 602.17 107.011 602.17C105.091 598.84 105.201 596.81 106.251 595.61C108.541 592.93 115.401 594.19 115.401 594.19C130.751 595.62 151.401 588.66 151.401 588.66C158.971 583.55 159.121 587.19 159.121 587.19C159.121 587.19 162.431 623.08 186.601 606.6L188.031 622.84Z" fill="#0071F2"/>
<path d="M188.031 622.84C187.211 646.58 161.231 631.62 161.231 631.62C154.685 627.567 147.018 625.703 139.341 626.3C110.901 624.07 104.681 604.22 104.681 604.22C100.081 595.22 106.231 595.61 106.231 595.61C105.181 596.81 105.071 598.84 106.991 602.17C106.991 602.17 116.611 624.67 145.461 621C145.461 621 159.391 620.46 166.951 624.31C169.543 625.592 172.309 626.488 175.161 626.97C180.531 627.94 187.301 628.08 188.031 622.84Z" fill="#2F2E41"/>
<path d="M360.161 549.26C359.501 564.07 348.971 568.99 348.971 568.99L320.031 545.99C302.031 531.15 274.031 512.55 260.591 503.85C256.593 501.232 252.292 499.11 247.781 497.53C242.391 495.67 240.211 493.53 240.211 493.53C240.211 493.53 258.631 483.88 266.211 471.02C266.211 471.02 267.381 469.49 266.691 464.74C293.621 474.6 320.341 503.54 320.341 503.54L360.161 549.26Z" fill="#F9B499"/>
<path d="M258.431 480.47C258.431 480.47 275.301 477.57 285.501 488.42L359.111 555.82C359.589 553.658 359.923 551.466 360.111 549.26L320.361 503.55C320.361 503.55 294.461 475.14 266.711 464.75C266.711 464.75 267.771 468.65 266.231 471.03C264.143 474.567 261.51 477.752 258.431 480.47Z" fill="#F7A48B"/>
<path d="M342.601 169.75C342.601 169.75 348.231 176.44 348.821 192.4C348.896 194.159 348.614 195.916 347.99 197.562C347.366 199.209 346.413 200.712 345.191 201.98C341.821 205.42 337.441 211.32 338.321 218.14C338.411 218.93 338.812 219.652 339.434 220.147C340.057 220.642 340.851 220.87 341.641 220.78C341.912 220.749 342.178 220.681 342.431 220.58C345.831 219.19 351.431 215.4 356.881 205.06C356.881 205.06 370.881 178.38 382.391 177.06L377.731 167.32L376.521 148.8L342.601 169.75Z" fill="#F9B499"/>
<path d="M342.601 169.75C342.601 169.75 346.161 172.66 348.101 184.81C348.101 184.81 358.501 173.87 365.001 166.57L342.601 169.75Z" fill="#F7A48B"/>
<path opacity="0.2" d="M332.361 267.85C332.361 267.85 331.021 261.79 333.541 248.39" stroke="black" stroke-miterlimit="10"/>
<path d="M401.191 286C408.792 280.279 416.694 274.968 424.861 270.09C424.861 270.09 443.921 250.99 444.971 245.92C444.971 245.92 453.311 231.92 464.971 234.84C464.971 234.84 470.651 233.12 474.621 236.99C474.621 236.99 487.621 256.73 474.621 263.13C474.621 263.13 442.541 285.52 419.211 297.07C414.271 299.53 409.856 302.926 406.211 307.07C401.771 312.07 394.691 318.65 386.321 321.39C386.321 321.39 380.031 325.33 380.031 321.39C380.031 321.39 372.281 325.04 374.331 319.05C374.331 319.05 365.171 318.71 370.091 311.59C370.091 311.59 365.741 308.22 372.431 302.24C372.431 302.24 379.011 289.81 387.051 290.11L395.351 288.56C397.469 288.167 399.467 287.291 401.191 286Z" fill="#F9B499"/>
<path d="M334.501 623.49C334.51 624.043 334.443 624.595 334.301 625.13C334.032 626.25 333.436 627.265 332.588 628.045C331.74 628.825 330.68 629.335 329.541 629.51C324.011 630.27 316.051 627.51 316.051 627.51C305.331 623.17 285.921 624.19 285.921 624.19C264.971 622.92 258.431 602.19 258.431 602.19C258.426 602.181 258.423 602.17 258.423 602.16C258.423 602.149 258.426 602.139 258.431 602.13C258.401 601.704 258.401 601.276 258.431 600.85C260.061 597.11 276.221 598.36 276.221 598.36C292.301 598.62 300.221 594.03 300.221 594.03C311.421 587.9 307.651 597.09 307.651 597.09L331.401 611.09C333.921 614.54 334.441 620.14 334.501 623.49Z" fill="#0071F2"/>
<path d="M334.501 625.18C333.321 648.99 307.621 633.36 307.621 633.36C301.711 629.59 288.881 627.64 281.751 626.81C275.141 626.119 269.031 622.971 264.631 617.99C260.824 613.562 258.631 607.975 258.411 602.14C258.406 602.149 258.403 602.159 258.403 602.17C258.403 602.18 258.406 602.191 258.411 602.2C258.411 602.2 264.951 622.89 285.901 624.2C285.901 624.2 305.311 623.2 316.031 627.52C316.031 627.52 324.031 630.31 329.521 629.52C330.66 629.345 331.721 628.835 332.568 628.055C333.416 627.275 334.012 626.26 334.281 625.14L334.501 625.18Z" fill="#2F2E41"/>
<path d="M221.401 144.314C224.338 139.926 224.256 134.721 221.218 132.687C218.18 130.653 213.336 132.561 210.399 136.948C207.461 141.336 207.543 146.541 210.581 148.575C213.62 150.609 218.464 148.701 221.401 144.314Z" fill="#F9B499"/>
<path d="M232.421 156.43C232.396 156.61 232.406 156.793 232.452 156.969C232.497 157.145 232.577 157.31 232.687 157.455C232.797 157.6 232.934 157.722 233.091 157.813C233.247 157.905 233.421 157.965 233.601 157.99C233.849 158.022 234.101 157.987 234.331 157.89C234.331 157.89 244.281 147.82 246.961 145.89C246.961 145.89 248.291 144.7 247.161 143.57C246.933 143.351 246.641 143.211 246.327 143.172C246.014 143.132 245.696 143.195 245.421 143.35C243.081 144.64 236.201 148.82 232.421 156.43Z" fill="#0071F2"/>
<path d="M260.401 226.41C259.535 225.836 258.535 225.494 257.498 225.417C256.462 225.34 255.423 225.53 254.481 225.97C246.371 229.73 224.051 237.37 217.481 211.47C217.481 211.47 211.621 191.93 237.371 178.83C239.293 177.854 241.393 177.281 243.545 177.145C245.696 177.009 247.852 177.314 249.881 178.04C256.711 180.5 267.251 187.04 277.881 204.3C278.863 205.903 280.103 207.332 281.551 208.53C289.651 215.2 317.271 239.3 317.821 258.25C317.846 259.6 317.449 260.924 316.686 262.037C315.922 263.151 314.83 263.998 313.561 264.46C307.951 266.56 294.881 269.95 265.971 272.23C265.971 272.23 248.031 272.23 240.051 277.23C240.051 277.23 225.231 285.29 212.051 282.99C211.78 282.947 211.52 282.852 211.285 282.708C211.051 282.565 210.847 282.377 210.686 282.155C210.524 281.933 210.408 281.682 210.344 281.415C210.279 281.148 210.268 280.871 210.311 280.6C210.311 280.6 210.311 280.53 210.311 280.5C210.443 279.955 210.68 279.442 211.011 278.99C211.011 278.99 204.291 280.45 204.881 275.19C204.881 275.19 197.271 277.82 199.321 270.8C199.321 270.8 195.991 270.18 196.181 267.35C196.27 266.384 196.72 265.488 197.441 264.84L200.441 262.03C200.441 262.03 193.171 263.79 193.171 258.82C196.537 258.551 199.879 258.04 203.171 257.29C212.291 254.822 222.013 255.998 230.281 260.57C230.281 260.57 268.791 257.67 286.471 245.3C286.573 245.232 286.66 245.145 286.729 245.044C286.797 244.942 286.844 244.829 286.868 244.709C286.893 244.589 286.893 244.466 286.869 244.346C286.846 244.226 286.799 244.112 286.731 244.01C286.66 243.909 286.572 243.821 286.471 243.75L260.401 226.41Z" fill="#F9B499"/>
<path d="M282.141 209.05C282.141 209.05 304.471 236.17 300.951 249.05C300.951 249.05 297.211 264.4 273.551 267.85C273.551 267.85 248.171 267.85 240.021 277.2C240.021 277.2 245.021 273.6 255.471 272.92C255.471 272.92 297.301 270.86 313.831 264.32C315.141 263.793 316.247 262.858 316.982 261.652C317.717 260.447 318.043 259.036 317.911 257.63C317.591 253.84 315.911 247.76 310.281 238.93C310.281 238.93 296.351 219.3 282.141 209.05Z" fill="#F7A48B"/>
<path d="M209.861 262C208.331 263.722 206.659 265.311 204.861 266.75C203.119 268.241 201.252 269.579 199.281 270.75C202.358 267.329 205.923 264.381 209.861 262Z" fill="#F7A48B"/>
<path d="M204.861 275.16C207.548 272.218 210.708 269.748 214.211 267.85C212.884 269.318 211.421 270.658 209.841 271.85C208.288 273.106 206.621 274.215 204.861 275.16Z" fill="#F7A48B"/>
<path d="M210.981 278.96C212.72 276.77 214.959 275.032 217.511 273.89C215.782 276.089 213.54 277.83 210.981 278.96Z" fill="#F7A48B"/>
<path d="M138.261 255.9C138.261 255.9 147.421 258.12 146.671 254.03C146.671 254.03 151.221 253.26 149.241 249.37C149.241 249.37 152.801 249.96 153.431 247.26C153.539 246.764 153.514 246.248 153.358 245.765C153.201 245.282 152.919 244.849 152.541 244.51C150.075 242.037 147.229 239.974 144.111 238.4C144.111 238.4 139.441 237.76 141.111 244.23C141.111 244.23 136.911 245.16 139.011 250.53C138.971 250.53 136.861 253.57 138.261 255.9Z" fill="#F9B499"/>
<path d="M146.671 254.03C144.22 253.653 141.926 252.593 140.051 250.97C141.274 251.131 142.462 251.489 143.571 252.03C144.702 252.531 145.748 253.206 146.671 254.03Z" fill="#F7A48B"/>
<path d="M149.241 249.37C147.888 248.951 146.594 248.359 145.391 247.61C144.164 246.892 143.041 246.011 142.051 244.99C144.763 245.854 147.229 247.356 149.241 249.37Z" fill="#F7A48B"/>
<path d="M390.591 457.48C390.051 465.2 378.461 476.31 378.461 476.31C372.691 482.69 371.731 491.39 371.731 491.39L366.861 532.99C361.861 559.99 354.271 566.74 350.811 568.43C349.461 569.048 348.264 569.955 347.303 571.087C346.342 572.218 345.642 573.547 345.251 574.98C344.8 576.82 344.652 578.721 344.811 580.61L331.361 611.13C317.301 619.04 309.851 602.95 308.051 598.3C307.913 597.953 307.872 597.576 307.932 597.208C307.992 596.839 308.151 596.495 308.391 596.21C325.571 575.82 336.681 505.77 333.931 495.46C331.121 484.98 337.751 470.17 337.751 470.17C341.461 462.76 343.121 447.55 343.411 444.76V444.31C346.811 447.58 348.471 447.63 348.471 447.63C367.441 453.44 390.591 457.48 390.591 457.48Z" fill="#F9B499"/>
<path d="M390.591 457.48C390.051 465.2 378.461 476.31 378.461 476.31C372.691 482.69 371.731 491.39 371.731 491.39L366.861 532.99C361.641 566.22 350.861 568.43 350.861 568.43C343.571 571.55 344.861 580.61 344.861 580.61L331.411 611.13C315.071 620.33 307.661 597.13 307.661 597.13C319.661 608.39 326.811 604.65 326.811 604.65C345.891 578.29 359.631 521.32 364.091 500.98C365.042 496.742 364.95 492.335 363.821 488.14C360.321 475.4 365.651 472.01 365.651 472.01C379.751 457.93 354.961 454.52 354.961 454.52C343.961 453.04 343.401 446.52 343.461 444.8V444.75C343.451 444.621 343.451 444.49 343.461 444.36C346.861 447.63 348.521 447.68 348.521 447.68C367.441 453.44 390.591 457.48 390.591 457.48Z" fill="#F7A48B"/>
<path d="M377.691 144.474C381.622 126.655 374.46 109.926 361.694 107.11C348.928 104.294 335.393 116.457 331.462 134.276C327.532 152.095 334.694 168.823 347.459 171.639C360.225 174.455 373.76 162.293 377.691 144.474Z" fill="#F9B499"/>
<path d="M366.521 118.57C366.521 118.57 334.521 119.5 333.521 100.21C333.521 100.21 336.631 106.12 341.301 107.05C339.978 105.711 338.98 104.085 338.384 102.3C337.787 100.514 337.609 98.6156 337.861 96.75C337.861 96.75 344.081 106.39 358.711 102.04C358.711 102.04 390.821 92.95 397.951 122.91C398.157 123.778 398.264 124.667 398.271 125.56C398.381 131.99 397.561 158.29 377.691 167.32L376.481 148.8L368.201 139.59C368.201 139.59 365.301 142.12 365.891 132.04L366.521 118.57Z" fill="#2F2E41"/>
<path d="M379.74 144.405C381.599 139.92 380.533 135.218 377.359 133.903C374.186 132.588 370.107 135.158 368.248 139.642C366.389 144.127 367.455 148.829 370.629 150.144C373.802 151.459 377.882 148.89 379.74 144.405Z" fill="#F9B499"/>
<path d="M297.001 275.16C299.001 275.88 325.551 303.16 337.411 290.93L336.701 280.59C336.701 280.59 335.701 268.52 329.911 266.39L323.861 264.17L313.861 264.32C314.736 263.728 315.401 262.874 315.76 261.88C316.119 260.887 316.155 259.805 315.861 258.79C316.26 257.73 316.273 256.562 315.898 255.493C315.524 254.424 314.785 253.52 313.811 252.94C313.811 252.94 293.931 242.86 292.621 254.26C291.652 255.36 291.013 256.712 290.78 258.16C290.546 259.607 290.727 261.091 291.301 262.44C291.301 262.44 288.521 267.44 293.051 269.17C292.981 269.17 291.221 273.11 297.001 275.16Z" fill="#F9B499"/>
<path d="M313.861 258.12C313.861 258.12 303.181 252.65 292.511 254.26" stroke="#F7A48B" stroke-miterlimit="10"/>
<path d="M312.421 263.03C312.421 263.03 298.001 257.96 290.951 261.59" stroke="#F7A48B" stroke-miterlimit="10"/>
<path d="M292.981 269.17C292.981 269.17 294.881 262.59 306.721 265.66" stroke="#F7A48B" stroke-miterlimit="10"/>
<path d="M299.861 272.09C299.861 272.09 312.511 267.91 315.151 263.03C315.151 263.03 313.861 271.71 305.791 273.35C305.662 273.377 305.54 273.428 305.431 273.501C305.322 273.575 305.229 273.669 305.157 273.779C305.084 273.888 305.034 274.011 305.009 274.14C304.984 274.269 304.985 274.402 305.011 274.53V274.65L305.831 277.2L299.861 272.09Z" fill="#F7A48B"/>
<path d="M370.161 311.55L382.391 301.37" stroke="#F7A48B" stroke-miterlimit="10"/>
<path d="M374.401 319.01L386.371 307.96" stroke="#F7A48B" stroke-miterlimit="10"/>
<path d="M380.101 321.35L389.281 313.49" stroke="#F7A48B" stroke-miterlimit="10"/>
</svg>
