<svg width="674" height="612" viewBox="0 0 674 612" fill="none" xmlns="http://www.w3.org/2000/svg">
<path d="M555.125 111.76C531.282 88.2098 503.659 68.8243 473.405 54.4099C428.345 33.3399 378.685 23.1799 329.075 22.5799C183.985 20.8199 172.965 191.22 128.375 214.93C83.785 238.64 2.93505 241.4 0.145045 336.14C-1.60495 395.75 12.305 457.04 51.435 503.5C87.245 546.04 139.935 567.59 191.805 583.5C250.065 601.4 311.805 618.92 373.125 606.91C435.995 594.52 480.175 544.74 531.825 511.09C564.325 489.9 593.515 467.59 613.595 433.6C615.995 429.53 618.235 425.33 620.375 421.2C647.255 368.38 652.525 307.44 637.705 250.28C624.405 199.02 594.435 150.1 555.125 111.76Z" fill="#0071F2"/>
<path opacity="0.7" d="M555.125 111.76C531.282 88.2098 503.659 68.8243 473.405 54.4099C428.345 33.3399 378.685 23.1799 329.075 22.5799C183.985 20.8199 172.965 191.22 128.375 214.93C83.785 238.64 2.93505 241.4 0.145045 336.14C-1.60495 395.75 12.305 457.04 51.435 503.5C87.245 546.04 139.935 567.59 191.805 583.5C250.065 601.4 311.805 618.92 373.125 606.91C435.995 594.52 480.175 544.74 531.825 511.09C564.325 489.9 593.515 467.59 613.595 433.6C615.995 429.53 618.235 425.33 620.375 421.2C647.255 368.38 652.525 307.44 637.705 250.28C624.405 199.02 594.435 150.1 555.125 111.76Z" fill="white"/>
<path d="M324.475 611.93C501.72 611.93 645.405 599.461 645.405 584.08C645.405 568.699 501.72 556.23 324.475 556.23C147.23 556.23 3.54504 568.699 3.54504 584.08C3.54504 599.461 147.23 611.93 324.475 611.93Z" fill="#0071F2"/>
<g opacity="0.5">
<path d="M324.475 611.93C501.72 611.93 645.405 599.461 645.405 584.08C645.405 568.699 501.72 556.23 324.475 556.23C147.23 556.23 3.54504 568.699 3.54504 584.08C3.54504 599.461 147.23 611.93 324.475 611.93Z" fill="white"/>
</g>
<path d="M413.985 167.59C413.985 167.59 427.495 140.74 435.525 130.97C435.525 130.97 440.815 116.65 439.355 109.06C439.355 109.02 417.125 122.26 413.985 167.59Z" fill="#0071F2"/>
<path opacity="0.5" d="M413.985 167.59C413.985 167.59 427.495 140.74 435.525 130.97C435.525 130.97 440.815 116.65 439.355 109.06C439.355 109.02 417.125 122.26 413.985 167.59Z" fill="white"/>
<path d="M434.595 96.4199C434.595 96.4199 442.165 102.42 438.305 120.16C438.305 120.16 437.215 125.45 435.525 130.97C434.388 134.696 432.842 138.284 430.915 141.67C427.585 147.55 420.525 161.08 425.325 162.31C425.325 162.31 430.895 164.77 452.325 133.2C458.226 120.414 465.187 108.144 473.135 96.5199C473.135 96.5199 461.335 84.0199 457.755 68.7199C457.755 68.7199 459.635 60.7199 455.655 56.6299L450.325 66.4099C450.325 66.4099 454.235 91.3599 434.595 96.4199Z" fill="#F9B499"/>
<path d="M341.115 197.17C341.115 197.17 333.375 202.89 338.475 203.33C338.552 203.338 338.625 203.369 338.685 203.419C338.744 203.47 338.786 203.537 338.805 203.612C338.825 203.688 338.821 203.767 338.794 203.84C338.767 203.913 338.719 203.976 338.655 204.02C336.955 205.13 334.085 207.39 335.905 208.94C335.905 208.94 337.025 210.22 341.305 207.94C341.378 207.894 341.465 207.874 341.551 207.884C341.638 207.895 341.718 207.934 341.778 207.996C341.839 208.058 341.877 208.138 341.885 208.225C341.894 208.311 341.873 208.398 341.825 208.47C340.875 210.08 339.645 212.69 341.095 213.34C341.095 213.34 343.045 214.39 347.285 210.01C347.285 210.01 356.155 213.51 360.785 211.5C360.785 211.5 364.785 207.75 359.035 196.18C359.035 196.21 356.155 189.27 341.115 197.17Z" fill="#0071F2"/>
<path opacity="0.2" d="M341.115 197.17C341.115 197.17 333.375 202.89 338.475 203.33C338.552 203.338 338.625 203.369 338.685 203.419C338.744 203.47 338.786 203.537 338.805 203.612C338.825 203.688 338.821 203.767 338.794 203.84C338.767 203.913 338.719 203.976 338.655 204.02C336.955 205.13 334.085 207.39 335.905 208.94C335.905 208.94 337.025 210.22 341.305 207.94C341.378 207.894 341.465 207.874 341.551 207.884C341.638 207.895 341.718 207.934 341.778 207.996C341.839 208.058 341.877 208.138 341.885 208.225C341.894 208.311 341.873 208.398 341.825 208.47C340.875 210.08 339.645 212.69 341.095 213.34C341.095 213.34 343.045 214.39 347.285 210.01C347.285 210.01 356.155 213.51 360.785 211.5C360.785 211.5 364.785 207.75 359.035 196.18C359.035 196.21 356.155 189.27 341.115 197.17Z" fill="black"/>
<path d="M397.545 339.74H412.545C412.545 339.74 421.995 284.61 421.995 274.37C421.995 274.37 422.285 240.13 416.435 218.27L397.545 339.74Z" fill="#0071F2"/>
<path opacity="0.5" d="M397.545 339.74H412.545C412.545 339.74 421.995 284.61 421.995 274.37C421.995 274.37 422.285 240.13 416.435 218.27L397.545 339.74Z" fill="white"/>
<path d="M369.545 241.3L377.415 218.3L415.485 224.79C416.466 228.818 417.201 232.902 417.685 237.02C418.045 240.02 418.235 242.86 418.325 245.51L401.045 251.93L369.545 241.3Z" fill="#0071F2"/>
<path opacity="0.6" d="M369.545 241.3L377.415 218.3L415.485 224.79C416.466 228.818 417.201 232.902 417.685 237.02C418.045 240.02 418.235 242.86 418.325 245.51L401.045 251.93L369.545 241.3Z" fill="white"/>
<path d="M517.685 575.58C517.685 575.58 520.245 570.72 520.245 566.81L543.245 565.81C543.245 565.81 545.815 591.97 543.245 591.01C543.305 591.02 527.685 591.02 517.685 575.58Z" fill="#F9B499"/>
<path d="M410.625 576.07C412.323 572.246 413.339 568.154 413.625 563.98L436.505 566.43C436.505 566.43 438.845 592.5 436.265 591.53C436.225 591.53 418.875 594.67 410.625 576.07Z" fill="#F9B499"/>
<path d="M435.525 131.02C435.525 131.02 426.525 142.02 413.985 167.64C413.985 167.64 400.545 183.87 413.985 218.32C413.985 218.32 423.095 256.65 417.745 291.32L410.105 339.75C410.105 339.75 394.345 423.62 398.285 445.67C398.285 445.67 407.345 546.08 412.465 568.13C412.465 568.13 438.845 568.92 443.965 566.56C443.965 566.56 441.605 470.48 443.965 450.4C443.965 450.4 449.475 411.81 463.655 384.64C463.655 384.64 458.195 354.57 457.385 342.64L452.315 133.22C452.315 133.22 438.465 154.31 428.885 160.9C428.456 161.208 427.969 161.425 427.453 161.537C426.937 161.649 426.403 161.653 425.885 161.55C424.315 161.24 422.735 159.86 424.805 154.87C426.177 151.054 427.821 147.341 429.725 143.76C429.725 143.76 434.365 135.51 435.525 131.02Z" fill="#0071F2"/>
<path d="M512.485 567.95C512.485 567.95 470.745 461.57 468.545 427.89L463.685 384.63C463.685 384.63 457.685 353.22 457.415 342.63C457.415 342.63 507.275 344.79 525.415 342.03L519.415 422.36C518.328 439.707 519.838 457.119 523.895 474.02L545.555 567.93C545.555 567.93 525.145 568.69 512.485 567.95Z" fill="#0071F2"/>
<path opacity="0.2" d="M512.485 567.95C512.485 567.95 470.745 461.57 468.545 427.89L463.685 384.63C463.685 384.63 457.685 353.22 457.415 342.63C457.415 342.63 507.275 344.79 525.415 342.03L519.415 422.36C518.328 439.707 519.838 457.119 523.895 474.02L545.555 567.93C545.555 567.93 525.145 568.69 512.485 567.95Z" fill="black"/>
<path d="M259.225 448.28H248.685V523.09H259.225V448.28Z" fill="#A7A9AC"/>
<path d="M255.925 519.93H251.975V563.13H255.925V519.93Z" fill="#A7A9AC"/>
<path d="M201.895 580.55V572.68C201.895 570.715 202.676 568.83 204.065 567.44C205.455 566.051 207.34 565.27 209.305 565.27H299.165C301.13 565.27 303.015 566.051 304.405 567.44C305.794 568.83 306.575 570.715 306.575 572.68V580.55H311.085L310.845 571.55C310.769 568.588 309.539 565.772 307.417 563.704C305.295 561.636 302.448 560.479 299.485 560.48H208.205C206.688 560.481 205.187 560.785 203.789 561.375C202.391 561.965 201.126 562.829 200.067 563.916C199.009 565.002 198.178 566.29 197.625 567.702C197.071 569.115 196.806 570.623 196.845 572.14L197.065 580.59L201.895 580.55Z" fill="#A7A9AC"/>
<path d="M206.575 432.94H300.575C305.548 432.94 310.317 434.915 313.833 438.432C317.35 441.948 319.325 446.717 319.325 451.69V452.5H187.825V451.69C187.825 446.717 189.8 441.948 193.317 438.432C196.833 434.915 201.602 432.94 206.575 432.94Z" fill="#D1D3D4"/>
<path d="M230.095 130.74C230.095 130.74 234.265 113.85 255.635 120.34C263.598 122.778 270.701 127.432 276.115 133.76C283.115 141.97 290.785 155.63 284.315 172.14C284.315 172.14 277.545 186.29 268.915 190.84L212.995 226.36L199.215 237.53C199.215 237.53 180.675 224.22 193.215 204.19C193.215 204.19 196.955 197.25 208.835 184.19C208.835 184.19 225.775 169.63 221.225 149.03C220.509 146.025 220.591 142.884 221.465 139.92C222.086 137.822 223.19 135.899 224.689 134.304C226.188 132.71 228.039 131.489 230.095 130.74Z" fill="#2F2E41"/>
<path d="M146.385 568.48C146.346 568.476 146.31 568.459 146.282 568.432C146.254 568.406 146.235 568.371 146.228 568.333C146.221 568.294 146.227 568.255 146.245 568.22C146.262 568.186 146.29 568.158 146.325 568.14C148.325 566.95 154.975 561.58 150.085 545.92L111.415 428.79C111.415 428.79 85.6851 373.74 139.685 371.7L219.935 372.25L253.995 433.12L189.685 432.94L166.875 568.3C165.599 567.785 164.182 567.739 162.875 568.17C162.875 568.17 158.975 570.3 154.985 576.34C154.955 576.34 150.155 569.24 146.385 568.48Z" fill="#2F2E41"/>
<path opacity="0.2" d="M146.385 568.48C146.346 568.476 146.31 568.459 146.282 568.432C146.254 568.406 146.235 568.371 146.228 568.333C146.221 568.294 146.227 568.255 146.245 568.22C146.262 568.186 146.29 568.158 146.325 568.14C148.325 566.95 154.975 561.58 150.085 545.92L111.415 428.79C111.415 428.79 85.6851 373.74 139.685 371.7L219.935 372.25L253.995 433.12L189.685 432.94L166.875 568.3C165.599 567.785 164.182 567.739 162.875 568.17C162.875 568.17 158.975 570.3 154.985 576.34C154.955 576.34 150.155 569.24 146.385 568.48Z" fill="black"/>
<path d="M276.135 210.12C260.025 234.37 245.225 234.01 243.605 233.69C227.025 231.92 234.425 211.79 234.425 211.79C237.655 211.47 241.515 206.96 241.515 206.96V192.25L241.765 191.99C242.678 192.162 243.606 192.249 244.535 192.25C254.725 192.25 263.255 181.71 265.445 167.59C266.395 169.18 268.915 169.47 268.915 169.47V201.4C268.896 203.375 269.544 205.299 270.755 206.86C271.965 208.42 273.667 209.527 275.585 210C275.765 210.02 276.235 209.96 276.135 210.12Z" fill="#F9B499"/>
<path d="M291.785 246.86C290.085 252.14 288.255 261.24 292.345 268.86L297.165 278.03C297.165 278.03 292.575 315.87 306.115 351.19L313.035 371.74C313.126 372.009 313.162 372.294 313.142 372.577C313.122 372.86 313.047 373.137 312.919 373.391C312.792 373.645 312.615 373.871 312.4 374.056C312.185 374.241 311.935 374.382 311.665 374.47C307.495 375.81 296.355 377.96 274.005 373.66C265.582 372.381 257.062 371.845 248.545 372.06L218.045 372.29C218.045 372.29 214.375 343.85 216.895 328.49C216.895 328.49 225.385 285.14 213.455 277.12C213.455 277.12 201.255 325.04 178.715 349.52L161.815 371.89L137.815 371.74L170.025 323.11C170.025 323.11 177.435 310.87 182.265 289.93C182.265 289.93 197.075 227.45 211.575 220.04C218.399 215.455 226.253 212.634 234.435 211.83C234.435 211.83 227.035 231.96 243.615 233.73C245.235 234.05 260.035 234.41 276.145 210.16C276.145 210.16 314.375 207.16 315.755 238.59C315.755 238.59 307.835 229.66 298.345 237.22C295.26 239.72 292.978 243.073 291.785 246.86Z" fill="#0071F2"/>
<path d="M215.425 233.9C216.378 238.813 216.351 243.867 215.345 248.77C215.083 250.028 214.718 251.262 214.255 252.46C214.035 253.06 213.735 253.65 213.465 254.25C213.195 254.85 212.955 255.25 212.735 255.83C211.796 257.908 211.231 260.136 211.065 262.41C210.882 264.711 211.017 267.026 211.465 269.29C211.878 271.527 212.727 273.661 213.965 275.57C215.258 277.496 216.928 279.139 218.875 280.4C220.934 281.671 223.127 282.711 225.415 283.5C222.916 283.297 220.467 282.686 218.165 281.69C215.794 280.605 213.709 278.982 212.075 276.95C210.452 274.891 209.299 272.502 208.695 269.95C208.115 267.42 207.906 264.82 208.075 262.23C208.306 259.611 209.011 257.057 210.155 254.69C210.435 254.12 210.765 253.54 211.065 253C211.365 252.46 211.615 252 211.845 251.47C212.318 250.406 212.736 249.318 213.095 248.21C214.424 243.546 215.205 238.744 215.425 233.9Z" fill="#0071F2"/>
<path opacity="0.2" d="M215.425 233.9C216.378 238.813 216.351 243.867 215.345 248.77C215.083 250.028 214.718 251.262 214.255 252.46C214.035 253.06 213.735 253.65 213.465 254.25C213.195 254.85 212.955 255.25 212.735 255.83C211.796 257.908 211.231 260.136 211.065 262.41C210.882 264.711 211.017 267.026 211.465 269.29C211.878 271.527 212.727 273.661 213.965 275.57C215.258 277.496 216.928 279.139 218.875 280.4C220.934 281.671 223.127 282.711 225.415 283.5C222.916 283.297 220.467 282.686 218.165 281.69C215.794 280.605 213.709 278.982 212.075 276.95C210.452 274.891 209.299 272.502 208.695 269.95C208.115 267.42 207.906 264.82 208.075 262.23C208.306 259.611 209.011 257.057 210.155 254.69C210.435 254.12 210.765 253.54 211.065 253C211.365 252.46 211.615 252 211.845 251.47C212.318 250.406 212.736 249.318 213.095 248.21C214.424 243.546 215.205 238.744 215.425 233.9Z" fill="black"/>
<path d="M294.355 272.64C290.911 269.537 287.967 265.921 285.625 261.92C283.2 257.895 281.441 253.506 280.415 248.92C279.387 244.253 279.493 239.408 280.725 234.79C281.986 230.25 284.465 226.141 287.895 222.91C285.508 226.702 283.853 230.908 283.015 235.31C282.298 239.625 282.413 244.038 283.355 248.31C283.797 250.468 284.399 252.591 285.155 254.66C285.865 256.76 286.765 258.8 287.685 260.84C289.644 264.917 291.872 268.859 294.355 272.64Z" fill="#0071F2"/>
<path opacity="0.2" d="M294.355 272.64C290.911 269.537 287.967 265.921 285.625 261.92C283.2 257.895 281.441 253.506 280.415 248.92C279.387 244.253 279.493 239.408 280.725 234.79C281.986 230.25 284.465 226.141 287.895 222.91C285.508 226.702 283.853 230.908 283.015 235.31C282.298 239.625 282.413 244.038 283.355 248.31C283.797 250.468 284.399 252.591 285.155 254.66C285.865 256.76 286.765 258.8 287.685 260.84C289.644 264.917 291.872 268.859 294.355 272.64Z" fill="black"/>
<path d="M287.745 235.46C288.523 232.85 289.891 230.455 291.745 228.46C293.624 226.339 296.043 224.766 298.745 223.91C301.523 223.092 304.49 223.194 307.205 224.2C309.776 225.164 312.06 226.764 313.845 228.85C311.515 227.806 309.081 227.008 306.585 226.47C304.26 226.016 301.861 226.122 299.585 226.78C297.297 227.51 295.167 228.663 293.305 230.18C291.304 231.777 289.444 233.544 287.745 235.46Z" fill="#0071F2"/>
<path opacity="0.2" d="M287.745 235.46C288.523 232.85 289.891 230.455 291.745 228.46C293.624 226.339 296.043 224.766 298.745 223.91C301.523 223.092 304.49 223.194 307.205 224.2C309.776 225.164 312.06 226.764 313.845 228.85C311.515 227.806 309.081 227.008 306.585 226.47C304.26 226.016 301.861 226.122 299.585 226.78C297.297 227.51 295.167 228.663 293.305 230.18C291.304 231.777 289.444 233.544 287.745 235.46Z" fill="black"/>
<path d="M218.045 372.25H166.795C166.795 372.25 130.685 377.5 141.685 421.95L159.395 516.95C159.395 516.95 167.125 551.41 161.005 568.16C161.005 568.16 166.155 565.9 171.955 574.28C171.955 574.28 180.325 585.87 184.195 577.5C184.195 577.5 184.515 573.63 187.095 573.63C183.782 555.982 183.562 537.893 186.445 520.17C186.445 520.17 197.075 479.59 189.025 442.23C189.025 442.23 183.555 426.12 195.145 427.41C195.145 427.41 270.145 439.33 294.665 429.34C294.665 429.34 325.785 418.7 311.665 374.42C311.665 374.42 300.045 378.11 274.005 373.61C274.005 373.62 261.575 370.21 218.045 372.25Z" fill="#2F2E41"/>
<path d="M120.375 599.73H160.135C160.135 599.73 170.235 598.87 167.765 588.13C167.41 586.518 167.14 584.89 166.955 583.25C166.535 579.85 165.495 574.61 163.035 573.64C163.035 573.64 160.455 573.16 160.135 577.51C160.135 577.51 162.875 585.51 153.395 573.66C153.395 573.66 148.895 565.93 142.395 567.54C142.395 567.54 135.685 569.88 131.935 574.05C129.821 576.366 127.475 578.461 124.935 580.3C121.715 582.67 117.625 585.58 114.555 587.49C114.555 587.49 107.035 593.49 113.995 597.96C115.911 599.142 118.124 599.756 120.375 599.73Z" fill="#0071F2"/>
<path opacity="0.2" d="M120.375 599.73H160.135C160.135 599.73 170.235 598.87 167.765 588.13C167.41 586.518 167.14 584.89 166.955 583.25C166.535 579.85 165.495 574.61 163.035 573.64C163.035 573.64 160.455 573.16 160.135 577.51C160.135 577.51 162.875 585.51 153.395 573.66C153.395 573.66 148.895 565.93 142.395 567.54C142.395 567.54 135.685 569.88 131.935 574.05C129.821 576.366 127.475 578.461 124.935 580.3C121.715 582.67 117.625 585.58 114.555 587.49C114.555 587.49 107.035 593.49 113.995 597.96C115.911 599.142 118.124 599.756 120.375 599.73Z" fill="black"/>
<path d="M198.885 601.99C205.523 601.99 210.905 596.609 210.905 589.97C210.905 583.332 205.523 577.95 198.885 577.95C192.247 577.95 186.865 583.332 186.865 589.97C186.865 596.609 192.247 601.99 198.885 601.99Z" fill="#D1D3D4"/>
<path opacity="0.2" d="M198.885 597.16C202.856 597.16 206.075 593.941 206.075 589.97C206.075 585.999 202.856 582.78 198.885 582.78C194.914 582.78 191.695 585.999 191.695 589.97C191.695 593.941 194.914 597.16 198.885 597.16Z" fill="black"/>
<path d="M308.945 601.99C315.584 601.99 320.965 596.609 320.965 589.97C320.965 583.332 315.584 577.95 308.945 577.95C302.307 577.95 296.925 583.332 296.925 589.97C296.925 596.609 302.307 601.99 308.945 601.99Z" fill="#D1D3D4"/>
<path opacity="0.2" d="M308.945 597.16C312.916 597.16 316.135 593.941 316.135 589.97C316.135 585.999 312.916 582.78 308.945 582.78C304.974 582.78 301.755 585.999 301.755 589.97C301.755 593.941 304.974 597.16 308.945 597.16Z" fill="black"/>
<path d="M317.005 314.77L297.165 278.02C297.165 278.02 278.385 254.58 298.335 237.21C298.335 237.21 306.925 228.99 315.745 238.58L344.905 319.23C344.905 319.23 349.735 330.59 330.165 337.83L260.835 369.24C260.835 369.24 257.915 370.24 251.885 371.73L201.255 372.28C201.255 372.28 191.915 370.12 201.255 364.97C201.255 364.97 222.515 352.41 236.035 357.24C236.035 357.24 246.335 358.85 259.225 353.05L317.005 314.77Z" fill="#F9B499"/>
<path d="M241.515 191.94V200.68C241.515 200.68 263.695 203.09 263.725 174.68C263.685 174.67 259.605 193.08 241.515 191.94Z" fill="#F7A48B"/>
<path d="M436.231 96.026C447.938 92.7152 453.719 76.9086 449.141 60.7208C444.563 44.533 431.361 34.094 419.654 37.4048C407.946 40.7155 402.166 56.5222 406.743 72.71C411.321 88.8978 424.523 99.3367 436.231 96.026Z" fill="#F9B499"/>
<path d="M434.595 96.4201C434.595 96.4201 438.445 100.26 438.925 105.36C438.925 105.36 448.535 100.82 449.165 82.0801C449.165 82.0801 445.795 94.1001 434.595 96.4201Z" fill="#F7A48B"/>
<path d="M446.485 154.85C446.485 154.85 455.535 149.63 462.785 128.61C462.785 128.61 472.445 103.73 484.035 103.49" stroke="#ED1C24" stroke-miterlimit="10"/>
<path d="M307.025 279.89C307.025 279.89 304.715 284.67 325.375 283.26L324.265 279.02C324.265 279.02 312.685 281.02 307.025 279.89Z" fill="#0071F2"/>
<path opacity="0.2" d="M307.025 279.89C307.025 279.89 304.715 284.67 325.375 283.26L324.265 279.02C324.265 279.02 312.685 281.02 307.025 279.89Z" fill="black"/>
<path d="M349.259 198.978L344.011 200.019L345.372 206.885L350.619 205.845L349.259 198.978Z" fill="#D1D3D4"/>
<path d="M336.665 146.21L336.165 148.27L339.205 163.61L340.075 163.44L336.665 146.21Z" fill="#D1D3D4"/>
<path d="M340.075 163.44L339.205 163.61L336.575 164.14L337.185 167.21L343.315 165.99L342.715 162.92L340.075 163.44Z" fill="#2F2E41"/>
<path opacity="0.2" d="M340.075 163.44L339.205 163.61L336.575 164.14L337.185 167.21L343.315 165.99L342.715 162.92L340.075 163.44Z" fill="black"/>
<path d="M335.655 167.51L335.875 168.65L338.405 168.15L338.455 168.43L335.935 168.93L336.235 170.43L338.755 169.93L338.815 170.21L336.285 170.71L336.585 172.21L339.115 171.71L339.165 171.99L336.635 172.49L336.935 173.99L339.465 173.49L339.515 173.77L336.995 174.27L337.285 175.77L339.815 175.27L339.865 175.55L337.345 176.05L337.645 177.55L340.165 177.05L340.225 177.33L337.695 177.83L337.995 179.33L340.515 178.83L340.575 179.11L338.045 179.61L338.345 181.11L340.875 180.61L340.925 180.89L338.405 181.39L338.695 182.89L341.225 182.39L341.285 182.67L338.755 183.17L339.055 184.67L341.575 184.17L341.635 184.45L339.105 184.95L339.405 186.45L341.935 185.95L341.985 186.23L339.455 186.73L339.755 188.23L342.285 187.73L342.335 188L339.815 188.51L340.515 192.05L349.715 190.23L344.845 165.69L343.315 165.99L337.185 167.21L335.655 167.51Z" fill="#2F2E41"/>
<path d="M340.515 192.05L341.875 198.92L351.075 197.1L349.715 190.23L340.515 192.05Z" fill="#D1D3D4"/>
<path d="M338.455 168.43L338.405 168.15L335.875 168.65L335.745 168.68L335.795 168.96L335.935 168.93L338.455 168.43Z" fill="white"/>
<path d="M338.755 169.93L336.235 170.43L336.095 170.46L336.145 170.74L336.285 170.71L338.815 170.21L338.755 169.93Z" fill="white"/>
<path d="M339.115 171.71L336.585 172.21L336.445 172.24L336.505 172.52L336.635 172.49L339.165 171.99L339.115 171.71Z" fill="white"/>
<path d="M339.465 173.49L336.935 173.99L336.795 174.02L336.855 174.3L336.995 174.27L339.515 173.77L339.465 173.49Z" fill="white"/>
<path d="M339.815 175.27L337.285 175.77L337.155 175.8L337.205 176.07L337.345 176.05L339.865 175.55L339.815 175.27Z" fill="white"/>
<path d="M340.165 177.05L337.645 177.55L337.505 177.58L337.555 177.85L337.695 177.83L340.225 177.33L340.165 177.05Z" fill="white"/>
<path d="M340.515 178.83L337.995 179.33L337.855 179.36L337.915 179.63L338.045 179.61L340.575 179.11L340.515 178.83Z" fill="white"/>
<path d="M340.875 180.61L338.345 181.11L338.205 181.14L338.265 181.41L338.405 181.39L340.925 180.89L340.875 180.61Z" fill="white"/>
<path d="M341.225 182.39L338.695 182.89L338.565 182.92L338.615 183.19L338.755 183.17L341.285 182.67L341.225 182.39Z" fill="white"/>
<path d="M341.575 184.17L339.055 184.67L338.915 184.7L338.965 184.97L339.105 184.95L341.635 184.45L341.575 184.17Z" fill="white"/>
<path d="M341.935 185.95L339.405 186.45L339.265 186.48L339.325 186.75L339.455 186.73L341.985 186.23L341.935 185.95Z" fill="white"/>
<path d="M342.285 187.73L339.755 188.23L339.625 188.26L339.675 188.53L339.815 188.51L342.335 188L342.285 187.73Z" fill="white"/>
<path d="M339.075 201.02L344.005 200.05L349.255 199.01L354.465 197.98L354.195 196.61L338.805 199.66L339.075 201.02Z" fill="#BCBEC0"/>
<path d="M342.565 207.47L342.835 208.86L353.105 206.83L352.825 205.44L350.615 205.88L345.365 206.92L342.565 207.47Z" fill="#BCBEC0"/>
<path d="M144.425 599.73H184.185C184.185 599.73 194.285 598.87 191.815 588.13C191.46 586.518 191.19 584.889 191.005 583.25C190.585 579.85 189.545 574.61 187.085 573.64C187.085 573.64 184.505 573.16 184.185 577.51C184.185 577.51 181.415 586.13 171.945 574.29C171.945 574.29 167.435 566.56 160.995 568.17C157.773 570.252 155.073 573.047 153.105 576.34C153.105 576.34 144.565 583.79 138.615 587.49C138.615 587.49 131.085 593.49 138.055 597.96C139.968 599.14 142.177 599.754 144.425 599.73Z" fill="#0071F2"/>
<path d="M265.995 160.43C265.997 162.827 265.813 165.221 265.445 167.59C263.255 181.71 254.725 192.25 244.535 192.25C243.606 192.249 242.678 192.162 241.765 191.99C231.225 189.99 223.075 176.61 223.075 160.43C223.075 142.86 232.675 128.61 244.535 128.61C256.395 128.61 265.995 142.86 265.995 160.43Z" fill="#F9B499"/>
<path d="M281.125 160.43L267.225 136.61L240.225 123.26L225.795 138.61C223.099 144.304 222.189 150.68 223.185 156.9C224.185 147.07 226.185 143.32 227.955 141.78C228.305 141.47 231.695 138.61 231.695 138.61C231.695 138.61 241.535 157.84 263.695 159.2C263.695 159.2 267.765 153.13 270.175 155.07C270.175 155.07 275.175 157.02 273.905 164.07C273.905 164.07 272.795 169 268.905 169.47V174.67C268.905 174.67 277.685 173.09 281.125 160.43Z" fill="#2F2E41"/>
<path d="M268.915 169.47C271.781 169.47 274.105 166.197 274.105 162.16C274.105 158.123 271.781 154.85 268.915 154.85C266.049 154.85 263.725 158.123 263.725 162.16C263.725 166.197 266.049 169.47 268.915 169.47Z" fill="#F9B499"/>
<path d="M445.235 235.46C445.235 235.46 435.715 180.61 452.315 133.2C452.315 133.2 470.315 87.1002 479.695 93.7202C479.695 93.7202 482.105 94.5502 484.035 103.49C484.035 103.49 519.785 132.24 514.475 190.21C514.475 190.21 510.615 238.04 519.785 261.71C519.785 261.71 536.305 313.87 535.535 337.79C535.507 338.789 535.112 339.743 534.426 340.469C533.74 341.196 532.811 341.645 531.815 341.73C518.085 342.91 467.115 346.82 450.225 341.43L445.235 235.46Z" fill="#0071F2"/>
<path opacity="0.5" d="M445.235 235.46C445.235 235.46 435.715 180.61 452.315 133.2C452.315 133.2 470.315 87.1002 479.695 93.7202C479.695 93.7202 482.105 94.5502 484.035 103.49C484.035 103.49 519.785 132.24 514.475 190.21C514.475 190.21 510.615 238.04 519.785 261.71C519.785 261.71 536.305 313.87 535.535 337.79C535.507 338.789 535.112 339.743 534.426 340.469C533.74 341.196 532.811 341.645 531.815 341.73C518.085 342.91 467.115 346.82 450.225 341.43L445.235 235.46Z" fill="white"/>
<path opacity="0.1" d="M446.485 269.45L447.285 279C447.285 279 493.185 280.63 497.905 247.77C497.905 247.77 513.505 186.41 505.515 174.67C505.515 174.67 501.705 204.44 491.605 226.34C491.605 226.34 484.035 255.68 465.265 262.56L446.485 269.45Z" fill="black"/>
<path d="M466.805 149.02C474.465 131.65 483.915 129.8 491.115 131.87C494.405 132.863 497.374 134.708 499.721 137.217C502.069 139.727 503.712 142.812 504.485 146.16C512.305 178.25 491.605 226.39 491.605 226.39C482.155 257.49 465.265 262.61 465.265 262.61C449.545 270.49 368.755 291.36 368.755 291.36L361.685 266.5L445.255 235.5C445.255 235.5 453.825 230.31 454.255 216.14C454.205 216.1 460.105 164.13 466.805 149.02Z" fill="#0071F2"/>
<path opacity="0.5" d="M466.805 149.02C474.465 131.65 483.915 129.8 491.115 131.87C494.405 132.863 497.374 134.708 499.721 137.217C502.069 139.727 503.712 142.812 504.485 146.16C512.305 178.25 491.605 226.39 491.605 226.39C482.155 257.49 465.265 262.61 465.265 262.61C449.545 270.49 368.755 291.36 368.755 291.36L361.685 266.5L445.255 235.5C445.255 235.5 453.825 230.31 454.255 216.14C454.205 216.1 460.105 164.13 466.805 149.02Z" fill="white"/>
<path d="M517.685 575.58C517.685 575.58 515.275 568.49 509.155 573.81C509.155 573.81 495.305 583.31 484.025 586.04C484.025 586.04 475.495 588.46 478.715 595.87C478.715 595.87 480.165 599.57 487.415 599.87H543.485C544.163 599.872 544.834 599.732 545.453 599.458C546.073 599.184 546.629 598.783 547.083 598.28C547.538 597.777 547.882 597.184 548.092 596.54C548.303 595.896 548.375 595.214 548.305 594.54C548.3 594.494 548.3 594.447 548.305 594.4C548.305 594.4 547.175 590.21 543.305 591.02C538.106 590.703 533.061 589.133 528.6 586.445C524.139 583.756 520.394 580.029 517.685 575.58Z" fill="#0071F2"/>
<path d="M410.625 576.07C410.625 576.07 408.205 568.99 402.085 574.3C402.085 574.3 388.235 583.8 376.965 586.54C376.965 586.54 368.435 588.96 371.655 596.36C371.655 596.36 373.105 600.07 380.345 600.36H436.425C437.103 600.363 437.775 600.222 438.395 599.947C439.015 599.672 439.57 599.27 440.024 598.766C440.479 598.262 440.821 597.668 441.03 597.022C441.238 596.377 441.308 595.694 441.235 595.02C441.235 595.02 441.235 594.93 441.235 594.88C441.235 594.83 440.105 590.7 436.235 591.5C431.039 591.183 425.996 589.614 421.537 586.928C417.077 584.241 413.334 580.516 410.625 576.07Z" fill="#0071F2"/>
<path d="M372.075 233.9C372.075 233.9 358.415 235.56 355.385 222.35C355.056 220.888 354.276 219.566 353.155 218.57C349.845 215.68 343.325 209.42 344.155 205.66C344.155 205.66 343.965 202.57 353.025 208.55C353.025 208.55 358.815 213.76 360.545 208.16C360.545 208.16 361.545 205.47 358.055 201.42C357.76 200.816 357.426 200.231 357.055 199.67C356.039 198.179 354.504 197.119 352.749 196.7C350.994 196.28 349.146 196.53 347.565 197.4C345.325 198.59 342.425 199.49 341.105 197.17C341.105 197.17 340.385 194.12 348.285 191.03C348.285 191.03 353.285 186.95 357.285 190.62L367.535 201.02C367.535 201.02 371.195 204.3 372.075 213.02C372.075 213.02 373.705 219.38 376.985 219.57L372.075 233.9Z" fill="#0071F2"/>
<path d="M324.265 279.02C324.265 279.02 309.085 281.72 305.115 279.21C304.929 279.079 304.778 278.905 304.673 278.703C304.569 278.501 304.514 278.277 304.514 278.05C304.514 277.823 304.569 277.599 304.673 277.397C304.778 277.195 304.929 277.021 305.115 276.89C307.115 275.42 313.115 272.29 331.165 268.8C332.565 268.53 336.455 266.42 347.555 267.22L362.185 268.22L367.365 286.37C367.365 286.37 356.365 295.91 342.525 289.59C342.301 289.443 342.028 289.391 341.765 289.445C341.502 289.499 341.272 289.656 341.125 289.88C340.978 290.104 340.926 290.378 340.98 290.64C341.034 290.903 341.191 291.133 341.415 291.28L341.505 291.36C341.757 291.556 341.956 291.811 342.085 292.102C342.214 292.393 342.269 292.712 342.245 293.03C342.145 293.94 341.365 294.86 338.165 294.11C338.165 294.11 334.945 298.28 329.795 293.11C329.765 293.11 326.685 289.53 324.265 279.02Z" fill="#0071F2"/>
<path d="M402.055 37.2098C394.455 53.6198 405.255 63.9798 405.255 63.9798C404.575 54.1798 407.855 48.4198 407.855 48.4198C407.855 48.4198 426.855 64.9898 443.605 55.2798L455.685 56.6298C455.685 56.6298 459.335 65.1298 454.245 69.9498C454.245 69.9498 471.125 67.2698 468.445 42.3498C468.445 42.3498 482.925 46.0998 487.215 27.8798C487.215 27.8798 491.065 14.7098 475.215 4.45982C471.546 2.03599 467.341 0.542914 462.965 0.109826C455.845 -0.510174 446.305 1.70982 445.965 17.9598C445.965 17.9598 431.835 11.8998 414.965 22.7798C409.38 26.2679 404.903 31.2726 402.055 37.2098Z" fill="#2F2E41"/>
<path d="M452.003 66.2371C455.255 65.3173 456.883 61.0046 455.639 56.6042C454.395 52.2038 450.749 49.3822 447.497 50.302C444.244 51.2217 442.616 55.5345 443.861 59.9348C445.105 64.3352 448.75 67.1568 452.003 66.2371Z" fill="#F9B499"/>
<path d="M658.025 505.41C657.931 505.41 657.837 505.391 657.75 505.355C657.662 505.319 657.583 505.266 657.516 505.199C657.449 505.132 657.396 505.053 657.36 504.965C657.324 504.878 657.305 504.784 657.305 504.69C657.555 477.06 648.695 371.94 627.305 340.69C627.198 340.532 627.157 340.338 627.193 340.15C627.229 339.963 627.337 339.797 627.495 339.69C627.653 339.586 627.845 339.548 628.031 339.581C628.217 339.615 628.383 339.718 628.495 339.87C650.355 371.87 658.895 475.96 658.705 504.66C658.711 504.848 658.643 505.032 658.516 505.172C658.389 505.312 658.213 505.397 658.025 505.41Z" fill="#0071F2"/>
<path d="M665.785 497.77H650.275C638.005 531.34 643.275 603.53 650.275 603.53H665.785C672.775 603.53 678.045 531.34 665.785 497.77Z" fill="#2F2E41"/>
<path d="M633.495 354.44C636.785 356.76 637.185 359.38 635.855 361.24C634.525 363.1 631.985 363.71 628.645 361.39C625.305 359.07 622.825 352.18 622.825 352.18C622.825 352.18 630.155 352.12 633.495 354.44Z" fill="#0071F2"/>
<path d="M653.255 385.72C652.155 389.64 649.845 390.81 647.585 390.16C645.325 389.51 643.985 387.32 645.085 383.41C646.185 379.5 651.905 374.94 651.905 374.94C651.905 374.94 654.355 381.82 653.255 385.72Z" fill="#0071F2"/>
<path d="M647.865 411.78C650.655 414.73 650.485 417.31 648.795 418.91C647.105 420.51 644.515 420.56 641.715 417.61C638.915 414.66 637.895 407.4 637.895 407.4C637.895 407.4 645.075 408.83 647.865 411.78Z" fill="#0071F2"/>
<path d="M663.795 458.57C662.145 462.31 659.795 463.18 657.595 462.26C655.395 461.34 654.405 458.97 655.955 455.26C657.505 451.55 663.885 447.7 663.885 447.7C663.885 447.7 665.385 454.85 663.795 458.57Z" fill="#0071F2"/>
<path d="M621.975 332.51C619.285 329.97 625.265 322.63 629.395 322.81C631.535 322.94 631.045 325.97 631.175 328.49C631.305 331.01 630.875 333.33 627.535 333.96C624.195 334.59 623.255 333.78 621.975 332.51Z" fill="#0071F2"/>
<path opacity="0.2" d="M621.975 332.51C619.285 329.97 625.265 322.63 629.395 322.81C631.535 322.94 631.045 325.97 631.175 328.49C631.305 331.01 630.875 333.33 627.535 333.96C624.195 334.59 623.255 333.78 621.975 332.51Z" fill="black"/>
<path d="M628.455 329.45C628.215 325.76 618.585 325.69 616.255 328.98C614.995 330.73 619.025 331.11 620.255 333.33C621.485 335.55 623.435 336.84 626.045 334.66C628.655 332.48 628.575 331.21 628.455 329.45Z" fill="#0071F2"/>
<path d="M631.425 332.26C631.095 327.32 618.495 327.32 615.325 331.65C613.675 333.94 617.115 336.03 619.605 338.24C622.095 340.45 624.775 342.01 628.225 339.14C631.675 336.27 631.575 334.58 631.425 332.26Z" fill="#407BFF"/>
<path opacity="0.2" d="M631.425 332.26C631.095 327.32 618.495 327.32 615.325 331.65C613.675 333.94 617.115 336.03 619.605 338.24C622.095 340.45 624.775 342.01 628.225 339.14C631.675 336.27 631.575 334.58 631.425 332.26Z" fill="black"/>
<path d="M622.865 336.29C619.325 333 627.275 323.12 632.735 323.5C635.555 323.67 632.575 328.1 633.795 331.19C635.015 334.28 634.695 337.38 630.285 338.19C625.875 339 624.555 337.88 622.865 336.29Z" fill="#407BFF"/>
<path d="M631.425 332.26C631.095 327.32 618.495 327.32 615.325 331.65C613.675 333.94 617.115 336.03 619.605 338.24C622.095 340.45 624.775 342.01 628.225 339.14C631.675 336.27 631.575 334.58 631.425 332.26Z" fill="#0071F2"/>
<path opacity="0.2" d="M631.425 332.26C631.095 327.32 618.495 327.32 615.325 331.65C613.675 333.94 617.115 336.03 619.605 338.24C622.095 340.45 624.775 342.01 628.225 339.14C631.675 336.27 631.575 334.58 631.425 332.26Z" fill="black"/>
<path d="M622.865 336.29C619.325 333 627.275 323.12 632.735 323.5C635.555 323.67 632.575 328.1 633.795 331.19C635.015 334.28 634.695 337.38 630.285 338.19C625.875 339 624.555 337.88 622.865 336.29Z" fill="#0071F2"/>
<path d="M623.785 341.86C619.705 338.01 628.855 326.76 635.045 327.14C638.335 327.34 637.615 331.93 637.745 335.77C637.875 339.61 637.295 343.11 632.225 344C627.155 344.89 625.685 343.65 623.785 341.86Z" fill="#0071F2"/>
<path opacity="0.2" d="M623.785 341.86C619.705 338.01 628.855 326.76 635.045 327.14C638.335 327.34 637.615 331.93 637.745 335.77C637.875 339.61 637.295 343.11 632.225 344C627.155 344.89 625.685 343.65 623.785 341.86Z" fill="black"/>
<path d="M633.615 337.23C633.245 331.64 618.795 331.52 615.095 336.53C613.185 339.16 619.285 339.82 621.095 343.11C622.905 346.4 625.935 348.45 629.905 345.11C633.875 341.77 633.795 339.88 633.615 337.23Z" fill="#0071F2"/>
<path d="M347.985 121.67C348.225 122.35 348.795 123.44 349.405 123.44C350.325 123.44 351.075 122.1 351.075 120.44C351.075 118.78 350.325 117.44 349.405 117.44C348.855 117.44 348.305 118.44 348.055 118.97L341.845 118.79C341.635 114.869 340.614 111.035 338.845 107.53L347.035 102.48C347.635 103.01 348.785 103.73 349.355 103.39C350.235 102.88 350.215 101.2 349.305 99.6198C348.395 98.0398 346.945 97.1798 346.065 97.6898C345.545 97.9898 345.545 99.1998 345.625 99.8898L337.105 104.48C334.928 101.214 332.112 98.4247 328.825 96.2798L331.735 90.8898C332.445 91.0298 333.675 91.0798 333.975 90.5498C334.435 89.7498 333.655 88.4298 332.225 87.6098C330.795 86.7898 329.225 86.7598 328.795 87.6098C328.515 88.0798 329.065 89.0398 329.445 89.5398L326.265 94.7798C322.763 93.0205 318.938 91.9994 315.025 91.7798L314.745 82.1598C315.505 81.8998 316.695 81.2698 316.695 80.5998C316.695 79.5998 315.225 78.7598 313.405 78.7598C311.585 78.7598 310.105 79.5798 310.105 80.5998C310.105 81.1998 311.155 81.8098 311.795 82.0798L311.515 91.7798C307.602 91.9994 303.777 93.0205 300.275 94.7798L297.055 89.5598C297.535 89.0198 298.185 87.9798 297.885 87.4498C297.425 86.6498 295.885 86.6698 294.455 87.4498C293.025 88.2298 292.235 89.5898 292.705 90.3898C292.975 90.8698 294.075 90.8698 294.705 90.7898L297.705 96.2398C294.421 98.3875 291.605 101.177 289.425 104.44L280.975 99.8898C281.125 99.1098 281.175 97.7598 280.595 97.4198C279.715 96.9098 278.265 97.7798 277.355 99.3498C276.445 100.92 276.425 102.62 277.305 103.13C277.825 103.43 278.875 102.82 279.425 102.4L287.685 107.49C285.916 110.995 284.895 114.829 284.685 118.75L278.545 118.93C278.305 118.25 277.735 117.16 277.125 117.16C276.205 117.16 275.455 118.5 275.455 120.16C275.455 121.82 276.205 123.16 277.125 123.16C277.675 123.16 278.225 122.16 278.475 121.63L284.685 121.81C284.894 125.73 285.915 129.565 287.685 133.07L279.495 138.07C278.895 137.55 277.755 136.83 277.175 137.17C276.295 137.67 276.315 139.36 277.225 140.94C278.135 142.52 279.585 143.38 280.465 142.87C280.985 142.57 280.985 141.36 280.905 140.67L289.425 136.07C291.596 139.343 294.414 142.137 297.705 144.28L294.795 149.66C294.085 149.52 292.855 149.48 292.555 150C292.095 150.81 292.875 152.13 294.305 153C295.735 153.87 297.305 153.85 297.735 153C298.015 152.52 297.465 151.57 297.085 151.07L300.335 145.79C303.835 147.553 307.662 148.574 311.575 148.79L311.855 158.41C311.095 158.67 309.905 159.3 309.905 159.97C309.905 160.97 311.385 161.81 313.195 161.81C315.005 161.81 316.495 160.99 316.495 159.97C316.495 159.37 315.445 158.76 314.805 158.49L315.085 148.79C318.979 148.57 322.785 147.549 326.265 145.79L329.485 151.01C329.005 151.55 328.355 152.59 328.655 153.12C329.115 153.92 330.655 153.9 332.085 153.07C333.515 152.24 334.305 150.93 333.835 150.12C333.565 149.65 332.465 149.65 331.835 149.73L328.885 144.27C332.18 142.136 334.999 139.344 337.165 136.07L345.615 140.63C345.465 141.41 345.415 142.76 345.995 143.1C346.875 143.61 348.325 142.74 349.235 141.17C350.145 139.6 350.165 137.9 349.285 137.39C348.765 137.09 347.715 137.7 347.165 138.11L338.905 133.03C340.675 129.521 341.696 125.684 341.905 121.76L347.985 121.67Z" stroke="#787878" stroke-linecap="round" stroke-linejoin="round"/>
<path d="M315.475 98.42C315.513 99.0124 315.375 99.6029 315.078 100.117C314.781 100.631 314.337 101.045 313.805 101.307C313.272 101.568 312.673 101.666 312.085 101.588C311.496 101.509 310.944 101.258 310.499 100.866C310.053 100.473 309.734 99.9577 309.582 99.3839C309.429 98.8101 309.451 98.204 309.643 97.6423C309.835 97.0807 310.19 96.5887 310.662 96.2287C311.134 95.8687 311.702 95.6568 312.295 95.62H312.475C313.241 95.5929 313.986 95.8701 314.549 96.391C315.111 96.912 315.444 97.6342 315.475 98.4V98.42Z" stroke="#787878" stroke-linecap="round" stroke-linejoin="round"/>
<path d="M297.685 121.17C297.723 121.762 297.585 122.353 297.288 122.867C296.991 123.381 296.547 123.795 296.015 124.057C295.482 124.318 294.883 124.416 294.295 124.338C293.706 124.259 293.154 124.008 292.709 123.616C292.263 123.223 291.944 122.708 291.792 122.134C291.639 121.56 291.661 120.954 291.853 120.392C292.045 119.831 292.4 119.339 292.872 118.979C293.344 118.619 293.912 118.407 294.505 118.37H294.685C295.063 118.361 295.44 118.426 295.793 118.562C296.146 118.698 296.468 118.903 296.742 119.164C297.016 119.425 297.236 119.737 297.389 120.083C297.542 120.429 297.626 120.802 297.635 121.18L297.685 121.17Z" stroke="#787878" stroke-linecap="round" stroke-linejoin="round"/>
<path d="M310.855 113.86C310.886 114.452 310.74 115.039 310.437 115.548C310.134 116.058 309.688 116.466 309.153 116.721C308.618 116.977 308.02 117.069 307.434 116.985C306.847 116.9 306.299 116.645 305.857 116.249C305.416 115.854 305.102 115.337 304.954 114.763C304.806 114.189 304.832 113.584 305.027 113.025C305.223 112.466 305.579 111.977 306.052 111.62C306.525 111.263 307.093 111.054 307.685 111.02H307.865C308.631 110.993 309.376 111.27 309.939 111.791C310.501 112.312 310.834 113.034 310.865 113.8L310.855 113.86Z" stroke="#787878" stroke-linecap="round" stroke-linejoin="round"/>
<path d="M303.965 138.32C304.003 138.912 303.865 139.503 303.568 140.017C303.271 140.531 302.827 140.945 302.295 141.206C301.762 141.468 301.163 141.566 300.575 141.488C299.986 141.409 299.434 141.158 298.989 140.766C298.543 140.373 298.224 139.858 298.072 139.284C297.919 138.71 297.941 138.104 298.133 137.542C298.325 136.981 298.68 136.489 299.152 136.129C299.624 135.769 300.192 135.557 300.785 135.52H300.965C301.731 135.493 302.476 135.77 303.039 136.291C303.601 136.812 303.934 137.534 303.965 138.3V138.32Z" stroke="#787878" stroke-linecap="round" stroke-linejoin="round"/>
<path d="M336.155 126.51C336.194 127.102 336.055 127.693 335.758 128.207C335.461 128.721 335.017 129.135 334.485 129.397C333.952 129.659 333.353 129.756 332.765 129.678C332.176 129.599 331.624 129.348 331.179 128.956C330.733 128.564 330.414 128.048 330.262 127.474C330.109 126.9 330.131 126.294 330.323 125.732C330.515 125.171 330.87 124.679 331.342 124.319C331.814 123.959 332.383 123.747 332.975 123.71H333.205C333.587 123.694 333.969 123.754 334.328 123.887C334.687 124.021 335.015 124.224 335.295 124.486C335.574 124.747 335.798 125.062 335.955 125.411C336.111 125.76 336.196 126.137 336.205 126.52L336.155 126.51Z" stroke="#787878" stroke-linecap="round" stroke-linejoin="round"/>
<path d="M315.025 130.35C315.064 130.943 314.925 131.533 314.628 132.047C314.331 132.561 313.887 132.975 313.355 133.237C312.822 133.499 312.223 133.597 311.635 133.518C311.046 133.44 310.494 133.188 310.049 132.796C309.603 132.404 309.284 131.888 309.132 131.314C308.979 130.74 309.001 130.134 309.193 129.573C309.385 129.011 309.74 128.519 310.212 128.159C310.684 127.799 311.253 127.587 311.845 127.55H312.075C312.453 127.541 312.83 127.606 313.183 127.742C313.536 127.879 313.858 128.083 314.132 128.344C314.406 128.605 314.626 128.917 314.779 129.263C314.932 129.609 315.016 129.982 315.025 130.36V130.35Z" stroke="#787878" stroke-linecap="round" stroke-linejoin="round"/>
<path d="M324.585 119.11C324.621 119.702 324.482 120.292 324.183 120.805C323.884 121.317 323.44 121.73 322.907 121.99C322.374 122.251 321.776 122.347 321.188 122.267C320.6 122.188 320.049 121.935 319.604 121.543C319.16 121.15 318.842 120.634 318.69 120.06C318.539 119.487 318.561 118.881 318.753 118.32C318.946 117.759 319.301 117.267 319.773 116.908C320.245 116.548 320.813 116.337 321.405 116.3H321.685C322.063 116.291 322.44 116.356 322.793 116.492C323.146 116.629 323.468 116.833 323.742 117.094C324.016 117.355 324.236 117.667 324.389 118.013C324.542 118.359 324.626 118.732 324.635 119.11H324.585Z" stroke="#787878" stroke-linecap="round" stroke-linejoin="round"/>
<path d="M331.685 106.02C331.721 106.612 331.581 107.202 331.283 107.715C330.984 108.227 330.54 108.64 330.007 108.9C329.474 109.16 328.876 109.257 328.288 109.177C327.7 109.097 327.149 108.845 326.704 108.452C326.26 108.06 325.941 107.544 325.79 106.97C325.639 106.396 325.661 105.791 325.853 105.23C326.046 104.669 326.401 104.177 326.873 103.818C327.345 103.458 327.913 103.247 328.505 103.21H328.735C329.117 103.194 329.499 103.254 329.858 103.387C330.217 103.521 330.545 103.724 330.825 103.986C331.104 104.247 331.328 104.562 331.485 104.911C331.641 105.26 331.726 105.637 331.735 106.02H331.685Z" stroke="#787878" stroke-linecap="round" stroke-linejoin="round"/>
<path d="M324.905 139.73C324.941 140.32 324.801 140.908 324.504 141.42C324.207 141.931 323.765 142.343 323.234 142.604C322.703 142.865 322.107 142.963 321.521 142.886C320.934 142.809 320.384 142.561 319.938 142.172C319.492 141.783 319.172 141.271 319.016 140.7C318.861 140.13 318.877 139.526 319.064 138.965C319.251 138.403 319.599 137.91 320.065 137.546C320.532 137.182 321.095 136.964 321.685 136.92H321.915C322.297 136.904 322.679 136.964 323.038 137.097C323.397 137.231 323.725 137.434 324.005 137.696C324.284 137.957 324.508 138.272 324.665 138.621C324.821 138.97 324.906 139.347 324.915 139.73H324.905Z" stroke="#787878" stroke-linecap="round" stroke-linejoin="round"/>
<path d="M300.685 103.42C300.723 104.013 300.585 104.603 300.288 105.117C299.991 105.631 299.547 106.045 299.015 106.307C298.482 106.569 297.883 106.667 297.295 106.588C296.706 106.51 296.154 106.258 295.709 105.866C295.263 105.474 294.944 104.958 294.792 104.384C294.639 103.81 294.661 103.204 294.853 102.643C295.045 102.081 295.4 101.589 295.872 101.229C296.344 100.869 296.912 100.657 297.505 100.62H297.735C298.117 100.604 298.499 100.664 298.858 100.798C299.217 100.931 299.545 101.134 299.825 101.396C300.104 101.657 300.328 101.972 300.485 102.321C300.641 102.671 300.726 103.048 300.735 103.43L300.685 103.42Z" stroke="#787878" stroke-linecap="round" stroke-linejoin="round"/>
<path d="M611.095 212.6C611.205 212.92 611.465 213.42 611.745 213.42C612.175 213.42 612.525 212.8 612.525 212.04C612.525 211.28 612.175 210.65 611.745 210.65C611.495 210.65 611.245 211.09 611.125 211.36L608.265 211.28C608.173 209.47 607.707 207.7 606.895 206.08L610.675 203.76C610.955 204 611.475 204.33 611.745 204.18C612.015 204.03 612.145 203.18 611.745 202.44C611.345 201.7 610.655 201.31 610.245 201.55C610.005 201.68 610.005 202.24 610.045 202.55L606.115 204.67C605.117 203.159 603.816 201.872 602.295 200.89L603.635 198.4C603.965 198.47 604.535 198.49 604.635 198.24C604.646 197.959 604.576 197.681 604.432 197.44C604.288 197.198 604.077 197.004 603.825 196.88C603.165 196.52 602.455 196.49 602.235 196.88C602.115 197.1 602.365 197.54 602.545 197.77L601.045 200.21C599.43 199.389 597.663 198.909 595.855 198.8L595.725 194.36C596.075 194.24 596.625 193.95 596.625 193.65C596.625 193.18 595.945 192.8 595.105 192.8C594.265 192.8 593.595 193.18 593.595 193.65C593.595 193.92 594.075 194.2 594.365 194.33L594.235 198.8C592.43 198.91 590.667 199.39 589.055 200.21L587.575 197.8C587.795 197.55 588.095 197.07 587.955 196.8C587.815 196.53 587.035 196.44 586.365 196.8C585.695 197.16 585.365 197.8 585.565 198.16C585.765 198.52 586.195 198.38 586.485 198.34L587.835 200.86C586.322 201.848 585.025 203.134 584.025 204.64L580.125 202.54C580.195 202.18 580.215 201.54 579.955 201.4C579.695 201.26 578.875 201.56 578.455 202.29C578.035 203.02 578.025 203.8 578.455 204.03C578.695 204.17 579.175 203.89 579.455 203.7L583.255 206.05C582.451 207.668 581.988 209.435 581.895 211.24L579.065 211.32C578.955 211 578.685 210.5 578.405 210.5C578.125 210.5 577.635 211.12 577.635 211.89C577.635 212.66 577.985 213.27 578.405 213.27C578.665 213.27 578.915 212.83 579.025 212.56L581.895 212.64C581.993 214.447 582.455 216.216 583.255 217.84L579.485 220.16C579.205 219.92 578.675 219.59 578.415 219.74C578.155 219.89 578.015 220.74 578.415 221.49C578.815 222.24 579.505 222.61 579.915 222.38C580.155 222.24 580.155 221.68 580.115 221.38L584.045 219.26C585.045 220.765 586.342 222.051 587.855 223.04L586.515 225.53C586.195 225.47 585.625 225.44 585.515 225.69C585.501 225.971 585.571 226.25 585.715 226.492C585.859 226.734 586.071 226.928 586.325 227.05C586.985 227.41 587.695 227.44 587.905 227.05C588.035 226.83 587.775 226.39 587.605 226.16L589.105 223.72C590.717 224.539 592.48 225.019 594.285 225.13L594.415 229.57C594.065 229.69 593.515 229.98 593.515 230.28C593.515 230.75 594.195 231.14 595.035 231.14C595.875 231.14 596.555 230.75 596.555 230.28C596.555 230.01 596.075 229.73 595.775 229.6L595.905 225.13C597.713 225.021 599.48 224.541 601.095 223.72L602.575 226.13C602.355 226.38 602.055 226.86 602.195 227.13C602.335 227.4 603.115 227.49 603.775 227.13C604.435 226.77 604.775 226.13 604.585 225.77C604.395 225.41 603.955 225.55 603.665 225.59L602.275 223.02C603.796 222.037 605.097 220.75 606.095 219.24L609.995 221.34C609.925 221.7 609.895 222.34 610.165 222.48C610.435 222.62 611.245 222.32 611.665 221.59C612.085 220.86 612.095 220.08 611.665 219.85C611.425 219.71 610.935 219.99 610.665 220.18L606.855 217.84C607.667 216.22 608.133 214.449 608.225 212.64L611.095 212.6Z" stroke="#787878" stroke-linecap="round" stroke-linejoin="round"/>
<path d="M594.735 203.18C595.486 203.18 596.095 202.598 596.095 201.88C596.095 201.162 595.486 200.58 594.735 200.58C593.984 200.58 593.375 201.162 593.375 201.88C593.375 202.598 593.984 203.18 594.735 203.18Z" stroke="#787878" stroke-linecap="round" stroke-linejoin="round"/>
<path d="M587.875 212.37C587.888 212.64 587.822 212.909 587.683 213.141C587.544 213.374 587.339 213.56 587.094 213.676C586.849 213.792 586.576 213.833 586.308 213.793C586.04 213.754 585.79 213.636 585.589 213.455C585.388 213.273 585.245 213.036 585.179 212.774C585.112 212.511 585.125 212.235 585.216 211.98C585.306 211.725 585.47 211.502 585.687 211.34C585.904 211.178 586.165 211.084 586.435 211.07H586.505C586.68 211.063 586.855 211.091 587.019 211.153C587.183 211.214 587.333 211.308 587.46 211.428C587.588 211.548 587.69 211.692 587.761 211.852C587.833 212.012 587.871 212.185 587.875 212.36V212.37Z" stroke="#787878" stroke-linecap="round" stroke-linejoin="round"/>
<path d="M593.965 209.02C593.987 209.206 593.97 209.394 593.916 209.573C593.862 209.752 593.772 209.918 593.651 210.06C593.53 210.203 593.38 210.319 593.213 210.401C593.045 210.483 592.861 210.53 592.675 210.538C592.488 210.547 592.301 210.516 592.127 210.449C591.952 210.382 591.793 210.28 591.66 210.148C591.527 210.017 591.422 209.86 591.352 209.686C591.283 209.513 591.25 209.327 591.255 209.14C591.246 208.962 591.272 208.783 591.331 208.615C591.391 208.447 591.484 208.293 591.604 208.161C591.724 208.029 591.869 207.922 592.03 207.846C592.192 207.77 592.367 207.728 592.545 207.72H592.605C592.78 207.715 592.954 207.744 593.118 207.807C593.281 207.869 593.431 207.964 593.557 208.085C593.684 208.206 593.785 208.351 593.855 208.511C593.925 208.672 593.963 208.845 593.965 209.02Z" stroke="#787878" stroke-linecap="round" stroke-linejoin="round"/>
<path d="M590.785 220.28C590.807 220.466 590.791 220.654 590.736 220.833C590.682 221.012 590.592 221.178 590.471 221.321C590.35 221.463 590.201 221.579 590.033 221.661C589.865 221.744 589.682 221.79 589.495 221.799C589.308 221.807 589.121 221.776 588.947 221.709C588.772 221.642 588.613 221.54 588.48 221.409C588.347 221.277 588.242 221.12 588.172 220.947C588.103 220.773 588.07 220.587 588.075 220.4C588.066 220.222 588.092 220.044 588.152 219.876C588.211 219.708 588.304 219.553 588.424 219.421C588.544 219.289 588.689 219.182 588.85 219.106C589.012 219.031 589.187 218.988 589.365 218.98H589.425C589.6 218.975 589.774 219.004 589.938 219.067C590.101 219.13 590.251 219.224 590.377 219.345C590.504 219.466 590.605 219.611 590.675 219.772C590.745 219.932 590.783 220.105 590.785 220.28Z" stroke="#787878" stroke-linecap="round" stroke-linejoin="round"/>
<path d="M605.685 214.83C605.699 215.098 605.632 215.365 605.494 215.596C605.356 215.826 605.153 216.011 604.91 216.126C604.667 216.242 604.396 216.283 604.13 216.244C603.864 216.205 603.615 216.088 603.416 215.908C603.216 215.728 603.074 215.493 603.008 215.232C602.942 214.971 602.955 214.697 603.045 214.444C603.135 214.19 603.298 213.969 603.513 213.808C603.728 213.647 603.987 213.554 604.255 213.54H604.325C604.676 213.532 605.016 213.663 605.271 213.905C605.526 214.146 605.675 214.479 605.685 214.83Z" stroke="#787878" stroke-linecap="round" stroke-linejoin="round"/>
<path d="M595.895 216.61C595.909 216.881 595.842 217.149 595.703 217.381C595.564 217.614 595.359 217.8 595.114 217.916C594.869 218.032 594.596 218.073 594.328 218.034C594.06 217.995 593.81 217.877 593.609 217.695C593.408 217.514 593.265 217.277 593.199 217.014C593.132 216.752 593.145 216.475 593.236 216.22C593.326 215.965 593.49 215.742 593.707 215.58C593.924 215.418 594.185 215.324 594.455 215.31H594.535C594.71 215.305 594.884 215.334 595.048 215.397C595.211 215.46 595.361 215.554 595.487 215.675C595.614 215.796 595.715 215.941 595.785 216.102C595.855 216.262 595.893 216.435 595.895 216.61Z" stroke="#787878" stroke-linecap="round" stroke-linejoin="round"/>
<path d="M600.305 211.42C600.319 211.691 600.252 211.959 600.113 212.192C599.974 212.424 599.769 212.61 599.524 212.726C599.279 212.842 599.006 212.883 598.738 212.844C598.47 212.805 598.22 212.687 598.019 212.505C597.818 212.324 597.675 212.087 597.609 211.824C597.542 211.562 597.555 211.285 597.646 211.03C597.736 210.775 597.9 210.552 598.117 210.39C598.334 210.228 598.595 210.134 598.865 210.12H598.945C599.12 210.115 599.294 210.144 599.458 210.207C599.621 210.27 599.771 210.364 599.897 210.485C600.024 210.606 600.125 210.751 600.195 210.912C600.265 211.072 600.302 211.245 600.305 211.42Z" stroke="#787878" stroke-linecap="round" stroke-linejoin="round"/>
<path d="M603.595 205.38C603.608 205.651 603.541 205.919 603.402 206.151C603.263 206.384 603.059 206.57 602.814 206.686C602.569 206.802 602.296 206.843 602.028 206.804C601.76 206.765 601.51 206.647 601.309 206.465C601.108 206.284 600.965 206.047 600.899 205.784C600.832 205.522 600.845 205.245 600.936 204.99C601.026 204.735 601.19 204.512 601.407 204.35C601.624 204.188 601.885 204.094 602.155 204.08H602.235C602.41 204.075 602.584 204.104 602.748 204.167C602.911 204.23 603.061 204.324 603.187 204.445C603.314 204.566 603.415 204.711 603.485 204.872C603.555 205.032 603.592 205.205 603.595 205.38Z" stroke="#787878" stroke-linecap="round" stroke-linejoin="round"/>
<path d="M600.455 220.93C600.469 221.2 600.402 221.469 600.263 221.701C600.124 221.934 599.919 222.12 599.674 222.236C599.429 222.352 599.156 222.393 598.888 222.353C598.62 222.314 598.37 222.196 598.169 222.015C597.968 221.833 597.825 221.596 597.759 221.334C597.692 221.071 597.705 220.795 597.796 220.54C597.886 220.285 598.05 220.062 598.267 219.9C598.484 219.738 598.745 219.644 599.015 219.63H599.085C599.26 219.623 599.435 219.651 599.599 219.713C599.763 219.774 599.913 219.868 600.04 219.988C600.168 220.108 600.27 220.252 600.341 220.412C600.413 220.572 600.451 220.745 600.455 220.92V220.93Z" stroke="#787878" stroke-linecap="round" stroke-linejoin="round"/>
<path d="M589.295 204.2C589.317 204.386 589.301 204.574 589.246 204.753C589.192 204.932 589.102 205.098 588.981 205.241C588.86 205.383 588.711 205.499 588.543 205.581C588.375 205.664 588.192 205.71 588.005 205.718C587.818 205.727 587.631 205.696 587.457 205.629C587.282 205.562 587.123 205.46 586.99 205.329C586.857 205.197 586.752 205.04 586.682 204.867C586.613 204.693 586.58 204.507 586.585 204.32C586.576 204.142 586.602 203.964 586.662 203.796C586.721 203.628 586.814 203.473 586.934 203.341C587.054 203.209 587.199 203.102 587.36 203.026C587.522 202.951 587.697 202.908 587.875 202.9H587.935C588.287 202.895 588.627 203.028 588.882 203.271C589.136 203.515 589.285 203.848 589.295 204.2Z" stroke="#787878" stroke-linecap="round" stroke-linejoin="round"/>
<path d="M94.485 125.74C94.595 126.06 94.855 126.56 95.135 126.56C95.415 126.56 95.915 125.94 95.915 125.18C95.915 124.42 95.565 123.8 95.135 123.8C94.885 123.8 94.635 124.24 94.515 124.5L91.685 124.42C91.585 122.613 91.1117 120.845 90.295 119.23L94.075 116.9C94.355 117.14 94.875 117.47 95.145 117.32C95.415 117.17 95.545 116.32 95.145 115.58C94.745 114.84 94.055 114.45 93.645 114.69C93.405 114.82 93.405 115.38 93.445 115.69L89.515 117.81C88.509 116.3 87.2058 115.01 85.685 114.02L87.025 111.53C87.355 111.6 87.925 111.62 88.025 111.37C88.0363 111.089 87.9658 110.811 87.822 110.57C87.6782 110.328 87.4673 110.134 87.215 110.01C86.555 109.65 85.845 109.62 85.635 110.01C85.505 110.23 85.755 110.67 85.935 110.9L84.435 113.34C82.829 112.531 81.0787 112.048 79.285 111.92L79.155 107.49C79.505 107.37 80.055 107.07 80.055 106.77C80.055 106.3 79.375 105.92 78.535 105.92C77.695 105.92 77.025 106.3 77.025 106.77C77.025 107.04 77.505 107.32 77.795 107.45L77.665 111.92C75.8614 112.039 74.1 112.518 72.485 113.33L71.005 110.92C71.225 110.67 71.525 110.19 71.385 109.92C71.245 109.65 70.465 109.56 69.805 109.92C69.145 110.28 68.805 110.92 68.995 111.28C69.185 111.64 69.625 111.5 69.915 111.46L71.285 114.03C69.774 115.021 68.4782 116.307 67.475 117.81L63.575 115.71C63.645 115.35 63.665 114.71 63.405 114.57C63.145 114.43 62.325 114.73 61.905 115.46C61.485 116.19 61.475 116.97 61.905 117.2C62.145 117.34 62.625 117.06 62.905 116.87L66.705 119.22C65.8822 120.835 65.399 122.601 65.285 124.41L62.455 124.49C62.345 124.18 62.075 123.68 61.795 123.68C61.515 123.68 61.025 124.29 61.025 125.06C61.025 125.83 61.375 126.44 61.795 126.44C62.055 126.44 62.305 126 62.415 125.73L65.285 125.81C65.3828 127.617 65.8454 129.386 66.645 131.01L62.875 133.33C62.595 133.09 62.065 132.76 61.805 132.92C61.545 133.08 61.405 133.92 61.805 134.66C62.205 135.4 62.895 135.78 63.305 135.55C63.545 135.41 63.545 134.85 63.505 134.55L67.455 132.41C68.4518 133.925 69.7568 135.213 71.285 136.19L69.935 138.68C69.615 138.62 69.045 138.6 68.935 138.84C68.9224 139.121 68.9924 139.4 69.1364 139.641C69.2803 139.883 69.4919 140.077 69.745 140.2C70.405 140.56 71.115 140.59 71.325 140.2C71.455 139.98 71.195 139.54 71.025 139.31L72.525 136.87C74.1329 137.7 75.8983 138.18 77.705 138.28L77.835 142.72C77.485 142.84 76.935 143.13 76.935 143.44C76.935 143.91 77.615 144.29 78.455 144.29C79.295 144.29 79.975 143.91 79.975 143.44C79.975 143.16 79.495 142.88 79.195 142.75L79.325 138.28C81.135 138.18 82.9035 137.7 84.515 136.87L85.995 139.28C85.775 139.53 85.475 140.01 85.615 140.28C85.755 140.55 86.535 140.64 87.195 140.28C87.855 139.92 88.195 139.28 88.005 138.92C87.815 138.56 87.375 138.7 87.085 138.74L85.685 136.23C87.1963 135.237 88.4838 133.939 89.465 132.42L93.365 134.52C93.295 134.88 93.265 135.52 93.535 135.66C93.805 135.8 94.615 135.5 95.035 134.77C95.455 134.04 95.465 133.27 95.035 133.03C94.795 132.89 94.305 133.17 94.035 133.36L90.265 131.02C91.0723 129.398 91.5386 127.629 91.635 125.82L94.485 125.74Z" stroke="#787878" stroke-linecap="round" stroke-linejoin="round"/>
<path d="M79.485 115.02C79.4986 115.289 79.432 115.556 79.2938 115.787C79.1555 116.018 78.9517 116.203 78.7083 116.318C78.4649 116.433 78.1928 116.474 77.9265 116.434C77.6601 116.394 77.4116 116.276 77.2122 116.095C77.0129 115.914 76.8719 115.678 76.8069 115.417C76.7419 115.156 76.756 114.881 76.8473 114.627C76.9387 114.374 77.1031 114.154 77.3199 113.994C77.5367 113.834 77.796 113.742 78.065 113.73H78.125C78.477 113.725 78.817 113.858 79.0715 114.101C79.326 114.345 79.4745 114.678 79.485 115.03V115.02Z" stroke="#787878" stroke-linecap="round" stroke-linejoin="round"/>
<path d="M71.265 125.51C71.2805 125.781 71.2152 126.05 71.0775 126.284C70.9398 126.517 70.7358 126.705 70.4915 126.823C70.2471 126.94 69.9733 126.983 69.7048 126.945C69.4363 126.907 69.1851 126.79 68.9831 126.609C68.7811 126.428 68.6373 126.191 68.57 125.928C68.5028 125.665 68.515 125.389 68.6051 125.133C68.6953 124.877 68.8593 124.654 69.0765 124.491C69.2937 124.329 69.5542 124.234 69.825 124.22H69.895C70.2471 124.212 70.5881 124.343 70.8445 124.584C71.1009 124.826 71.2519 125.158 71.265 125.51Z" stroke="#787878" stroke-linecap="round" stroke-linejoin="round"/>
<path d="M75.995 123.44C76.7461 123.44 77.355 122.858 77.355 122.14C77.355 121.422 76.7461 120.84 75.995 120.84C75.2439 120.84 74.635 121.422 74.635 122.14C74.635 122.858 75.2439 123.44 75.995 123.44Z" stroke="#787878" stroke-linecap="round" stroke-linejoin="round"/>
<path d="M74.1751 133.42C74.1886 133.689 74.1221 133.956 73.9838 134.187C73.8456 134.418 73.6418 134.603 73.3984 134.718C73.155 134.833 72.8829 134.873 72.6165 134.834C72.3502 134.794 72.1016 134.676 71.9023 134.495C71.703 134.314 71.5619 134.078 71.497 133.817C71.432 133.555 71.4461 133.281 71.5374 133.027C71.6287 132.774 71.7932 132.554 72.01 132.394C72.2267 132.234 72.4861 132.142 72.7551 132.13H72.8151C73.1671 132.125 73.5071 132.258 73.7616 132.501C74.0161 132.744 74.1646 133.078 74.1751 133.43V133.42Z" stroke="#787878" stroke-linecap="round" stroke-linejoin="round"/>
<path d="M89.0251 128.02C89.0437 128.38 88.9182 128.734 88.6763 129.002C88.4344 129.27 88.0958 129.431 87.7351 129.45C87.3744 129.468 87.0211 129.343 86.7529 129.101C86.4848 128.859 86.3237 128.52 86.3051 128.16C86.2957 127.982 86.3217 127.803 86.3816 127.635C86.4414 127.467 86.534 127.313 86.654 127.181C86.7739 127.049 86.9189 126.942 87.0804 126.866C87.242 126.79 87.4169 126.747 87.5951 126.74H87.6851C88.0311 126.737 88.3645 126.869 88.6147 127.108C88.8649 127.347 89.0121 127.674 89.0251 128.02Z" stroke="#787878" stroke-linecap="round" stroke-linejoin="round"/>
<path d="M79.265 129.75C79.2805 130.021 79.2152 130.29 79.0775 130.524C78.9398 130.757 78.7358 130.945 78.4915 131.063C78.2471 131.18 77.9733 131.223 77.7048 131.185C77.4363 131.147 77.1851 131.03 76.9831 130.849C76.7811 130.668 76.6373 130.431 76.57 130.168C76.5028 129.905 76.515 129.629 76.6051 129.373C76.6953 129.117 76.8593 128.894 77.0765 128.731C77.2937 128.569 77.5542 128.474 77.825 128.46H77.905C78.257 128.455 78.597 128.588 78.8515 128.831C79.106 129.075 79.2545 129.408 79.265 129.76V129.75Z" stroke="#787878" stroke-linecap="round" stroke-linejoin="round"/>
<path d="M83.685 124.56C83.7005 124.831 83.6352 125.1 83.4975 125.334C83.3598 125.568 83.1559 125.755 82.9115 125.873C82.6671 125.99 82.3934 126.033 82.1248 125.995C81.8563 125.957 81.6051 125.84 81.4031 125.659C81.2011 125.478 81.0574 125.241 80.9901 124.978C80.9228 124.715 80.935 124.439 81.0252 124.183C81.1153 123.927 81.2794 123.704 81.4965 123.541C81.7137 123.379 81.9742 123.284 82.245 123.27H82.325C82.6771 123.265 83.017 123.398 83.2715 123.641C83.526 123.885 83.6746 124.218 83.685 124.57V124.56Z" stroke="#787878" stroke-linecap="round" stroke-linejoin="round"/>
<path d="M86.9851 118.52C87.0006 118.791 86.9353 119.06 86.7976 119.294C86.6599 119.527 86.4559 119.715 86.2116 119.833C85.9672 119.95 85.6934 119.993 85.4249 119.955C85.1564 119.917 84.9052 119.8 84.7032 119.619C84.5012 119.438 84.3574 119.201 84.2901 118.938C84.2229 118.675 84.2351 118.399 84.3252 118.143C84.4154 117.887 84.5794 117.664 84.7966 117.501C85.0138 117.339 85.2743 117.244 85.5451 117.23H85.6251C85.9771 117.225 86.3171 117.358 86.5716 117.601C86.8261 117.845 86.9746 118.178 86.9851 118.53V118.52Z" stroke="#787878" stroke-linecap="round" stroke-linejoin="round"/>
<path d="M83.8451 134.07C83.8605 134.341 83.7953 134.61 83.6576 134.844C83.5199 135.077 83.3159 135.265 83.0715 135.383C82.8272 135.5 82.5534 135.543 82.2849 135.505C82.0164 135.467 81.7652 135.35 81.5632 135.169C81.3612 134.988 81.2174 134.751 81.1501 134.488C81.0828 134.225 81.0951 133.949 81.1852 133.693C81.2754 133.437 81.4394 133.214 81.6566 133.051C81.8737 132.889 82.1342 132.794 82.4051 132.78H82.4751C82.8271 132.772 83.1682 132.903 83.4246 133.144C83.681 133.386 83.832 133.718 83.8451 134.07Z" stroke="#787878" stroke-linecap="round" stroke-linejoin="round"/>
<path d="M72.6851 117.34C72.6987 117.609 72.6321 117.876 72.4938 118.107C72.3556 118.338 72.1518 118.523 71.9084 118.638C71.665 118.753 71.3929 118.793 71.1266 118.754C70.8602 118.714 70.6116 118.596 70.4123 118.415C70.213 118.234 70.0719 117.998 70.007 117.737C69.942 117.475 69.9561 117.201 70.0474 116.947C70.1387 116.694 70.3032 116.473 70.52 116.314C70.7368 116.154 70.9961 116.062 71.2651 116.05H71.3251C71.6771 116.045 72.0171 116.178 72.2716 116.421C72.5261 116.664 72.6746 116.998 72.6851 117.35V117.34Z" stroke="#787878" stroke-linecap="round" stroke-linejoin="round"/>
<path d="M397.985 52.84C398.095 53.15 398.365 53.65 398.645 53.65C398.925 53.65 399.415 53.04 399.415 52.27C399.415 51.5 399.065 50.89 398.645 50.89C398.385 50.89 398.135 51.33 398.025 51.6L395.155 51.52C395.06 49.7123 394.597 47.943 393.795 46.32L397.565 44.02C397.845 44.27 398.375 44.6 398.635 44.44C398.895 44.28 399.035 43.44 398.635 42.7C398.235 41.96 397.545 41.58 397.145 41.81C396.905 41.95 396.905 42.51 396.935 42.81L393.005 44.93C392 43.426 390.704 42.1375 389.195 41.14L390.535 38.66C390.855 38.72 391.425 38.74 391.535 38.5C391.548 38.219 391.478 37.9404 391.334 37.6987C391.19 37.457 390.978 37.2628 390.725 37.14C390.065 36.78 389.355 36.75 389.145 37.14C388.935 37.53 389.275 37.8 389.445 38.03L387.955 40.45C386.345 39.6221 384.582 39.1353 382.775 39.02L382.685 34.57C383.035 34.45 383.585 34.16 383.585 33.85C383.585 33.38 382.905 33 382.065 33C381.225 33 380.545 33.38 380.545 33.85C380.545 34.13 381.025 34.41 381.325 34.53L381.155 39.02C379.347 39.1291 377.58 39.6091 375.965 40.43L374.485 38.02C374.705 37.77 375.005 37.29 374.865 37.02C374.725 36.75 373.945 36.66 373.285 37.02C372.625 37.38 372.285 38.02 372.475 38.38C372.665 38.74 373.105 38.59 373.395 38.56L374.755 41.02C373.236 42.009 371.936 43.2989 370.935 44.81L367.035 42.71C367.105 42.34 367.135 41.71 366.865 41.57C366.595 41.43 365.785 41.73 365.365 42.46C364.945 43.19 364.945 43.96 365.365 44.2C365.605 44.34 366.095 44.06 366.365 43.87L370.175 46.21C369.363 47.8297 368.897 49.6005 368.805 51.41L365.975 51.49C365.865 51.17 365.605 50.67 365.325 50.67C365.045 50.67 364.555 51.29 364.555 52.05C364.555 52.81 364.895 53.43 365.325 53.43C365.575 53.43 365.825 52.99 365.945 52.73L368.805 52.81C368.893 54.6233 369.36 56.398 370.175 58.02L366.355 60.4C366.085 60.16 365.555 59.83 365.285 59.98C365.015 60.13 364.885 60.98 365.285 61.72C365.685 62.46 366.375 62.85 366.785 62.61C367.025 62.47 367.025 61.92 366.985 61.61L370.915 59.49C371.913 61.0005 373.214 62.2875 374.735 63.27L373.395 65.76C373.065 65.69 372.495 65.67 372.395 65.91C372.385 66.1906 372.456 66.4681 372.6 66.7093C372.743 66.9505 372.954 67.1452 373.205 67.27C373.865 67.63 374.575 67.66 374.795 67.27C375.015 66.88 374.665 66.61 374.485 66.38L375.985 63.94C377.59 64.7764 379.35 65.2734 381.155 65.4L381.285 69.83C380.935 69.95 380.385 70.25 380.385 70.55C380.385 71.02 381.065 71.4 381.905 71.4C382.745 71.4 383.425 71.02 383.425 70.55C383.425 70.28 382.935 70 382.645 69.87L382.775 65.4C384.578 65.2989 386.341 64.8292 387.955 64.02L389.435 66.43C389.215 66.68 388.915 67.16 389.055 67.43C389.195 67.7 389.985 67.79 390.645 67.43C391.305 67.07 391.645 66.43 391.445 66.07C391.245 65.71 390.815 65.85 390.525 65.89L389.175 63.37C390.689 62.3792 391.988 61.0936 392.995 59.59L396.885 61.69C396.815 62.05 396.795 62.69 397.055 62.83C397.315 62.97 398.135 62.66 398.555 61.94C398.975 61.22 398.985 60.43 398.555 60.2C398.315 60.06 397.835 60.34 397.555 60.53L393.755 58.18C394.556 56.571 395.019 54.8149 395.115 53.02L397.985 52.84Z" stroke="#787878" stroke-linecap="round" stroke-linejoin="round"/>
<path d="M382.995 42.1201C383.011 42.3908 382.945 42.6601 382.808 42.8938C382.67 43.1274 382.466 43.3149 382.222 43.4326C381.977 43.5502 381.703 43.5927 381.435 43.5546C381.166 43.5165 380.915 43.3996 380.713 43.2186C380.511 43.0376 380.367 42.8008 380.3 42.538C380.233 42.2753 380.245 41.9985 380.335 41.7427C380.425 41.487 380.589 41.2637 380.807 41.1012C381.024 40.9387 381.284 40.8444 381.555 40.8301H381.685C382.027 40.8375 382.353 40.9752 382.596 41.215C382.84 41.4548 382.982 41.7785 382.995 42.1201Z" stroke="#787878" stroke-linecap="round" stroke-linejoin="round"/>
<path d="M374.765 52.61C374.779 52.8789 374.712 53.1458 374.574 53.3769C374.436 53.608 374.232 53.7928 373.988 53.9079C373.745 54.0231 373.473 54.0634 373.207 54.0238C372.94 53.9841 372.692 53.8663 372.492 53.6852C372.293 53.5042 372.152 53.268 372.087 53.0067C372.022 52.7454 372.036 52.4706 372.127 52.2173C372.219 51.964 372.383 51.7435 372.6 51.5838C372.817 51.424 373.076 51.3322 373.345 51.32H373.405C373.757 51.3146 374.097 51.4479 374.352 51.6912C374.606 51.9344 374.755 52.2681 374.765 52.62V52.61Z" stroke="#787878" stroke-linecap="round" stroke-linejoin="round"/>
<path d="M380.865 49.2401C380.88 49.5108 380.815 49.7801 380.677 50.0138C380.54 50.2474 380.336 50.4349 380.091 50.5526C379.847 50.6702 379.573 50.7127 379.305 50.6746C379.036 50.6365 378.785 50.5195 378.583 50.3386C378.381 50.1576 378.237 49.9208 378.17 49.658C378.103 49.3953 378.115 49.1185 378.205 48.8627C378.295 48.6069 378.459 48.3837 378.676 48.2212C378.894 48.0587 379.154 47.9644 379.425 47.9501H379.495C379.847 47.9419 380.188 48.0727 380.444 48.3141C380.701 48.5555 380.852 48.8882 380.865 49.2401Z" stroke="#787878" stroke-linecap="round" stroke-linejoin="round"/>
<path d="M377.685 60.5201C377.7 60.7909 377.635 61.0602 377.498 61.2938C377.36 61.5275 377.156 61.715 376.912 61.8326C376.667 61.9503 376.393 61.9928 376.125 61.9547C375.856 61.9166 375.605 61.7996 375.403 61.6187C375.201 61.4377 375.057 61.2008 374.99 60.9381C374.923 60.6754 374.935 60.3986 375.025 60.1428C375.115 59.887 375.279 59.6637 375.497 59.5013C375.714 59.3388 375.974 59.2444 376.245 59.2301H376.325C376.675 59.2247 377.014 59.3566 377.268 59.5978C377.522 59.8389 377.672 60.17 377.685 60.5201Z" stroke="#787878" stroke-linecap="round" stroke-linejoin="round"/>
<path d="M392.535 55.0699C392.551 55.3407 392.485 55.61 392.348 55.8436C392.21 56.0773 392.006 56.2648 391.762 56.3824C391.517 56.5001 391.243 56.5426 390.975 56.5045C390.706 56.4664 390.455 56.3494 390.253 56.1685C390.051 55.9875 389.907 55.7506 389.84 55.4879C389.773 55.2252 389.785 54.9484 389.875 54.6926C389.965 54.4368 390.129 54.2135 390.347 54.0511C390.564 53.8886 390.824 53.7942 391.095 53.7799H391.175C391.527 53.7745 391.867 53.9079 392.122 54.1511C392.376 54.3944 392.525 54.728 392.535 55.0799V55.0699Z" stroke="#787878" stroke-linecap="round" stroke-linejoin="round"/>
<path d="M382.785 56.8399C382.804 57.2006 382.678 57.5539 382.436 57.8221C382.194 58.0903 381.856 58.2514 381.495 58.2699C381.134 58.2885 380.781 58.163 380.513 57.9211C380.245 57.6792 380.084 57.3406 380.065 56.9799C380.056 56.8018 380.082 56.6235 380.142 56.4555C380.201 56.2875 380.294 56.133 380.414 56.0009C380.534 55.8689 380.679 55.7619 380.84 55.6862C381.002 55.6105 381.177 55.5676 381.355 55.5599H381.425C381.775 55.5518 382.113 55.6815 382.368 55.9211C382.622 56.1606 382.772 56.4907 382.785 56.8399Z" stroke="#787878" stroke-linecap="round" stroke-linejoin="round"/>
<path d="M387.195 51.6598C387.209 51.9287 387.142 52.1956 387.004 52.4267C386.866 52.6578 386.662 52.8426 386.418 52.9577C386.175 53.0729 385.903 53.1132 385.637 53.0736C385.37 53.0339 385.122 52.9161 384.922 52.735C384.723 52.554 384.582 52.3178 384.517 52.0565C384.452 51.7952 384.466 51.5204 384.557 51.2671C384.649 51.0138 384.813 50.7933 385.03 50.6336C385.247 50.4738 385.506 50.382 385.775 50.3698H385.835C386.187 50.3644 386.527 50.4977 386.782 50.741C387.036 50.9842 387.185 51.3179 387.195 51.6698V51.6598Z" stroke="#787878" stroke-linecap="round" stroke-linejoin="round"/>
<path d="M390.485 45.6099C390.494 45.7885 390.468 45.9672 390.408 46.1357C390.348 46.3042 390.256 46.4593 390.136 46.5921C390.016 46.7249 389.872 46.8328 389.71 46.9096C389.549 46.9865 389.374 47.0308 389.195 47.0399C389.016 47.0491 388.838 47.0231 388.669 46.9632C388.501 46.9034 388.346 46.8109 388.213 46.6911C388.08 46.5713 387.972 46.4266 387.895 46.2651C387.819 46.1036 387.774 45.9285 387.765 45.7499C387.756 45.5718 387.782 45.3936 387.842 45.2255C387.901 45.0575 387.994 44.903 388.114 44.7709C388.234 44.6389 388.379 44.5319 388.54 44.4562C388.702 44.3806 388.877 44.3376 389.055 44.3299H389.125C389.474 44.3218 389.813 44.4516 390.068 44.6911C390.322 44.9306 390.472 45.2607 390.485 45.6099Z" stroke="#787878" stroke-linecap="round" stroke-linejoin="round"/>
<path d="M387.345 61.17C387.359 61.439 387.292 61.7059 387.154 61.937C387.015 62.168 386.812 62.3528 386.568 62.468C386.325 62.5832 386.053 62.6235 385.786 62.5838C385.52 62.5442 385.272 62.4263 385.072 62.2453C384.873 62.0642 384.732 61.8281 384.667 61.5667C384.602 61.3054 384.616 61.0307 384.707 60.7774C384.799 60.5241 384.963 60.3036 385.18 60.1438C385.397 59.9841 385.656 59.8923 385.925 59.88H385.985C386.337 59.8746 386.677 60.008 386.931 60.2512C387.186 60.4945 387.335 60.8281 387.345 61.18V61.17Z" stroke="#787878" stroke-linecap="round" stroke-linejoin="round"/>
<path d="M376.195 44.4202C376.211 44.691 376.145 44.9603 376.008 45.1939C375.87 45.4276 375.666 45.6151 375.422 45.7327C375.177 45.8504 374.903 45.8928 374.635 45.8548C374.366 45.8167 374.115 45.6997 373.913 45.5188C373.711 45.3378 373.567 45.1009 373.5 44.8382C373.433 44.5755 373.445 44.2987 373.535 44.0429C373.625 43.7871 373.789 43.5638 374.007 43.4014C374.224 43.2389 374.484 43.1445 374.755 43.1302H374.825C375.177 43.1221 375.518 43.2529 375.775 43.4943C376.031 43.7357 376.182 44.0683 376.195 44.4202Z" stroke="#787878" stroke-linecap="round" stroke-linejoin="round"/>
<path d="M90.685 321.83C90.795 322.15 91.065 322.65 91.345 322.65C91.625 322.65 92.115 322.03 92.115 321.27C92.115 320.51 91.765 319.89 91.345 319.89C91.085 319.89 90.835 320.33 90.725 320.59L87.825 320.51C87.727 318.706 87.2644 316.94 86.465 315.32L90.235 312.99C90.515 313.23 91.045 313.56 91.305 313.41C91.715 313.17 91.705 312.41 91.305 311.67C90.905 310.93 90.215 310.54 89.805 310.78C89.565 310.92 89.565 311.47 89.605 311.78L85.685 313.9C84.6847 312.395 83.3884 311.108 81.875 310.12L83.215 307.63C83.535 307.7 84.105 307.72 84.215 307.47C84.2296 307.19 84.1603 306.912 84.016 306.671C83.8717 306.431 83.659 306.239 83.405 306.12C82.745 305.77 82.035 305.72 81.825 306.12C81.695 306.34 81.955 306.78 82.125 307.01L80.625 309.45C79.0131 308.63 77.25 308.151 75.445 308.04L75.315 303.61C75.665 303.49 76.215 303.19 76.215 302.89C76.215 302.42 75.535 302.04 74.695 302.04C73.855 302.04 73.175 302.42 73.175 302.89C73.175 303.16 73.655 303.44 73.955 303.57L73.825 308.04C72.0169 308.151 70.2506 308.63 68.635 309.45L67.125 307.02C67.345 306.77 67.6451 306.29 67.5051 306.02C67.3651 305.75 66.585 305.66 65.925 306.02C65.265 306.38 64.925 307.02 65.115 307.38C65.305 307.74 65.745 307.6 66.035 307.56L67.3951 310.08C65.8742 311.063 64.5735 312.35 63.575 313.86L59.675 311.76C59.745 311.4 59.7751 310.76 59.5051 310.62C59.2351 310.48 58.4251 310.78 58.0051 311.51C57.5851 312.24 57.5751 313.02 58.0051 313.25C58.2451 313.39 58.7351 313.11 59.0051 312.92L62.805 315.29C61.9923 316.906 61.5257 318.674 61.435 320.48L58.605 320.56C58.495 320.25 58.235 319.75 57.955 319.75C57.525 319.75 57.175 320.36 57.175 321.13C57.175 321.9 57.525 322.51 57.955 322.51C58.205 322.51 58.455 322.07 58.575 321.8L61.435 321.88C61.5266 323.69 61.9932 325.46 62.805 327.08L59.025 329.41C58.745 329.16 58.225 328.83 57.955 328.99C57.685 329.15 57.555 329.99 57.955 330.73C58.355 331.47 59.045 331.85 59.455 331.62C59.695 331.48 59.695 330.92 59.655 330.62L63.585 328.5C64.586 330.011 65.8861 331.301 67.405 332.29L66.065 334.77C65.735 334.71 65.165 334.69 65.065 334.93C65.055 335.211 65.1261 335.488 65.2697 335.729C65.4134 335.971 65.6236 336.165 65.875 336.29C66.535 336.65 67.245 336.68 67.465 336.29C67.585 336.07 67.335 335.63 67.155 335.4L68.685 333.02C70.2966 333.85 72.0651 334.331 73.875 334.43L74.0051 338.87C73.6551 338.99 73.105 339.28 73.105 339.59C73.105 340.06 73.785 340.44 74.625 340.44C75.465 340.44 76.135 340.06 76.135 339.59C76.135 339.31 75.655 339.03 75.365 338.9L75.495 334.43C77.3037 334.322 79.0706 333.842 80.685 333.02L82.165 335.43C81.945 335.68 81.645 336.16 81.785 336.43C81.925 336.7 82.705 336.79 83.365 336.43C84.025 336.07 84.365 335.43 84.175 335.07C83.985 334.71 83.5451 334.85 83.2551 334.89L81.8951 332.35C83.4056 331.344 84.6952 330.041 85.685 328.52L89.585 330.62C89.515 330.99 89.4951 331.62 89.7551 331.76C90.0151 331.9 90.8351 331.6 91.2551 330.87C91.6751 330.14 91.6851 329.37 91.2551 329.13C91.0151 328.99 90.5351 329.27 90.2551 329.46L86.455 327.12C87.2547 325.496 87.7173 323.727 87.815 321.92L90.685 321.83Z" stroke="#787878" stroke-linecap="round" stroke-linejoin="round"/>
<path d="M75.6851 311.11C75.6986 311.381 75.6316 311.649 75.4926 311.881C75.3536 312.114 75.1488 312.3 74.9042 312.416C74.6595 312.532 74.3859 312.573 74.118 312.534C73.85 312.494 73.5998 312.377 73.3987 312.195C73.1977 312.014 73.055 311.777 72.9886 311.514C72.9222 311.252 72.9351 310.975 73.0257 310.72C73.1162 310.465 73.2804 310.242 73.4974 310.08C73.7145 309.918 73.9746 309.824 74.2451 309.81H74.3151C74.4898 309.805 74.6638 309.834 74.8272 309.896C74.9906 309.958 75.1402 310.051 75.2674 310.171C75.3947 310.291 75.497 310.435 75.5687 310.594C75.6404 310.754 75.6799 310.925 75.6851 311.1V311.11Z" stroke="#787878" stroke-linecap="round" stroke-linejoin="round"/>
<path d="M67.4451 321.6C67.4566 321.869 67.3884 322.135 67.2488 322.365C67.1093 322.594 66.9047 322.778 66.661 322.891C66.4174 323.005 66.1455 323.044 65.8797 323.003C65.614 322.962 65.3663 322.843 65.168 322.662C64.9697 322.48 64.8296 322.244 64.7655 321.983C64.7014 321.722 64.7162 321.448 64.8079 321.195C64.8996 320.942 65.0642 320.722 65.2808 320.563C65.4975 320.404 65.7565 320.312 66.0251 320.3H66.0851C66.2597 320.296 66.4335 320.327 66.5964 320.39C66.7592 320.453 66.9081 320.548 67.0344 320.668C67.1607 320.789 67.262 320.934 67.3324 321.093C67.4029 321.253 67.4412 321.425 67.4451 321.6Z" stroke="#787878" stroke-linecap="round" stroke-linejoin="round"/>
<path d="M72.1751 319.53C72.9262 319.53 73.5351 318.948 73.5351 318.23C73.5351 317.512 72.9262 316.93 72.1751 316.93C71.424 316.93 70.8151 317.512 70.8151 318.23C70.8151 318.948 71.424 319.53 72.1751 319.53Z" stroke="#787878" stroke-linecap="round" stroke-linejoin="round"/>
<path d="M70.365 329.51C70.3803 329.78 70.3152 330.049 70.1779 330.282C70.0405 330.516 69.8371 330.703 69.5933 330.821C69.3495 330.939 69.0763 330.982 68.8081 330.944C68.54 330.907 68.2889 330.791 68.0866 330.611C67.8843 330.431 67.7399 330.195 67.6715 329.933C67.6032 329.671 67.6141 329.395 67.7027 329.139C67.7913 328.883 67.9538 328.659 68.1696 328.496C68.3853 328.332 68.6447 328.236 68.915 328.22H68.995C69.1697 328.215 69.3437 328.244 69.5071 328.306C69.6705 328.368 69.8201 328.461 69.9474 328.581C70.0746 328.701 70.177 328.844 70.2486 329.004C70.3203 329.163 70.3598 329.335 70.365 329.51Z" stroke="#787878" stroke-linecap="round" stroke-linejoin="round"/>
<path d="M85.2151 324.02C85.2304 324.29 85.1653 324.559 85.0279 324.792C84.8906 325.026 84.6872 325.213 84.4434 325.331C84.1996 325.449 83.9264 325.492 83.6582 325.454C83.3901 325.417 83.139 325.301 82.9367 325.121C82.7344 324.941 82.59 324.705 82.5216 324.443C82.4533 324.181 82.4642 323.905 82.5528 323.649C82.6414 323.393 82.8039 323.169 83.0197 323.006C83.2354 322.842 83.4948 322.746 83.7651 322.73H83.8551C84.2062 322.722 84.5462 322.853 84.801 323.095C85.0558 323.336 85.2046 323.669 85.2151 324.02Z" stroke="#787878" stroke-linecap="round" stroke-linejoin="round"/>
<path d="M75.4651 325.84C75.4767 326.109 75.4084 326.375 75.2688 326.604C75.1293 326.834 74.9247 327.017 74.6811 327.131C74.4374 327.245 74.1655 327.284 73.8997 327.243C73.634 327.202 73.3863 327.083 73.188 326.902C72.9897 326.72 72.8496 326.484 72.7855 326.223C72.7215 325.962 72.7362 325.687 72.8279 325.435C72.9196 325.182 73.0842 324.962 73.3009 324.803C73.5175 324.643 73.7765 324.552 74.0451 324.54H74.1051C74.2797 324.536 74.4535 324.566 74.6164 324.63C74.7793 324.693 74.9281 324.787 75.0544 324.908C75.1807 325.029 75.282 325.173 75.3525 325.333C75.4229 325.493 75.4612 325.665 75.4651 325.84Z" stroke="#787878" stroke-linecap="round" stroke-linejoin="round"/>
<path d="M79.875 320.65C79.8866 320.919 79.8183 321.185 79.6787 321.414C79.5392 321.644 79.3347 321.828 79.091 321.941C78.8473 322.055 78.5754 322.094 78.3097 322.053C78.0439 322.012 77.7962 321.893 77.5979 321.712C77.3996 321.53 77.2595 321.294 77.1955 321.033C77.1314 320.772 77.1461 320.497 77.2378 320.245C77.3295 319.992 77.4941 319.772 77.7108 319.613C77.9274 319.454 78.1864 319.362 78.455 319.35H78.515C78.6897 319.346 78.8634 319.376 79.0263 319.44C79.1892 319.503 79.338 319.597 79.4643 319.718C79.5906 319.839 79.6919 319.983 79.7623 320.143C79.8328 320.303 79.8711 320.475 79.875 320.65Z" stroke="#787878" stroke-linecap="round" stroke-linejoin="round"/>
<path d="M83.165 314.61C83.1766 314.879 83.1083 315.145 82.9688 315.374C82.8292 315.604 82.6247 315.788 82.381 315.901C82.1373 316.015 81.8654 316.054 81.5997 316.013C81.3339 315.972 81.0863 315.853 80.8879 315.672C80.6896 315.49 80.5496 315.254 80.4855 314.993C80.4214 314.732 80.4362 314.457 80.5279 314.205C80.6196 313.952 80.7842 313.732 81.0008 313.573C81.2174 313.413 81.4764 313.322 81.745 313.31H81.805C81.9797 313.306 82.1534 313.336 82.3163 313.4C82.4792 313.463 82.6281 313.557 82.7544 313.678C82.8807 313.799 82.9819 313.943 83.0524 314.103C83.1229 314.263 83.1611 314.435 83.165 314.61Z" stroke="#787878" stroke-linecap="round" stroke-linejoin="round"/>
<path d="M80.025 330.16C80.0366 330.429 79.9683 330.695 79.8288 330.925C79.6892 331.155 79.4847 331.338 79.241 331.451C78.9973 331.565 78.7254 331.604 78.4597 331.563C78.1939 331.522 77.9462 331.403 77.7479 331.222C77.5496 331.04 77.4096 330.804 77.3455 330.543C77.2814 330.282 77.2961 330.008 77.3879 329.755C77.4796 329.502 77.6442 329.282 77.8608 329.123C78.0774 328.964 78.3364 328.872 78.605 328.86H78.685C78.8597 328.856 79.0334 328.887 79.1963 328.95C79.3592 329.013 79.5081 329.108 79.6344 329.228C79.7606 329.349 79.8619 329.494 79.9324 329.653C80.0028 329.813 80.0411 329.986 80.045 330.16H80.025Z" stroke="#787878" stroke-linecap="round" stroke-linejoin="round"/>
<path d="M68.875 313.43C68.8885 313.701 68.8215 313.969 68.6825 314.201C68.5435 314.434 68.3388 314.62 68.0941 314.736C67.8494 314.852 67.5759 314.893 67.3079 314.854C67.04 314.814 66.7897 314.697 66.5887 314.515C66.3877 314.334 66.2449 314.097 66.1785 313.834C66.1121 313.572 66.125 313.295 66.2156 313.04C66.3062 312.785 66.4703 312.562 66.6874 312.4C66.9044 312.238 67.1646 312.144 67.435 312.13H67.505C67.6797 312.125 67.8537 312.154 68.0171 312.216C68.1805 312.278 68.3301 312.371 68.4574 312.491C68.5846 312.611 68.687 312.755 68.7586 312.914C68.8303 313.073 68.8699 313.245 68.875 313.42V313.43Z" stroke="#787878" stroke-linecap="round" stroke-linejoin="round"/>
<path d="M198.765 53.9599C198.875 54.2799 199.135 54.7799 199.415 54.7799C199.695 54.7799 200.195 54.1599 200.195 53.3999C200.195 52.6399 199.845 52.0199 199.415 52.0199C199.165 52.0199 198.915 52.4599 198.795 52.7199L195.935 52.6399C195.842 50.8242 195.376 49.0472 194.565 47.4199L198.345 45.0899C198.625 45.3299 199.145 45.6599 199.415 45.5099C199.685 45.3599 199.815 44.5099 199.415 43.7699C199.015 43.0299 198.325 42.6399 197.915 42.8799C197.675 43.0099 197.675 43.5699 197.715 43.8799L193.785 46.0199C192.781 44.5142 191.481 43.2282 189.965 42.2399L191.265 39.7899C191.595 39.8599 192.165 39.8799 192.265 39.6299C192.276 39.3491 192.206 39.0711 192.062 38.8296C191.918 38.5882 191.707 38.3937 191.455 38.2699C190.795 37.9099 190.085 37.8799 189.875 38.2699C189.745 38.4899 189.995 38.9299 190.175 39.1599L188.685 41.5799C187.066 40.7694 185.302 40.29 183.495 40.1699L183.365 35.7399C183.715 35.6199 184.265 35.3199 184.265 35.0199C184.265 34.5499 183.585 34.1699 182.745 34.1699C181.905 34.1699 181.235 34.5499 181.235 35.0199C181.235 35.2899 181.715 35.5699 182.005 35.6999L181.875 40.1699C180.068 40.2873 178.303 40.7668 176.685 41.5799L175.265 39.1499C175.485 38.8999 175.785 38.4199 175.645 38.1499C175.505 37.8799 174.725 37.7899 174.065 38.1499C173.405 38.5099 173.065 39.1499 173.255 39.5099C173.445 39.8699 173.885 39.7299 174.175 39.6899L175.535 42.2099C174.005 43.2037 172.695 44.5004 171.685 46.0199L167.785 43.9199C167.855 43.5599 167.875 42.9199 167.615 42.7799C167.205 42.5499 166.535 42.9399 166.115 43.6699C165.695 44.3999 165.685 45.1799 166.115 45.4099C166.355 45.5499 166.835 45.2699 167.115 45.0799L170.915 47.4299C170.112 49.049 169.649 50.8152 169.555 52.6199L166.725 52.6999C166.615 52.3899 166.345 51.8799 166.075 51.8799C165.645 51.8799 165.295 52.4999 165.295 53.2699C165.295 54.0399 165.645 54.6499 166.075 54.6499C166.325 54.6499 166.575 54.2099 166.685 53.9399L169.555 54.0199C169.653 55.8273 170.115 57.5961 170.915 59.2199L167.145 61.5399C166.865 61.2999 166.335 60.9699 166.075 61.1299C165.815 61.2899 165.675 62.1299 166.075 62.8699C166.475 63.6099 167.165 63.9899 167.575 63.7599C167.815 63.6199 167.815 63.0599 167.775 62.7599L171.705 60.6399C172.692 62.161 173.987 63.4588 175.505 64.4499L174.165 66.9399C173.835 66.8799 173.265 66.8599 173.165 67.0999C173.155 67.3805 173.226 67.658 173.37 67.8992C173.513 68.1404 173.724 68.3351 173.975 68.4599C174.635 68.8199 175.345 68.8499 175.555 68.4599C175.685 68.2399 175.425 67.7999 175.255 67.5699L176.755 65.1299C178.363 65.9599 180.128 66.4405 181.935 66.5399L182.065 70.9799C181.725 71.0999 181.165 71.3899 181.165 71.6999C181.165 72.0099 181.845 72.5499 182.685 72.5499C183.525 72.5499 184.205 72.1599 184.205 71.6999C184.205 71.4199 183.725 71.1399 183.425 71.0099L183.555 66.5399C185.365 66.4404 187.134 65.9599 188.745 65.1299L190.235 67.5599C190.015 67.8099 189.715 68.2899 189.855 68.5599C189.995 68.8299 190.775 68.9199 191.435 68.5599C192.095 68.1999 192.435 67.5599 192.245 67.1999C192.055 66.8399 191.615 66.9799 191.325 67.0199L189.915 64.4499C191.436 63.4674 192.737 62.1804 193.735 60.6699L197.635 62.7699C197.565 63.1299 197.545 63.7699 197.805 63.9099C198.215 64.1499 198.885 63.7499 199.305 63.0199C199.725 62.2899 199.735 61.5199 199.305 61.2799C199.065 61.1399 198.585 61.4199 198.305 61.6099L194.495 59.2699C195.302 57.6484 195.769 55.8787 195.865 54.0699L198.765 53.9599Z" stroke="#787878" stroke-linecap="round" stroke-linejoin="round"/>
<path d="M183.765 43.2399C183.779 43.5088 183.712 43.7757 183.574 44.0068C183.436 44.2378 183.232 44.4227 182.988 44.5378C182.745 44.653 182.473 44.6933 182.207 44.6536C181.94 44.614 181.692 44.4962 181.492 44.3151C181.293 44.134 181.152 43.8979 181.087 43.6366C181.022 43.3752 181.036 43.1005 181.127 42.8472C181.219 42.5939 181.383 42.3734 181.6 42.2136C181.817 42.0539 182.076 41.9621 182.345 41.9499H182.405C182.757 41.9445 183.097 42.0778 183.352 42.3211C183.606 42.5643 183.755 42.898 183.765 43.2499V43.2399Z" stroke="#787878" stroke-linecap="round" stroke-linejoin="round"/>
<path d="M175.545 53.7298C175.56 54.0006 175.495 54.2698 175.358 54.5035C175.22 54.7372 175.016 54.9247 174.772 55.0423C174.527 55.16 174.253 55.2024 173.985 55.1643C173.716 55.1262 173.465 55.0093 173.263 54.8283C173.061 54.6474 172.917 54.4105 172.85 54.1478C172.783 53.8851 172.795 53.6083 172.885 53.3525C172.975 53.0967 173.139 52.8734 173.357 52.7109C173.574 52.5485 173.834 52.4541 174.105 52.4398H174.175C174.527 52.4317 174.868 52.5625 175.125 52.8039C175.381 53.0453 175.532 53.3779 175.545 53.7298Z" stroke="#787878" stroke-linecap="round" stroke-linejoin="round"/>
<path d="M180.275 51.6601C181.026 51.6601 181.635 51.078 181.635 50.3601C181.635 49.6421 181.026 49.0601 180.275 49.0601C179.524 49.0601 178.915 49.6421 178.915 50.3601C178.915 51.078 179.524 51.6601 180.275 51.6601Z" stroke="#787878" stroke-linecap="round" stroke-linejoin="round"/>
<path d="M178.455 61.6398C178.469 61.9087 178.402 62.1756 178.264 62.4067C178.126 62.6377 177.922 62.8226 177.678 62.9377C177.435 63.0529 177.163 63.0932 176.897 63.0535C176.63 63.0139 176.382 62.8961 176.182 62.715C175.983 62.5339 175.842 62.2978 175.777 62.0365C175.712 61.7751 175.726 61.5004 175.817 61.2471C175.909 60.9938 176.073 60.7733 176.29 60.6135C176.507 60.4538 176.766 60.362 177.035 60.3498H177.095C177.447 60.3444 177.787 60.4777 178.042 60.721C178.296 60.9642 178.445 61.2979 178.455 61.6498V61.6398Z" stroke="#787878" stroke-linecap="round" stroke-linejoin="round"/>
<path d="M193.265 56.19C193.274 56.3686 193.248 56.5473 193.188 56.7158C193.128 56.8843 193.036 57.0394 192.916 57.1722C192.796 57.305 192.652 57.4129 192.49 57.4897C192.329 57.5666 192.154 57.6108 191.975 57.62C191.614 57.6386 191.261 57.5131 190.993 57.2712C190.725 57.0293 190.564 56.6907 190.545 56.33C190.536 56.1519 190.562 55.9736 190.621 55.8056C190.681 55.6376 190.774 55.4831 190.894 55.351C191.014 55.219 191.159 55.112 191.32 55.0363C191.482 54.9606 191.657 54.9177 191.835 54.91H191.905C192.254 54.9019 192.593 55.0316 192.847 55.2712C193.102 55.5107 193.252 55.8408 193.265 56.19Z" stroke="#787878" stroke-linecap="round" stroke-linejoin="round"/>
<path d="M183.565 58.0201C183.579 58.2891 183.512 58.556 183.374 58.7871C183.236 59.0181 183.032 59.2029 182.788 59.3181C182.545 59.4333 182.273 59.4736 182.007 59.4339C181.74 59.3943 181.492 59.2764 181.292 59.0954C181.093 58.9143 180.952 58.6782 180.887 58.4168C180.822 58.1555 180.836 57.8808 180.927 57.6275C181.019 57.3742 181.183 57.1537 181.4 56.9939C181.617 56.8342 181.876 56.7424 182.145 56.7301H182.205C182.557 56.7247 182.897 56.8581 183.152 57.1013C183.406 57.3446 183.555 57.6782 183.565 58.0301V58.0201Z" stroke="#787878" stroke-linecap="round" stroke-linejoin="round"/>
<path d="M187.975 52.7799C187.989 53.0488 187.922 53.3158 187.784 53.5468C187.646 53.7779 187.442 53.9627 187.198 54.0779C186.955 54.193 186.683 54.2333 186.417 54.1937C186.15 54.154 185.902 54.0362 185.702 53.8551C185.503 53.6741 185.362 53.4379 185.297 53.1766C185.232 52.9153 185.246 52.6406 185.337 52.3872C185.429 52.1339 185.593 51.9134 185.81 51.7537C186.027 51.5939 186.286 51.5021 186.555 51.4899H186.615C186.965 51.4844 187.304 51.6164 187.558 51.8575C187.812 52.0987 187.962 52.4298 187.975 52.7799Z" stroke="#787878" stroke-linecap="round" stroke-linejoin="round"/>
<path d="M191.265 46.7399C191.279 47.0088 191.212 47.2757 191.074 47.5068C190.936 47.7378 190.732 47.9227 190.488 48.0378C190.245 48.153 189.973 48.1933 189.707 48.1536C189.44 48.114 189.192 47.9962 188.992 47.8151C188.793 47.634 188.652 47.3979 188.587 47.1366C188.522 46.8752 188.536 46.6005 188.627 46.3472C188.719 46.0939 188.883 45.8734 189.1 45.7136C189.317 45.5539 189.576 45.4621 189.845 45.4499H189.905C190.257 45.4445 190.597 45.5778 190.852 45.8211C191.106 46.0643 191.255 46.398 191.265 46.7499V46.7399Z" stroke="#787878" stroke-linecap="round" stroke-linejoin="round"/>
<path d="M188.125 62.2899C188.145 62.5612 188.083 62.8322 187.948 63.0683C187.813 63.3044 187.61 63.4949 187.367 63.6156C187.123 63.7363 186.849 63.7817 186.579 63.7461C186.309 63.7104 186.056 63.5953 185.852 63.4154C185.648 63.2355 185.503 62.9989 185.433 62.7358C185.364 62.4727 185.375 62.195 185.464 61.9381C185.554 61.6812 185.718 61.4567 185.935 61.2931C186.152 61.1296 186.413 61.0345 186.685 61.0199H186.755C187.107 61.0118 187.448 61.1425 187.705 61.384C187.961 61.6254 188.112 61.958 188.125 62.3099V62.2899Z" stroke="#787878" stroke-linecap="round" stroke-linejoin="round"/>
<path d="M176.965 45.5602C176.979 45.8291 176.912 46.096 176.774 46.3271C176.636 46.5582 176.432 46.743 176.188 46.8581C175.945 46.9733 175.673 47.0136 175.407 46.974C175.14 46.9343 174.892 46.8165 174.692 46.6354C174.493 46.4544 174.352 46.2182 174.287 45.9569C174.222 45.6956 174.236 45.4208 174.327 45.1675C174.419 44.9142 174.583 44.6937 174.8 44.5339C175.017 44.3742 175.276 44.2824 175.545 44.2702H175.605C175.957 44.2648 176.297 44.3981 176.552 44.6414C176.806 44.8846 176.955 45.2183 176.965 45.5702V45.5602Z" stroke="#787878" stroke-linecap="round" stroke-linejoin="round"/>
</svg>
