<svg width="790" height="485" viewBox="0 0 790 485" fill="none" xmlns="http://www.w3.org/2000/svg">
<path d="M437.95 436.33C632.288 436.33 789.83 338.665 789.83 218.19C789.83 97.7144 632.288 0.0498047 437.95 0.0498047C243.612 0.0498047 86.0698 97.7144 86.0698 218.19C86.0698 338.665 243.612 436.33 437.95 436.33Z" fill="#0071F2"/>
<path opacity="0.7" d="M789.82 218.19C789.82 338.66 632.28 436.33 437.95 436.33C323.01 436.33 220.95 402.16 156.73 349.33C155.98 348.73 155.24 348.11 154.5 347.48C151.473 344.94 148.533 342.353 145.68 339.72C144.91 339.01 144.14 338.3 143.38 337.57C139.96 334.343 136.673 331.047 133.52 327.68C131.846 325.9 130.216 324.103 128.63 322.29C111.63 302.92 99.2298 281.77 92.3398 259.42C92.0598 258.507 91.7898 257.597 91.5298 256.69C87.8994 244.178 86.0479 231.218 86.0298 218.19C86.1184 195.953 91.3805 174.042 101.4 154.19C101.52 153.92 101.65 153.66 101.78 153.4C146.27 64.53 279.93 0 437.91 0C632.28 0.05 789.82 97.71 789.82 218.19Z" fill="white"/>
<path d="M62.6298 158.451C62.6298 158.451 81.6298 152.891 91.3198 165.451C91.3198 165.451 73.7498 160.761 67.0198 166.911C67.0198 166.911 67.0198 189.741 81.0698 202.041C81.0698 202.041 103.32 202.621 112.07 211.111C112.07 211.111 91.2398 203.521 86.0698 214.111L97.5398 232.111C97.5398 232.111 106.86 225.361 112.97 226.321L102.22 237.651C102.22 237.651 119.5 253.071 135.28 243.651C135.28 243.651 158.12 227.931 137.85 192.151C135.129 192.939 132.696 194.503 130.85 196.651C130.85 196.651 131.28 187.861 140.71 178.001L127.85 152.541C127.85 152.541 117.13 154.221 111.56 163.651C111.56 163.651 108.35 151.651 121.21 142.001C121.21 142.001 110.92 117.791 94.4198 108.361C94.4198 108.361 72.3498 94.4307 66.5598 86.7207C66.5598 86.7207 59.7098 112.001 56.9198 116.291C56.9198 116.291 65.4898 118.221 69.5598 123.791C69.5598 123.791 60.9898 122.721 56.9198 124.001C57.0298 124.051 50.9098 133.061 62.6298 158.451Z" fill="#0071F2"/>
<path opacity="0.2" d="M62.6298 158.451C62.6298 158.451 81.6298 152.891 91.3198 165.451C91.3198 165.451 73.7498 160.761 67.0198 166.911C67.0198 166.911 67.0198 189.741 81.0698 202.041C81.0698 202.041 103.32 202.621 112.07 211.111C112.07 211.111 91.2398 203.521 86.0698 214.111L97.5398 232.111C97.5398 232.111 106.86 225.361 112.97 226.321L102.22 237.651C102.22 237.651 119.5 253.071 135.28 243.651C135.28 243.651 158.12 227.931 137.85 192.151C135.129 192.939 132.696 194.503 130.85 196.651C130.85 196.651 131.28 187.861 140.71 178.001L127.85 152.541C127.85 152.541 117.13 154.221 111.56 163.651C111.56 163.651 108.35 151.651 121.21 142.001C121.21 142.001 110.92 117.791 94.4198 108.361C94.4198 108.361 72.3498 94.4307 66.5598 86.7207C66.5598 86.7207 59.7098 112.001 56.9198 116.291C56.9198 116.291 65.4898 118.221 69.5598 123.791C69.5598 123.791 60.9898 122.721 56.9198 124.001C57.0298 124.051 50.9098 133.061 62.6298 158.451Z" fill="black"/>
<path d="M145.68 339.701C144.91 338.991 144.14 338.28 143.38 337.55C143.533 327.635 143.126 317.72 142.16 307.851C141.16 296.691 139.64 285.56 137.84 274.49C136.94 268.95 135.967 263.427 134.92 257.921C134.39 255.161 133.85 252.411 133.28 249.661L132.41 245.55C132.11 244.15 131.87 242.791 131.6 241.411C129.409 230.411 126.54 219.557 123.01 208.911C116.863 190.293 109.661 172.04 101.44 154.241C100.26 151.651 99.0699 149.051 97.8599 146.471C88.2799 126.161 77.9299 106.191 66.6299 86.7705C78.0999 106.091 88.6299 125.97 98.4099 146.21C99.5632 148.624 100.7 151.037 101.82 153.451C110.31 171.37 117.769 189.76 124.16 208.531C127.784 219.194 130.746 230.072 133.03 241.101C133.32 242.471 133.58 243.87 133.88 245.21L134.79 249.34C135.377 252.094 135.947 254.847 136.5 257.601C137.613 263.121 138.64 268.651 139.58 274.191C141.47 285.291 143.07 296.44 144.2 307.65C145.364 318.292 145.858 328.997 145.68 339.701Z" fill="#2F2E41"/>
<path d="M375.82 388.471L360.16 377.171L350.28 360.591C350.28 360.591 356.76 360.261 357.09 360.261C357.42 360.261 372.09 364.761 372.35 365.641C372.61 366.521 376.55 383.651 375.82 388.471Z" fill="#2F2E41"/>
<path d="M248.54 380.971H293.03V390.971H258.31C255.716 390.971 253.228 389.94 251.394 388.106C249.56 386.272 248.53 383.785 248.53 381.191V380.971H248.54Z" fill="#0071F2"/>
<path d="M255.46 390.61L252.61 405.693L253.592 405.879L256.442 390.796L255.46 390.61Z" fill="#2F2E41"/>
<path d="M270.335 390.875L269.345 391.015L272.386 412.521L273.376 412.381L270.335 390.875Z" fill="#2F2E41"/>
<path d="M314.46 371.3C337.93 360.36 351.83 364.47 351.83 364.47L354.83 364.68C357.44 368.31 364.45 374.12 364.45 374.12C368.07 377.024 371.156 380.537 373.57 384.5C375.01 386.786 375.859 389.395 376.04 392.09L376.66 401.33V433.47C367.54 432.47 351.8 430.05 351.8 430.05L348.15 401.6C348.086 401.112 347.918 400.644 347.658 400.226C347.397 399.809 347.05 399.452 346.64 399.18L339.16 394.26C339.16 397.05 337.02 402.62 337.02 402.62L329.52 426.4C318.8 425.55 303.8 420.4 303.8 420.4L307.03 397.69C295.24 394.69 275.45 382.78 275.57 382.76C288.996 380.737 302.081 376.881 314.46 371.3Z" fill="#F9B499"/>
<path d="M275.58 382.78L285.64 388.49C285.64 388.49 310.9 380.04 318.64 372.7L331.64 381.52C333.941 382.762 335.864 384.604 337.202 386.851C338.54 389.098 339.244 391.665 339.24 394.28L341.24 395.57C341.24 395.57 344.18 385.26 333.24 378.49C333.24 378.49 319.83 372.85 330.51 369.67C330.51 369.67 348.69 364.12 356.3 366.39L354.92 364.7L351.92 364.49C351.92 364.49 341.65 361.66 321.28 368.49C306.965 375.805 291.512 380.637 275.58 382.78Z" fill="#F7A48B"/>
<path d="M365.03 267.44C365.03 267.44 361.28 324.56 367.03 348.25C367.03 348.25 351.73 324.94 347.11 277C347.08 277 348.74 271.61 365.03 267.44Z" fill="#F9B499"/>
<path d="M351.83 234.03C351.83 234.03 370.1 245.95 365.01 267.44C365.01 267.44 349.14 271.44 347.08 277C347.08 277 343.74 248.49 351.83 234.03Z" fill="#0071F2"/>
<path opacity="0.2" d="M351.83 234.03C351.83 234.03 370.1 245.95 365.01 267.44C365.01 267.44 349.14 271.44 347.08 277C347.08 277 343.74 248.49 351.83 234.03Z" fill="black"/>
<path d="M288.42 215.96H286.62L277.88 262.66L276.03 271.27C276.03 271.27 310.24 305.04 310.98 305.04C311.72 305.04 347.79 283.85 347.79 283.85C347.79 283.85 343.03 249.08 351.83 234.03C351.83 234.03 340.42 227.39 333.13 225.22L307.47 214.83L288.42 215.96Z" fill="#0071F2"/>
<path d="M365.36 195.2C361.96 192.44 356.27 187.72 356.06 185.07L355.68 189.07C357.54 192.25 362.62 197.63 365.06 199.92C366.599 201.327 367.649 203.187 368.06 205.23C368.81 209.15 366.7 210.56 366.7 210.56C366.705 210.497 366.705 210.434 366.7 210.37C366.631 209.296 366.349 208.247 365.872 207.282C365.395 206.318 364.731 205.457 363.92 204.75C360.06 201.31 356.57 196.03 354.92 193.33C354.125 196.666 352.968 199.905 351.47 202.99C344.57 215.14 335.3 216.6 335.3 216.6C334.033 218.188 333.28 220.124 333.14 222.15C333.14 222.15 362.14 229.51 366.25 214.35C367.549 213.322 368.601 212.016 369.33 210.528C370.058 209.039 370.445 207.407 370.46 205.75C370.462 203.721 370.005 201.717 369.121 199.89C368.238 198.062 366.952 196.459 365.36 195.2Z" fill="#2F2E41"/>
<path d="M383.11 434.06C383.11 434.06 393.5 366.38 455.83 380.37C463.171 382.022 469.762 386.05 474.58 391.83C478.69 396.78 483.58 403.02 486.25 407.55L504.94 432.78C504.94 432.78 420.57 439.83 383.11 434.06Z" fill="#2F2E41"/>
<path d="M531.81 314.95L527.03 320.6C512.8 339.44 491.3 330.01 491.3 330.01L400.95 308.5C414.44 286.05 403.14 271.27 403.14 271.27L413.32 273.54L493.49 291.41C494.362 291.607 495.27 291.585 496.132 291.346C496.994 291.107 497.784 290.658 498.43 290.04L543.03 247.5L545.61 256.92L546.81 261.31C531.55 289.26 531.81 314.95 531.81 314.95Z" fill="#0071F2"/>
<path opacity="0.5" d="M531.81 314.95L527.03 320.6C512.8 339.44 491.3 330.01 491.3 330.01L400.95 308.5C414.44 286.05 403.14 271.27 403.14 271.27L413.32 273.54L493.49 291.41C494.362 291.607 495.27 291.585 496.132 291.346C496.994 291.107 497.784 290.658 498.43 290.04L543.03 247.5L545.61 256.92L546.81 261.31C531.55 289.26 531.81 314.95 531.81 314.95Z" fill="white"/>
<path opacity="0.5" d="M531.81 314.95L527.03 320.6C512.8 339.44 491.3 330.01 491.3 330.01L400.95 308.5C414.44 286.05 403.14 271.27 403.14 271.27L413.32 273.54C416.304 279.806 417.819 286.67 417.75 293.61C417.75 293.61 417.75 305.45 428.2 308.51C428.2 308.51 454.15 315.79 473.9 318.36C473.9 318.36 508.32 323.13 522.25 299.29L544.48 257.35L545.65 256.92L546.85 261.31C531.43 289.64 531.81 314.95 531.81 314.95Z" fill="white"/>
<path d="M546.81 261.31C546.81 261.31 528.4 294.66 532.37 322.78L534.54 351.29L467.68 383.86C467.68 383.86 481.97 400.43 486.25 407.58C486.25 407.58 466.82 421.29 461.68 429.58C461.68 429.58 575.11 420.43 593.39 484.43C593.39 484.43 626.54 428.43 648.25 414.15C648.25 414.15 661.97 406.15 658.54 366.15L652.25 285.7C652.25 285.7 650.82 258.43 626.54 240.43L611.54 229.2L546.81 261.31Z" fill="#0071F2"/>
<path opacity="0.5" d="M546.81 261.31C546.81 261.31 528.4 294.66 532.37 322.78L534.54 351.29L467.68 383.86C467.68 383.86 481.97 400.43 486.25 407.58C486.25 407.58 466.82 421.29 461.68 429.58C461.68 429.58 575.11 420.43 593.39 484.43C593.39 484.43 626.54 428.43 648.25 414.15C648.25 414.15 661.97 406.15 658.54 366.15L652.25 285.7C652.25 285.7 650.82 258.43 626.54 240.43L611.54 229.2L546.81 261.31Z" fill="white"/>
<path d="M557.32 223.69C560.939 229.119 563.089 235.393 563.56 241.9C563.56 241.9 584.23 227.62 591.94 223.69C591.94 223.69 585.55 206.35 588.2 199.07L557.32 223.69Z" fill="#F9B499"/>
<path d="M557.32 223.69C559.327 226.777 560.908 230.12 562.02 233.63C562.02 233.63 571.4 229.19 578.08 216.79L557.32 223.69Z" fill="#F7A48B"/>
<path d="M540.76 308.5C540.76 308.5 589 241.9 611.59 229.17C608.809 226.708 606.495 223.764 604.76 220.48C604.76 220.48 601.14 209.84 589.76 216.68C590.05 217.79 590.4 218.99 590.76 220.17C591.12 221.35 591.54 222.57 591.95 223.69C588.28 225.69 584.52 227.91 580.63 230.27C574.49 233.98 567.39 238.53 563.57 241.9C563.57 241.9 553.24 247.8 549.31 274.19C549.14 275.34 548.94 276.47 548.67 277.6C547.12 284.17 541.56 307.59 540.76 308.5Z" fill="#0071F2"/>
<path d="M549.78 271.271C549.78 271.271 556.36 246.421 562.91 252.271C567.059 257.1 570.006 262.844 571.51 269.031L569.62 271.311C569.62 271.311 563.21 258.671 557.4 263.441L549.78 271.271Z" fill="#0071F2"/>
<path opacity="0.2" d="M549.78 271.271C549.78 271.271 556.36 246.421 562.91 252.271C567.059 257.1 570.006 262.844 571.51 269.031L569.62 271.311C569.62 271.311 563.21 258.671 557.4 263.441L549.78 271.271Z" fill="black"/>
<path d="M541.33 244.591C541.33 244.591 551.54 241.181 554.33 255.111C556.414 250.086 559.571 245.577 563.58 241.901C563.332 237.309 562.165 232.814 560.15 228.681C560.15 228.681 544.32 236.131 541.33 244.591Z" fill="#0071F2"/>
<path opacity="0.1" d="M541.33 244.591C541.33 244.591 551.54 241.181 554.33 255.111C556.414 250.086 559.571 245.577 563.58 241.901C563.332 237.309 562.165 232.814 560.15 228.681C560.15 228.681 544.32 236.131 541.33 244.591Z" fill="black"/>
<path d="M541.4 244.521C541.13 244.581 541.29 244.771 541.25 245.041C541.04 246.521 540.79 251.591 545.36 258.901L550.53 267.481C551.506 263.276 552.769 259.143 554.31 255.111C554.31 255.111 552.75 242.061 541.4 244.521Z" fill="#0071F2"/>
<path opacity="0.2" d="M541.4 244.521C541.13 244.581 541.29 244.771 541.25 245.041C541.04 246.521 540.79 251.591 545.36 258.901L550.53 267.481C551.506 263.276 552.769 259.143 554.31 255.111C554.31 255.111 552.75 242.061 541.4 244.521Z" fill="black"/>
<path d="M547.73 262.83C547.73 262.83 541.55 289.14 540.73 308.5C542.36 303.95 543.94 298.99 545.35 293.64C547.288 286.284 548.757 278.812 549.75 271.27L550.5 267.48L547.73 262.83Z" fill="#0071F2"/>
<path opacity="0.5" d="M486.25 407.55C486.25 407.55 508.7 388.17 540.76 381.55L569.76 372.73C569.76 372.73 588.88 366.97 596.52 353.31L631.32 295.66L481.78 380.39L467.68 383.83C467.68 383.83 477.54 395.78 486.25 407.55Z" fill="white"/>
<path opacity="0.5" d="M533.73 340.71L533.1 332.4C533.1 332.4 549.61 328.69 560.64 309.55L591.94 271.27C591.94 271.27 612.54 240.42 630.54 257.98C630.54 257.98 559.11 329.83 559.11 330.69C559.11 331.55 533.73 340.71 533.73 340.71Z" fill="white"/>
<path d="M403.11 271.271C403.11 271.271 395.34 285.361 397.17 298.561C397.17 298.561 397.68 308.911 400.91 308.501C400.91 308.501 414.03 289.451 403.11 271.271Z" fill="#0071F2"/>
<path opacity="0.6" d="M403.11 271.271C403.11 271.271 395.34 285.361 397.17 298.561C397.17 298.561 397.68 308.911 400.91 308.501C400.91 308.501 414.03 289.451 403.11 271.271Z" fill="white"/>
<path d="M335.33 216.64C333.49 219.096 332.699 222.182 333.13 225.22C333.13 225.22 336.52 244.69 328.22 244.86C328.22 244.86 319.93 246.05 313.83 231.66L307.47 214.83C307.47 214.83 313.69 212.33 314.47 206.83C314.44 206.84 322.9 218.5 335.33 216.64Z" fill="#F9B499"/>
<path d="M320.61 213.05C320.61 213.05 322.84 219.98 333.04 223.12C333.257 220.804 334.044 218.578 335.33 216.64C332.761 217.063 330.133 216.963 327.604 216.346C325.074 215.729 322.695 214.608 320.61 213.05Z" fill="#F7A48B"/>
<path d="M249.23 242.26C249.23 242.26 244.84 251.56 260.67 256.15L262.6 245.78C262.6 245.78 258.14 240.27 249.23 242.26Z" fill="#0071F2"/>
<path opacity="0.3" d="M249.23 242.26C249.23 242.26 244.84 251.56 260.67 256.15L262.6 245.78C262.6 245.78 258.14 240.27 249.23 242.26Z" fill="black"/>
<path d="M199.96 358.9C204.52 353.9 215.03 343.18 227.72 335.2C227.72 335.2 244.19 316.53 251.49 304.45C258.79 292.37 276.03 271.27 276.03 271.27C276.03 271.27 304.52 266.47 295.66 215.53L303.27 215.08C303.27 215.08 306.83 252.4 323.69 255.26C323.69 255.26 336.12 258.26 337.4 243.26V226.78L340.54 228.16C342.103 236.868 342.727 245.719 342.4 254.56C341.98 270.2 344.4 282.09 347.79 283.86C347.79 283.86 353.41 328.7 368.37 350.34C368.37 350.34 384.83 371.34 375.83 388.48C375.83 388.48 369.83 364.27 351.83 364.48C351.83 364.48 335.54 360.63 307.89 374.34C307.89 374.34 239.3 402.51 200.09 364.34C199.361 363.63 198.94 362.663 198.915 361.647C198.891 360.63 199.266 359.644 199.96 358.9Z" fill="#2F2E41"/>
<path opacity="0.2" d="M199.96 358.9C204.52 353.9 215.03 343.18 227.72 335.2C227.72 335.2 244.19 316.53 251.49 304.45C258.79 292.37 276.03 271.27 276.03 271.27C276.03 271.27 304.52 266.47 295.66 215.53L303.27 215.08C303.27 215.08 306.83 252.4 323.69 255.26C323.69 255.26 336.12 258.26 337.4 243.26V226.78L340.54 228.16C342.103 236.868 342.727 245.719 342.4 254.56C341.98 270.2 344.4 282.09 347.79 283.86C347.79 283.86 353.41 328.7 368.37 350.34C368.37 350.34 384.83 371.34 375.83 388.48C375.83 388.48 369.83 364.27 351.83 364.48C351.83 364.48 335.54 360.63 307.89 374.34C307.89 374.34 239.3 402.51 200.09 364.34C199.361 363.63 198.94 362.663 198.915 361.647C198.891 360.63 199.266 359.644 199.96 358.9Z" fill="black"/>
<path d="M334.8 282.09C338.953 282.09 342.32 274.681 342.32 265.54C342.32 256.4 338.953 248.99 334.8 248.99C330.647 248.99 327.28 256.4 327.28 265.54C327.28 274.681 330.647 282.09 334.8 282.09Z" fill="#0071F2"/>
<path opacity="0.2" d="M334.8 282.09C338.953 282.09 342.32 274.681 342.32 265.54C342.32 256.4 338.953 248.99 334.8 248.99C330.647 248.99 327.28 256.4 327.28 265.54C327.28 274.681 330.647 282.09 334.8 282.09Z" fill="white"/>
<path d="M341.43 272.31C345.091 272.31 348.06 269.341 348.06 265.68C348.06 262.018 345.091 259.05 341.43 259.05C337.768 259.05 334.8 262.018 334.8 265.68C334.8 269.341 337.768 272.31 341.43 272.31Z" fill="#0071F2"/>
<path opacity="0.4" d="M341.43 272.31C345.091 272.31 348.06 269.341 348.06 265.68C348.06 262.018 345.091 259.05 341.43 259.05C337.768 259.05 334.8 262.018 334.8 265.68C334.8 269.341 337.768 272.31 341.43 272.31Z" fill="black"/>
<path d="M453.75 348.78C427.33 348.78 402.99 332.2 386.21 316.97C372.881 304.717 360.988 290.989 350.76 276.05L351.6 275.5C361.778 290.382 373.621 304.054 386.9 316.25C406.42 333.96 436.27 353.54 467.56 346.19C467.79 346.19 487.46 342.19 520.74 289.71L529.47 276.77L530.3 277.33L521.58 290.26C487.98 343.2 468.58 347.03 467.76 347.17C463.167 348.243 458.466 348.783 453.75 348.78Z" fill="#2F2E41"/>
<path d="M170.38 231.941C177.564 226.686 183.294 219.69 187.03 211.611C190.18 178.311 183.71 146.941 183.71 146.941L183.36 141.861L158.47 134.141L138.66 174.141C127.97 201.841 143.92 210.601 143.92 210.601C134.81 207.441 133.76 198.331 133.76 198.331C128.15 217.961 140.76 229.701 140.76 229.701C148.82 238.821 146.19 241.101 146.19 241.101C143.19 235.101 131.99 234.791 131.99 234.791C131.99 234.791 130.78 263.681 156.57 275.461C159.486 276.806 162.806 276.985 165.85 275.961C174.29 273.041 189.49 262.271 186.68 222.521C186.68 222.521 186.41 222.841 185.93 223.361C181.934 227.616 176.737 230.553 171.03 231.781L170.38 231.941Z" fill="#0071F2"/>
<path opacity="0.4" d="M170.37 231.941L171.03 231.781C176.738 230.535 181.932 227.581 185.92 223.311C186.4 222.791 186.66 222.471 186.66 222.471C189.48 262.221 174.27 272.991 165.83 275.911C162.789 276.935 159.472 276.756 156.56 275.411C130.78 263.641 132.03 234.781 132.03 234.781C132.03 234.781 143.25 235.13 146.23 241.09C146.23 241.09 148.86 238.811 140.79 229.691C140.79 229.691 128.18 217.951 133.79 198.321C133.79 198.321 134.85 207.42 143.93 210.58C143.35 210.24 132.93 203.981 135.39 186.381C135.733 183.93 136.265 181.509 136.98 179.14C137.453 177.56 138.02 175.911 138.68 174.191L139.4 172.74L158.46 134.271L183.34 141.991L183.69 147.07C183.69 147.07 185.18 154.271 186.38 165.441C188.109 180.809 188.323 196.31 187.02 211.721C183.269 219.76 177.54 226.717 170.37 231.941Z" fill="white"/>
<path opacity="0.4" d="M186.38 165.311C161.27 151.621 136.01 185.431 135.38 186.311C135.55 183.825 136.09 181.378 136.98 179.051C137.63 177.101 138.46 174.941 139.4 172.651C145.88 156.891 157.95 135.101 158.46 134.181L183.34 141.901L183.69 146.981C183.69 146.981 185.18 154.141 186.38 165.311Z" fill="white"/>
<path d="M43.3999 233.78C49.2654 239.445 53.7183 246.409 56.3999 254.11C56.3999 254.11 60.7799 268.05 79.1099 274.23C79.1099 274.23 90.1099 277.42 90.4699 283.23C90.4699 283.23 82.4699 278.84 74.7299 281.63C74.7299 281.63 98.2399 315.11 117.73 296.78C117.73 296.78 129.01 287.04 117.73 263.9L112.15 270.28C112.15 270.28 111.15 263.28 114.15 258.12L96.4099 230.28H86.0299L93.9699 222.28C93.9699 222.28 88.6499 212.12 86.0299 209.73C86.0299 209.73 67.4699 205.03 57.5099 212.46L55.3799 205.37L41.0299 201.95L27.4799 210.95L43.3999 233.78Z" fill="#0071F2"/>
<path opacity="0.4" d="M43.3999 233.78C49.2654 239.445 53.7183 246.409 56.3999 254.11C56.3999 254.11 60.7799 268.05 79.1099 274.23C79.1099 274.23 90.1099 277.42 90.4699 283.23C90.4699 283.23 82.4699 278.84 74.7299 281.63C74.7299 281.63 98.2399 315.11 117.73 296.78C117.73 296.78 129.01 287.04 117.73 263.9L112.15 270.28C112.15 270.28 111.15 263.28 114.15 258.12L96.4099 230.28H86.0299L93.9699 222.28C93.9699 222.28 88.6499 212.12 86.0299 209.73C86.0299 209.73 67.4699 205.03 57.5099 212.46L55.3799 205.37L41.0299 201.95L27.4799 210.95L43.3999 233.78Z" fill="white"/>
<path opacity="0.4" d="M55.4198 251.64C55.4198 251.64 51.5698 207.79 89.4198 214.29C85.9001 208.346 80.2749 203.941 73.6598 201.95C62.6598 198.76 56.5198 201.95 56.5198 201.95L35.7998 206.95L43.3998 233.78C48.6509 238.794 52.7518 244.887 55.4198 251.64Z" fill="white"/>
<path d="M133.52 327.66C131.847 325.88 130.217 324.083 128.63 322.27L121.95 307.89C119.95 303.62 118.07 299.31 115.83 295.22C114.73 293.16 113.51 291.16 112.3 289.14C111.09 287.12 109.88 285.14 108.62 283.14C103.627 275.18 98.3199 267.427 92.6999 259.88L92.3399 259.41C86.8199 252.05 81.0599 244.83 74.8699 238.04C72.565 235.1 70.0697 232.314 67.3999 229.7C64.7499 227.05 61.9699 224.54 59.1599 222.07C56.3499 219.6 53.4499 217.2 50.5299 214.85C47.6099 212.5 44.6499 210.19 41.6399 207.96C44.6399 210.15 47.6399 212.42 50.6399 214.72C53.6399 217.02 56.5199 219.39 59.3799 221.82C62.2399 224.25 65.0499 226.74 67.7499 229.36C70.4714 231.944 73.0171 234.707 75.3699 237.63C81.0899 243.73 86.4299 250.14 91.5699 256.71C92.2399 257.56 92.9099 258.42 93.5699 259.28C99.3199 266.75 104.75 274.48 109.89 282.39C111.17 284.39 112.44 286.39 113.67 288.39C114.9 290.39 116.17 292.39 117.31 294.48C119.66 298.62 121.6 302.93 123.66 307.15L133.52 327.66Z" fill="#2F2E41"/>
<path d="M589.8 192.54C586.12 213.1 571.39 227.67 556.89 225.07C551.11 224.07 546.24 220.43 542.7 215.16C542.39 214.69 542.09 214.21 541.81 213.72C537.13 205.84 535.23 194.78 537.31 183.14C540.99 162.58 555.73 148.01 570.22 150.61C584.71 153.21 593.48 171.97 589.8 192.54Z" fill="#F9B499"/>
<path d="M538.08 179.56C538.08 179.56 543.82 167.12 551.97 166.69C551.97 166.69 570.77 188.56 590.62 184.8L553.13 155.24C553.13 155.24 541.34 162.64 538.08 179.56Z" fill="#F7A48B"/>
<path d="M549.82 158.09C549.82 158.09 526.72 182.09 534.82 200.22C532.873 198.437 531.47 196.14 530.773 193.594C530.076 191.048 530.113 188.357 530.88 185.83C530.88 185.83 522.5 177.01 530.28 161C530.28 161 541.67 141.51 563.54 138.72C563.54 138.72 556.73 133.01 558.9 124.16C559.331 122.512 560.034 120.947 560.98 119.53C562.725 116.679 564.943 114.146 567.54 112.04C567.54 112.04 556.4 128.04 566.15 137.56C566.15 137.56 570.28 139.15 567.54 133.15C567.54 133.15 559.66 113.55 577.87 109.05C577.87 109.05 588.8 104.55 601.66 116.76C601.66 116.76 626.95 146.12 596.73 151.47C596.73 151.47 624.2 193.05 587.73 207.2C587.67 206.4 587.55 205.54 587.52 204.7C587.486 202.819 587.583 200.938 587.81 199.07C588.31 197.43 588.81 195.65 589.21 193.76C589.986 190.819 590.439 187.801 590.56 184.76C590.56 184.76 566.95 182.06 549.82 158.09Z" fill="#2F2E41"/>
<path d="M597.075 196.322C600.559 191.888 601.09 186.493 598.263 184.272C595.435 182.051 590.32 183.845 586.836 188.28C583.353 192.714 582.822 198.109 585.649 200.33C588.476 202.551 593.592 200.757 597.075 196.322Z" fill="#F9B499"/>
<path d="M463.49 358.311C463.49 358.311 467.85 386.651 482.73 391.931C482.73 391.931 486.85 365.591 463.49 358.311Z" fill="#0071F2"/>
<path opacity="0.6" d="M463.49 358.311C463.49 358.311 467.85 386.651 482.73 391.931C482.73 391.931 486.85 365.591 463.49 358.311Z" fill="white"/>
<path d="M482.35 382.65L475.44 383.7C457.16 386.37 449.37 399.24 449.37 399.24C444.97 407.03 441.75 404.83 441.75 404.83C436.51 401.95 449.75 386.2 449.75 386.2C443.15 388.74 436.17 397.88 436.17 397.88C429.87 407.88 427.07 405.5 427.07 405.5C422.16 401.1 439.26 384.34 439.26 384.34C430.96 388.07 423.51 396.02 423.51 396.02C418.26 402.62 415.22 401.61 415.22 401.61C408.78 397.71 429.61 381.97 429.61 381.97C420.97 383.66 413.01 392.81 413.01 392.81C406.75 400.25 403.2 398.39 403.2 398.39C397.61 390.6 424.87 375.12 424.87 375.12C437.22 365.39 469.87 361.66 469.87 361.66C469.87 361.66 478.76 366.78 482.35 382.65Z" fill="#F9B499"/>
<path d="M415.03 381.5C415.03 381.5 413.03 371.78 431.8 371.04C431.8 371.04 428.58 372.84 424.8 375.12L415.03 381.5Z" fill="#F7A48B"/>
<path d="M465.83 362.2C465.83 362.2 475 368.74 477.44 383.7L482.35 382.65C482.35 382.65 479.74 369.09 469.86 361.65L465.83 362.2Z" fill="#F7A48B"/>
<path d="M463.49 358.31C463.49 358.31 482.49 363.19 482.73 391.93L571.51 363.93C571.51 363.93 586.15 357.77 591.28 350.07L630.54 296.78C630.54 296.78 651.07 271.12 630.54 258.03C630.54 258.03 616.17 247.66 597.18 271.32L558.95 322.7C558.95 322.7 554.13 331.7 540.76 335.27L463.49 358.31Z" fill="#0071F2"/>
<path opacity="0.5" d="M463.49 358.31C463.49 358.31 482.49 363.19 482.73 391.93L571.51 363.93C571.51 363.93 586.15 357.77 591.28 350.07L630.54 296.78C630.54 296.78 651.07 271.12 630.54 258.03C630.54 258.03 616.17 247.66 597.18 271.32L558.95 322.7C558.95 322.7 554.13 331.7 540.76 335.27L463.49 358.31Z" fill="white"/>
<path d="M331.81 216.99C345.247 216.99 356.14 201.831 356.14 183.131C356.14 164.43 345.247 149.271 331.81 149.271C318.373 149.271 307.48 164.43 307.48 183.131C307.48 201.831 318.373 216.99 331.81 216.99Z" fill="#F9B499"/>
<path d="M294.08 164.981L278.08 190.981C278.08 190.981 272.41 199.981 281.17 208.981L288.38 215.93L307.43 214.8C307.43 214.8 314.16 211.8 314.43 206.8C311.799 202.957 309.888 198.667 308.79 194.14L311.79 183.14C311.79 183.14 314.1 186.09 314.41 186.36C314.72 186.63 312.9 178.161 318.79 177.201C327.093 174.005 333.876 167.78 337.77 159.78C337.816 159.676 337.885 159.583 337.971 159.508C338.057 159.433 338.158 159.378 338.268 159.347C338.378 159.315 338.493 159.308 338.605 159.326C338.718 159.344 338.825 159.387 338.92 159.451C339.628 159.964 340.485 160.231 341.36 160.21C341.554 160.204 341.747 160.238 341.926 160.313C342.106 160.387 342.267 160.5 342.399 160.642C342.531 160.784 342.63 160.954 342.691 161.138C342.751 161.322 342.772 161.518 342.75 161.71C342.1 167.11 341.55 182.711 356.68 184.601C358.997 184.917 361.355 184.683 363.565 183.919C365.775 183.154 367.774 181.881 369.4 180.201L369.55 180.041C369.606 179.979 369.64 179.901 369.648 179.818C369.655 179.735 369.635 179.652 369.591 179.582C369.547 179.512 369.48 179.458 369.403 179.429C369.325 179.399 369.24 179.397 369.16 179.421C366.38 180.301 360.3 181.06 359.54 171.3C359.54 171.3 359.88 138.84 348.82 149.3C348.82 149.3 335.55 129.15 307.47 147.22C307.47 147.22 287.72 158.42 280.65 165.9C279.92 166.68 279.17 167.43 278.39 168.16C273.9 172.32 260.07 186.65 275.25 192.72C275.25 192.72 265.25 181.15 274.82 175.43L294.08 164.981Z" fill="#2F2E41"/>
<path d="M309.626 193.908C312.827 192.531 313.964 188.025 312.166 183.845C310.367 179.665 306.314 177.392 303.113 178.77C299.912 180.147 298.775 184.653 300.573 188.833C302.372 193.013 306.425 195.285 309.626 193.908Z" fill="#F9B499"/>
<path d="M262.6 245.78C262.6 245.78 256.84 280.29 247.79 305.05L239.45 326.67C238.696 328.693 237.45 330.497 235.825 331.918C234.199 333.339 232.246 334.333 230.14 334.81C229.85 334.87 229.56 334.92 229.25 334.96C227.363 335.209 225.498 335.6 223.67 336.13C218.04 337.88 208.01 341.9 209.25 348.06C209.25 348.06 200.39 355.13 205.39 357.13C205.39 357.13 202.33 360.13 203.86 361.27C203.86 361.27 205.39 363.7 209.25 359.84C209.25 359.84 208.97 364.27 213.97 361.13L220.67 355.45C221.169 355.032 221.721 354.679 222.31 354.4C224.68 353.3 231.03 350.58 234.31 351.4C234.663 351.49 234.967 351.716 235.154 352.029C235.342 352.342 235.398 352.716 235.31 353.07C234.886 354.292 234.08 355.344 233.01 356.07C233.01 356.07 225.92 359.59 228.4 362.64C228.508 362.78 228.648 362.893 228.808 362.969C228.968 363.045 229.143 363.083 229.32 363.08C231.63 363.08 241.23 361.96 245.74 346C245.74 346 249.17 337.64 251.96 334C251.96 334 270.96 304 276.01 271.22L278.14 261.16C278.14 261.16 270.65 258.16 264.2 247.75L262.6 245.78Z" fill="#F9B499"/>
<path d="M260.67 256.15C260.67 256.15 272.48 263.23 277.67 263.34L278.12 261.21C272.366 258.057 267.563 253.42 264.21 247.78C263.713 247.083 263.175 246.415 262.6 245.78L260.67 256.15Z" fill="#F7A48B"/>
<path d="M361.7 260.07C361.7 260.07 355.04 265.47 358.04 270.19C358.04 270.19 361.93 289.57 370.27 284.81L379.47 270.4L373.25 259.05L361.7 260.07Z" fill="#F7A48B"/>
<path d="M404.26 273.151L398.36 272.011C395.429 271.444 392.682 270.167 390.36 268.291C389.023 267.21 387.76 266.041 386.58 264.791C381.036 259.299 374.326 255.126 366.95 252.581C366.95 252.581 356.95 248.971 349.89 251.471C349.89 251.471 331.89 255.911 336.57 260.121C336.57 260.121 337.73 262.221 346.85 259.651C346.85 259.651 355.25 256.731 363.18 260.731C364.894 261.613 366.396 262.859 367.58 264.381L373.02 271.271C373.02 271.271 344.02 263.491 343.58 271.271C343.58 271.271 343.39 274.581 351.18 275.731C353.484 276.046 355.741 276.644 357.9 277.511C360.901 278.684 363.743 280.229 366.36 282.111C368.392 283.736 370.607 285.119 372.96 286.231C378.462 288.76 384.315 290.446 390.32 291.231C391.53 291.366 392.725 291.614 393.89 291.971C397.11 292.971 403.41 295.241 405.68 298.161C407.106 294.105 407.714 289.806 407.47 285.514C407.227 281.221 406.136 277.019 404.26 273.151Z" fill="#F9B499"/>
<path d="M399.45 294.06C399.45 294.06 407.01 285.45 402.34 272.78L404.26 273.15C404.26 273.15 410.46 282.9 405.68 298.15C403.769 296.55 401.678 295.177 399.45 294.06Z" fill="#F7A48B"/>
<path d="M209.25 348.051C209.922 347.268 210.658 346.542 211.45 345.881C212.23 345.218 213.044 344.597 213.89 344.021C214.739 343.436 215.628 342.911 216.55 342.451C217.465 341.962 218.445 341.605 219.46 341.391C217.75 342.541 216.13 343.701 214.46 344.841C212.787 346.011 211.047 347.083 209.25 348.051Z" fill="#F7A48B"/>
<path d="M205.39 357.121C205.873 356.252 206.439 355.431 207.08 354.671C207.703 353.914 208.371 353.196 209.08 352.521C210.527 351.133 212.201 350.003 214.03 349.181C212.66 350.621 211.24 351.911 209.83 353.251C208.42 354.591 206.96 355.881 205.39 357.121Z" fill="#F7A48B"/>
<path d="M209.25 359.831C209.786 358.885 210.409 357.992 211.11 357.161C211.795 356.318 212.541 355.526 213.34 354.791C214.134 354.048 214.994 353.378 215.91 352.791C216.822 352.174 217.839 351.727 218.91 351.471C217.175 352.701 215.537 354.061 214.01 355.541C212.44 356.951 210.93 358.441 209.25 359.831Z" fill="#F7A48B"/>
<path d="M590.81 197.25C592.55 197.25 593.96 195.84 593.96 194.1C593.96 192.36 592.55 190.95 590.81 190.95C589.07 190.95 587.66 192.36 587.66 194.1C587.66 195.84 589.07 197.25 590.81 197.25Z" fill="#2F2E41"/>
<path d="M160.14 176.78C159.56 184.94 159.33 193.11 159.27 201.28C159.27 217.63 159.86 233.97 160.95 250.28C161.1 252.28 161.22 254.37 161.29 256.44L161.37 262.58C161.44 266.67 161.37 270.76 161.37 274.86C161.3 283.05 161.16 291.24 160.8 299.42C160.16 314.88 158.72 333.52 156.69 349.29C155.94 348.69 155.2 348.07 154.46 347.44C156.62 332.07 157.84 314.63 158.7 299.32C159.17 291.17 159.43 283 159.61 274.84C159.67 270.75 159.77 266.67 159.75 262.58V256.48C159.7 254.48 159.62 252.48 159.49 250.38C158.64 234.03 158.25 217.66 158.49 201.29C158.66 193.11 159.01 184.93 159.71 176.77L160.32 170.67L161.14 164.58C161.47 162.58 161.88 160.58 162.24 158.58C162.6 156.58 163.24 154.58 163.73 152.63C163.27 154.63 162.73 156.63 162.33 158.63C161.93 160.63 161.61 162.63 161.33 164.68L160.59 170.77L160.14 176.78Z" fill="#2F2E41"/>
<path d="M137.91 176.14C137.91 176.14 154.78 150.09 173.71 150.62C173.71 150.62 163.37 142.03 161.09 137.3C161.09 137.3 175.09 146.06 183.7 146.94C183.7 146.94 200.87 142.38 206.7 131.51C206.7 131.51 194.43 130.51 190.57 126.96H204.42C204.42 126.96 212.66 127.66 215.81 117.67C215.81 117.67 224.05 94.6703 226.15 91.9103C226.15 91.9103 190.75 89.1003 193.03 105.23C193.03 105.23 189.87 104.7 190.92 96.8103C190.88 96.7803 140.03 124.5 137.91 176.14Z" fill="#0071F2"/>
<path d="M139.82 161.78C141.347 157.294 143.524 153.055 146.28 149.2C148.988 145.306 151.962 141.604 155.18 138.12C156.81 136.4 158.42 134.67 160.18 133.05C161.94 131.43 163.64 129.82 165.41 128.24C168.954 125.091 172.655 122.124 176.5 119.35C180.4 116.649 184.461 114.187 188.66 111.98C192.81 109.73 196.94 107.44 201.11 105.22L213.59 98.5202L226.13 91.9102L213.83 98.9102L201.48 105.85C197.37 108.18 193.22 110.44 189.09 112.74C184.946 114.962 180.939 117.43 177.09 120.13C169.443 125.634 162.311 131.82 155.78 138.61C152.521 142.01 149.494 145.625 146.72 149.43C143.852 153.203 141.53 157.36 139.82 161.78Z" fill="#2F2E41"/>
<path d="M9.12984 288.021C9.12984 288.021 35.2398 273.271 36.4298 255.341C36.4298 255.341 27.4298 249.561 27.4298 244.191C27.4298 244.191 33.2098 250.871 36.4298 252.111C36.4298 252.111 42.4298 231.041 52.1698 219.881C52.1698 219.881 42.1698 211.711 41.6098 207.881C41.6098 207.881 50.6098 213.741 57.5498 212.411C57.5498 212.411 66.5498 205.291 86.0698 209.681C86.0698 209.681 72.2898 189.551 48.5798 192.341C48.5798 192.341 29.6598 194.731 15.9098 203.501C15.9098 203.501 23.4798 203.361 25.4698 205.321C25.4698 205.321 -2.42016 205.691 0.169836 233.591L2.35984 248.931L7.73984 248.731L3.35984 253.911C3.35984 253.911 8.92984 278.461 9.12984 288.021Z" fill="#0071F2"/>
<path d="M9.12988 288.021C9.91603 286.922 10.5548 285.725 11.0299 284.461C11.5404 283.216 11.9712 281.94 12.3199 280.641C13.0148 278.038 13.5161 275.387 13.8199 272.711C14.4431 267.358 14.597 261.96 14.2799 256.581C13.0229 245.752 14.0796 234.78 17.3799 224.391C19.0947 219.188 21.6816 214.316 25.0299 209.981C28.3838 205.639 32.6691 202.106 37.5699 199.641C42.4642 197.224 47.7701 195.752 53.2099 195.301C58.6109 194.873 64.0433 195.068 69.3999 195.881C64.0229 195.259 58.5941 195.225 53.2099 195.781C47.8579 196.316 42.6542 197.853 37.8699 200.311C33.1209 202.796 28.9684 206.283 25.6999 210.531C22.4623 214.803 19.9736 219.595 18.3399 224.701C17.8699 225.951 17.5399 227.261 17.1499 228.541C16.7599 229.821 16.4899 231.141 16.2399 232.461C15.6876 235.102 15.287 237.773 15.0399 240.461C14.7716 243.119 14.6514 245.789 14.6799 248.461C14.6799 251.111 14.9999 253.851 15.0599 256.541C15.2861 261.965 15.0351 267.4 14.3099 272.781C13.9329 275.463 13.358 278.113 12.5899 280.711C12.1977 282.008 11.7268 283.28 11.1799 284.521C10.6526 285.772 9.96339 286.949 9.12988 288.021Z" fill="#2F2E41"/>
<path opacity="0.2" d="M591.94 223.69C591.94 223.69 590.44 219.58 589.74 216.69C590.935 215.956 592.214 215.369 593.55 214.94C595.62 214.28 591.94 223.69 591.94 223.69Z" fill="black"/>
<path d="M578.67 238.54C554.23 274.2 537.87 277.98 532.03 277.98C531.235 278 530.441 277.913 529.67 277.72H529.57C528.037 277.013 526.68 275.976 525.596 274.683C524.512 273.39 523.728 271.872 523.3 270.24C518.63 254.5 536.5 222.7 541.81 213.76C542.09 214.25 542.39 214.76 542.7 215.2C537.08 224.83 520.4 255.2 524.7 269.82C525.061 271.239 525.734 272.56 526.67 273.686C527.606 274.812 528.781 275.715 530.11 276.33C531.03 276.55 548.44 279.97 577.42 237.69C577.65 237.39 598.03 211.09 594.71 199.31C594.425 198.229 593.873 197.237 593.104 196.427C592.335 195.616 591.374 195.011 590.31 194.67C590.217 194.635 590.132 194.583 590.06 194.515C589.988 194.447 589.93 194.366 589.889 194.276C589.848 194.186 589.825 194.089 589.822 193.99C589.819 193.891 589.835 193.793 589.87 193.7C589.905 193.608 589.957 193.523 590.025 193.45C590.093 193.378 590.174 193.32 590.264 193.279C590.354 193.238 590.451 193.216 590.55 193.212C590.649 193.209 590.747 193.225 590.84 193.26C592.123 193.689 593.279 194.429 594.208 195.413C595.136 196.396 595.806 197.594 596.16 198.9C599.71 211.37 579.53 237.44 578.67 238.54Z" fill="#2F2E41"/>
<g opacity="0.2">
<path d="M578.67 238.54C554.23 274.2 537.87 277.98 532.03 277.98C531.235 278 530.441 277.913 529.67 277.72H529.57C528.037 277.013 526.68 275.976 525.596 274.683C524.512 273.39 523.728 271.872 523.3 270.24C518.63 254.5 536.5 222.7 541.81 213.76C542.09 214.25 542.39 214.76 542.7 215.2C537.08 224.83 520.4 255.2 524.7 269.82C525.061 271.239 525.734 272.56 526.67 273.686C527.606 274.812 528.781 275.715 530.11 276.33C531.03 276.55 548.44 279.97 577.42 237.69C577.65 237.39 598.03 211.09 594.71 199.31C594.425 198.229 593.873 197.237 593.104 196.427C592.335 195.616 591.374 195.011 590.31 194.67C590.217 194.635 590.132 194.583 590.06 194.515C589.988 194.447 589.93 194.366 589.889 194.276C589.848 194.186 589.825 194.089 589.822 193.99C589.819 193.891 589.835 193.793 589.87 193.7C589.905 193.608 589.957 193.523 590.025 193.45C590.093 193.378 590.174 193.32 590.264 193.279C590.354 193.238 590.451 193.216 590.55 193.212C590.649 193.209 590.747 193.225 590.84 193.26C592.123 193.689 593.279 194.429 594.208 195.413C595.136 196.396 595.806 197.594 596.16 198.9C599.71 211.37 579.53 237.44 578.67 238.54Z" fill="black"/>
</g>
<path d="M679.96 181.07C706.287 181.07 727.63 159.728 727.63 133.4C727.63 107.073 706.287 85.7305 679.96 85.7305C653.632 85.7305 632.29 107.073 632.29 133.4C632.29 159.728 653.632 181.07 679.96 181.07Z" fill="#EBEBEB"/>
<path d="M705.828 173.242C727.27 160.159 734.046 132.171 720.963 110.729C707.88 89.2876 679.893 82.5115 658.451 95.5945C637.009 108.677 630.233 136.665 643.316 158.107C656.399 179.549 684.387 186.325 705.828 173.242Z" fill="#DBDBDB"/>
<path d="M712.284 164.571C728.924 147.931 728.924 120.952 712.284 104.312C695.644 87.6714 668.665 87.6714 652.024 104.312C635.384 120.952 635.384 147.931 652.024 164.571C668.665 181.211 695.644 181.211 712.284 164.571Z" fill="white"/>
<path opacity="0.5" d="M723.81 125.45C704.41 137.2 672.52 156.45 654.69 167.07C649.646 162.816 645.655 157.453 643.03 151.4L702.03 96.7803C707.53 99.6831 712.33 103.753 716.092 108.706C719.854 113.658 722.488 119.373 723.81 125.45Z" fill="#EBEBEB"/>
<path opacity="0.5" d="M724.74 135.96C724.587 140.692 723.637 145.364 721.93 149.78L668.78 174.99C666.464 174.225 664.219 173.262 662.07 172.11C678.13 162.78 707.47 145.93 724.74 135.96Z" fill="#EBEBEB"/>
<path d="M682.57 94.96H681.75V101.42H682.57V94.96Z" fill="#C7C7C7"/>
<path d="M662.761 100.035L662.051 100.445L665.281 106.04L665.991 105.63L662.761 100.035Z" fill="#C7C7C7"/>
<path d="M648.107 114.34L647.697 115.05L653.292 118.28L653.702 117.57L648.107 114.34Z" fill="#C7C7C7"/>
<path d="M649.12 134.07H642.66V134.89H649.12V134.07Z" fill="#C7C7C7"/>
<path d="M653.35 150.69L647.755 153.92L648.165 154.63L653.76 151.4L653.35 150.69Z" fill="#C7C7C7"/>
<path d="M665.256 162.884L662.029 168.48L662.739 168.89L665.967 163.294L665.256 162.884Z" fill="#C7C7C7"/>
<path d="M682.57 167.54H681.75V174H682.57V167.54Z" fill="#C7C7C7"/>
<path d="M699.058 162.894L698.348 163.304L701.578 168.898L702.288 168.488L699.058 162.894Z" fill="#C7C7C7"/>
<path d="M710.966 150.621L710.556 151.331L716.151 154.561L716.561 153.851L710.966 150.621Z" fill="#C7C7C7"/>
<path d="M721.68 134.07H715.22V134.89H721.68V134.07Z" fill="#C7C7C7"/>
<path d="M716.198 114.373L710.604 117.604L711.014 118.314L716.608 115.083L716.198 114.373Z" fill="#C7C7C7"/>
<path d="M701.605 100.064L698.378 105.66L699.088 106.07L702.315 100.474L701.605 100.064Z" fill="#C7C7C7"/>
<path d="M682.79 97.8901L684.19 137.36L680.14 137.3L681.69 97.8701L682.79 97.8901Z" fill="#C7C7C7"/>
<path d="M707.37 120.72L680.82 137.66L678.88 134.12L706.85 119.75L707.37 120.72Z" fill="#A6A6A6"/>
<path d="M683.55 134.48C683.55 134.755 683.468 135.024 683.316 135.252C683.163 135.481 682.946 135.659 682.692 135.764C682.438 135.869 682.158 135.897 681.889 135.843C681.619 135.79 681.371 135.657 681.177 135.463C680.983 135.268 680.85 135.021 680.797 134.751C680.743 134.481 680.77 134.202 680.876 133.948C680.981 133.694 681.159 133.477 681.388 133.324C681.616 133.171 681.885 133.09 682.16 133.09C682.528 133.09 682.882 133.236 683.143 133.497C683.403 133.758 683.55 134.111 683.55 134.48Z" fill="#C7C7C7"/>
<path d="M483.41 120.78C471.324 136.953 455.902 150.339 438.19 160.03C420.477 150.339 405.056 136.953 392.97 120.78C377.03 99.7799 377.83 66.7799 400.62 59.6399C425.81 51.7799 438.19 89.7799 438.19 89.7799C438.19 89.7799 450.75 51.6199 475.78 59.7799C498.48 67.0699 499.34 99.7799 483.41 120.78Z" fill="#0071F2"/>
<path d="M420.42 143.479L413.54 114.88L409.07 124.959H381.34V121.729H406.97L414.47 104.88L419.82 127.169L427.38 80.9795L434.06 117.529L439.36 102.27L447.68 127.249L449.53 121.729H495.08V124.939H451.85L447.68 137.429L439.3 112.289L433.11 130.189L427.56 99.8795L420.42 143.479Z" fill="#0071F2"/>
<path opacity="0.7" d="M420.42 143.479L413.54 114.88L409.07 124.959H381.34V121.729H406.97L414.47 104.88L419.82 127.169L427.38 80.9795L434.06 117.529L439.36 102.27L447.68 127.249L449.53 121.729H495.08V124.939H451.85L447.68 137.429L439.3 112.289L433.11 130.189L427.56 99.8795L420.42 143.479Z" fill="white"/>
</svg>
