<svg width="866" height="683" viewBox="0 0 866 683" fill="none" xmlns="http://www.w3.org/2000/svg">
<path d="M850.4 592.39H11.53V592.83H850.4V592.39Z" fill="#EBEBEB"/>
<path d="M407.86 513.11H64.59C61.9084 513.105 59.3379 512.039 57.4398 510.145C55.5418 508.25 54.4705 505.682 54.46 503V20.4204C54.4837 17.7475 55.5607 15.1919 57.4574 13.3084C59.354 11.4249 61.917 10.3655 64.59 10.3604H407.86C410.549 10.3656 413.127 11.437 415.028 13.3397C416.928 15.2423 417.997 17.8209 418 20.5104V503C417.987 505.683 416.913 508.251 415.014 510.145C413.114 512.039 410.542 513.105 407.86 513.11ZM64.59 10.7204C62.0199 10.7256 59.5568 11.7496 57.7404 13.5679C55.924 15.3861 54.9026 17.8503 54.9 20.4204V503C54.9026 505.57 55.924 508.035 57.7404 509.853C59.5568 511.671 62.0199 512.695 64.59 512.7H407.86C410.431 512.695 412.895 511.671 414.713 509.853C416.531 508.035 417.555 505.571 417.56 503V20.4204C417.555 17.8494 416.531 15.3852 414.713 13.5673C412.895 11.7493 410.431 10.7256 407.86 10.7204H64.59Z" fill="#EBEBEB"/>
<path d="M792.4 513.11H449.12C446.442 513.097 443.877 512.028 441.982 510.135C440.087 508.242 439.016 505.679 439 503V20.4204C439.026 17.7448 440.107 15.1877 442.007 13.3042C443.908 11.4207 446.474 10.3629 449.15 10.3604H792.4C795.07 10.3708 797.627 11.4324 799.52 13.3154C801.412 15.1983 802.486 17.7509 802.51 20.4204V503C802.499 505.678 801.431 508.244 799.537 510.138C797.644 512.031 795.078 513.1 792.4 513.11ZM449.12 10.7204C446.547 10.723 444.081 11.7455 442.26 13.5637C440.44 15.382 439.415 17.8476 439.41 20.4204V503C439.415 505.573 440.44 508.039 442.26 509.857C444.081 511.675 446.547 512.698 449.12 512.7H792.4C794.971 512.695 797.435 511.671 799.253 509.853C801.071 508.035 802.095 505.571 802.1 503V20.4204C802.095 17.8494 801.071 15.3852 799.253 13.5673C797.435 11.7493 794.971 10.7256 792.4 10.7204H449.12Z" fill="#EBEBEB"/>
<path d="M786.33 609.32H730.21V609.76H786.33V609.32Z" fill="#EBEBEB"/>
<path d="M582.67 604.5H523.28V604.94H582.67V604.5Z" fill="#EBEBEB"/>
<path d="M802.54 625.83H691.56V626.27H802.54V625.83Z" fill="#EBEBEB"/>
<path d="M113.98 622.85H79.79V623.29H113.98V622.85Z" fill="#EBEBEB"/>
<path d="M183.67 622.85H129.82V623.29H183.67V622.85Z" fill="#EBEBEB"/>
<path d="M420.55 615.34H323.56V615.78H420.55V615.34Z" fill="#EBEBEB"/>
<path d="M743.19 74.8096H479.41V353.17H743.19V74.8096Z" fill="#E6E6E6"/>
<path d="M451.14 65.7895H760.27C760.614 65.7895 760.955 65.8573 761.273 65.989C761.591 66.1206 761.879 66.3136 762.123 66.5569C762.366 66.8002 762.559 67.089 762.691 67.4069C762.822 67.7248 762.89 68.0655 762.89 68.4095C762.882 69.0992 762.603 69.7579 762.112 70.2428C761.622 70.7277 760.96 70.9996 760.27 70.9995H451.14C450.447 71.0022 449.781 70.7301 449.288 70.2428C448.795 69.7555 448.515 69.0927 448.51 68.3995C448.51 67.702 448.787 67.0331 449.28 66.5398C449.774 66.0466 450.442 65.7695 451.14 65.7695V65.7895Z" fill="#E6E6E6"/>
<path d="M737.96 74.8096H468.21V353.17H737.96V74.8096Z" fill="#F0F0F0"/>
<path d="M743.19 353.16H479.41V363.56H743.19V353.16Z" fill="#E6E6E6"/>
<path d="M719.31 353.16H449.56V363.56H719.31V353.16Z" fill="#F0F0F0"/>
<path d="M722.28 90.4902H483.87V337.51H722.28V90.4902Z" fill="#FAFAFA"/>
<path d="M668.17 337.5L576.21 90.4697H532.78L624.76 337.5H668.17Z" fill="white"/>
<path d="M615.42 337.5L523.46 90.4697H506.54L598.5 337.5H615.42Z" fill="white"/>
<path d="M485.88 90.4902H483.89V337.51H485.88V90.4902Z" fill="#E6E6E6"/>
<g opacity="0.6">
<path d="M545.84 312.9H456.07L461.17 60.7598H550.95L545.84 312.9Z" fill="#F0F0F0"/>
<path d="M580.81 312.9H510.88L515.98 60.7598H585.91L580.81 312.9Z" fill="#E6E6E6"/>
<path d="M635.62 312.9H545.84L550.95 60.7598H640.72L635.62 312.9Z" fill="#F0F0F0"/>
<path d="M670.59 312.9H600.65L605.75 60.7602L675.69 60.7402L670.59 312.9Z" fill="#E6E6E6"/>
<path d="M725.39 312.9H635.62L640.72 60.7602L730.5 60.7402L725.39 312.9Z" fill="#F0F0F0"/>
</g>
<path d="M378.75 46.5801H138.76V314.43H378.75V46.5801Z" fill="#EBEBEB"/>
<path d="M380.92 46.5801H378.75V314.43H380.92V46.5801Z" fill="#E0E0E0"/>
<path d="M361 64.3301H156.56V296.63H361V64.3301Z" fill="#F5F5F5"/>
<path d="M323.89 223.76H266.31V304.34H323.89V223.76Z" fill="white"/>
<path d="M197.05 311.39H254.62L258.76 230.78H201.19L197.05 311.39Z" fill="white"/>
<path d="M146.9 211.59H204.47L208.61 130.98H151.04L146.9 211.59Z" fill="white"/>
<path d="M325.784 76.1565L323.067 138.127L367.345 140.068L370.061 78.0974L325.784 76.1565Z" fill="white"/>
<path d="M149.622 51.2678L146.906 113.238L191.183 115.179L193.9 53.2087L149.622 51.2678Z" fill="white"/>
<path d="M324.834 149.204L324.012 211.229L368.328 211.816L369.151 149.792L324.834 149.204Z" fill="white"/>
<path d="M311.361 74.3433L217.5 77.0635L221.308 208.458L315.169 205.738L311.361 74.3433Z" fill="white"/>
<path d="M196.25 346.35H97.5699V592.39H196.25V346.35Z" fill="#F0F0F0"/>
<path d="M190.83 352.52H102.97V424.94H190.83V352.52Z" fill="#E6E6E6"/>
<path d="M190.83 431.45H102.97V503.87H190.83V431.45Z" fill="#E6E6E6"/>
<path d="M190.83 510.39H102.97V582.81H190.83V510.39Z" fill="#E6E6E6"/>
<path d="M137.53 352.52H102.97V424.94H137.53V352.52Z" fill="#E0E0E0"/>
<path d="M137.53 431.45H102.97V503.87H137.53V431.45Z" fill="#E0E0E0"/>
<path d="M137.52 510.39H102.96V582.81H137.52V510.39Z" fill="#E0E0E0"/>
<path d="M223.04 346.35H196.25V592.39H223.04V346.35Z" fill="#F5F5F5"/>
<path d="M301.76 346.35H203.08V592.39H301.76V346.35Z" fill="#F0F0F0"/>
<path d="M296.34 352.52H208.48V424.94H296.34V352.52Z" fill="#E6E6E6"/>
<path d="M296.34 431.45H208.48V503.87H296.34V431.45Z" fill="#E6E6E6"/>
<path d="M296.36 510.37H208.5V582.79H296.36V510.37Z" fill="#E6E6E6"/>
<path d="M243.04 352.52H208.48V424.94H243.04V352.52Z" fill="#E0E0E0"/>
<path d="M243.04 431.45H208.48V503.87H243.04V431.45Z" fill="#E0E0E0"/>
<path d="M243.03 510.39H208.47V582.81H243.03V510.39Z" fill="#E0E0E0"/>
<path d="M328.55 346.35H301.76V592.39H328.55V346.35Z" fill="#F5F5F5"/>
<path d="M175 489.64C175 497.5 164.83 503.86 152.3 503.86C139.77 503.86 129.67 497.46 129.67 489.64H175Z" fill="#F0F0F0"/>
<path d="M175 479C175 486.86 164.83 493.22 152.3 493.22C139.77 493.22 129.62 486.86 129.62 479H175Z" fill="#F0F0F0"/>
<path d="M283.41 410.73C283.41 418.58 270.7 424.95 254.97 424.95C239.24 424.95 226.53 418.58 226.53 410.73H283.41Z" fill="#FAFAFA"/>
<path d="M283.41 400.08C283.41 407.94 270.7 414.3 254.97 414.3C239.24 414.3 226.53 407.92 226.53 400.08H283.41Z" fill="#FAFAFA"/>
<path d="M285.8 520.8H214.46V582.79H285.8V520.8Z" fill="#F0F0F0"/>
<path d="M296.34 520.82H285.78V582.81H296.34V520.82Z" fill="#E0E0E0"/>
<path d="M180.29 362.96H108.95V424.95H180.29V362.96Z" fill="#F0F0F0"/>
<path d="M190.83 362.96H180.27V424.95H190.83V362.96Z" fill="#E0E0E0"/>
<path d="M476.14 462.16H462.29V592.4H476.14V462.16Z" fill="#E6E6E6"/>
<path d="M466.73 462.16H458.57V592.4H466.73V462.16Z" fill="#F0F0F0"/>
<path d="M652.63 462.16H456.07V476.58H652.63V462.16Z" fill="#F0F0F0"/>
<path d="M754.37 462.16H740.52V592.4H754.37V462.16Z" fill="#E6E6E6"/>
<path d="M746.09 462.16H737.93V592.4H746.09V462.16Z" fill="#F0F0F0"/>
<path d="M756.84 462.16H658.55V476.58H756.84V462.16Z" fill="#E6E6E6"/>
<path d="M667.66 462.16H653.81V592.4H667.66V462.16Z" fill="#E6E6E6"/>
<path d="M658.27 462.16H650.11V592.4H658.27V462.16Z" fill="#F0F0F0"/>
<path d="M271.54 510.5H249.18V539.97H271.54V510.5Z" fill="#3F4347"/>
<path d="M259.18 533.66H260C264.885 533.66 269.57 535.601 273.025 539.055C276.479 542.51 278.42 547.195 278.42 552.08H240.76C240.76 547.195 242.701 542.51 246.155 539.055C249.61 535.601 254.295 533.66 259.18 533.66Z" fill="#2E3135"/>
<path d="M158.14 580V598.95H167.14V585.75L253.44 556.81L305 586V598.37H312.63V574.44L352.88 586.28L353.15 598.38H361V580.22L272.77 545C268.131 543.151 263.184 542.201 258.19 542.2C253.083 542.198 248.025 543.193 243.3 545.13L158.14 580Z" fill="#3F4347"/>
<path d="M221.82 594.96V579.96L236.91 562.28L253.39 556.81L261.81 561.28L229.45 586.54V596.27L221.82 594.96Z" fill="#2E3135"/>
<path d="M225.5 623.9C233.784 623.9 240.5 617.185 240.5 608.9C240.5 600.616 233.784 593.9 225.5 593.9C217.216 593.9 210.5 600.616 210.5 608.9C210.5 617.185 217.216 623.9 225.5 623.9Z" fill="#2E3135"/>
<path d="M164.72 623.9C173.004 623.9 179.72 617.185 179.72 608.9C179.72 600.616 173.004 593.9 164.72 593.9C156.436 593.9 149.72 600.616 149.72 608.9C149.72 617.185 156.436 623.9 164.72 623.9Z" fill="#2E3135"/>
<path d="M310.48 623.9C318.764 623.9 325.48 617.185 325.48 608.9C325.48 600.616 318.764 593.9 310.48 593.9C302.196 593.9 295.48 600.616 295.48 608.9C295.48 617.185 302.196 623.9 310.48 623.9Z" fill="#2E3135"/>
<path d="M355.47 623.9C363.754 623.9 370.47 617.185 370.47 608.9C370.47 600.616 363.754 593.9 355.47 593.9C347.186 593.9 340.47 600.616 340.47 608.9C340.47 617.185 347.186 623.9 355.47 623.9Z" fill="#2E3135"/>
<path d="M163.93 595.48C165.631 596.136 167.164 597.165 168.414 598.493C169.663 599.821 170.599 601.413 171.15 603.151C171.757 604.985 171.948 606.931 171.708 608.849C171.468 610.766 170.804 612.605 169.764 614.234C168.724 615.862 167.334 617.238 165.695 618.261C164.056 619.285 162.21 619.93 160.29 620.151H159.99" stroke="#3F4347" stroke-linecap="round" stroke-linejoin="round"/>
<path d="M226.82 596.27C228.52 596.926 230.05 597.956 231.298 599.284C232.546 600.611 233.48 602.203 234.03 603.94C234.637 605.774 234.828 607.72 234.588 609.638C234.348 611.555 233.684 613.394 232.644 615.023C231.604 616.651 230.214 618.027 228.575 619.05C226.936 620.074 225.09 620.719 223.17 620.94H222.87" stroke="#3F4347" stroke-linecap="round" stroke-linejoin="round"/>
<path d="M312.06 596C313.761 596.654 315.293 597.682 316.543 599.008C317.792 600.333 318.728 601.924 319.28 603.66C319.887 605.494 320.078 607.441 319.838 609.358C319.598 611.275 318.934 613.115 317.894 614.743C316.854 616.372 315.464 617.747 313.825 618.771C312.186 619.794 310.34 620.44 308.42 620.66H308.11" stroke="#3F4347" stroke-linecap="round" stroke-linejoin="round"/>
<path d="M356.26 596C357.962 596.652 359.494 597.68 360.744 599.006C361.994 600.332 362.929 601.923 363.48 603.66C364.087 605.494 364.278 607.441 364.038 609.358C363.798 611.275 363.134 613.115 362.094 614.743C361.054 616.372 359.664 617.747 358.025 618.771C356.386 619.794 354.54 620.44 352.62 620.66H352.32" stroke="#323232" stroke-miterlimit="10"/>
<path d="M352.32 514.45L340.82 541.94C339.55 544.987 338.851 548.241 338.76 551.54L337.32 605.75C332.32 599.89 327.61 591.49 324.84 586.14C323.287 583.099 322.327 579.79 322.01 576.39C320.12 556.86 311.32 537.28 310.77 536.08L311.01 535.91C312.057 535.462 312.978 534.765 313.694 533.879C314.41 532.994 314.9 531.948 315.12 530.83L318.61 513.15L352.32 514.45Z" fill="#F9B499"/>
<path d="M335.48 623.37C324.466 610.838 314.93 597.081 307.06 582.37C310.75 567.11 305.75 560.01 305.75 560.01L298.64 545.01L310.77 536.12C311.32 537.32 320.12 556.9 322.01 576.43C322.327 579.83 323.287 583.139 324.84 586.18C327.61 591.53 332.3 599.93 337.32 605.79C342.05 622.32 335.48 623.37 335.48 623.37Z" fill="#0071F2"/>
<path d="M335.48 623.37C322.59 629.69 290 561.28 290 561.28C284.21 549.7 298.68 544.97 298.68 544.97L305.79 559.97C305.79 559.97 310.19 566.23 307.68 579.63C307.328 581.443 307.614 583.323 308.49 584.95C316.123 598.662 325.169 611.539 335.48 623.37Z" fill="#E6E6E6"/>
<path d="M489.13 620.48L441.58 620.24C439 620.22 436.524 619.223 434.65 617.45L429.32 612.38C427.674 610.814 425.536 609.867 423.27 609.7L401.27 608.11L399.96 590.75L413.64 591.28C426.01 592.85 432.58 598.91 432.58 598.91C439.098 603.741 446.155 607.798 453.61 611H470.19C471.641 610.886 473.099 610.886 474.55 611C486.37 611.78 489.13 620.48 489.13 620.48Z" fill="#0071F2"/>
<path d="M489.13 620.48C489.13 624.69 483.87 624.16 483.87 624.16L436.25 626C417.08 626.15 408.43 624.37 404.57 622.89C403.672 622.548 402.897 621.946 402.344 621.16C401.792 620.374 401.487 619.44 401.47 618.48L401.25 608.1L423.25 609.69C425.516 609.856 427.654 610.803 429.3 612.37L434.63 617.44C436.504 619.213 438.98 620.209 441.56 620.23L489.13 620.48Z" fill="#E6E6E6"/>
<path d="M474.55 611C473.099 610.886 471.641 610.886 470.19 611H453.61C446.148 607.797 439.084 603.736 432.56 598.9C432.56 598.9 425.99 592.84 413.62 591.27L399.94 590.74V585.21L374.42 513.12L412.3 513.65L428.35 580.48L474.55 611Z" fill="#F9B499"/>
<path d="M145.21 315.64C145.21 315.64 111.31 225 113.94 204.77C113.94 204.77 140.25 184.77 222.08 196.62L252.34 315.28L145.21 315.64Z" fill="#3F4347"/>
<path d="M122.36 208.72C122.36 208.72 134.73 215.82 147.88 250.82L170.73 315.34" stroke="#2E3135" stroke-linecap="round" stroke-linejoin="round"/>
<path d="M121.05 507.87H116.31V621.27H121.05V507.87Z" fill="#E1E1E2"/>
<path d="M137.36 507.87H132.62V621.27H137.36V507.87Z" fill="#E1E1E2"/>
<path d="M758.03 507.87H753.29V621.27H758.03V507.87Z" fill="#E1E1E2"/>
<path d="M774.34 507.87H769.6V621.27H774.34V507.87Z" fill="#E1E1E2"/>
<path d="M774.34 325.28H116.31V516.56H774.34V325.28Z" fill="#9EA0A3"/>
<path d="M362.58 294.49L368.63 293.44L365 310L360.52 310.26C360.52 310.26 359.31 303.82 362.58 294.49Z" fill="#F9B499"/>
<path d="M380.88 235.16L365 310L333.21 311.06V315.69H466.5L478.97 237.69C479.055 237.157 479.024 236.612 478.879 236.092C478.735 235.572 478.481 235.089 478.134 234.676C477.787 234.263 477.355 233.929 476.868 233.696C476.381 233.464 475.85 233.34 475.31 233.33L384.61 232.12C383.73 232.109 382.875 232.408 382.193 232.963C381.511 233.519 381.046 234.297 380.88 235.16Z" fill="#2F2E41"/>
<path d="M273.26 208.09C273.26 208.09 286.8 212.93 296.54 236.35L313.9 279.5C313.9 279.5 352.32 287.92 353.11 291.86C353.11 291.86 364.42 290.02 362.58 294.49C361.226 299.646 360.517 304.949 360.47 310.28L344.16 310.81L293.38 307.65C293.38 307.65 283.12 300.54 286.8 273.18L286.01 272.66C290.11 263.523 290.673 253.189 287.59 243.66C287.59 243.66 281.04 231.8 280.49 221.56C279.442 216.462 276.929 211.781 273.26 208.09Z" fill="#0071F2"/>
<path opacity="0.4" d="M273.26 208.09C273.26 208.09 286.8 212.93 296.54 236.35L313.9 279.5C313.9 279.5 352.32 287.92 353.11 291.86C353.11 291.86 364.42 290.02 362.58 294.49C361.226 299.646 360.517 304.949 360.47 310.28L344.16 310.81L293.38 307.65C293.38 307.65 283.12 300.54 286.8 273.18L286.01 272.66C290.11 263.523 290.673 253.189 287.59 243.66C287.59 243.66 281.04 231.8 280.49 221.56C279.442 216.462 276.929 211.781 273.26 208.09Z" fill="white"/>
<g opacity="0.4">
<path d="M313.9 280C313.816 279.995 313.734 279.971 313.66 279.93C313.61 279.93 307.99 276.35 304.8 277.09C304.742 277.104 304.682 277.107 304.623 277.098C304.564 277.089 304.508 277.067 304.457 277.036C304.407 277.004 304.363 276.962 304.329 276.913C304.295 276.864 304.272 276.808 304.26 276.75C304.233 276.634 304.252 276.513 304.314 276.412C304.376 276.311 304.475 276.238 304.59 276.21C308.15 275.39 313.9 279.01 314.14 279.21C314.191 279.24 314.235 279.281 314.27 279.329C314.305 279.377 314.329 279.432 314.342 279.49C314.355 279.548 314.357 279.608 314.346 279.666C314.335 279.724 314.313 279.78 314.28 279.83C314.235 279.886 314.177 279.932 314.111 279.961C314.045 279.991 313.972 280.004 313.9 280Z" fill="white"/>
</g>
<g opacity="0.4">
<path d="M348.63 308.89C348.511 308.875 348.402 308.815 348.325 308.722C348.249 308.629 348.211 308.51 348.22 308.39C349.79 293.03 352.67 291.56 352.99 291.44C353.046 291.418 353.105 291.408 353.165 291.409C353.225 291.411 353.284 291.425 353.338 291.45C353.392 291.476 353.441 291.512 353.481 291.556C353.521 291.601 353.551 291.653 353.57 291.71C353.607 291.819 353.602 291.938 353.556 292.044C353.51 292.15 353.425 292.234 353.32 292.28C353.23 292.33 350.59 294.01 349.12 308.48C349.107 308.599 349.049 308.708 348.958 308.784C348.866 308.861 348.749 308.899 348.63 308.89Z" fill="white"/>
</g>
<path d="M788.41 315.8H104.21V332.11H788.41V315.8Z" fill="#E1E1E2"/>
<path d="M676.46 285.55H731.72C732.172 285.551 732.619 285.651 733.03 285.841C733.44 286.032 733.804 286.31 734.097 286.655C734.39 287 734.604 287.404 734.725 287.84C734.847 288.276 734.872 288.733 734.8 289.18L718 390.79L713.27 417.89C713.27 417.89 710.63 444.2 680.11 455.51L728.26 654.68L719.84 654.95L672.25 459.2C672.25 459.2 658.04 460.78 647.52 460.78C647.52 460.78 641.52 458.93 639.1 472.35L594.37 654.42H587.53L631.47 467.62C631.47 467.62 632.79 452.62 647.47 452.62H555.7L603.84 654.68H597L546.22 458.14C546.22 458.14 522.28 455.51 518.6 466.83L474.4 653.37H466.24L510.18 467.88C510.18 467.88 510.71 455.78 524.39 452.88H508.34V435.78L680.93 435.25C680.93 435.25 689.09 432.89 689.09 441.83C689.09 441.83 707.24 436.57 709.61 390.53H690.67L675.88 362.36L676.46 285.55Z" fill="#3F4347"/>
<path d="M727.5 333.7L738.55 471.56L730.13 472.35L721.45 369.74L727.5 333.7Z" fill="#2F2E41"/>
<path opacity="0.2" d="M727.5 333.7L738.55 471.56L730.13 472.35L721.45 369.74L727.5 333.7Z" fill="black"/>
<path d="M446.51 291.07C446.51 291.07 443.73 292 444.46 298.64C444.46 298.64 447.24 297.82 448.98 297.08C448.444 294.971 447.613 292.947 446.51 291.07Z" fill="#0071F2"/>
<path opacity="0.2" d="M446.51 291.07C446.51 291.07 443.73 292 444.46 298.64C444.46 298.64 447.24 297.82 448.98 297.08C448.444 294.971 447.613 292.947 446.51 291.07Z" fill="black"/>
<path d="M612.349 180.487C608.788 169.316 596.845 163.147 585.674 166.708C574.502 170.269 568.333 182.211 571.894 193.383L578.105 212.867C581.666 224.038 593.608 230.207 604.779 226.646C615.951 223.085 622.12 211.143 618.559 199.971L612.349 180.487Z" fill="#F9B499"/>
<path d="M573.59 176.62C573.59 176.62 577.27 182.62 586.22 181.62C586.22 181.62 593.06 187.15 604.9 186.09C604.9 186.09 608.05 191.88 611.47 191.36L619 202L628.61 222.13C628.61 222.13 651.97 210.79 645.61 194.84C644.79 192.835 643.446 191.088 641.72 189.78C638.711 187.543 636.359 184.538 634.91 181.08C634.91 181.08 631.49 163.98 615.18 161.62C615.18 161.62 608.34 146.36 597.29 156.35C597.29 156.35 588.6 153.2 580.18 162.14C580.18 162.14 577.82 165.3 571.24 168.46C571.24 168.46 560.82 171.56 565.01 187.75C565.546 189.723 566.266 191.641 567.16 193.48C568.16 195.881 568.568 198.488 568.35 201.08C568.35 201.08 564.66 238.44 589.13 236.86C594.786 236.316 600.355 235.08 605.71 233.18L603.71 226.95C603.71 226.95 597.63 229.1 589.48 225.68C589.48 225.68 580.48 221.68 578.07 212.85L571.86 193.37C571.86 193.37 568.85 184.52 573.59 176.62Z" fill="#2F2E41"/>
<path d="M579.07 239.9C579.014 239.911 578.956 239.911 578.9 239.9C572.7 237.46 568.12 231.9 565.66 223.8C564.526 220.043 563.894 216.153 563.78 212.23C564.93 200.81 561.78 193.4 561.78 193.33C559.34 185.13 560.66 179.91 562.21 176.97C563.112 175.112 564.519 173.546 566.27 172.45C566.369 172.393 566.486 172.375 566.598 172.401C566.709 172.427 566.807 172.495 566.87 172.59C566.9 172.634 566.919 172.685 566.928 172.737C566.936 172.79 566.933 172.843 566.919 172.895C566.904 172.946 566.879 172.993 566.845 173.034C566.811 173.075 566.768 173.108 566.72 173.13C565.105 174.173 563.807 175.64 562.97 177.37C561.51 180.18 560.26 185.19 562.62 193.1C562.81 193.56 565.8 201.03 564.68 212.33C564.68 213.03 565.03 233.66 579.26 239.25C579.311 239.267 579.358 239.294 579.398 239.329C579.438 239.365 579.47 239.409 579.492 239.458C579.514 239.508 579.525 239.561 579.524 239.615C579.524 239.668 579.512 239.721 579.49 239.77C579.438 239.827 579.371 239.869 579.297 239.891C579.224 239.914 579.145 239.917 579.07 239.9Z" fill="#2F2E41"/>
<path d="M619.1 202.14L630.1 225.3C619.1 239.69 607.21 238.98 607.21 238.98L603.69 226.98C603.69 226.98 614.58 225.05 618.53 212.69C619.677 209.29 619.874 205.643 619.1 202.14Z" fill="#F9B499"/>
<path d="M603.74 227L606.16 235.69C606.16 235.69 622.22 228.98 618.03 214.27C616.78 217.343 614.842 220.089 612.365 222.296C609.888 224.503 606.937 226.112 603.74 227Z" fill="#F7A48B"/>
<path d="M605.9 234.69L601 237.4C601 237.4 606.53 281.34 621 316.33C621 316.33 625.73 243.45 637.31 225.56C634.893 224.66 632.329 224.216 629.75 224.25L630.2 225.3C630.2 225.3 621.79 238.19 607.31 238.98L605.9 234.69Z" fill="#E6E6E6"/>
<path d="M602.59 246.91L605.93 248.91C606.105 249.017 606.3 249.088 606.502 249.119C606.705 249.151 606.912 249.141 607.111 249.092C607.31 249.043 607.497 248.954 607.662 248.832C607.826 248.71 607.965 248.556 608.07 248.38L613.58 239.2L620.74 244.8C621.102 245.08 621.547 245.232 622.005 245.232C622.463 245.232 622.908 245.08 623.27 244.8L632.27 237.95" stroke="#CCCCCC" stroke-linecap="round" stroke-linejoin="round"/>
<path d="M692.77 382.11C692.77 382.11 702.77 400.26 691.77 414.73C691.77 414.73 697.03 388.68 674.67 381.58C664.844 377.633 654.192 376.187 643.67 377.37L615.26 378.42C615.26 378.42 613.15 379.21 613.42 376.84C613.42 376.84 621.31 376.84 618.15 358.43C618.15 358.43 616.84 342.12 599.73 343.96L598.73 336.33L585.68 317.18C583.544 314.025 582.175 310.416 581.68 306.64L581.12 302.39L541.92 316.07L451.41 315.8V315.67C451.41 314.44 451.1 304.83 449 297.08C448.471 294.993 447.692 292.979 446.68 291.08L512 284.5L601 237.4C601 237.4 606.26 279.76 621 316.33C621 316.33 625.47 245.56 637.31 225.56C637.31 225.56 662.83 232.66 667.57 237.4C667.57 237.4 682.3 251.34 689.67 281.34L700.45 326.85C700.45 326.85 705.45 350.53 684.93 359.22C684.88 359.22 684.35 367.9 692.77 382.11Z" fill="#0071F2"/>
<g opacity="0.2">
<path d="M609.63 343C609.602 342.999 609.575 342.988 609.553 342.97C609.532 342.952 609.516 342.928 609.51 342.9C609.504 342.884 609.501 342.868 609.502 342.851C609.502 342.834 609.507 342.817 609.514 342.802C609.522 342.787 609.532 342.774 609.545 342.763C609.558 342.752 609.574 342.745 609.59 342.74L673.53 322.74C673.563 322.731 673.599 322.735 673.629 322.752C673.659 322.769 673.681 322.797 673.69 322.83C673.696 322.846 673.699 322.863 673.698 322.88C673.698 322.896 673.693 322.913 673.686 322.928C673.678 322.943 673.668 322.956 673.654 322.967C673.641 322.978 673.626 322.986 673.61 322.99L609.67 342.99L609.63 343Z" fill="black"/>
</g>
<g opacity="0.2">
<path d="M659.08 327.42C659.046 327.42 659.012 327.407 658.988 327.382C658.964 327.358 658.95 327.325 658.95 327.29L657.65 276.87C657.65 276.835 657.663 276.801 657.687 276.775C657.712 276.749 657.745 276.733 657.78 276.73C657.815 276.73 657.848 276.744 657.872 276.769C657.896 276.793 657.91 276.826 657.91 276.86L659.21 327.28C659.211 327.298 659.209 327.316 659.203 327.333C659.197 327.35 659.188 327.366 659.176 327.379C659.163 327.392 659.149 327.403 659.132 327.41C659.116 327.417 659.098 327.421 659.08 327.42Z" fill="black"/>
</g>
<g opacity="0.2">
<path d="M652.26 259.37C652.225 259.368 652.192 259.352 652.167 259.326C652.143 259.3 652.13 259.266 652.13 259.23C652.13 259.06 653.47 242.92 661.47 233.84C661.481 233.827 661.495 233.816 661.51 233.808C661.525 233.801 661.542 233.796 661.559 233.794C661.577 233.793 661.594 233.795 661.61 233.8C661.627 233.806 661.642 233.814 661.655 233.825C661.668 233.836 661.679 233.85 661.687 233.865C661.695 233.881 661.699 233.897 661.701 233.915C661.702 233.932 661.7 233.949 661.695 233.965C661.69 233.982 661.681 233.997 661.67 234.01C653.73 243.01 652.41 259.09 652.4 259.25C652.395 259.284 652.378 259.314 652.353 259.336C652.327 259.359 652.294 259.371 652.26 259.37Z" fill="black"/>
</g>
<g opacity="0.2">
<path d="M639.26 252.29L646.35 246.84C647.121 246.249 647.688 245.432 647.973 244.504C648.258 243.575 648.246 242.581 647.94 241.66L643.19 227.34C643.184 227.323 643.176 227.308 643.164 227.295C643.152 227.281 643.138 227.271 643.122 227.263C643.106 227.256 643.089 227.252 643.071 227.251C643.054 227.25 643.036 227.253 643.02 227.26C642.99 227.273 642.966 227.296 642.951 227.325C642.936 227.354 642.933 227.388 642.94 227.42L647.69 241.74C647.978 242.61 647.988 243.548 647.719 244.424C647.45 245.3 646.916 246.071 646.19 246.63L639.08 252.09C639.058 252.07 639.03 252.059 639 252.059C638.97 252.059 638.942 252.07 638.92 252.09C638.903 252.111 638.894 252.137 638.894 252.165C638.894 252.192 638.903 252.218 638.92 252.24L634 256C633.987 256.011 633.977 256.025 633.97 256.04C633.963 256.056 633.959 256.073 633.959 256.09C633.959 256.107 633.963 256.124 633.97 256.139C633.977 256.155 633.987 256.168 634 256.18C634.016 256.187 634.033 256.191 634.05 256.191C634.067 256.191 634.084 256.187 634.1 256.18C634.126 256.19 634.154 256.19 634.18 256.18L639.05 252.45L646.37 261.45C646.37 261.5 649.68 265.71 645.03 275.26C644.89 275.55 630.52 305.04 627.92 330.56C627.919 330.577 627.921 330.594 627.926 330.61C627.931 330.627 627.94 330.642 627.951 330.655C627.962 330.668 627.976 330.678 627.991 330.686C628.006 330.694 628.023 330.698 628.04 330.7C628.073 330.7 628.104 330.687 628.129 330.665C628.153 330.643 628.167 330.612 628.17 330.58C630.77 305.12 645.17 275.67 645.26 275.37C649.98 265.68 646.7 261.46 646.56 261.29L639.26 252.29Z" fill="black"/>
<path d="M592.31 282.81C591.856 282.193 591.568 281.47 591.473 280.71C591.378 279.95 591.481 279.179 591.77 278.47L597 264L601.38 266.2H601.44C601.463 266.198 601.485 266.191 601.504 266.178C601.523 266.166 601.539 266.149 601.55 266.13C601.559 266.115 601.565 266.098 601.567 266.081C601.569 266.063 601.568 266.046 601.563 266.029C601.558 266.012 601.55 265.997 601.54 265.983C601.529 265.969 601.515 265.958 601.5 265.95L597.09 263.75C597.1 263.718 597.097 263.684 597.082 263.654C597.067 263.624 597.041 263.601 597.01 263.59C596.997 263.583 596.983 263.579 596.968 263.578C596.953 263.576 596.938 263.578 596.924 263.583C596.91 263.588 596.897 263.595 596.886 263.605C596.875 263.615 596.866 263.626 596.86 263.64L591.69 261.06C591.199 260.815 590.798 260.421 590.547 259.934C590.295 259.446 590.205 258.892 590.29 258.35L592.87 241.35C592.873 241.314 592.862 241.279 592.84 241.251C592.817 241.223 592.785 241.205 592.75 241.2C592.717 241.197 592.684 241.207 592.658 241.227C592.632 241.247 592.615 241.277 592.61 241.31L590.03 258.31C589.931 258.909 590.027 259.524 590.304 260.064C590.582 260.604 591.025 261.041 591.57 261.31L596.76 263.91L591.48 278.4C591.179 279.151 591.073 279.965 591.173 280.768C591.273 281.571 591.574 282.335 592.05 282.99L618 318.51C618.009 318.528 618.024 318.543 618.041 318.554C618.059 318.565 618.079 318.57 618.1 318.57C618.126 318.58 618.154 318.58 618.18 318.57C618.203 318.546 618.216 318.513 618.216 318.48C618.216 318.446 618.203 318.414 618.18 318.39L592.31 282.81Z" fill="black"/>
</g>
<g opacity="0.2">
<path d="M598.58 336.46C598.558 336.459 598.537 336.453 598.518 336.443C598.499 336.432 598.482 336.417 598.47 336.4L585.47 317.25C581.13 311.03 580.86 302.48 580.86 302.39L585.34 278.45C585.342 278.432 585.348 278.416 585.357 278.401C585.366 278.386 585.378 278.373 585.392 278.363C585.406 278.353 585.422 278.345 585.439 278.341C585.455 278.337 585.473 278.337 585.49 278.34C585.524 278.349 585.554 278.37 585.574 278.399C585.595 278.429 585.604 278.464 585.6 278.5L581.13 302.43C581.13 302.81 581.47 311.09 585.68 317.13L598.73 336.28C598.754 336.306 598.767 336.339 598.767 336.375C598.767 336.41 598.754 336.444 598.73 336.47L598.58 336.46Z" fill="black"/>
</g>
<g opacity="0.2">
<path d="M580.43 271.47C580.401 271.469 580.372 271.459 580.349 271.441C580.325 271.423 580.308 271.399 580.3 271.37C578.49 264.11 570.87 253.28 570.79 253.17C570.779 253.156 570.77 253.141 570.765 253.124C570.76 253.107 570.759 253.089 570.761 253.071C570.762 253.054 570.768 253.036 570.776 253.021C570.785 253.005 570.796 252.991 570.81 252.98C570.824 252.969 570.84 252.961 570.857 252.956C570.874 252.951 570.891 252.949 570.909 252.951C570.927 252.953 570.944 252.958 570.959 252.967C570.975 252.975 570.989 252.986 571 253C571.07 253.1 578.72 264 580.55 271.29C580.556 271.325 580.55 271.36 580.531 271.39C580.513 271.419 580.484 271.441 580.45 271.45L580.43 271.47Z" fill="black"/>
</g>
<path opacity="0.2" d="M618.58 375.27C618.58 375.27 674.58 363.69 684.88 359.27C684.88 359.27 684.32 365.99 689.88 376.84C689.88 376.84 676.22 371.37 650.17 374L618.58 375.27Z" fill="black"/>
<g opacity="0.2">
<path d="M515.18 288.84C515.162 288.84 515.144 288.836 515.128 288.829C515.111 288.822 515.097 288.812 515.084 288.799C515.072 288.785 515.063 288.77 515.057 288.753C515.051 288.736 515.049 288.718 515.05 288.7C515.07 288.211 514.979 287.724 514.783 287.275C514.587 286.826 514.292 286.428 513.92 286.11C511.65 284.19 506.74 284.99 506.69 285C506.673 285.003 506.655 285.002 506.639 284.998C506.622 284.994 506.606 284.987 506.592 284.977C506.578 284.966 506.566 284.953 506.557 284.939C506.548 284.924 506.542 284.907 506.54 284.89C506.536 284.874 506.535 284.856 506.537 284.84C506.54 284.823 506.547 284.807 506.556 284.792C506.565 284.778 506.578 284.766 506.592 284.757C506.607 284.748 506.623 284.742 506.64 284.74C506.85 284.74 511.73 283.91 514.09 285.91C514.491 286.253 514.809 286.682 515.02 287.165C515.232 287.648 515.331 288.173 515.31 288.7C515.311 288.718 515.309 288.736 515.303 288.753C515.297 288.77 515.288 288.785 515.276 288.799C515.263 288.812 515.249 288.822 515.232 288.829C515.216 288.836 515.198 288.84 515.18 288.84Z" fill="black"/>
</g>
<path d="M691.72 414.73C690.93 431.83 680.93 435.25 680.93 435.25C640.93 435.78 611.74 438.94 611.74 438.94L608.58 531.29L576.22 536L569 563.84C568.883 564.299 568.666 564.726 568.365 565.091C568.064 565.456 567.686 565.75 567.258 565.953C566.83 566.155 566.363 566.261 565.89 566.262C565.417 566.263 564.949 566.16 564.52 565.96L562.85 565.19L536.1 552.73C534.926 552.168 533.716 551.68 532.48 551.27C531.496 550.942 530.494 550.669 529.48 550.45C523.66 549.342 518.142 547.01 513.29 543.61C512.732 543.194 512.302 542.629 512.05 541.98C511.797 541.331 511.731 540.625 511.86 539.94L529.36 446.04C537.25 397.1 552.77 400.04 552.77 400.04C548.56 349.26 576.42 348.4 576.42 348.4L606.71 356.4L613.29 376.92C613.02 379.56 615.13 378.5 615.13 378.5L643.54 377.45C663.28 375.61 674.54 381.66 674.54 381.66C697.51 389.47 691.72 414.73 691.72 414.73Z" fill="#2F2E41"/>
<path d="M559.36 589.25C560.224 592.314 560.76 595.462 560.96 598.64L559.37 600C557.5 591.18 551.09 590.37 551.09 590.37C544 588.6 540.64 592.04 539.17 594.82C538.753 595.731 538.418 596.678 538.17 597.65C538.142 597.812 538.122 597.975 538.11 598.14C533.9 608.14 531.27 597.349 531.27 597.349V597L532.54 551.27C533.776 551.679 534.985 552.167 536.16 552.729L562.91 565.19C561 569.54 559.6 577.53 558.91 582.32C558.559 584.635 558.712 586.999 559.36 589.25Z" fill="#F9B499"/>
<path d="M561 598.64L559.16 600.22C557.31 591.28 550.47 591.01 550.47 591.01C543.65 589.95 540.59 592.47 539.21 594.8C540.68 592.02 544.04 588.58 551.13 590.35C551.13 590.35 557.54 591.16 559.41 599.98L561 598.64Z" fill="#F9B499"/>
<path d="M566.73 634.7C566.46 646.12 552.27 646.38 552.27 646.38C538.69 647.9 530.32 645.22 526.84 643.69C526.28 643.451 525.807 643.048 525.481 642.533C525.156 642.019 524.996 641.418 525.02 640.81C525.463 634.367 526.521 627.981 528.18 621.74C529.667 613.562 530.646 605.299 531.11 597C531.11 597 531.21 596.89 531.24 597C531.231 597.226 531.258 597.452 531.32 597.67C531.81 599.39 534.19 606.67 537.79 598.76C537.947 598.401 538.061 598.025 538.13 597.64C538.13 597.48 538.22 597.32 538.26 597.17C538.469 596.35 538.774 595.558 539.17 594.81C540.64 592.03 544 588.59 551.09 590.36C551.09 590.36 557.5 591.17 559.37 599.99L560.96 598.65C564.2 609 566.73 634.7 566.73 634.7Z" fill="#0071F2"/>
<path d="M567 644.32C566.168 646.279 564.911 648.028 563.32 649.441C561.729 650.854 559.843 651.896 557.8 652.49C543.64 656.88 528.71 651.56 528.71 651.56C521.71 647.93 525.01 640.81 525.01 640.81C524.986 641.418 525.147 642.019 525.472 642.534C525.797 643.048 526.27 643.451 526.83 643.69C530.31 645.22 538.68 647.9 552.26 646.38C552.26 646.38 566.45 646.12 566.72 634.7C567.438 636.195 567.834 637.823 567.883 639.48C567.931 641.138 567.63 642.787 567 644.32Z" fill="#E6E6E6"/>
<path d="M754.08 521.82C754.08 521.82 749.6 531.82 699.08 540.5L669.35 546.28H669.2C668.14 546.12 661.59 544.19 660.14 520.51C660.14 520.51 660.14 492.59 661.67 481.6C661.747 481.054 661.991 480.544 662.369 480.141C662.747 479.739 663.239 479.462 663.78 479.35L728.78 465.78C728.78 465.78 737.2 462.63 742.46 479.47L754.08 521.82Z" fill="#0071F2"/>
<path opacity="0.2" d="M663.31 485.77C663.31 485.77 665.97 512.46 669.45 524.53C669.939 526.237 670.985 527.731 672.423 528.773C673.86 529.815 675.606 530.346 677.38 530.28C684.32 530.03 698.47 528.57 720.93 522.08L737.5 517.87C737.5 517.87 746.71 514.97 746.18 508.13L746.97 498.4C746.97 498.4 749.5 507.73 748.43 514.13C748.222 515.374 747.692 516.542 746.891 517.518C746.091 518.493 745.05 519.242 743.87 519.69C736.36 522.57 712.42 530.69 672.78 535.23C672.78 535.23 665.41 537.6 663.57 521.82C663.57 521.82 662 493.14 663.31 485.77Z" fill="black"/>
<path d="M222.34 198.2L221.82 200.04C221.82 200.04 238.39 210.56 255.76 232.66L271.28 251.87C271.28 251.87 268.01 231.16 267.28 226.78L259.44 200.83C256.751 199.023 253.886 197.492 250.89 196.26L229.45 196.88L222.34 198.2Z" fill="#E6E6E6"/>
<path d="M271.28 251.87L267.28 226.78L259.44 200.83C278.65 205.04 280.49 221.61 280.49 221.61C283.38 235.82 287.59 243.71 287.59 243.71C291.9 251.98 289.96 262.71 288.29 268.71C286.544 274.918 285.838 281.372 286.2 287.81C287.11 303.25 293.38 307.7 293.38 307.7L244.44 308.49L213.44 275.86C232.94 266.11 230.31 247.63 227.88 239.2C227.03 236.28 225.24 233.02 224.41 230.1C219.7 213.6 210.28 206.1 210.28 206.1L221.82 200C231.122 206.528 239.659 214.082 247.27 222.52C247.27 222.52 253.58 229.46 266.64 246.04L271.28 251.87Z" fill="#0071F2"/>
<path d="M210.24 206.09C210.24 206.09 201.03 202.93 191.3 227.09C191.3 227.09 177.3 265.76 177.61 300.23C177.61 300.23 174.72 320.75 192.09 316.81C192.09 316.81 244.18 312.07 250.76 303.13L257.07 301.02C257.07 301.02 252.86 295.5 255.23 278.13C255.23 278.13 255.49 271.29 258.65 269.45C258.65 269.45 252.65 267.61 246.02 273.39C246.02 273.39 231.81 271.55 213.4 275.76C213.4 275.76 236.21 266.88 227.69 238.76C226.93 236.25 226.21 233.76 225.61 231.16C224.21 225.27 220.25 213.21 210.24 206.09Z" fill="#0071F2"/>
<path opacity="0.4" d="M255.23 278.18C254.608 282.403 254.393 286.676 254.59 290.94C255.04 298.4 257.07 301.07 257.07 301.07L250.76 303.18C244.18 312.12 192.08 316.85 192.08 316.85C174.72 320.8 177.62 300.28 177.62 300.28C177.36 265.81 191.3 227.14 191.3 227.14C201.03 202.93 210.24 206.14 210.24 206.14C220.24 213.26 224.24 225.33 225.61 231.27C226.21 233.84 226.93 236.36 227.7 238.88C236.21 266.98 213.39 275.88 213.39 275.88C231.82 271.67 246.02 273.52 246.02 273.52C252.6 267.72 258.65 269.57 258.65 269.57C255.49 271.34 255.23 278.18 255.23 278.18Z" fill="white"/>
<path d="M257.07 301.07C257.07 301.07 260.49 301.07 260.49 290.28L254.72 291.02C254.629 294.516 255.439 297.977 257.07 301.07Z" fill="#0071F2"/>
<path opacity="0.5" d="M257.07 301.07C257.07 301.07 260.49 301.07 260.49 290.28L254.72 291.02C254.629 294.516 255.439 297.977 257.07 301.07Z" fill="white"/>
<g opacity="0.4">
<path d="M245.76 294.15C245.654 294.154 245.55 294.118 245.469 294.049C245.388 293.981 245.335 293.885 245.32 293.78C243.22 281.45 245.49 273.64 245.59 273.32C245.625 273.206 245.703 273.11 245.807 273.052C245.912 272.994 246.035 272.979 246.15 273.01C246.264 273.045 246.359 273.123 246.416 273.228C246.472 273.333 246.484 273.456 246.45 273.57C246.45 273.65 244.14 281.52 246.2 293.63C246.21 293.689 246.208 293.748 246.195 293.806C246.182 293.864 246.157 293.919 246.123 293.967C246.089 294.015 246.045 294.056 245.995 294.088C245.944 294.119 245.888 294.14 245.83 294.15H245.76Z" fill="white"/>
</g>
<path d="M289.57 265.12C289.57 265.12 297.57 263.71 298.12 267.12C298.12 267.12 298.45 270.26 295.92 271.32C295.92 271.33 294.44 268.1 289.57 265.12Z" fill="#F7A48B"/>
<path d="M266.128 249.002C266.563 248.502 267.179 248.196 267.841 248.15C268.502 248.104 269.155 248.323 269.655 248.759L303.342 278.094L300.059 281.865L266.371 252.529C265.871 252.094 265.565 251.478 265.519 250.816C265.473 250.155 265.692 249.502 266.128 249.002Z" fill="#2F2E41"/>
<path d="M305.22 283.44L303.34 278.1L300.06 281.87L305.22 283.44Z" fill="#2F2E41"/>
<path d="M451.24 315.67L410.24 315.54C409.852 315.394 409.501 315.165 409.211 314.87C408.92 314.574 408.698 314.219 408.559 313.829C408.42 313.438 408.368 313.023 408.406 312.61C408.444 312.197 408.572 311.798 408.78 311.44C401.71 307.17 404.91 302.2 404.91 302.2C401 297.95 406.28 295.37 406.28 295.37C418.97 289.16 419.72 293.64 419.72 293.64C426.58 290.8 436.27 296.64 436.27 296.64C441.8 300.26 447.71 297.64 448.79 297.05C450.93 304.83 451.21 314.44 451.24 315.67Z" fill="#F9B499"/>
<path d="M397.48 271.39L417.3 311.07L420.72 310.02L401 269.61C400.773 269.155 400.381 268.803 399.903 268.626C399.426 268.45 398.899 268.462 398.43 268.66C398.184 268.772 397.964 268.933 397.782 269.133C397.6 269.333 397.46 269.567 397.372 269.822C397.283 270.077 397.247 270.348 397.265 270.617C397.284 270.887 397.357 271.15 397.48 271.39Z" fill="#0071F2"/>
<g opacity="0.4">
<path d="M213.4 276.26C213.294 276.264 213.191 276.228 213.11 276.16C213.018 276.083 212.961 275.972 212.95 275.853C212.938 275.733 212.974 275.614 213.05 275.52C219.68 267.62 214.32 236.21 214.27 235.9C214.26 235.842 214.262 235.782 214.275 235.724C214.288 235.666 214.312 235.612 214.347 235.563C214.381 235.515 214.425 235.474 214.475 235.443C214.525 235.411 214.581 235.39 214.64 235.38C214.756 235.362 214.875 235.39 214.972 235.457C215.068 235.524 215.136 235.625 215.16 235.74C215.38 237.05 220.64 267.88 213.74 276.1C213.699 276.151 213.647 276.192 213.588 276.219C213.529 276.247 213.465 276.261 213.4 276.26Z" fill="white"/>
</g>
<g opacity="0.4">
<path d="M199.19 282.31C199.097 282.313 199.006 282.284 198.93 282.23C198.854 282.176 198.798 282.099 198.77 282.01C198.748 281.955 198.738 281.896 198.739 281.837C198.741 281.778 198.755 281.72 198.781 281.666C198.806 281.613 198.842 281.565 198.887 281.526C198.931 281.487 198.983 281.458 199.04 281.44L213.42 276.33C213.533 276.291 213.657 276.297 213.764 276.349C213.872 276.4 213.955 276.493 213.995 276.605C214.035 276.718 214.028 276.842 213.977 276.95C213.925 277.058 213.833 277.141 213.72 277.18L199.34 282.29C199.292 282.307 199.241 282.314 199.19 282.31Z" fill="white"/>
</g>
<path d="M617.92 202.4C621.482 202.4 624.37 198.456 624.37 193.59C624.37 188.725 621.482 184.78 617.92 184.78C614.358 184.78 611.47 188.725 611.47 193.59C611.47 198.456 614.358 202.4 617.92 202.4Z" fill="#F9B499"/>
<path d="M599.63 344C599.63 344 574.63 341.37 575.96 350.05C575.96 350.05 559.91 355.84 562.54 364.52C562.54 364.52 557.01 368.99 559.38 372.68C559.38 372.68 560.38 375.57 567.54 372.15L583.32 365.57L567.54 375C567.54 375 564.38 378.16 568.33 380C568.33 380 571.48 381.58 578.33 376.84C578.33 376.84 588.07 370.53 593.07 371.58C593.07 371.58 594.38 373.42 590.17 375.27C590.17 375.27 579.17 380.27 582.02 383.95C582.02 383.95 584.38 386.58 592.54 381.58L607.54 370.27L618.83 366.41C618.83 366.41 618.83 352.18 613.44 348.33C613.43 348.33 608.84 342.38 599.63 344Z" fill="#F9B499"/>
<path d="M601.48 370.4C601.463 370.397 601.446 370.392 601.431 370.383C601.417 370.374 601.404 370.362 601.393 370.348C601.383 370.334 601.376 370.318 601.372 370.301C601.368 370.285 601.367 370.267 601.37 370.25C601.87 364.91 596.69 363.61 596.47 363.55C596.442 363.545 596.416 363.53 596.398 363.508C596.379 363.486 596.37 363.459 596.37 363.43C596.37 358.37 593.21 358.3 593.08 358.3C593.06 358.3 593.041 358.296 593.024 358.287C593.006 358.279 592.991 358.266 592.98 358.25C592.97 358.235 592.965 358.218 592.965 358.2C592.965 358.182 592.97 358.165 592.98 358.15C593.09 357.455 593.055 356.745 592.879 356.064C592.702 355.383 592.388 354.745 591.954 354.191C591.521 353.637 590.978 353.177 590.36 352.842C589.742 352.506 589.061 352.301 588.36 352.24C588.343 352.239 588.326 352.234 588.311 352.226C588.296 352.219 588.282 352.208 588.271 352.195C588.26 352.182 588.251 352.167 588.246 352.151C588.241 352.134 588.239 352.117 588.24 352.1C588.49 348.57 583.13 346.99 583.07 346.98C583.036 346.968 583.008 346.944 582.991 346.913C582.974 346.881 582.97 346.844 582.98 346.81C582.991 346.776 583.015 346.748 583.047 346.731C583.079 346.714 583.116 346.71 583.15 346.72C583.37 346.79 588.65 348.34 588.51 352C589.216 352.081 589.899 352.3 590.52 352.646C591.141 352.991 591.688 353.456 592.128 354.014C592.569 354.572 592.895 355.211 593.087 355.895C593.28 356.579 593.335 357.294 593.25 358C593.91 358.08 596.62 358.67 596.66 363.29C597.41 363.5 602.15 365.08 601.66 370.24C601.665 370.264 601.663 370.288 601.655 370.311C601.647 370.334 601.634 370.355 601.615 370.371C601.597 370.387 601.575 370.398 601.552 370.404C601.528 370.409 601.503 370.407 601.48 370.4Z" fill="#F7A48B"/>
<path d="M562.54 364.61C562.515 364.613 562.49 364.607 562.469 364.595C562.447 364.582 562.43 364.563 562.42 364.54C562.406 364.508 562.404 364.472 562.415 364.439C562.426 364.405 562.449 364.377 562.48 364.36L579.31 355.42C579.341 355.403 579.377 355.399 579.41 355.408C579.444 355.418 579.473 355.44 579.49 355.47C579.507 355.501 579.512 355.537 579.502 355.571C579.493 355.605 579.471 355.633 579.44 355.65L562.6 364.65L562.54 364.61Z" fill="#F7A48B"/>
<path d="M613.45 377C609.13 377.58 607.53 370.29 607.53 370.29L618.82 366.43C618.82 366.43 619.24 376.19 613.45 377Z" fill="#0071F2"/>
<path opacity="0.2" d="M613.45 377C609.13 377.58 607.53 370.29 607.53 370.29L618.82 366.43C618.82 366.43 619.24 376.19 613.45 377Z" fill="black"/>
<path d="M419.67 293.7C419.67 293.7 410.2 298.18 415.2 301.6C415.2 301.6 417.3 303.44 425.72 299.23" fill="#F9B499"/>
<path d="M417 302.13C416.34 302.2 415.675 302.048 415.11 301.7C414.655 301.459 414.275 301.097 414.012 300.654C413.749 300.212 413.613 299.705 413.62 299.19C413.84 296.34 419.38 293.7 419.62 293.58C419.653 293.566 419.69 293.566 419.724 293.579C419.757 293.592 419.785 293.617 419.8 293.65C419.814 293.68 419.815 293.715 419.804 293.747C419.793 293.779 419.77 293.805 419.74 293.82C419.68 293.82 414.1 296.51 413.89 299.21C413.891 299.681 414.02 300.143 414.266 300.545C414.511 300.947 414.862 301.274 415.28 301.49C415.28 301.49 417.48 303.21 425.67 299.11C425.686 299.101 425.703 299.096 425.721 299.095C425.738 299.093 425.756 299.095 425.773 299.101C425.79 299.106 425.805 299.116 425.819 299.127C425.832 299.139 425.843 299.154 425.85 299.17C425.858 299.186 425.864 299.203 425.865 299.22C425.867 299.238 425.865 299.256 425.859 299.273C425.853 299.29 425.844 299.305 425.832 299.319C425.821 299.332 425.806 299.342 425.79 299.35C421.28 301.6 418.56 302.13 417 302.13Z" fill="#F7A48B"/>
<path d="M414.67 306.86C414.67 306.86 420.2 309.23 417.83 312.38C417.83 312.38 415.46 314.49 408.88 311.59" fill="#F9B499"/>
<path d="M415 313.26C412.873 313.173 410.786 312.649 408.87 311.72C408.837 311.704 408.812 311.677 408.799 311.644C408.786 311.61 408.786 311.573 408.8 311.54C408.818 311.51 408.846 311.487 408.878 311.474C408.911 311.462 408.946 311.46 408.98 311.47C415.18 314.2 417.61 312.42 417.77 312.29C418 312.017 418.164 311.694 418.247 311.346C418.33 310.999 418.331 310.637 418.25 310.29C417.74 308.36 414.69 307.03 414.66 307.02C414.644 307.013 414.63 307.003 414.618 306.991C414.606 306.979 414.596 306.965 414.59 306.949C414.583 306.933 414.58 306.916 414.58 306.899C414.58 306.882 414.583 306.865 414.59 306.85C414.597 306.834 414.606 306.819 414.618 306.807C414.63 306.795 414.645 306.786 414.66 306.779C414.676 306.773 414.693 306.769 414.71 306.77C414.727 306.77 414.744 306.773 414.76 306.78C414.89 306.83 417.96 308.17 418.51 310.22C418.605 310.615 418.606 311.028 418.513 311.424C418.419 311.82 418.233 312.189 417.97 312.5C417.097 313.087 416.048 313.355 415 313.26Z" fill="#F7A48B"/>
<path d="M426.55 315.86C426.589 315.4 426.508 314.937 426.315 314.518C426.122 314.098 425.824 313.735 425.45 313.465C425.075 313.194 424.638 313.025 424.179 312.973C423.72 312.921 423.255 312.989 422.83 313.17C422.83 313.17 424.16 309.33 418.09 309.49C418.269 309.694 418.405 309.932 418.49 310.19C418.574 310.448 418.605 310.721 418.581 310.991C418.557 311.261 418.477 311.524 418.348 311.763C418.219 312.002 418.043 312.212 417.83 312.38" fill="#F9B499"/>
<path d="M426.55 316C426.516 316 426.482 315.986 426.458 315.961C426.434 315.937 426.42 315.904 426.42 315.87C426.439 315.42 426.352 314.972 426.166 314.562C425.981 314.152 425.701 313.791 425.35 313.51C424.972 313.309 424.557 313.188 424.131 313.153C423.704 313.119 423.275 313.172 422.87 313.31C422.85 313.32 422.828 313.326 422.805 313.326C422.782 313.326 422.76 313.32 422.74 313.31C422.729 313.288 422.723 313.264 422.723 313.24C422.723 313.215 422.729 313.191 422.74 313.17C422.855 312.805 422.887 312.418 422.834 312.039C422.78 311.66 422.642 311.298 422.43 310.98C421.77 310.09 420.43 309.64 418.38 309.66C418.699 310.099 418.833 310.646 418.752 311.183C418.672 311.719 418.384 312.203 417.95 312.53C417.922 312.542 417.89 312.545 417.861 312.537C417.831 312.53 417.804 312.513 417.785 312.489C417.765 312.466 417.754 312.436 417.754 312.405C417.753 312.375 417.762 312.344 417.78 312.32C417.981 312.163 418.147 311.966 418.269 311.742C418.391 311.519 418.466 311.272 418.49 311.018C418.513 310.765 418.485 310.509 418.405 310.267C418.326 310.024 418.199 309.801 418.03 309.61C418.018 309.59 418.011 309.568 418.011 309.545C418.011 309.521 418.018 309.499 418.03 309.48C418.04 309.456 418.057 309.436 418.078 309.421C418.099 309.407 418.124 309.4 418.15 309.4C420.41 309.34 421.93 309.82 422.67 310.83C422.869 311.15 423.001 311.508 423.058 311.881C423.115 312.254 423.095 312.634 423 313C423.412 312.88 423.844 312.845 424.271 312.897C424.697 312.948 425.108 313.085 425.48 313.3C425.865 313.605 426.173 313.997 426.378 314.443C426.583 314.89 426.68 315.378 426.66 315.87C426.66 315.903 426.648 315.936 426.626 315.962C426.604 315.988 426.574 316.005 426.54 316.01L426.55 316Z" fill="#F7A48B"/>
<path d="M422.2 300.9C422.2 300.9 425.72 300.54 428.35 307.12Z" fill="#F9B499"/>
<path d="M428.35 307.25C428.324 307.25 428.299 307.243 428.278 307.229C428.257 307.214 428.24 307.194 428.23 307.17C425.67 300.78 422.23 301.03 422.23 301.03C422.196 301.03 422.162 301.017 422.138 300.992C422.114 300.968 422.1 300.935 422.1 300.9C422.1 300.866 422.114 300.833 422.138 300.809C422.162 300.784 422.196 300.77 422.23 300.77C422.38 300.77 425.88 300.48 428.52 307.07C428.526 307.087 428.529 307.104 428.529 307.122C428.528 307.139 428.524 307.157 428.516 307.173C428.509 307.188 428.498 307.203 428.485 307.214C428.472 307.226 428.457 307.235 428.44 307.24L428.35 307.25Z" fill="#F7A48B"/>
<path d="M409.94 297.91C409.94 297.91 416.25 301.33 415.99 303.91C416.011 304.384 415.994 304.859 415.94 305.33C415.908 305.673 415.788 306.001 415.591 306.283C415.395 306.566 415.129 306.793 414.82 306.943C414.51 307.093 414.167 307.16 413.824 307.139C413.481 307.117 413.149 307.007 412.86 306.82L406.78 303.13" fill="#F9B499"/>
<path d="M413.92 307.3C413.524 307.299 413.137 307.188 412.8 306.98L406.71 303.29C406.679 303.272 406.658 303.242 406.649 303.207C406.641 303.172 406.646 303.136 406.665 303.105C406.684 303.075 406.713 303.053 406.748 303.044C406.783 303.036 406.82 303.042 406.85 303.06L412.93 306.76C413.203 306.924 413.512 307.017 413.83 307.032C414.147 307.046 414.464 306.98 414.75 306.841C415.036 306.702 415.283 306.494 415.468 306.235C415.653 305.977 415.771 305.676 415.81 305.36C415.864 304.899 415.881 304.434 415.86 303.97C416.11 301.44 409.94 298.06 409.86 298.03C409.831 298.012 409.81 297.983 409.801 297.95C409.791 297.916 409.795 297.881 409.81 297.85C409.818 297.835 409.83 297.821 409.843 297.81C409.857 297.8 409.873 297.792 409.889 297.787C409.906 297.782 409.924 297.781 409.941 297.783C409.958 297.786 409.975 297.791 409.99 297.8C410.25 297.94 416.38 301.29 416.11 303.98C416.131 304.451 416.114 304.922 416.06 305.39C415.997 305.916 415.743 306.401 415.347 306.752C414.951 307.104 414.44 307.299 413.91 307.3H413.92Z" fill="#F7A48B"/>
<g opacity="0.2">
<path d="M611.74 439.07C611.723 439.072 611.705 439.069 611.689 439.063C611.672 439.057 611.657 439.048 611.645 439.035C611.632 439.023 611.623 439.008 611.617 438.992C611.611 438.975 611.609 438.957 611.61 438.94L612.4 383.42C612.4 383.386 612.414 383.352 612.438 383.328C612.463 383.304 612.496 383.29 612.53 383.29C612.565 383.29 612.598 383.304 612.622 383.328C612.646 383.352 612.66 383.386 612.66 383.42L611.87 438.94C611.87 438.975 611.856 439.008 611.832 439.032C611.808 439.056 611.775 439.07 611.74 439.07Z" fill="black"/>
</g>
<g opacity="0.2">
<path d="M612.28 390.56C612.253 390.558 612.226 390.548 612.205 390.53C612.184 390.513 612.169 390.489 612.163 390.462C612.156 390.435 612.158 390.407 612.168 390.382C612.179 390.356 612.197 390.335 612.22 390.32C620.32 385.53 640.72 382.79 640.92 382.77C640.937 382.767 640.955 382.768 640.971 382.772C640.988 382.776 641.004 382.783 641.018 382.794C641.032 382.804 641.044 382.817 641.053 382.832C641.062 382.847 641.068 382.863 641.07 382.88C641.073 382.897 641.072 382.915 641.068 382.932C641.064 382.949 641.057 382.964 641.047 382.978C641.036 382.992 641.023 383.004 641.009 383.013C640.994 383.022 640.977 383.028 640.96 383.03C640.75 383.03 620.41 385.78 612.35 390.55L612.28 390.56Z" fill="black"/>
</g>
<g opacity="0.2">
<path d="M544.38 511.42C544.362 511.417 544.344 511.411 544.329 511.402C544.313 511.392 544.299 511.379 544.289 511.364C544.279 511.349 544.272 511.332 544.268 511.314C544.265 511.296 544.266 511.277 544.27 511.26C544.35 510.91 551.64 475.59 551.9 438.15C551.9 437.89 550.09 411.15 552.69 399.97C552.698 399.935 552.719 399.905 552.749 399.887C552.779 399.868 552.815 399.862 552.85 399.87C552.884 399.878 552.914 399.899 552.933 399.929C552.952 399.959 552.958 399.995 552.95 400.03C550.35 411.19 552.15 437.87 552.16 438.14C551.9 475.62 544.61 510.97 544.53 511.32C544.523 511.352 544.503 511.381 544.475 511.4C544.447 511.419 544.413 511.426 544.38 511.42Z" fill="black"/>
</g>
<path opacity="0.2" d="M574.44 528.07C574.44 528.07 542.28 520.24 545.96 516.07C545.96 516.07 547.62 512.23 571.96 516.65L574.44 528.07Z" fill="black"/>
<path d="M612.79 600C612.79 600 615.95 636.31 592.79 642.09C592.79 642.09 587.79 644.2 575.69 644.99C575.69 644.99 567.54 644.99 570.43 637.62L588.32 590.79C588.32 590.79 592.27 581.05 597.79 588.68C597.79 588.68 604.63 598.16 607.79 587.68L612.26 571L620.42 587.83C620.47 588 621.23 591.26 612.79 600Z" fill="#0071F2"/>
<path d="M627 604.43C627 612.59 615.68 619.69 615.68 619.69C613.32 632.32 606.74 639.16 606.74 639.16C593.58 654.95 573.85 649.68 573.85 649.68C565.17 645.74 570.43 637.58 570.43 637.58C567.54 644.95 575.69 644.95 575.69 644.95C587.79 644.16 592.79 642.05 592.79 642.05C615.95 636.27 612.79 599.96 612.79 599.96C621.23 591.26 620.47 588.04 620.42 587.86L627 604.43Z" fill="#E6E6E6"/>
<path d="M571.92 516.61L588.32 590.75C588.32 590.75 592 581.54 597.79 588.64C597.79 588.64 604.11 598.64 607.79 587.64L611.47 574.22L606.74 530.55C606.74 530.55 603.66 521.4 571.92 516.61Z" fill="#F9B499"/>
<path d="M661.68 481.59C660.15 492.59 660.15 520.5 660.15 520.5C661.6 544.18 668.15 546.11 669.21 546.27C667.02 546.03 640.65 542.97 639.89 533.39C642.314 519.17 645.923 505.178 650.68 491.56C650.68 491.56 655.94 471.56 661.2 449.99L694 333.15C694 333.15 706.76 294.34 713.17 285.34L723.32 285.57C723.32 285.57 696.43 339.48 682.75 402.63L663.75 479.34C663.217 479.459 662.733 479.739 662.363 480.141C661.993 480.543 661.754 481.048 661.68 481.59Z" fill="#2F2E41"/>
<path opacity="0.2" d="M661.68 481.59C660.15 492.59 660.15 520.5 660.15 520.5C661.6 544.18 668.15 546.11 669.21 546.27C667.02 546.03 640.65 542.97 639.89 533.39C642.314 519.17 645.923 505.178 650.68 491.56C650.68 491.56 655.94 471.56 661.2 449.99L694 333.15C694 333.15 706.76 294.34 713.17 285.34L723.32 285.57C723.32 285.57 696.43 339.48 682.75 402.63L663.75 479.34C663.217 479.459 662.733 479.739 662.363 480.141C661.993 480.543 661.754 481.048 661.68 481.59Z" fill="black"/>
<path d="M199.45 172.34C199.363 172.339 199.279 172.312 199.206 172.265C199.133 172.217 199.076 172.149 199.04 172.07C197.06 167.4 196.256 162.314 196.7 157.26C195.34 158.26 192.61 160.99 192.8 167.14C192.801 167.199 192.791 167.258 192.77 167.313C192.748 167.368 192.716 167.419 192.675 167.461C192.634 167.504 192.586 167.538 192.531 167.562C192.477 167.586 192.419 167.599 192.36 167.6C192.301 167.602 192.242 167.591 192.187 167.57C192.132 167.549 192.082 167.516 192.039 167.476C191.996 167.435 191.962 167.386 191.938 167.332C191.914 167.278 191.901 167.219 191.9 167.16C191.63 158.54 196.85 156.09 197.07 155.99C197.138 155.949 197.216 155.927 197.295 155.927C197.374 155.927 197.452 155.949 197.52 155.99C197.586 156.039 197.638 156.104 197.67 156.18C197.702 156.256 197.712 156.339 197.7 156.42C197.103 161.598 197.847 166.843 199.86 171.65C199.908 171.759 199.912 171.883 199.871 171.995C199.83 172.107 199.747 172.198 199.64 172.25C199.582 172.29 199.518 172.321 199.45 172.34Z" fill="#2F2E41"/>
<path d="M218.13 170.57L224.18 189.78L244.18 197.93L248.13 192.67L245.76 186.36L220.72 168.44L218.13 170.57Z" fill="#F9B499"/>
<path d="M245.76 186.36L248.13 192.67C248.13 192.67 235.33 197.11 229.89 182.92L245.76 186.36Z" fill="#F7A48B"/>
<path d="M260.19 151.29H260.1C259.983 151.265 259.881 151.196 259.816 151.097C259.75 150.997 259.726 150.876 259.75 150.76C259.87 150.12 262.55 135.04 249.41 130.63C249.351 130.613 249.295 130.585 249.247 130.547C249.199 130.509 249.159 130.461 249.13 130.407C249.101 130.352 249.084 130.292 249.079 130.231C249.074 130.17 249.082 130.108 249.101 130.05C249.121 129.992 249.153 129.938 249.194 129.892C249.236 129.847 249.286 129.81 249.342 129.785C249.398 129.76 249.459 129.746 249.521 129.745C249.582 129.744 249.643 129.756 249.7 129.78C263.58 134.44 260.7 150.78 260.63 150.93C260.609 151.031 260.554 151.122 260.474 151.188C260.394 151.253 260.294 151.289 260.19 151.29Z" fill="#2F2E41"/>
<path d="M215.1 129.07L202.26 160.28C200.247 159.508 198.508 158.158 197.26 156.4C195.92 154.4 195.08 151.63 196.04 147.68C196.04 147.68 198.15 130.46 210.44 128.93C211.992 128.746 213.562 128.794 215.1 129.07Z" fill="#0071F2"/>
<path d="M196 147.68C195 151.63 195.88 154.44 197.22 156.4C194.9 156.33 180.38 155.26 182.32 139.52C182.32 139.52 181.79 133.21 190.74 128.74C190.74 128.74 194.41 111.95 210.4 128.93C198.14 130.46 196 147.68 196 147.68Z" fill="#2F2E41"/>
<path d="M249.297 141.015C243.277 131.972 231.068 129.52 222.028 135.538C212.987 141.556 210.538 153.765 216.557 162.809L229.208 181.813C235.227 190.856 247.436 193.309 256.477 187.29C265.518 181.272 267.967 169.063 261.948 160.02L249.297 141.015Z" fill="#F9B499"/>
<path d="M222 182.8C222 182.8 205 182.41 202.13 158.73C202.13 158.73 201.08 145.58 205.55 141.37C205.55 141.37 211.08 121.37 233.71 127.16C233.71 127.16 253.18 122.95 255.28 138.21L255.74 150.58L248.96 140.43C248.96 140.43 242.13 132.16 235.02 137.16C235.02 137.16 231.34 142.42 225.29 143.47C224.415 143.73 223.602 144.164 222.899 144.745C222.197 145.327 221.619 146.045 221.2 146.856C220.782 147.666 220.531 148.553 220.464 149.463C220.397 150.373 220.515 151.287 220.81 152.15C220.81 152.15 217.43 152.47 219.51 163.1L218.18 170.57L222 182.8Z" fill="#2F2E41"/>
<path d="M219.1 173.889C222.029 171.861 222.191 167.022 219.462 163.081C216.733 159.139 212.146 157.588 209.218 159.616C206.289 161.644 206.127 166.483 208.856 170.424C211.585 174.366 216.172 175.917 219.1 173.889Z" fill="#F9B499"/>
<path d="M224.18 189.78C224.18 189.78 222.34 188.72 222.34 192.15V198.15L240.76 201.04C240.76 201.04 243.92 201.04 242.34 206.57C242.34 206.57 231.81 227.35 243.65 242.09L246.28 206.3C246.28 206.3 246.81 203.93 248.92 206.3C248.92 206.3 263.65 224.98 265.23 234.46C265.23 234.46 272.86 214.72 260.23 207.88L248.65 202.36C248.65 202.36 246.02 201.04 248.65 198.94L249.89 197.94C250.252 197.654 250.52 197.265 250.657 196.824C250.795 196.383 250.796 195.911 250.66 195.47C250.27 194.25 249.52 192.74 248.13 192.58L244.18 197.84L224.18 189.78Z" fill="#0071F2"/>
<path opacity="0.4" d="M224.18 189.78C224.18 189.78 222.34 188.72 222.34 192.15V198.15L240.76 201.04C240.76 201.04 243.92 201.04 242.34 206.57C242.34 206.57 231.81 227.35 243.65 242.09L246.28 206.3C246.28 206.3 246.81 203.93 248.92 206.3C248.92 206.3 263.65 224.98 265.23 234.46C265.23 234.46 272.86 214.72 260.23 207.88L248.65 202.36C248.65 202.36 246.02 201.04 248.65 198.94L249.89 197.94C250.252 197.654 250.52 197.265 250.657 196.824C250.795 196.383 250.796 195.911 250.66 195.47C250.27 194.25 249.52 192.74 248.13 192.58L244.18 197.84L224.18 189.78Z" fill="white"/>
<path d="M294.17 278.18C294.17 278.18 295.75 281.87 289.96 282.13C289.96 282.13 289.17 285.02 284.43 285.02C284.43 285.02 283.91 288.44 278.65 288.44L260.5 290.28L254.59 290.94C254.394 286.676 254.608 282.402 255.23 278.18C255.23 278.18 255.49 271.34 258.65 269.5L264.44 268.9C265.647 268.773 266.807 268.358 267.82 267.69L274.82 263.08C275.813 262.421 276.937 261.986 278.114 261.803C279.291 261.62 280.494 261.694 281.64 262.02C284.64 262.9 288.81 264.35 291.27 266.34C291.28 266.34 301.54 273.71 294.17 278.18Z" fill="#F9B499"/>
<path d="M294.17 278.63C294.077 278.631 293.987 278.602 293.911 278.548C293.836 278.494 293.779 278.418 293.75 278.33C290.75 270.03 279.75 268.9 279.66 268.89C279.601 268.885 279.543 268.869 279.49 268.841C279.438 268.814 279.391 268.776 279.353 268.731C279.315 268.685 279.286 268.632 279.268 268.576C279.251 268.519 279.244 268.459 279.25 268.4C279.265 268.284 279.324 268.177 279.415 268.103C279.506 268.028 279.623 267.992 279.74 268C279.86 268 291.37 269.18 294.59 278C294.612 278.055 294.622 278.114 294.621 278.173C294.619 278.233 294.605 278.291 294.579 278.344C294.554 278.398 294.518 278.445 294.473 278.484C294.429 278.523 294.376 278.552 294.32 278.57L294.17 278.63Z" fill="#F7A48B"/>
<path d="M290 282.58C289.896 282.579 289.796 282.543 289.716 282.478C289.636 282.412 289.581 282.321 289.56 282.22C288.32 276.03 277.42 274.43 277.31 274.42C277.192 274.402 277.086 274.339 277.014 274.243C276.943 274.148 276.913 274.028 276.93 273.91C276.936 273.851 276.954 273.794 276.983 273.743C277.012 273.692 277.051 273.647 277.098 273.611C277.144 273.575 277.198 273.55 277.255 273.536C277.312 273.522 277.372 273.52 277.43 273.53C277.91 273.59 289.08 275.23 290.43 282.04C290.454 282.156 290.43 282.278 290.364 282.377C290.299 282.476 290.197 282.545 290.08 282.57L290 282.58Z" fill="#F7A48B"/>
<path d="M284.43 285.47C284.329 285.47 284.231 285.435 284.153 285.371C284.075 285.308 284.021 285.219 284 285.12C283 280.8 272.19 281 272.08 281C272.021 281.001 271.962 280.991 271.907 280.97C271.852 280.948 271.802 280.916 271.759 280.875C271.716 280.834 271.682 280.786 271.658 280.732C271.634 280.677 271.621 280.619 271.62 280.56C271.617 280.501 271.627 280.441 271.648 280.386C271.668 280.33 271.7 280.279 271.742 280.236C271.783 280.193 271.832 280.159 271.887 280.135C271.942 280.112 272 280.1 272.06 280.1C272.54 280.1 283.75 279.88 284.87 284.92C284.885 284.978 284.887 285.038 284.878 285.097C284.869 285.156 284.848 285.213 284.816 285.263C284.784 285.314 284.742 285.357 284.693 285.391C284.644 285.425 284.588 285.448 284.53 285.46L284.43 285.47Z" fill="#F7A48B"/>
<path d="M346.93 307.76H229.58C227.183 307.76 225.24 309.703 225.24 312.1C225.24 314.497 227.183 316.44 229.58 316.44H346.93C349.327 316.44 351.27 314.497 351.27 312.1C351.27 309.703 349.327 307.76 346.93 307.76Z" fill="#E6E6E6"/>
</svg>
