<svg width="866" height="683" viewBox="0 0 866 683" fill="none" xmlns="http://www.w3.org/2000/svg">
<path d="M764.52 449C776.33 332.55 595.46 83.0897 474.23 206.53C410.42 271.53 255.16 347.08 141.17 385.77C30.33 423.39 259.32 610.77 431.46 628.23C603.6 645.69 752.7 565.45 764.52 449Z" fill="#0071F2"/>
<path opacity="0.7" d="M764.52 449C776.33 332.55 595.46 83.0897 474.23 206.53C410.42 271.53 255.16 347.08 141.17 385.77C30.33 423.39 259.32 610.77 431.46 628.23C603.6 645.69 752.7 565.45 764.52 449Z" fill="#FFF4F2"/>
<path d="M194.45 535.85C201.09 535.85 201.1 525.53 194.45 525.53C187.8 525.53 187.79 535.85 194.45 535.85Z" fill="#0071F2"/>
<path d="M133.16 299.26C139.8 299.26 139.81 288.94 133.16 288.94C126.51 288.94 126.5 299.26 133.16 299.26Z" fill="#0071F2"/>
<path d="M237.9 150.24C244.54 150.24 244.55 139.91 237.9 139.91C231.25 139.91 231.25 150.24 237.9 150.24Z" fill="#0071F2"/>
<path d="M237.9 150.24C244.54 150.24 244.55 139.91 237.9 139.91C231.25 139.91 231.25 150.24 237.9 150.24Z" fill="#0071F2"/>
<path d="M105.68 530C112.32 530 112.34 519.68 105.68 519.68C99.02 519.68 99 530 105.68 530Z" fill="#0071F2"/>
<path d="M426.52 62.2499C433.16 62.2499 433.17 51.9199 426.52 51.9199C419.87 51.9199 419.86 62.2499 426.52 62.2499Z" fill="#0071F2"/>
<path d="M360.52 458.63C367.16 458.63 367.17 448.31 360.52 448.31C353.87 448.31 353.86 458.63 360.52 458.63Z" fill="#0071F2"/>
<path d="M184 258C190.64 258 190.65 247.68 184 247.68C177.35 247.68 177.37 258 184 258Z" fill="#0071F2"/>
<path d="M229.82 586C236.46 586 236.47 575.67 229.82 575.67C223.17 575.67 223.16 586 229.82 586Z" fill="#0071F2"/>
<path d="M590.26 540.52C596.9 540.52 596.91 530.2 590.26 530.2C583.61 530.2 583.61 540.52 590.26 540.52Z" fill="#0071F2"/>
<path d="M609.46 137.23C616.11 137.23 616.12 126.91 609.46 126.91C602.8 126.91 602.81 137.23 609.46 137.23Z" fill="#0071F2"/>
<path d="M745.48 458.63C752.12 458.63 752.13 448.31 745.48 448.31C738.83 448.31 738.83 458.63 745.48 458.63Z" fill="#0071F2"/>
<path d="M213.74 462.06C217.06 462.06 217.06 456.9 213.74 456.9C210.42 456.9 210.41 462.06 213.74 462.06Z" fill="#0071F2"/>
<path d="M542.57 84.9198C545.89 84.9198 545.9 79.7598 542.57 79.7598C539.24 79.7598 539.25 84.9198 542.57 84.9198Z" fill="#0071F2"/>
<path d="M459.08 256.87C462.4 256.87 462.4 251.71 459.08 251.71C455.76 251.71 455.75 256.87 459.08 256.87Z" fill="#0071F2"/>
<path d="M501.7 473.2C505.02 473.2 505.03 468.04 501.7 468.04C498.37 468.04 498.37 473.2 501.7 473.2Z" fill="#0071F2"/>
<path d="M405.09 608.82C408.41 608.82 408.42 603.66 405.09 603.66C401.76 603.66 401.77 608.82 405.09 608.82Z" fill="#0071F2"/>
<path d="M700.49 605.11C703.81 605.11 703.81 599.95 700.49 599.95C697.17 599.95 697.16 605.11 700.49 605.11Z" fill="#0071F2"/>
<path d="M462.69 358C466.01 358 466.01 352.84 462.69 352.84C459.37 352.84 459.36 358 462.69 358Z" fill="#0071F2"/>
<path d="M312.84 74.6302C316.16 74.6302 316.17 69.4702 312.84 69.4702C309.51 69.4702 309.51 74.6302 312.84 74.6302Z" fill="#0071F2"/>
<path d="M138.14 416.29C141.46 416.29 141.47 411.13 138.14 411.13C134.81 411.13 134.82 416.29 138.14 416.29Z" fill="#0071F2"/>
<path d="M455 133.42C458.32 133.42 458.32 128.26 455 128.26C451.68 128.26 451.67 133.42 455 133.42Z" fill="#0071F2"/>
<path d="M750.46 155.9C753.79 155.9 753.79 150.74 750.46 150.74C747.13 150.74 747.14 155.9 750.46 155.9Z" fill="#0071F2"/>
<path d="M326.47 436.69C329.79 436.69 329.8 431.53 326.47 431.53C323.14 431.53 323.15 436.69 326.47 436.69Z" fill="#0071F2"/>
<path d="M603.36 399.23C606.68 399.23 606.68 394.07 603.36 394.07C600.04 394.07 600.03 399.23 603.36 399.23Z" fill="#0071F2"/>
<path d="M653.12 77.2699C656.44 77.2699 656.45 72.1099 653.12 72.1099C649.79 72.1099 649.8 77.2699 653.12 77.2699Z" fill="#0071F2"/>
<path d="M746.85 554.45C750.17 554.45 750.17 549.29 746.85 549.29C743.53 549.29 743.52 554.45 746.85 554.45Z" fill="#0071F2"/>
<path d="M377.79 132.64V146.94L370.5 150.06C370.5 150.06 372.85 186.22 390.19 176.73C407.53 167.24 412.19 151.3 408.48 150.06L403.28 146.94L402.66 133.33L377.79 132.64Z" fill="#FED4C0"/>
<path d="M572.77 203.62L513.89 212.69C511.227 213.097 508.507 212.902 505.93 212.118C503.353 211.334 500.985 209.981 499 208.16C470.65 182 451.92 168.91 440.54 162.38C430.34 156.54 408.76 149.16 408.76 149.16L408.98 150.26L408.54 150.08C388.31 192.19 370.54 150.08 370.54 150.08C370.54 150.08 348.96 157.45 338.76 163.3C327.38 169.83 308.65 182.91 280.3 209.08C278.312 210.902 275.94 212.255 273.359 213.037C270.779 213.819 268.055 214.012 265.39 213.6L206.51 204.54L194.75 234.47L262.75 252.64C267.595 253.934 272.662 254.168 277.606 253.328C282.55 252.488 287.255 250.592 291.4 247.77L335 218L335.19 217.36C336.09 250.72 338.67 287.17 338.67 287.17L339.49 303.68H439.4L439.45 302.76H439.63L440.45 286.25C440.45 286.25 443.03 249.8 443.93 216.44L444.12 217.08L487.88 246.89C492.025 249.712 496.73 251.608 501.674 252.448C506.618 253.288 511.685 253.054 516.53 251.76L584.53 233.59L572.77 203.62Z" fill="#2F2E41"/>
<path d="M415 101.25C415 80.8398 404.1 64.2998 390.64 64.2998C377.18 64.2998 366.28 80.8398 366.28 101.3H366.13C364.934 101.253 363.743 101.472 362.642 101.941C361.541 102.41 360.557 103.117 359.762 104.011C358.967 104.905 358.379 105.965 358.043 107.113C357.706 108.262 357.627 109.47 357.813 110.653C357.999 111.835 358.445 112.961 359.118 113.95C359.791 114.94 360.676 115.768 361.707 116.375C362.738 116.982 363.892 117.352 365.083 117.461C366.275 117.569 367.476 117.411 368.6 117C372.5 129.51 380.87 138.19 390.6 138.19C400.33 138.19 408.68 129.53 412.6 117.05C413.711 117.393 414.882 117.492 416.035 117.341C417.187 117.19 418.294 116.792 419.278 116.175C420.263 115.557 421.103 114.734 421.741 113.762C422.378 112.79 422.799 111.692 422.973 110.543C423.148 109.394 423.072 108.221 422.752 107.103C422.432 105.986 421.874 104.951 421.117 104.069C420.36 103.186 419.422 102.478 418.366 101.991C417.311 101.505 416.162 101.252 415 101.25Z" fill="#FED4C0"/>
<path d="M368.93 108.47C368.93 108.47 367.48 79.9999 377.6 73.7899C377.6 73.7899 381.31 69.0399 391.84 80.1899C402.37 91.3399 412.6 85.3599 412.6 85.3599C412.6 85.3599 415.17 104.55 413.52 108.47C413.52 108.47 428.38 83.0799 412.07 70.0799C395.76 57.0799 386.89 61.6099 373.88 70.0799C373.88 70.0799 349.52 72.9999 368.93 108.47Z" fill="#2F2E41"/>
<path d="M378.64 133.42C382.041 135.629 385.953 136.927 390 137.19C391.983 137.283 393.967 137.043 395.87 136.48C396.85 136.207 397.812 135.873 398.75 135.48C399.75 135.1 400.59 134.58 401.59 134.19C400.824 134.912 400.008 135.58 399.15 136.19C398.255 136.788 397.304 137.297 396.31 137.71C394.297 138.57 392.117 138.966 389.93 138.87C387.745 138.776 385.604 138.231 383.64 137.27C381.721 136.353 380.017 135.041 378.64 133.42Z" fill="#F9C0AA"/>
<path d="M342.43 303.64V587.68H380.41L385.36 339.97H395.27L414.26 587.68H452.24L435.73 303.64H342.43Z" fill="#0071F2"/>
<path d="M422.52 597.59C422.52 597.59 412.2 626.49 420.87 630.59H429.54C429.54 630.59 433.66 619.03 439.44 630.59H492.29C492.29 630.59 495.59 621.51 482.79 617.38C469.99 613.25 448.53 597.56 448.53 597.56L422.52 597.59Z" fill="#0071F2"/>
<path d="M420.87 587.68L422.52 597.59H448.53V587.68H420.87Z" fill="#FED4C0"/>
<path d="M374 597.59C374 597.59 384.32 626.49 375.65 630.59H367C367 630.59 362.87 619.03 357.09 630.59H304.25C304.25 630.59 300.95 621.51 313.74 617.38C326.53 613.25 348 597.59 348 597.59H374Z" fill="#0071F2"/>
<path d="M375.67 587.68L374.02 597.59H348.01V587.68H375.67Z" fill="#FED4C0"/>
<g opacity="0.2">
<path d="M398.69 339.27C395.928 339.874 393.107 340.159 390.28 340.12C387.453 340.164 384.631 339.879 381.87 339.27C384.63 338.653 387.453 338.364 390.28 338.41C393.107 338.369 395.93 338.658 398.69 339.27Z" fill="black"/>
</g>
<g opacity="0.2">
<path d="M341.57 254.29C341.95 256.918 342.536 259.513 343.32 262.05C343.67 263.33 344.14 264.57 344.55 265.82L346.05 269.48C348.185 274.283 351.056 278.723 354.56 282.64C358.018 286.589 362.115 289.929 366.68 292.52C368.943 293.876 371.31 295.05 373.76 296.03C376.19 297.1 378.76 297.74 381.28 298.7C379.98 298.43 378.67 298.15 377.37 297.84L375.37 297.39L374.37 297.16L373.42 296.83C370.865 295.976 368.381 294.922 365.99 293.68C361.134 291.235 356.798 287.873 353.22 283.78C349.615 279.733 346.775 275.063 344.84 270C342.838 264.995 341.731 259.678 341.57 254.29Z" fill="black"/>
</g>
<g opacity="0.2">
<path d="M353.45 258.89C354.366 261.386 355.476 263.807 356.77 266.13C357.38 267.3 358.1 268.42 358.77 269.56L361.01 272.83C364.076 277.08 367.784 280.828 372 283.94C376.233 287.089 380.966 289.503 386 291.08C388.498 291.945 391.059 292.613 393.66 293.08C396.25 293.62 398.92 293.71 401.57 294.13C400.23 294.13 398.9 294.13 397.57 294.13H395.57H394.57L393.57 294C390.893 293.705 388.244 293.193 385.65 292.47C380.395 291.094 375.455 288.717 371.1 285.47C366.717 282.258 362.95 278.281 359.98 273.73C356.948 269.206 354.738 264.182 353.45 258.89Z" fill="black"/>
</g>
<g opacity="0.2">
<path d="M426.51 189.99H397.33V226.39H426.51V189.99Z" fill="black"/>
</g>
<path d="M678.51 132.6V148.6L685.1 150.04C685.1 150.04 683.45 186.17 666.1 176.67C648.75 167.17 643.39 151.28 647.1 150.04L652.88 148.18L653.62 133.27L678.51 132.6Z" fill="#B86A4B"/>
<path d="M641.34 101.21C641.34 80.7998 652.24 64.2598 665.7 64.2598C679.16 64.2598 690.05 80.7998 690.05 101.21H690.21C692.358 101.21 694.419 102.063 695.938 103.582C697.457 105.101 698.31 107.162 698.31 109.31C698.31 111.458 697.457 113.518 695.938 115.037C694.419 116.556 692.358 117.41 690.21 117.41C689.355 117.403 688.507 117.254 687.7 116.97C683.8 129.48 675.42 138.16 665.7 138.16C655.98 138.16 647.61 129.5 643.7 117.02C642.589 117.358 641.419 117.452 640.269 117.297C639.118 117.142 638.015 116.741 637.033 116.121C636.052 115.502 635.215 114.677 634.581 113.705C633.947 112.733 633.529 111.636 633.357 110.488C633.185 109.34 633.262 108.168 633.584 107.052C633.905 105.937 634.463 104.904 635.22 104.024C635.976 103.143 636.914 102.436 637.968 101.951C639.022 101.465 640.169 101.212 641.33 101.21H641.34Z" fill="#B86A4B"/>
<path d="M687.37 108.43C687.37 108.43 688.82 79.9998 678.7 73.7498C678.7 73.7498 674.99 68.9998 664.46 80.1498C653.93 91.2998 643.7 85.3198 643.7 85.3198C643.7 85.3198 641.13 104.51 642.78 108.43C642.78 108.43 627.92 83.0398 644.23 70.0398C660.54 57.0398 669.41 61.5698 682.42 70.0398C682.42 69.9998 706.77 72.9298 687.37 108.43Z" fill="#2F2E41"/>
<path d="M677.66 133.38C676.288 135.016 674.584 136.342 672.66 137.27C670.7 138.232 668.562 138.777 666.38 138.87C664.193 138.966 662.013 138.57 660 137.71C659.004 137.301 658.052 136.792 657.16 136.19C656.302 135.58 655.486 134.912 654.72 134.19C655.72 134.58 656.61 135.1 657.56 135.48C658.498 135.874 659.46 136.208 660.44 136.48C662.343 137.043 664.327 137.283 666.31 137.19C670.357 136.913 674.265 135.601 677.66 133.38Z" fill="#B2593D"/>
<path d="M750.19 328.17L756.72 366.35C757.071 368.397 756.995 370.495 756.498 372.512C756.001 374.528 755.092 376.421 753.83 378.07L740.73 395.18C740.379 395.642 739.925 396.016 739.404 396.271C738.883 396.526 738.31 396.656 737.73 396.65C736.738 396.65 735.787 396.256 735.085 395.555C734.384 394.853 733.99 393.902 733.99 392.91C733.992 390.953 734.646 389.053 735.85 387.51L745.85 374.61C745.85 374.61 744.52 356.97 744.23 359.61L739.02 368.1C738.778 368.49 738.442 368.812 738.043 369.037C737.644 369.262 737.195 369.384 736.736 369.39C736.278 369.396 735.826 369.286 735.421 369.071C735.016 368.856 734.672 368.543 734.42 368.16C734.105 367.68 733.947 367.114 733.97 366.54C734.101 364.415 734.702 362.345 735.73 360.48L737.18 357.84C737.18 357.84 733.94 338.15 738.06 328.16L750.19 328.17Z" fill="#B86A4B"/>
<path d="M663.42 184.2L667.8 198.93L620.05 261.66C612.64 271.61 598.69 271.13 592.48 258.66C592.48 258.66 592.01 249.54 593.26 246.85C598.84 234.79 604.94 233.28 614.6 225.18L663.42 184.2Z" fill="#8C4D3E"/>
<path d="M665.14 185.92L669.52 200.65L621.77 263.38C614.36 273.33 600.41 272.85 594.2 260.38C594.2 260.38 593.73 251.26 594.98 248.57C600.56 236.51 606.66 235 616.32 226.9L665.14 185.92Z" fill="#8C4D3E"/>
<path d="M555 224.46C555 224.46 554.67 217.84 544.36 207.46C534.05 197.08 524.83 190.04 530.24 198.81L534.47 205.43C534.47 205.43 523.47 201.31 517.12 198.28C515.45 197.452 513.558 197.181 511.722 197.506C509.886 197.832 508.203 198.738 506.92 200.09C504.58 202.68 504.68 205.49 511.29 210.38C521.19 217.7 536.51 228.84 539.48 229.93C540.52 230.32 555 224.46 555 224.46Z" fill="#B86A4B"/>
<path d="M616.57 303.64H716.06L716.89 287.13L730.89 344.13L756.89 340C749.74 256 733.14 201.68 724.44 177.92C722.876 173.642 720.439 169.736 717.286 166.45C714.132 163.164 710.33 160.569 706.12 158.83L685.05 150.09C685.05 150.09 667.3 192.2 647.05 150.09L625.98 158.83C617.47 162.35 606.45 169.03 603.29 177.69C599.42 188.41 592 212 586.45 222.94C586.082 223.655 585.562 224.281 584.927 224.774C584.291 225.267 583.555 225.615 582.771 225.793C581.986 225.971 581.173 225.976 580.386 225.806C579.6 225.636 578.861 225.296 578.22 224.81L546.94 206.15L534.94 229.39L574.81 262.5C580.094 266.14 586.597 267.558 592.916 266.446C599.236 265.335 604.865 261.784 608.59 256.56L615.37 247.08L616.19 303.64H715.69" fill="#2F2E41"/>
<path d="M540.93 208.46C539.76 208.198 538.626 207.798 537.55 207.27C536.468 206.764 535.44 206.151 534.48 205.44C535.089 205.492 535.69 205.616 536.27 205.81C536.838 205.987 537.393 206.204 537.93 206.46C539.028 206.967 540.04 207.642 540.93 208.46Z" fill="#160B07"/>
<path d="M525.77 206.61C524.374 206.154 523.006 205.62 521.67 205.01C520.33 204.42 519.03 203.74 517.75 203.01C516.464 202.294 515.222 201.503 514.03 200.64C512.825 199.793 511.715 198.817 510.72 197.73C513.15 199.38 515.65 200.8 518.19 202.23C520.73 203.66 523.26 205.07 525.77 206.61Z" fill="#160B07"/>
<path d="M519.83 212.58C518.523 212.27 517.243 211.859 516 211.35C514.746 210.859 513.524 210.291 512.34 209.65C509.942 208.403 507.771 206.76 505.92 204.79C507.06 205.52 508.17 206.24 509.31 206.91C510.45 207.58 511.6 208.24 512.77 208.91L519.83 212.58Z" fill="#160B07"/>
<path d="M523.09 210C521.536 209.592 520.013 209.077 518.53 208.46C517.037 207.857 515.581 207.166 514.17 206.39C512.762 205.617 511.424 204.724 510.17 203.72C508.861 202.751 507.773 201.513 506.98 200.09C508.023 201.284 509.236 202.318 510.58 203.16C511.9 204.03 513.25 204.85 514.65 205.6C517.37 207.16 520.23 208.54 523.09 210Z" fill="#160B07"/>
<path d="M560.28 580.85L563.83 601.54L589.38 620.43C589.38 620.43 559.38 631.26 544.18 615.16L547.27 600.92L540.15 582.65L560.28 580.85Z" fill="#8C4D3E"/>
<path d="M465.63 580.85L465.52 601.54L440 620.43C440 620.43 470 631.26 485.2 615.16L482.11 600.92L485.79 582.65L465.63 580.85Z" fill="#8C4D3E"/>
<path d="M512 279.07L499.48 301.47C490.832 316.959 485.03 333.873 482.35 351.41L447.72 586.41L575.13 582.65L582.36 359.75C583.216 339.874 579.504 320.067 571.51 301.85C567.964 293.6 563.212 285.923 557.41 279.07H512Z" fill="#2F2E41"/>
<path d="M498.46 128.18C498.67 131.09 499.78 131.18 500.46 134.42C501.46 139.11 499.36 140.09 500.35 143.85C500.92 145.98 501.65 145.85 505.35 151.21C509.21 156.7 508.35 156.7 510.4 158.9C513.98 162.77 515.6 161.67 519.66 165.84C522.35 168.6 522.04 169.5 525.01 172.22C526.19 173.31 526.68 173.56 531.28 176.63C538.91 181.71 539.38 182.2 541.17 182.63C543.954 183.102 546.81 182.9 549.5 182.04C552.5 181.27 552.59 180.62 557.66 178.68C562.73 176.74 563.17 177.23 565.08 175.91C567.95 173.91 567.34 172.63 570.79 169.6C574.04 166.74 574.95 167.6 576.86 165.24C579.31 162.24 578.08 160.59 580.6 158C582.51 156 583.65 156.55 585.72 154.31C587.08 152.82 587.17 151.97 588.53 149.37C591.3 144.08 592.53 144.66 594.19 140.79C595.08 138.71 594.51 139.07 596.28 132.61C597.68 127.48 597.94 127.61 598.08 125.96C598.48 120.96 596 120.64 596.9 116.96C597.44 114.75 598.9 112.43 598.09 109.31C597.28 103.48 596.68 99.2102 593.48 95.2602C591.74 93.1202 591.48 93.7702 586.17 88.6002C582.84 85.3202 582.17 84.2402 579.87 82.8902C576.87 81.1202 576.37 81.8902 572.65 80.1302C567.83 77.7902 567.95 76.0602 564.08 74.7902C561.52 73.9602 561.5 74.7202 556.58 73.9902C550.34 73.0702 550.13 71.8102 546.99 72.1202C543.64 72.4502 543.26 73.9602 538.41 75.3802C534.35 76.5702 533.72 75.3802 530.63 76.5602C527.54 77.7402 527.77 78.8702 523.9 80.9102C519.32 83.3302 517.99 82.2502 515.85 84.3402C513.71 86.4302 514.79 87.7602 512.45 91.9002C510.53 95.2802 509.6 94.7902 506.45 99.1902C504.655 101.795 503.086 104.548 501.76 107.42C500.06 110.79 499.2 112.52 498.99 114.31C498.65 117.2 499.63 117.51 499.47 121.13C499.35 124.89 498.25 125.25 498.46 128.18Z" fill="#2F2E41"/>
<path d="M520.73 141.07H520.82C521.39 124.55 531.82 111.28 545.03 110.99C558.24 110.7 569.25 123.46 570.57 139.94H570.67C574.67 139.85 577.97 143.38 578.07 147.82C578.17 152.26 575.02 155.94 571.07 156.04C570.289 156.04 569.515 155.905 568.78 155.64C566.03 163.84 560.65 170.27 553.94 173.13L554.14 193.58L553.24 208.58L532.67 207.08L533.09 194.08L534.71 171.34H534.77C529.525 167.775 525.538 162.644 523.38 156.68C522.657 156.984 521.884 157.153 521.1 157.18C517.1 157.27 513.8 153.74 513.7 149.3C513.6 144.86 516.74 141.17 520.73 141.07Z" fill="#8C4D3E"/>
<path d="M471.92 347.19L468.27 374.24C468.081 375.706 468.225 377.195 468.691 378.597C469.157 379.999 469.932 381.279 470.96 382.34L481.75 393.8C482.053 394.115 482.422 394.359 482.829 394.516C483.237 394.673 483.674 394.739 484.11 394.71C484.844 394.705 485.546 394.41 486.063 393.889C486.58 393.368 486.87 392.664 486.87 391.93C486.789 390.536 486.206 389.219 485.23 388.22L477 379.59C477 379.59 477.37 367.16 477.7 369.01L482.05 374.75C482.27 375.017 482.549 375.23 482.866 375.371C483.182 375.512 483.526 375.578 483.872 375.563C484.218 375.549 484.556 375.454 484.859 375.287C485.163 375.12 485.423 374.885 485.62 374.6C485.851 374.26 485.954 373.849 485.91 373.44C485.723 371.944 485.181 370.514 484.33 369.27L483.1 367.48C483.1 367.48 484.88 353.54 481.31 346.7L471.92 347.19Z" fill="#8C4D3E"/>
<path d="M477.69 257.89L470.31 359.99L482.82 354.36L498.75 267.1L477.69 257.89Z" fill="#8C4D3E"/>
<path d="M475.93 274.22L480.1 219.74C480.447 215.19 481.872 210.787 484.255 206.896C486.639 203.005 489.914 199.736 493.81 197.36C498.377 194.56 503.33 192.444 508.51 191.08C516.533 189.175 524.753 188.222 533 188.24C533 188.24 541.67 212.19 554.05 188.24L571.17 194C576.081 195.657 580.6 198.306 584.445 201.783C588.289 205.26 591.378 209.49 593.52 214.21L612 244.6L597.29 262.6L572.43 245.4L557.43 279.07H512L502 244.6L498.34 274.22H475.93Z" fill="#0071F2"/>
<path d="M285.13 116.31C284.13 132.83 259.01 131.43 259.86 114.9C260.71 98.3701 286 99.7801 285.13 116.31Z" fill="#2F2E41"/>
<path d="M228 118.89C227 135.41 201.88 134.01 202.73 117.48C203.58 100.95 228.86 102.36 228 118.89Z" fill="#2F2E41"/>
<path d="M271.15 145.09H271.06C271.06 106.34 225.65 103.84 221.37 142.33C210.52 141.55 211.82 161.33 222.69 158.07C223.69 168.26 226.26 174.61 236.8 179.2C236.24 187.2 235.94 203.49 236.45 211.49L257.07 210.67L257.82 197.18L256.3 178.9C264.81 176.75 267.83 164.28 268 160.58C278.4 165 281.93 145.68 271.15 145.09Z" fill="#B86A4B"/>
<path d="M239.34 180.76C244.29 180.76 248.79 181.22 253.54 179.84C249.9 183.48 243.58 183.19 239.34 180.76Z" fill="#B2593D"/>
<path d="M228.27 129.27C235.74 129.38 234.54 123.82 235.49 119.27C235.49 119.27 239.93 129.53 248.76 120.01C250.76 117.84 249.64 134.2 259.95 122.78C262.57 120.27 264.95 135.02 269.51 134.21L269.36 148.84C299.29 93.6798 185.85 89.6398 223.89 150.96C223.89 151 219.85 129.15 228.27 129.27Z" fill="#2F2E41"/>
<path d="M243.25 107.47L239.65 102.47C239.65 102.47 231.07 103.39 236.05 100.25C241.03 97.11 241.98 99.65 241.92 100.58L243.25 107.47Z" fill="#2F2E41"/>
<path d="M318.45 350.57C318.16 356.96 325.71 380.85 319.45 385.72L308.65 397.18C304.49 400.44 301.71 394.51 305.17 391.59L313.45 382.96C313.45 382.96 313.08 370.54 312.75 372.38L308.4 378.12C307.27 379.69 304.35 378.83 304.54 376.82C304.71 374.65 306.09 372.6 307.35 370.82C307.35 370.82 305.57 356.88 309.14 350.04L318.45 350.57Z" fill="#B86A4B"/>
<path d="M312.69 261.26L320.06 363.36L307.55 357.73L291.62 270.48L312.69 261.26Z" fill="#B86A4B"/>
<path d="M281.635 301.802L279.988 302.3L280.237 303.123L281.883 302.626L281.635 301.802Z" fill="#200100"/>
<path d="M287.56 327.37L287.03 325.64L288.68 325.14L289.2 326.87L287.56 327.37ZM286.51 323.91L285.99 322.18L287.63 321.68L288.16 323.41L286.51 323.91ZM285.46 320.45L284.94 318.72L286.58 318.22L287.11 319.95L285.46 320.45ZM284.46 316.99L283.94 315.26L285.58 314.76L286.11 316.49L284.46 316.99ZM283.41 313.53L282.89 311.8L284.54 311.3L285 313L283.41 313.53ZM282.36 310.07L281.84 308.34L283.49 307.84L284.01 309.57L282.36 310.07ZM281.36 306.61L280.83 304.88L282.48 304.38L283 306.11L281.36 306.61Z" fill="#200100"/>
<path d="M290.365 329.939L288.714 330.438L288.963 331.263L290.615 330.764L290.365 329.939Z" fill="#200100"/>
<path d="M314.44 277.59C308.44 229.93 323.44 192.21 257.34 191.59C257.34 191.59 248.67 215.53 236.34 191.59L219.25 197.34C199.54 202.56 189.25 233.13 178.44 247.94V283.78L217.99 248.78L233 282.44H278.4L288.4 247.97L292.06 277.59H314.44Z" fill="#0071F2"/>
<g opacity="0.2">
<path d="M208.63 230C212.767 235.685 215.914 242.027 217.94 248.76C213.797 243.079 210.649 236.735 208.63 230Z" fill="black"/>
</g>
<g opacity="0.2">
<path d="M288.43 248C289.725 239.648 292.186 231.519 295.74 223.85C294.445 232.202 291.984 240.332 288.43 248Z" fill="black"/>
</g>
<path d="M172.4 184.24L159.51 192.62L155.19 271.33C155.009 274.1 155.628 276.864 156.974 279.292C158.32 281.72 160.335 283.711 162.78 285.026C165.224 286.341 167.996 286.925 170.763 286.71C173.531 286.494 176.178 285.488 178.39 283.81C191.69 260.48 174.82 208.87 172.4 184.24Z" fill="#B86A4B"/>
<path d="M173.69 198.18C173.69 198.18 177.08 193.18 175.32 180.07C173.56 166.96 170.77 156.77 169.86 166.07L169.29 173.18C169.29 173.18 163.59 164.18 160.67 158.49C156.77 151.78 145.23 151.77 149.83 164.04C152.96 174.75 157.91 191.2 159.46 193.62C160 194.46 173.69 198.18 173.69 198.18Z" fill="#B86A4B"/>
<path d="M172.29 178.89C170.91 177.212 169.889 175.268 169.29 173.18C170.849 174.733 171.896 176.725 172.29 178.89Z" fill="#B2593D"/>
<path d="M291 601.19C294.2 538.97 300.28 395.82 299 334.97C303.63 342.97 300.16 323.09 292.05 304.97C288.526 296.711 283.791 289.023 278 282.16H232.57C219.71 304.25 206.02 328.82 202.92 354.51L171.21 586.06L168.62 601.19L143.06 620.08C143.06 620.08 173.06 630.92 188.27 614.81L185.18 600.57L252.33 337.9H254.79L274.45 600.57L271.36 614.81C286.53 630.92 316.57 620.08 316.57 620.08L291 601.19Z" fill="#B86A4B"/>
<path d="M326.47 630.61C326.47 630.61 292.72 631.24 284.67 623.61V630.61H269.81C269.81 630.61 265.14 605.75 273.05 607.03C280.96 608.31 309.11 629.79 309.74 615.03C315.58 618.41 327.58 621.79 326.47 630.61Z" fill="#2F2E41"/>
<path d="M232.76 282.16L220.24 304.57C194.82 344.23 197.38 400.15 190.93 434.07H300.51C301.18 387.15 313.08 320.27 278.17 282.12L232.76 282.16Z" fill="#2F2E41"/>
<path d="M133.16 630.61C133.16 630.61 166.91 631.24 174.96 623.61V630.61H189.82C189.82 630.61 194.49 605.75 186.58 607.03C178.67 608.31 150.52 629.79 149.89 615.03C144.05 618.41 132.05 621.79 133.16 630.61Z" fill="#2F2E41"/>
<path d="M551.27 174.06C550.17 174.682 548.973 175.114 547.73 175.34C546.493 175.589 545.23 175.683 543.97 175.62C542.694 175.543 541.437 175.277 540.24 174.83C539.039 174.37 537.964 173.633 537.1 172.68C538.33 173.03 539.45 173.33 540.6 173.54C541.75 173.75 542.9 173.84 544.07 173.91C546.41 174 548.75 174 551.27 174.06Z" fill="#874032"/>
<g opacity="0.2">
<path d="M558 88.0799C557.662 88.0823 557.325 88.0351 557 87.9399C554.69 87.2999 553.59 84.6099 553.54 84.4899C553.498 84.3856 553.477 84.274 553.478 84.1615C553.48 84.049 553.504 83.9379 553.548 83.8347C553.593 83.7314 553.657 83.6381 553.738 83.56C553.819 83.4819 553.915 83.4207 554.02 83.3799C554.231 83.294 554.467 83.2953 554.677 83.3834C554.887 83.4715 555.054 83.6393 555.14 83.8499C555.14 83.8499 555.98 85.8499 557.47 86.2899C557.924 86.3692 558.39 86.3428 558.833 86.2127C559.275 86.0827 559.681 85.8525 560.02 85.5399C560.11 85.4714 560.212 85.4214 560.321 85.3928C560.43 85.3642 560.544 85.3577 560.656 85.3735C560.767 85.3893 560.875 85.4272 560.972 85.485C561.069 85.5427 561.153 85.6192 561.22 85.7099C561.289 85.8003 561.339 85.9035 561.368 86.0134C561.396 86.1233 561.403 86.2379 561.387 86.3504C561.371 86.4629 561.334 86.5711 561.276 86.6689C561.218 86.7667 561.141 86.852 561.05 86.9199C560.187 87.6295 559.116 88.037 558 88.0799Z" fill="black"/>
</g>
<g opacity="0.2">
<path d="M585 102.89C583.604 102.798 582.27 102.278 581.18 101.4C581.004 101.254 580.892 101.044 580.871 100.816C580.849 100.589 580.919 100.362 581.065 100.185C581.211 100.009 581.421 99.8976 581.649 99.876C581.877 99.8545 582.104 99.9243 582.28 100.07C582.28 100.07 583.98 101.46 585.49 101.07C585.93 100.929 586.33 100.686 586.658 100.361C586.987 100.036 587.234 99.6384 587.38 99.2002C587.478 98.9953 587.652 98.8367 587.865 98.7582C588.078 98.6798 588.313 98.6876 588.52 98.7802C588.727 98.8758 588.887 99.0496 588.966 99.2633C589.044 99.477 589.035 99.7133 588.94 99.9202C588.691 100.602 588.282 101.215 587.748 101.707C587.214 102.199 586.57 102.557 585.87 102.75C585.587 102.831 585.294 102.878 585 102.89Z" fill="black"/>
</g>
<g opacity="0.2">
<path d="M568.58 111.32C567.186 111.229 565.855 110.709 564.77 109.83C564.597 109.682 564.489 109.473 564.469 109.247C564.448 109.021 564.517 108.796 564.66 108.62C564.806 108.445 565.015 108.335 565.242 108.315C565.469 108.294 565.695 108.364 565.87 108.51C565.87 108.51 567.58 109.88 569.08 109.51C569.518 109.364 569.916 109.12 570.243 108.796C570.571 108.471 570.82 108.076 570.97 107.64C571.072 107.444 571.246 107.294 571.455 107.223C571.664 107.151 571.893 107.163 572.094 107.255C572.294 107.348 572.452 107.515 572.533 107.72C572.614 107.926 572.613 108.155 572.53 108.36C572.279 109.043 571.868 109.656 571.333 110.148C570.797 110.64 570.152 110.997 569.45 111.19C569.166 111.268 568.874 111.311 568.58 111.32Z" fill="black"/>
</g>
<path d="M545.19 119C543.796 118.909 542.465 118.389 541.38 117.51L542.48 116.19C542.48 116.19 544.18 117.57 545.69 117.19C546.128 117.044 546.526 116.8 546.853 116.476C547.181 116.151 547.43 115.756 547.58 115.32L549.14 116.04C548.89 116.723 548.48 117.337 547.944 117.83C547.409 118.322 546.762 118.679 546.06 118.87C545.776 118.948 545.484 118.991 545.19 119Z" fill="#560D0D"/>
<g opacity="0.2">
<path d="M578.18 128.17C577.804 128.171 577.43 128.117 577.07 128.01C574.78 127.3 573.75 124.58 573.71 124.46C573.642 124.25 573.659 124.021 573.755 123.822C573.852 123.623 574.021 123.469 574.229 123.392C574.436 123.314 574.665 123.32 574.868 123.407C575.071 123.494 575.233 123.657 575.32 123.86C575.32 123.86 576.11 125.86 577.59 126.36C578.041 126.459 578.509 126.45 578.955 126.333C579.402 126.217 579.815 125.996 580.16 125.69C580.346 125.558 580.576 125.504 580.801 125.542C581.026 125.579 581.227 125.705 581.36 125.89C581.493 126.076 581.546 126.307 581.509 126.532C581.471 126.757 581.346 126.958 581.16 127.09C580.305 127.755 579.262 128.132 578.18 128.17Z" fill="black"/>
</g>
<g opacity="0.2">
<path d="M535.6 83.0898C535.223 83.0936 534.848 83.0362 534.49 82.9198C532.2 82.2198 531.16 79.4998 531.12 79.3798C531.08 79.2742 531.062 79.1617 531.066 79.0489C531.07 78.9361 531.097 78.8253 531.144 78.7229C531.192 78.6205 531.259 78.5286 531.343 78.4525C531.426 78.3764 531.524 78.3177 531.63 78.2798C531.844 78.2014 532.08 78.2099 532.287 78.3033C532.495 78.3968 532.657 78.5679 532.74 78.7798C532.74 78.7798 533.52 80.7798 535 81.2798C535.452 81.3716 535.919 81.358 536.364 81.24C536.81 81.1221 537.223 80.903 537.57 80.5998C537.757 80.4672 537.989 80.4143 538.215 80.4528C538.441 80.4912 538.642 80.6178 538.775 80.8048C538.908 80.9918 538.96 81.2238 538.922 81.4498C538.884 81.6758 538.757 81.8772 538.57 82.0098C537.718 82.6728 536.679 83.0506 535.6 83.0898Z" fill="black"/>
</g>
<g opacity="0.2">
<path d="M511.24 106.63C510.864 106.629 510.489 106.571 510.13 106.46C507.84 105.75 506.81 103.03 506.76 102.91C506.68 102.695 506.689 102.457 506.785 102.249C506.881 102.041 507.055 101.879 507.27 101.8C507.485 101.72 507.722 101.729 507.931 101.825C508.139 101.921 508.3 102.095 508.38 102.31C508.38 102.31 509.16 104.31 510.64 104.82C511.092 104.912 511.559 104.898 512.004 104.78C512.45 104.662 512.863 104.443 513.21 104.14C513.302 104.074 513.406 104.027 513.516 104.002C513.626 103.976 513.74 103.973 513.851 103.991C513.963 104.01 514.07 104.05 514.165 104.11C514.261 104.17 514.344 104.248 514.41 104.34C514.476 104.432 514.523 104.536 514.548 104.646C514.574 104.756 514.577 104.87 514.559 104.981C514.54 105.093 514.5 105.199 514.44 105.295C514.38 105.391 514.302 105.474 514.21 105.54C513.359 106.205 512.32 106.586 511.24 106.63Z" fill="black"/>
</g>
<g opacity="0.2">
<path d="M508.74 130.78C508.363 130.782 507.989 130.725 507.63 130.61C505.34 129.91 504.31 127.18 504.27 127.07C504.202 126.859 504.219 126.631 504.315 126.432C504.412 126.233 504.581 126.079 504.789 126.001C504.996 125.924 505.225 125.93 505.428 126.017C505.631 126.104 505.793 126.267 505.88 126.47C505.88 126.47 506.67 128.52 508.15 128.97C508.601 129.063 509.068 129.051 509.513 128.935C509.959 128.819 510.372 128.602 510.72 128.3C510.812 128.234 510.916 128.188 511.026 128.162C511.136 128.137 511.25 128.133 511.361 128.152C511.473 128.17 511.58 128.21 511.675 128.27C511.771 128.33 511.854 128.408 511.92 128.5C511.986 128.592 512.033 128.696 512.058 128.806C512.084 128.916 512.087 129.03 512.069 129.141C512.05 129.253 512.01 129.36 511.95 129.455C511.89 129.551 511.812 129.634 511.72 129.7C510.865 130.364 509.822 130.742 508.74 130.78Z" fill="black"/>
</g>
<g opacity="0.2">
<path d="M531.12 100.72C529.576 100.584 528.132 99.8992 527.05 98.7899C526.891 98.6254 526.804 98.4045 526.807 98.1757C526.811 97.9469 526.906 97.729 527.07 97.5699C527.234 97.4107 527.455 97.3234 527.684 97.3272C527.913 97.3309 528.131 97.4254 528.29 97.5899C528.29 97.5899 529.84 99.1299 531.36 98.9799C531.812 98.8843 532.236 98.6856 532.598 98.3995C532.961 98.1133 533.252 97.7472 533.45 97.3299C533.573 97.1453 533.762 97.0153 533.979 96.9669C534.195 96.9186 534.422 96.9558 534.611 97.0706C534.801 97.1855 534.939 97.3691 534.997 97.5832C535.054 97.7974 535.027 98.0255 534.92 98.2199C534.595 98.8698 534.12 99.433 533.534 99.8625C532.948 100.292 532.268 100.576 531.55 100.69L531.12 100.72Z" fill="black"/>
</g>
<path d="M568.78 130.91C568.78 130.91 560.5 128.91 558.13 115.37C558.13 115.37 557.41 131.96 522.72 130.28L522.4 144.91L514.4 133.56C514.4 133.56 522.4 103.04 549.76 106.14C554.145 106.768 558.302 108.487 561.85 111.14C566.214 114.293 569.869 118.323 572.582 122.974C575.294 127.624 577.004 132.79 577.6 138.14L577.96 141.07C577.96 141.07 572.04 131.59 567.81 148.57L568.78 130.91Z" fill="#2F2E41"/>
<g opacity="0.2">
<path d="M523.85 118.27C522.456 118.182 521.124 117.661 520.04 116.78C519.876 116.631 519.777 116.424 519.762 116.203C519.747 115.983 519.817 115.764 519.959 115.594C520.101 115.424 520.303 115.315 520.523 115.29C520.743 115.265 520.964 115.326 521.14 115.46C521.14 115.46 522.84 116.85 524.35 116.46C524.788 116.315 525.186 116.07 525.513 115.746C525.841 115.422 526.09 115.026 526.24 114.59C526.342 114.394 526.516 114.244 526.725 114.173C526.934 114.101 527.163 114.113 527.364 114.206C527.564 114.298 527.722 114.465 527.803 114.67C527.884 114.876 527.883 115.105 527.8 115.31C527.549 115.993 527.138 116.606 526.603 117.098C526.067 117.59 525.422 117.948 524.72 118.14C524.436 118.218 524.144 118.262 523.85 118.27Z" fill="black"/>
</g>
<g opacity="0.2">
<path d="M547.74 117.73C546.344 117.638 545.01 117.118 543.92 116.24C543.747 116.092 543.639 115.883 543.619 115.657C543.598 115.431 543.667 115.206 543.81 115.03C543.955 114.854 544.163 114.742 544.39 114.719C544.617 114.697 544.844 114.765 545.02 114.91C545.02 114.91 546.74 116.29 548.23 115.91C548.668 115.764 549.066 115.52 549.393 115.196C549.721 114.871 549.97 114.476 550.12 114.04C550.222 113.844 550.396 113.694 550.605 113.622C550.814 113.551 551.043 113.563 551.244 113.655C551.444 113.748 551.602 113.914 551.683 114.12C551.764 114.326 551.763 114.555 551.68 114.76C551.431 115.442 551.022 116.055 550.488 116.547C549.954 117.039 549.31 117.397 548.61 117.59C548.326 117.67 548.034 117.717 547.74 117.73Z" fill="black"/>
</g>
<g opacity="0.2">
<path d="M585.91 144.93C584.513 144.841 583.178 144.32 582.09 143.44C581.926 143.291 581.827 143.084 581.812 142.864C581.797 142.643 581.867 142.425 582.009 142.254C582.151 142.084 582.353 141.976 582.573 141.951C582.793 141.926 583.014 141.986 583.19 142.12C583.19 142.12 584.89 143.49 586.4 143.12C586.838 142.975 587.236 142.73 587.563 142.406C587.891 142.082 588.14 141.686 588.29 141.25C588.386 141.044 588.559 140.883 588.773 140.804C588.987 140.726 589.223 140.735 589.43 140.83C589.533 140.877 589.626 140.943 589.703 141.026C589.781 141.108 589.841 141.206 589.88 141.312C589.919 141.418 589.936 141.531 589.931 141.644C589.926 141.757 589.898 141.868 589.85 141.97C589.601 142.652 589.192 143.265 588.658 143.757C588.124 144.249 587.48 144.607 586.78 144.8C586.495 144.872 586.204 144.916 585.91 144.93Z" fill="black"/>
</g>
<path d="M574.16 140.85C573.759 136.396 572.952 131.988 571.75 127.68C570.623 123.449 568.881 119.406 566.58 115.68C564.379 112.057 561.21 109.12 557.43 107.2C553.617 105.414 549.387 104.705 545.2 105.15C540.942 105.528 536.811 106.791 533.069 108.857C529.327 110.924 526.058 113.748 523.47 117.15C520.841 120.619 518.999 124.618 518.07 128.87C517.139 133.221 516.873 137.689 517.28 142.12C516.161 137.692 515.862 133.096 516.4 128.56C516.991 123.906 518.662 119.454 521.28 115.56C523.942 111.632 527.444 108.346 531.533 105.938C535.621 103.531 540.194 102.063 544.92 101.64C547.301 101.462 549.695 101.569 552.05 101.96C554.441 102.336 556.755 103.099 558.9 104.22C563.14 106.504 566.616 109.98 568.9 114.22C571.112 118.275 572.639 122.667 573.42 127.22C574.231 131.715 574.479 136.294 574.16 140.85Z" fill="#0071F2"/>
<path d="M599.29 631C599.29 631 565.54 631.64 557.49 624V631H542.63C542.63 631 537.96 606.14 545.87 607.42C553.78 608.7 581.93 630.18 582.56 615.42L593.56 621.11C595.275 621.989 596.714 623.324 597.718 624.968C598.722 626.613 599.252 628.503 599.25 630.43L599.29 631Z" fill="#2F2E41"/>
<path d="M430.06 631C430.06 631 463.81 631.64 471.86 624V631H486.72C486.72 631 491.39 606.14 483.48 607.42C475.57 608.7 447.43 630.18 446.79 615.42L435.79 621.11C434.077 621.99 432.639 623.326 431.635 624.97C430.631 626.614 430.1 628.503 430.1 630.43L430.06 631Z" fill="#2F2E41"/>
<g opacity="0.2">
<path d="M560.54 302C560.356 302.001 560.176 301.942 560.028 301.832C559.88 301.722 559.772 301.567 559.72 301.39L559 299C558.956 298.889 558.936 298.771 558.941 298.652C558.945 298.534 558.974 298.417 559.025 298.311C559.077 298.204 559.15 298.108 559.24 298.031C559.33 297.954 559.436 297.896 559.549 297.862C559.663 297.827 559.782 297.816 559.9 297.83C560.018 297.844 560.132 297.882 560.234 297.942C560.337 298.002 560.426 298.082 560.496 298.178C560.565 298.274 560.615 298.384 560.64 298.5L561.39 300.97C561.456 301.189 561.433 301.425 561.326 301.627C561.22 301.829 561.038 301.981 560.82 302.05C560.725 302.046 560.631 302.029 560.54 302Z" fill="black"/>
<path d="M566 320.16C565.816 320.161 565.636 320.102 565.488 319.992C565.34 319.882 565.232 319.727 565.18 319.55L563.84 315C563.796 314.889 563.776 314.771 563.781 314.653C563.785 314.534 563.814 314.417 563.865 314.311C563.917 314.204 563.99 314.109 564.08 314.031C564.171 313.954 564.276 313.896 564.389 313.862C564.503 313.827 564.622 313.816 564.74 313.83C564.858 313.844 564.972 313.882 565.074 313.942C565.177 314.002 565.266 314.082 565.336 314.178C565.405 314.274 565.455 314.384 565.48 314.5L566.86 319.03C566.892 319.138 566.903 319.252 566.891 319.364C566.879 319.477 566.846 319.586 566.792 319.685C566.738 319.784 566.665 319.872 566.577 319.943C566.489 320.015 566.388 320.068 566.28 320.1C566.192 320.138 566.096 320.159 566 320.16ZM563.26 311.1C563.075 311.098 562.895 311.038 562.746 310.929C562.597 310.82 562.487 310.666 562.43 310.49L561.09 306C561.049 305.89 561.031 305.774 561.037 305.657C561.043 305.54 561.073 305.426 561.124 305.321C561.176 305.216 561.248 305.123 561.337 305.047C561.426 304.971 561.529 304.914 561.641 304.879C561.752 304.844 561.87 304.833 561.986 304.845C562.102 304.857 562.215 304.893 562.317 304.95C562.419 305.007 562.508 305.085 562.579 305.177C562.65 305.27 562.701 305.377 562.73 305.49L564.11 310.03C564.176 310.247 564.152 310.482 564.046 310.682C563.939 310.883 563.757 311.033 563.54 311.1C563.457 311.113 563.373 311.113 563.29 311.1H563.26Z" fill="black"/>
<path d="M568.15 327.16C567.966 327.161 567.786 327.102 567.638 326.992C567.49 326.882 567.382 326.727 567.33 326.55L566.58 324.08C566.514 323.861 566.537 323.625 566.645 323.423C566.753 323.222 566.936 323.071 567.155 323.005C567.374 322.939 567.61 322.962 567.812 323.07C568.013 323.178 568.164 323.361 568.23 323.58L568.98 326.05C569.014 326.158 569.025 326.272 569.014 326.385C569.003 326.498 568.97 326.607 568.916 326.707C568.861 326.807 568.788 326.895 568.7 326.966C568.611 327.036 568.509 327.089 568.4 327.12C568.32 327.148 568.235 327.162 568.15 327.16Z" fill="black"/>
</g>
<g opacity="0.2">
<path d="M581.74 226.64C579.688 233.362 576.542 239.7 572.43 245.4C574.492 238.682 577.637 232.346 581.74 226.64Z" fill="black"/>
</g>
<g opacity="0.2">
<path d="M501.94 244.6C498.415 236.917 495.955 228.789 494.63 220.44C496.428 224.261 497.926 228.216 499.11 232.27C500.367 236.302 501.313 240.424 501.94 244.6Z" fill="black"/>
</g>
<path d="M713.17 303.64V587.68H675.19L670.24 339.97H660.33L641.34 587.68H603.36L619.87 303.64H713.17Z" fill="#0071F2"/>
<g opacity="0.2">
<path d="M615.33 200.43C615.68 204.32 615.85 208.2 615.99 212.09C616.13 215.98 616.17 219.87 616.19 223.75C616.21 227.63 616.19 231.53 615.99 235.42L615.75 241.25C615.61 243.19 615.52 245.14 615.33 247.08C615.13 245.14 615.05 243.19 614.91 241.25L614.67 235.42C614.51 231.53 614.49 227.64 614.47 223.75C614.45 219.86 614.47 215.98 614.67 212.09C614.87 208.2 615 204.32 615.33 200.43Z" fill="black"/>
</g>
<g opacity="0.2">
<path d="M716.06 202.49C716.49 209.49 716.72 216.59 716.93 223.64C717.14 230.69 717.19 237.75 717.34 244.8C717.49 251.85 717.41 258.91 717.34 265.96L717.21 276.54C717.1 280.07 717.05 283.6 716.89 287.13C716.66 283.6 716.54 280.08 716.36 276.55L716 266C715.8 258.94 715.73 251.89 715.6 244.84C715.47 237.79 715.52 230.73 715.6 223.68C715.68 216.63 715.78 209.55 716.06 202.49Z" fill="black"/>
</g>
<path d="M633.08 597.59C633.08 597.59 643.4 626.49 634.73 630.59H626.06C626.06 630.59 621.93 619.03 616.15 630.59H563.31C563.31 630.59 560.01 621.51 572.8 617.38C585.59 613.25 607.07 597.56 607.07 597.56L633.08 597.59Z" fill="#0071F2"/>
<path d="M634.73 587.68L633.08 597.59H607.07V587.68H634.73Z" fill="#B86A4B"/>
<path d="M681.58 597.59C681.58 597.59 671.26 626.49 679.93 630.59H688.6C688.6 630.59 692.73 619.03 698.51 630.59H751.35C751.35 630.59 754.65 621.51 741.85 617.38C729.05 613.25 707.59 597.56 707.59 597.56L681.58 597.59Z" fill="#0071F2"/>
<path d="M679.93 587.68L681.58 597.59H707.59V587.68H679.93Z" fill="#B86A4B"/>
<g opacity="0.2">
<path d="M657.94 339.27C660.7 338.658 663.523 338.369 666.35 338.41C669.177 338.364 672 338.653 674.76 339.27C671.999 339.879 669.177 340.164 666.35 340.12C663.523 340.159 660.702 339.874 657.94 339.27Z" fill="black"/>
</g>
<path d="M610.26 242.88L615.33 247.88L615.6 265.88C615.6 265.88 600.43 274.16 595.55 260.88L610.26 242.88Z" fill="#8C4D3E"/>
<path d="M520.2 168.82H513.08V153.54H520.2V168.82ZM514.37 167.53H518.91V154.83H514.37V167.53Z" fill="#0071F2"/>
<path d="M578.56 168H571.44V152.68H578.56V168ZM572.73 166.71H577.27V154H572.73V166.71Z" fill="#0071F2"/>
<path d="M572.72 154V152.2H577.06C576.08 153.876 574.545 155.157 572.72 155.82V154Z" fill="#8C4D3E"/>
<path d="M519 156.86V153.5H514.91C515.835 155.067 517.283 156.257 519 156.86Z" fill="#8C4D3E"/>
<path d="M229.25 192.39L231.44 197.71C231.955 198.968 232.134 200.339 231.959 201.687C231.784 203.036 231.26 204.315 230.44 205.4C230.103 205.863 229.71 206.283 229.27 206.65C228.633 207.208 227.906 207.654 227.12 207.97L219.39 211.16C219.118 211.274 218.837 211.364 218.55 211.43C218.04 211.602 217.508 211.696 216.97 211.71C215.32 211.841 213.671 211.444 212.261 210.575C210.852 209.707 209.755 208.413 209.13 206.88L207 201.56C206.524 200.402 206.527 199.103 207.009 197.948C207.491 196.792 208.412 195.876 209.57 195.4L223.12 189.83C224.273 189.363 225.564 189.37 226.712 189.849C227.86 190.328 228.772 191.242 229.25 192.39Z" fill="#FED4C0"/>
<path d="M230.48 205.4C230.143 205.863 229.75 206.283 229.31 206.65L225 196.53C224.919 196.339 224.917 196.124 224.995 195.931C225.073 195.739 225.224 195.586 225.415 195.505C225.606 195.424 225.821 195.422 226.013 195.5C226.206 195.578 226.359 195.729 226.44 195.92L230.48 205.4Z" fill="#F9C0AA"/>
<path d="M226.7 208.17L225.25 208.76L220.8 198.37C220.741 198.183 220.754 197.98 220.837 197.801C220.92 197.623 221.066 197.481 221.247 197.405C221.429 197.329 221.632 197.323 221.817 197.389C222.003 197.454 222.157 197.587 222.25 197.76L226.7 208.17Z" fill="#F9C0AA"/>
<path d="M222.43 209.92L220.97 210.52L216.64 200.37C216.566 200.183 216.567 199.974 216.644 199.788C216.72 199.601 216.866 199.452 217.05 199.37C217.238 199.299 217.445 199.301 217.631 199.377C217.817 199.454 217.967 199.598 218.05 199.78L222.43 209.92Z" fill="#F9C0AA"/>
<path d="M218.59 211.43C218.08 211.602 217.548 211.696 217.01 211.71L212.56 201.27C212.488 201.084 212.489 200.877 212.563 200.691C212.637 200.506 212.779 200.355 212.96 200.27C213.148 200.194 213.359 200.195 213.546 200.274C213.734 200.353 213.882 200.502 213.96 200.69L218.59 211.43Z" fill="#F9C0AA"/>
<path d="M583.44 199.59L581.21 204.9C580.685 206.153 579.844 207.247 578.77 208.078C577.695 208.909 576.424 209.447 575.08 209.64C574.514 209.722 573.94 209.739 573.37 209.69C572.526 209.631 571.698 209.431 570.92 209.1L563.21 205.87C562.448 205.534 561.74 205.085 561.11 204.54C559.846 203.46 558.96 202.005 558.58 200.386C558.201 198.767 558.348 197.07 559 195.54L561.23 190.23C561.716 189.079 562.638 188.167 563.794 187.695C564.951 187.223 566.247 187.228 567.4 187.71L580.91 193.38C581.486 193.619 582.008 193.97 582.448 194.413C582.887 194.855 583.234 195.38 583.469 195.958C583.705 196.535 583.823 197.153 583.818 197.777C583.813 198.4 583.685 199.017 583.44 199.59Z" fill="#FED4C0"/>
<path d="M575.08 209.64C574.514 209.722 573.94 209.739 573.37 209.69L577.5 199.49C577.578 199.298 577.73 199.145 577.921 199.064C578.112 198.983 578.328 198.982 578.52 199.06C578.712 199.138 578.866 199.29 578.946 199.481C579.027 199.672 579.028 199.888 578.95 200.08L575.08 209.64Z" fill="#F9C0AA"/>
<path d="M570.46 208.91L569 208.3L573.23 197.82C573.31 197.634 573.458 197.486 573.645 197.408C573.832 197.329 574.041 197.326 574.23 197.4C574.325 197.436 574.411 197.491 574.484 197.561C574.557 197.632 574.616 197.716 574.656 197.809C574.696 197.902 574.717 198.003 574.718 198.104C574.718 198.205 574.699 198.306 574.66 198.4L570.46 208.91Z" fill="#F9C0AA"/>
<path d="M566.19 207.12L564.74 206.51L568.89 196.28C568.925 196.185 568.979 196.097 569.05 196.024C569.12 195.95 569.205 195.892 569.298 195.852C569.392 195.813 569.493 195.793 569.595 195.795C569.697 195.796 569.797 195.818 569.89 195.86C570.075 195.942 570.222 196.09 570.301 196.276C570.381 196.461 570.388 196.67 570.32 196.86L566.19 207.12Z" fill="#F9C0AA"/>
<path d="M562.42 205.47C561.943 205.221 561.502 204.909 561.11 204.54L565.37 194C565.448 193.812 565.595 193.661 565.782 193.579C565.968 193.497 566.179 193.49 566.37 193.56C566.56 193.635 566.711 193.783 566.792 193.971C566.873 194.158 566.875 194.37 566.8 194.56L562.42 205.47Z" fill="#F9C0AA"/>
<path d="M713.74 162.22L711.51 167.52C710.986 168.773 710.146 169.869 709.072 170.7C707.997 171.531 706.725 172.069 705.38 172.26C704.815 172.351 704.24 172.368 703.67 172.31C702.827 172.254 701.999 172.058 701.22 171.73L693.51 168.49C693.233 168.385 692.968 168.251 692.72 168.09C692.241 167.848 691.8 167.539 691.41 167.17C690.147 166.089 689.262 164.633 688.883 163.015C688.503 161.397 688.65 159.699 689.3 158.17L691.53 152.87C692.016 151.719 692.938 150.807 694.094 150.335C695.251 149.862 696.547 149.868 697.7 150.35L711.21 156.02C711.785 156.259 712.306 156.61 712.744 157.051C713.183 157.493 713.53 158.017 713.765 158.593C714 159.17 714.119 159.787 714.115 160.409C714.11 161.032 713.983 161.647 713.74 162.22Z" fill="#8C4D3E"/>
<path d="M705.38 172.26C704.815 172.351 704.24 172.368 703.67 172.31L707.8 162.11C707.878 161.922 708.026 161.773 708.214 161.694C708.401 161.615 708.612 161.614 708.8 161.69C708.99 161.766 709.142 161.913 709.224 162.1C709.307 162.287 709.312 162.499 709.24 162.69L705.38 172.26Z" fill="#874032"/>
<path d="M700.76 171.53L699.31 170.93L703.54 160.44C703.622 160.256 703.771 160.109 703.957 160.031C704.142 159.953 704.351 159.949 704.54 160.02C704.726 160.1 704.874 160.249 704.952 160.435C705.031 160.622 705.033 160.831 704.96 161.02L700.76 171.53Z" fill="#874032"/>
<path d="M696.49 169.75L695.05 169.14L699.19 158.91C699.226 158.815 699.281 158.729 699.352 158.656C699.422 158.583 699.506 158.524 699.599 158.484C699.693 158.444 699.793 158.423 699.894 158.422C699.996 158.422 700.096 158.441 700.19 158.48C700.378 158.558 700.528 158.706 700.608 158.893C700.689 159.079 700.693 159.29 700.62 159.48L696.49 169.75Z" fill="#874032"/>
<path d="M692.72 168.09C692.241 167.849 691.8 167.539 691.41 167.17L695.67 156.65C695.748 156.462 695.895 156.311 696.082 156.229C696.268 156.148 696.479 156.141 696.67 156.21C696.765 156.247 696.851 156.302 696.924 156.372C696.997 156.442 697.056 156.526 697.096 156.62C697.136 156.713 697.157 156.813 697.158 156.914C697.158 157.016 697.139 157.116 697.1 157.21L692.72 168.09Z" fill="#874032"/>
<path d="M518.88 186L520.95 191.37C521.441 192.635 521.595 194.007 521.397 195.349C521.199 196.692 520.655 197.96 519.82 199.03C519.472 199.485 519.069 199.895 518.62 200.25C517.973 200.794 517.239 201.227 516.45 201.53L508.64 204.53C508.368 204.638 508.087 204.721 507.8 204.78C507.284 204.937 506.749 205.021 506.21 205.03C504.558 205.123 502.919 204.689 501.53 203.79C500.141 202.891 499.073 201.575 498.48 200.03L496.41 194.66C496.188 194.082 496.081 193.466 496.097 192.847C496.113 192.229 496.251 191.619 496.502 191.053C496.754 190.488 497.115 189.977 497.564 189.551C498.013 189.125 498.542 188.792 499.12 188.57L512.79 183.3C513.367 183.077 513.983 182.971 514.601 182.986C515.219 183.001 515.829 183.138 516.394 183.389C516.96 183.639 517.47 183.999 517.897 184.447C518.323 184.895 518.657 185.423 518.88 186Z" fill="#B86A4B"/>
<path d="M519.82 199.07C519.472 199.525 519.069 199.935 518.62 200.29L514.53 190.08C514.457 189.89 514.461 189.68 514.542 189.493C514.622 189.306 514.772 189.158 514.96 189.08C515.15 189.01 515.36 189.015 515.546 189.096C515.732 189.176 515.88 189.324 515.96 189.51L519.82 199.07Z" fill="#B2593D"/>
<path d="M516 201.75L514.53 202.32L510.32 191.83C510.251 191.638 510.259 191.426 510.343 191.239C510.427 191.053 510.58 190.906 510.77 190.83C510.865 190.793 510.965 190.775 511.067 190.777C511.168 190.779 511.269 190.801 511.362 190.842C511.454 190.883 511.538 190.942 511.609 191.015C511.679 191.089 511.733 191.175 511.77 191.27L516 201.75Z" fill="#B2593D"/>
<path d="M511.67 203.41L510.2 203.98L506.1 193.73C506.061 193.636 506.042 193.536 506.042 193.434C506.043 193.333 506.064 193.233 506.104 193.139C506.144 193.046 506.203 192.962 506.276 192.892C506.349 192.821 506.435 192.766 506.53 192.73C506.72 192.66 506.93 192.665 507.116 192.745C507.302 192.825 507.45 192.974 507.53 193.16L511.67 203.41Z" fill="#B2593D"/>
<path d="M507.8 204.83C507.284 204.987 506.749 205.071 506.21 205.08L502 194.54C501.932 194.35 501.939 194.141 502.019 193.955C502.098 193.77 502.245 193.621 502.43 193.54C502.622 193.468 502.835 193.475 503.022 193.559C503.21 193.644 503.356 193.798 503.43 193.99L507.8 204.83Z" fill="#B2593D"/>
</svg>
