<svg width="134" height="134" viewBox="0 0 134 134" fill="none" xmlns="http://www.w3.org/2000/svg">
<path d="M66.6667 68.9123C82.7293 68.9123 95.7973 51.8657 95.7973 35.7977C95.7973 19.7403 82.7296 6.66699 66.6667 6.66699C50.6037 6.66699 37.536 19.7399 37.536 35.803C37.536 51.8603 50.6037 68.9123 66.6667 68.9123Z" fill="#0071F2"/>
<path d="M88.536 69.2081C82.885 73.5155 75.8382 76.0727 68.1974 76.0727L65.1348 76.0779C57.4994 76.0779 50.4468 73.5153 44.7962 69.2133C26.3428 72.1925 12.2548 88.1867 12.2548 107.473C12.2548 118.072 36.6148 126.667 66.6668 126.667C96.7135 126.667 121.079 118.073 121.079 107.473C121.079 88.1867 106.985 72.192 88.5375 69.208L88.536 69.2081Z" fill="#0071F2"/>
</svg>
