<svg width="415" height="579" viewBox="0 0 415 579" fill="none" xmlns="http://www.w3.org/2000/svg">
<path d="M99.0013 258.481L77.9413 258.931L67.2513 259.101C63.6713 259.181 60.0713 259.101 56.4913 259.181H55.7913V258.461L55.7113 240.461V239.641H56.5113L77.7613 239.741C84.8413 239.741 91.9413 239.911 99.0213 240.011H99.4713V240.441C99.4713 243.491 99.3413 246.531 99.2613 249.511L99.0013 258.481ZM99.0013 258.481L98.7813 249.391C98.7813 246.391 98.6013 243.451 98.5713 240.521L99.0013 240.951C91.9213 241.031 84.8313 241.211 77.7513 241.221L56.4913 241.321L57.3013 240.521V258.521L56.5713 257.801C60.0713 257.801 63.5713 257.801 67.0913 257.891L77.6513 258.071L99.0013 258.481Z" fill="#EBEBEB"/>
<path d="M75.2913 281.13L54.2113 281.58L43.5213 281.76H32.0413V262.36H32.8513L54.1013 262.46C61.1813 262.46 68.2813 262.64 75.3613 262.73H75.8013V263.17C75.8013 266.22 75.6813 269.25 75.6013 272.24L75.2913 281.13ZM75.2913 281.13L75.0713 272.04C74.9913 269.04 74.8913 266.1 74.8613 263.17L75.2913 263.6C68.2113 263.6 61.1213 263.86 54.0413 263.87L32.7813 263.97L33.5913 263.17L33.4913 281.17L32.7813 280.45C36.2813 280.45 39.7813 280.45 43.2813 280.54L53.8413 280.72L75.2913 281.13Z" fill="#EBEBEB"/>
<path d="M122.671 281.13L101.611 281.58L90.9213 281.76H79.5013V281.03L79.4013 263.03V262.23H80.2013L101.461 262.32C108.551 262.32 115.631 262.5 122.711 262.6H123.161V263.03C123.161 266.08 123.021 269.11 122.941 272.1L122.671 281.13ZM122.671 281.13L122.451 272.04C122.451 269.04 122.271 266.1 122.241 263.17L122.671 263.6C115.591 263.6 108.511 263.86 101.421 263.87L80.1613 263.97L80.9713 263.17L80.8913 281.17L80.1613 280.45C83.6613 280.45 87.1613 280.45 90.6813 280.54L101.241 280.72L122.671 281.13Z" fill="#EBEBEB"/>
<path d="M118.571 50.6309H30.6213V157.321H118.571V50.6309Z" fill="#EBEBEB"/>
<path d="M108.531 60.3506H40.6713V147.571H108.531V60.3506Z" fill="white"/>
<path d="M43.3213 60.3506H40.6713V147.571H43.3213V60.3506Z" fill="#DBDBDB"/>
<path d="M121.201 50.6309H118.551V157.321H121.201V50.6309Z" fill="#DBDBDB"/>
<path d="M79.4013 72.3809H63.4013V120.041H79.4013V72.3809Z" fill="#DBDBDB"/>
<path d="M99.8813 129H55.6113V104H99.8813V129ZM57.2213 127.39H98.2813V105.64H57.2213V127.39Z" fill="#EBEBEB"/>
<path d="M16.6413 163.33H13.9913V270.02H16.6413V163.33Z" fill="#DBDBDB"/>
<path d="M274.291 0H25.2013C18.4576 0.0633679 12.015 2.80185 7.28963 7.61351C2.56422 12.4252 -0.0572773 18.9163 0.00134118 25.66V553.18C-0.0329773 556.524 0.591629 559.841 1.83951 562.943C3.08738 566.045 4.93408 568.871 7.27415 571.26C9.61422 573.648 12.4018 575.552 15.4778 576.863C18.5538 578.174 21.8578 578.866 25.2013 578.9H274.291C281.041 578.837 287.49 576.096 292.221 571.281C296.951 566.466 299.577 559.97 299.521 553.22V25.68C299.58 18.9292 296.955 12.4316 292.224 7.61586C287.492 2.80016 281.042 0.0607328 274.291 0ZM283.761 537.33C283.761 550.83 273.651 561.74 261.181 561.74H38.3513C25.8513 561.74 15.7413 550.83 15.7413 537.33V45.12C15.7413 17.61 25.8513 16.27 38.3513 16.27H82.9913C85.5713 16.27 87.7013 19.27 87.7013 22.88V24.42C87.7013 32.98 92.3213 33.01 98.1313 33.01H201.361C207.161 33.01 211.831 33.01 211.831 24.42V22.9C211.831 19.25 213.921 16.29 216.551 16.29H261.191C273.661 16.29 283.781 19.96 283.781 45.14L283.761 537.33Z" fill="#3F4347"/>
<path d="M283.761 45.1205V537.331C283.761 550.831 273.651 561.741 261.181 561.741H38.3513C25.8513 561.741 15.7413 550.831 15.7413 537.331V45.1205C15.7413 17.6105 25.8513 16.2705 38.3513 16.2705H82.9913C85.5713 16.2705 87.7013 19.2705 87.7013 22.8805V24.4205C87.7013 32.9805 92.3213 33.0105 98.1313 33.0105H201.361C207.161 33.0105 211.831 33.0105 211.831 24.4205V22.9005C211.831 19.2505 213.921 16.2905 216.551 16.2905H261.191C273.671 16.2705 283.761 19.9005 283.761 45.1205Z" fill="white"/>
<path d="M283.761 45.1005V537.331C283.761 550.831 273.651 561.741 261.181 561.741H38.3513C25.8513 561.741 15.7413 550.831 15.7413 537.331V45.1005C15.7413 17.6105 25.8513 16.2705 38.3513 16.2705H82.9913C85.5713 16.2705 87.7013 19.2705 87.7013 22.8805V24.4205C87.7013 32.9905 92.3213 33.0205 98.1313 33.0205H201.361C207.161 33.0205 211.831 33.0205 211.831 24.4205V22.9005C211.831 19.2505 213.921 16.2905 216.551 16.2905H261.191C273.671 16.2705 283.761 19.9005 283.761 45.1005Z" fill="white"/>
<path d="M283.761 45.1205V87.6205H15.7613V45.1205C15.7613 17.6105 25.8713 16.2705 38.3713 16.2705H83.0113C85.5913 16.2705 87.7213 19.2705 87.7213 22.8805V24.4205C87.7213 32.9805 92.3413 33.0105 98.1513 33.0105H201.361C207.161 33.0105 211.831 33.0105 211.831 24.4205V22.9005C211.831 19.2505 213.921 16.2905 216.551 16.2905H261.191C273.671 16.2705 283.761 19.9005 283.761 45.1205Z" fill="#0071F2"/>
<path d="M75.2813 27.0003C75.1413 27.1403 74.9813 27.2803 74.8513 27.4303L74.6013 27.6803C73.5005 26.5799 72.0078 25.9617 70.4513 25.9617C68.8949 25.9617 67.4021 26.5799 66.3013 27.6803L66.0713 27.4303C65.9172 27.2947 65.7704 27.1512 65.6313 27.0003L66.1913 26.5103C66.5746 26.1897 66.9982 25.9208 67.4513 25.7103C67.9752 25.4435 68.534 25.2516 69.1113 25.1403L69.9613 25.0303H71.2513C71.7775 25.0919 72.2945 25.2161 72.7913 25.4003C73.1389 25.5327 73.4737 25.6967 73.7913 25.8903C74.1462 26.0912 74.4811 26.3256 74.7913 26.5903L75.2413 26.9903L75.2813 27.0003Z" fill="white"/>
<path d="M67.6713 29.03L66.9913 28.36C67.7323 27.5969 68.7075 27.1041 69.7613 26.96C70.516 26.8457 71.2869 26.9111 72.0115 27.1509C72.7361 27.3907 73.3939 27.7981 73.9313 28.34L73.2413 29.02C72.495 28.2961 71.4961 27.8912 70.4563 27.8912C69.4166 27.8912 68.4177 28.2961 67.6713 29.02V29.03Z" fill="white"/>
<path d="M72.5513 29.7101L71.8713 30.3901C71.6869 30.198 71.4646 30.0463 71.2184 29.9447C70.9722 29.8432 70.7076 29.7939 70.4413 29.8001C70.1757 29.7986 69.9125 29.85 69.667 29.9513C69.4214 30.0526 69.1986 30.2018 69.0113 30.3901L68.3313 29.7101C68.8926 29.1574 69.6487 28.8477 70.4363 28.8477C71.224 28.8477 71.9801 29.1574 72.5413 29.7101H72.5513Z" fill="white"/>
<path d="M71.0613 31.0007C71.0613 31.1651 70.996 31.3228 70.8797 31.4391C70.7634 31.5554 70.6057 31.6207 70.4413 31.6207C70.3604 31.6207 70.2802 31.6046 70.2056 31.5733C70.1309 31.5421 70.0632 31.4962 70.0064 31.4385C69.9496 31.3808 69.9049 31.3124 69.8748 31.2372C69.8448 31.1621 69.83 31.0817 69.8313 31.0007C69.8313 30.8389 69.8956 30.6838 70.01 30.5694C70.1244 30.455 70.2795 30.3907 70.4413 30.3907C70.5222 30.3894 70.6026 30.4042 70.6778 30.4342C70.753 30.4643 70.8214 30.509 70.8791 30.5658C70.9368 30.6226 70.9827 30.6903 71.0139 30.7649C71.0452 30.8396 71.0613 30.9198 71.0613 31.0007Z" fill="white"/>
<path d="M33.2213 28.31C33.2174 27.9556 33.3187 27.6079 33.5126 27.3112C33.7064 27.0144 33.984 26.7819 34.3101 26.643C34.6362 26.5042 34.9962 26.4653 35.3445 26.5313C35.6927 26.5973 36.0135 26.7652 36.2663 27.0137C36.519 27.2622 36.6922 27.5802 36.7641 27.9273C36.8359 28.2744 36.8031 28.635 36.6697 28.9634C36.5364 29.2918 36.3086 29.5732 36.0151 29.772C35.7216 29.9708 35.3758 30.078 35.0213 30.08C34.5483 30.0826 34.0935 29.898 33.7562 29.5663C33.4189 29.2347 33.2266 28.783 33.2213 28.31Z" fill="white"/>
<path d="M38.8113 28.31C38.8074 27.9556 38.9087 27.6079 39.1026 27.3112C39.2964 27.0144 39.5739 26.7819 39.9001 26.643C40.2262 26.5042 40.5862 26.4653 40.9345 26.5313C41.2827 26.5973 41.6035 26.7652 41.8563 27.0137C42.109 27.2622 42.2823 27.5802 42.3541 27.9273C42.4259 28.2744 42.3931 28.635 42.2597 28.9634C42.1264 29.2918 41.8986 29.5732 41.6051 29.772C41.3116 29.9708 40.9658 30.078 40.6113 30.08C40.1383 30.0826 39.6835 29.898 39.3462 29.5663C39.0089 29.2347 38.8166 28.783 38.8113 28.31Z" fill="white"/>
<path d="M44.4113 28.3107C44.4087 27.8377 44.5933 27.3829 44.925 27.0456C45.2567 26.7083 45.7083 26.516 46.1813 26.5107C46.6317 26.5445 47.0526 26.7472 47.3598 27.0782C47.667 27.4092 47.8376 27.8441 47.8376 28.2957C47.8376 28.7473 47.667 29.1822 47.3598 29.5133C47.0526 29.8443 46.6317 30.047 46.1813 30.0807C45.7119 30.0807 45.2617 29.8943 44.9298 29.5623C44.5978 29.2304 44.4113 28.7802 44.4113 28.3107Z" fill="white"/>
<path d="M50.0013 28.31C49.9974 27.9556 50.0987 27.6079 50.2926 27.3112C50.4864 27.0144 50.764 26.7819 51.0901 26.643C51.4162 26.5042 51.7762 26.4653 52.1245 26.5313C52.4727 26.5973 52.7935 26.7652 53.0463 27.0137C53.299 27.2622 53.4722 27.5802 53.5441 27.9273C53.6159 28.2744 53.5831 28.635 53.4497 28.9634C53.3164 29.2918 53.0886 29.5732 52.7951 29.772C52.5016 29.9708 52.1558 30.078 51.8013 30.08C51.3283 30.0826 50.8735 29.898 50.5362 29.5663C50.1989 29.2347 50.0066 28.783 50.0013 28.31Z" fill="white"/>
<path d="M55.6013 28.3109C55.6013 27.8386 55.7868 27.3853 56.1179 27.0485C56.449 26.7118 56.8992 26.5187 57.3713 26.5108C57.7245 26.507 58.0708 26.6077 58.3669 26.8002C58.6629 26.9928 58.8954 27.2686 59.035 27.593C59.1747 27.9174 59.2152 28.2758 59.1516 28.6232C59.088 28.9706 58.923 29.2914 58.6775 29.5452C58.432 29.799 58.1169 29.9746 57.7718 30.0497C57.4267 30.1249 57.0672 30.0963 56.7383 29.9676C56.4095 29.8388 56.126 29.6157 55.9237 29.3262C55.7214 29.0367 55.6092 28.6939 55.6013 28.3409V28.3109Z" fill="white"/>
<path d="M263.671 32.1705H249.201V25.4805H263.671V32.1705ZM249.961 31.4505H262.961V26.2205H249.961V31.4505Z" fill="white"/>
<path d="M259.731 26.6201H250.401V31.0401H259.731V26.6201Z" fill="white"/>
<path d="M264.961 27.0508H263.671V30.6408H264.961V27.0508Z" fill="white"/>
<path d="M40.1813 71.8908L32.2513 64.4708L40.1813 57.0508L41.4013 58.3608L34.8913 64.4708L41.4013 70.5808L40.1813 71.8908Z" fill="white"/>
<path d="M259.351 57.0508L267.271 64.4708L259.351 71.8908L258.131 70.5808L264.641 64.4708L258.131 58.3608L259.351 57.0508Z" fill="white"/>
<path d="M163.831 22.3504H135.671C135.211 22.3478 134.77 22.1636 134.444 21.8379C134.118 21.5121 133.934 21.0711 133.931 20.6104C133.942 20.155 134.129 19.7216 134.454 19.4022C134.779 19.0829 135.216 18.9029 135.671 18.9004H163.821C164.049 18.8991 164.275 18.9429 164.486 19.0292C164.697 19.1156 164.889 19.2428 165.051 19.4036C165.213 19.5644 165.341 19.7555 165.429 19.9661C165.516 20.1766 165.561 20.4024 165.561 20.6304C165.563 20.8593 165.519 21.0862 165.432 21.2979C165.345 21.5096 165.216 21.7019 165.055 21.8637C164.893 22.0256 164.7 22.1537 164.489 22.2407C164.277 22.3276 164.05 22.3717 163.821 22.3704L163.831 22.3504Z" fill="white"/>
<path d="M265.601 108.82H33.9313V167.05H265.601V108.82Z" fill="#EBEBEB"/>
<path d="M67.7613 158.291C63.7359 158.279 59.8043 157.075 56.4628 154.83C53.1213 152.585 50.5198 149.401 48.9866 145.679C47.4535 141.957 47.0575 137.864 47.8486 133.917C48.6397 129.971 50.5825 126.347 53.4317 123.503C56.2809 120.659 59.9087 118.724 63.8571 117.94C67.8055 117.157 71.8976 117.561 75.6165 119.101C79.3355 120.642 82.5147 123.25 84.7528 126.595C86.9908 129.941 88.1873 133.875 88.1913 137.901C88.19 140.58 87.6602 143.233 86.6322 145.707C85.6041 148.181 84.0981 150.428 82.2003 152.319C80.3026 154.211 78.0504 155.709 75.5727 156.728C73.095 157.748 70.4406 158.269 67.7613 158.261V158.291ZM67.7613 120.411C64.2946 120.409 60.9052 121.435 58.0215 123.359C55.1379 125.283 52.8894 128.019 51.5605 131.221C50.2316 134.423 49.8818 137.947 50.5555 141.347C51.2291 144.748 52.8959 147.872 55.3452 150.326C57.7944 152.779 60.916 154.451 64.3155 155.131C67.7149 155.81 71.2395 155.466 74.4436 154.143C77.6477 152.82 80.3875 150.576 82.3166 147.695C84.2456 144.815 85.2774 141.427 85.2813 137.961C85.2813 133.311 83.4365 128.852 80.1517 125.562C76.8669 122.271 72.4107 120.419 67.7613 120.411Z" fill="#DBDBDB"/>
<path d="M60.1126 128.052L57.8923 130.272L75.4073 147.787L77.6276 145.567L60.1126 128.052Z" fill="#DBDBDB"/>
<path d="M75.4215 128.059L57.9064 145.574L60.1267 147.795L77.6418 130.279L75.4215 128.059Z" fill="#DBDBDB"/>
<path d="M252.111 122.41H103.091V125.23H252.111V122.41Z" fill="#DBDBDB"/>
<path d="M252.111 133.66H103.091V136.48H252.111V133.66Z" fill="#DBDBDB"/>
<path d="M224.741 139.311H103.091V142.131H224.741V139.311Z" fill="#DBDBDB"/>
<path d="M183.831 144.98H103.091V147.8H183.831V144.98Z" fill="#DBDBDB"/>
<path d="M224.741 150.641H103.091V153.461H224.741V150.641Z" fill="#DBDBDB"/>
<path d="M265.601 258.181H33.9313V316.411H265.601V258.181Z" fill="#EBEBEB"/>
<path d="M67.7613 307.631C62.3504 307.624 57.1636 305.469 53.341 301.639C49.5185 297.81 47.373 292.619 47.3763 287.208C47.3797 281.797 49.5315 276.609 53.3587 272.784C57.186 268.959 62.3754 266.811 67.7863 266.811C73.1972 266.811 78.3867 268.959 82.214 272.784C86.0412 276.609 88.193 281.797 88.1963 287.208C88.1997 292.619 86.0542 297.81 82.2316 301.639C78.4091 305.469 73.2223 307.624 67.8114 307.631H67.7613ZM67.7613 269.751C64.2918 269.747 60.8991 270.772 58.0122 272.696C55.1254 274.621 52.8741 277.358 51.5432 280.562C50.2123 283.766 49.8615 287.293 50.5352 290.696C51.2089 294.1 52.8769 297.227 55.3281 299.683C57.7793 302.138 60.9036 303.811 64.306 304.491C67.7083 305.17 71.2357 304.826 74.4421 303.5C77.6484 302.175 80.3897 299.928 82.3191 297.045C84.2485 294.161 85.2793 290.77 85.2813 287.301C85.2813 282.651 83.4365 278.192 80.1517 274.901C76.8669 271.611 72.4107 269.758 67.7613 269.751Z" fill="#DBDBDB"/>
<path d="M60.1161 277.405L57.8958 279.625L75.4108 297.14L77.6311 294.92L60.1161 277.405Z" fill="#DBDBDB"/>
<path d="M75.4079 277.416L57.8928 294.931L60.1131 297.151L77.6282 279.636L75.4079 277.416Z" fill="#DBDBDB"/>
<path d="M252.111 271.75H103.091V274.57H252.111V271.75Z" fill="#DBDBDB"/>
<path d="M252.111 283.011H103.091V285.831H252.111V283.011Z" fill="#DBDBDB"/>
<path d="M224.741 288.67H103.091V291.49H224.741V288.67Z" fill="#DBDBDB"/>
<path d="M183.831 294.33H103.091V297.15H183.831V294.33Z" fill="#DBDBDB"/>
<path d="M224.741 300H103.091V302.82H224.741V300Z" fill="#DBDBDB"/>
<path d="M265.601 333.82H33.9313V392.05H265.601V333.82Z" fill="#EBEBEB"/>
<path d="M67.7613 383.29C62.361 383.276 57.1873 381.118 53.3764 377.292C49.5655 373.466 47.4291 368.283 47.4364 362.883C47.4436 357.482 49.594 352.306 53.4152 348.49C57.2364 344.674 62.416 342.53 67.8163 342.53C73.2167 342.53 78.3963 344.674 82.2175 348.49C86.0387 352.306 88.1891 357.482 88.1963 362.883C88.2036 368.283 86.0672 373.466 82.2563 377.292C78.4454 381.118 73.2717 383.276 67.8714 383.29H67.7613ZM67.7613 345.41C64.2947 345.408 60.9052 346.434 58.0216 348.358C55.1379 350.282 52.8895 353.018 51.5605 356.22C50.2316 359.422 49.8819 362.946 50.5555 366.347C51.2292 369.747 52.896 372.872 55.3452 375.325C57.7944 377.779 60.916 379.451 64.3155 380.13C67.7149 380.81 71.2395 380.466 74.4436 379.142C77.6477 377.819 80.3875 375.575 82.3166 372.695C84.2456 369.815 85.2774 366.427 85.2813 362.96V362.9C85.2602 358.265 83.406 353.826 80.1235 350.553C76.841 347.28 72.3969 345.438 67.7613 345.43V345.41Z" fill="#DBDBDB"/>
<path d="M60.1187 353.058L57.8984 355.278L75.4134 372.793L77.6337 370.573L60.1187 353.058Z" fill="#DBDBDB"/>
<path d="M75.3963 353.062L57.8813 370.577L60.1016 372.797L77.6167 355.282L75.3963 353.062Z" fill="#DBDBDB"/>
<path d="M252.111 347.41H103.091V350.23H252.111V347.41Z" fill="#DBDBDB"/>
<path d="M252.111 358.66H103.091V361.48H252.111V358.66Z" fill="#DBDBDB"/>
<path d="M224.741 364.33H103.091V367.15H224.741V364.33Z" fill="#DBDBDB"/>
<path d="M183.831 369.98H103.091V372.8H183.831V369.98Z" fill="#DBDBDB"/>
<path d="M224.741 375.641H103.091V378.461H224.741V375.641Z" fill="#DBDBDB"/>
<path d="M265.601 409.46H33.9313V467.69H265.601V409.46Z" fill="#EBEBEB"/>
<path d="M67.7613 458.9C62.3504 458.893 57.1636 456.738 53.341 452.909C49.5185 449.079 47.373 443.888 47.3763 438.478C47.3797 433.067 49.5315 427.879 53.3587 424.054C57.186 420.229 62.3754 418.08 67.7863 418.08C73.1972 418.08 78.3867 420.229 82.214 424.054C86.0412 427.879 88.193 433.067 88.1963 438.478C88.1997 443.888 86.0542 449.079 82.2316 452.909C78.4091 456.738 73.2223 458.893 67.8114 458.9H67.7613ZM67.7613 421.02C64.2918 421.016 60.8991 422.041 58.0122 423.966C55.1254 425.89 52.8741 428.628 51.5432 431.832C50.2123 435.036 49.8615 438.563 50.5352 441.966C51.2089 445.369 52.8769 448.497 55.3281 450.952C57.7793 453.407 60.9036 455.081 64.306 455.76C67.7083 456.44 71.2357 456.095 74.4421 454.77C77.6484 453.444 80.3897 451.198 82.3191 448.314C84.2485 445.431 85.2793 442.04 85.2813 438.57C85.276 433.924 83.4288 429.47 80.1446 426.184C76.8604 422.898 72.4072 421.048 67.7613 421.04V421.02Z" fill="#DBDBDB"/>
<path d="M60.1272 428.682L57.9069 430.902L75.4219 448.417L77.6423 446.197L60.1272 428.682Z" fill="#DBDBDB"/>
<path d="M75.4172 428.72L57.9022 446.235L60.1225 448.456L77.6376 430.941L75.4172 428.72Z" fill="#DBDBDB"/>
<path d="M252.111 423.051H103.091V425.871H252.111V423.051Z" fill="#DBDBDB"/>
<path d="M252.111 434.301H103.091V437.121H252.111V434.301Z" fill="#DBDBDB"/>
<path d="M224.741 439.971H103.091V442.791H224.741V439.971Z" fill="#DBDBDB"/>
<path d="M183.831 445.631H103.091V448.451H183.831V445.631Z" fill="#DBDBDB"/>
<path d="M224.741 451.28H103.091V454.1H224.741V451.28Z" fill="#DBDBDB"/>
<path d="M273.191 181.4H26.3313V243.45H273.191V181.4Z" fill="#0071F2"/>
<path d="M278.591 249.11H20.9413V175.73H278.591V249.11ZM22.4813 247.57H277.051V177.27H22.4813V247.57Z" fill="#0071F2"/>
<path d="M59.3813 223.63L50.9213 215.09L53.7713 212.27L58.7013 217.28L68.9513 201.21L72.3013 203.36L59.3813 223.63Z" fill="white"/>
<path d="M62.3813 234.101C58.0914 234.101 53.8979 232.829 50.331 230.445C46.7641 228.062 43.984 224.674 42.3424 220.711C40.7007 216.748 40.2712 212.387 41.1081 208.179C41.945 203.972 44.0108 200.107 47.0442 197.074C50.0776 194.04 53.9424 191.974 58.1498 191.137C62.3573 190.301 66.7184 190.73 70.6817 192.372C74.6451 194.013 78.0326 196.794 80.4159 200.36C82.7992 203.927 84.0713 208.121 84.0713 212.411C84.066 218.162 81.7791 223.676 77.7126 227.742C73.6461 231.809 68.1322 234.095 62.3813 234.101ZM62.3813 193.741C58.6844 193.739 55.0699 194.833 51.995 196.886C48.9201 198.938 46.523 201.856 45.1069 205.271C43.6908 208.686 43.3192 212.445 44.0392 216.071C44.7593 219.697 46.5385 223.028 49.152 225.643C51.7654 228.258 55.0956 230.039 58.7214 230.761C62.3472 231.483 66.1056 231.113 69.5214 229.699C72.9371 228.285 75.8567 225.889 77.9108 222.815C79.9649 219.742 81.0613 216.128 81.0613 212.431C81.0627 209.977 80.5804 207.547 79.6423 205.279C78.7041 203.012 77.3284 200.951 75.5936 199.216C73.8589 197.48 71.7992 196.103 69.5322 195.164C67.2651 194.224 64.8352 193.741 62.3813 193.741Z" fill="white"/>
<path d="M258.841 195.86H100.031V198.86H258.841V195.86Z" fill="white"/>
<path d="M258.841 207.86H100.031V210.86H258.841V207.86Z" fill="white"/>
<path d="M229.671 213.891H100.031V216.891H229.671V213.891Z" fill="white"/>
<path d="M186.061 219.92H100.031V222.92H186.061V219.92Z" fill="white"/>
<path d="M229.671 225.96H100.031V228.96H229.671V225.96Z" fill="white"/>
<path d="M132.181 527.12C132.185 527.876 131.965 528.616 131.548 529.247C131.131 529.878 130.536 530.37 129.839 530.663C129.142 530.955 128.374 531.034 127.632 530.89C126.89 530.746 126.208 530.385 125.671 529.852C125.134 529.32 124.768 528.64 124.617 527.899C124.467 527.158 124.54 526.389 124.827 525.69C125.114 524.991 125.602 524.392 126.23 523.97C126.857 523.549 127.595 523.322 128.351 523.32C128.852 523.318 129.349 523.414 129.813 523.604C130.277 523.793 130.699 524.073 131.055 524.426C131.411 524.779 131.693 525.198 131.887 525.661C132.08 526.123 132.18 526.619 132.181 527.12Z" fill="#DBDBDB"/>
<path d="M149.761 533.37C153.213 533.37 156.011 530.572 156.011 527.12C156.011 523.668 153.213 520.87 149.761 520.87C146.31 520.87 143.511 523.668 143.511 527.12C143.511 530.572 146.31 533.37 149.761 533.37Z" fill="#DBDBDB"/>
<path d="M174.961 527.12C174.965 527.876 174.745 528.616 174.328 529.247C173.911 529.878 173.316 530.37 172.619 530.663C171.922 530.955 171.154 531.034 170.412 530.89C169.67 530.746 168.988 530.384 168.451 529.852C167.914 529.32 167.548 528.64 167.397 527.899C167.247 527.158 167.32 526.389 167.607 525.69C167.894 524.991 168.382 524.392 169.01 523.97C169.637 523.549 170.375 523.322 171.131 523.32C172.143 523.318 173.114 523.716 173.832 524.429C174.55 525.141 174.956 526.109 174.961 527.12Z" fill="#DBDBDB"/>
<path d="M369.331 128.9C375.561 143.07 382.561 160.05 390.331 172.2C389.601 171.733 388.766 171.458 387.901 171.4C386.111 171.4 385.901 171.98 386.231 171.81C389.231 169.86 391.541 166.37 394.011 162.89C398.311 156.435 402.276 149.763 405.891 142.9C406.447 141.856 407.375 141.06 408.491 140.669C409.607 140.278 410.829 140.321 411.915 140.789C413.001 141.258 413.87 142.118 414.351 143.198C414.832 144.278 414.89 145.5 414.511 146.62C411.788 154.386 408.537 161.957 404.781 169.28C400.891 176.92 392.571 191.11 381.781 184.35C376.251 180.15 373.151 174.03 369.631 168.78C363.241 158.32 357.521 147.71 351.991 136.78C346.551 125.1 363.671 117.04 369.201 128.84L369.331 128.9Z" fill="#F9B499"/>
<path d="M363.821 122.46C372.301 122.99 386.501 149.72 386.501 149.72L360.501 168.99C360.501 168.99 355.861 129.55 355.861 129.49C355.861 129.43 363.821 122.46 363.821 122.46Z" fill="#0071F2"/>
<path opacity="0.7" d="M386.541 149.76L373.541 159.35L364.541 165.99L360.451 168.99C360.451 168.99 357.641 145.16 356.451 134.53C356.081 131.47 355.841 129.53 355.841 129.53L363.841 122.46C370.841 122.89 381.771 141.27 385.351 147.63C386.111 148.96 386.541 149.76 386.541 149.76Z" fill="white"/>
<path d="M386.481 146.931L390.141 151.101L366.391 169.051L362.301 162.161L386.481 146.931Z" fill="#263238"/>
<path d="M390.181 141.251C390.136 141.414 390.123 141.584 390.144 141.752C390.165 141.919 390.218 142.081 390.302 142.228C390.386 142.375 390.498 142.504 390.631 142.607C390.765 142.711 390.918 142.787 391.081 142.831C391.145 142.836 391.208 142.836 391.271 142.831L405.601 144.781C406.001 144.832 406.406 144.736 406.74 144.509C407.073 144.282 407.312 143.941 407.411 143.551L414.491 115.751C414.6 115.377 414.555 114.975 414.368 114.634C414.18 114.293 413.865 114.04 413.491 113.931L399.161 111.931C398.745 111.949 398.346 112.096 398.018 112.353C397.689 112.609 397.45 112.961 397.331 113.361L390.181 141.251Z" fill="#3F4347"/>
<path opacity="0.2" d="M398.881 113.461L391.791 141.541C391.68 141.806 391.678 142.105 391.784 142.372C391.891 142.639 392.098 142.854 392.361 142.971C392.479 143.02 392.604 143.051 392.731 143.061L404.881 144.711C405.691 144.831 407.231 144.581 407.451 143.801L414.611 115.611C414.831 114.811 413.521 113.991 412.611 113.871L400.471 112.201C400.096 112.169 399.722 112.281 399.426 112.515C399.131 112.75 398.936 113.088 398.881 113.461Z" fill="white"/>
<path d="M414.901 145.711L413.111 129.551L402.671 141.731C402.671 141.731 400.411 152.171 409.891 151.471L414.901 145.711Z" fill="#F9B499"/>
<path d="M402.911 126.511L399.441 138.391L402.621 141.731L413.111 129.551L402.911 126.511Z" fill="#F9B499"/>
<path opacity="0.1" d="M378.811 159.691L366.481 169.051L364.671 166.051L360.581 169.051C360.581 169.051 357.781 145.221 356.581 134.591C358.811 136.481 376.571 139.161 378.811 159.691Z" fill="black"/>
<path d="M307.671 416.45L312.881 426.45C312.881 426.45 317.361 424.07 324.471 420.18C326.471 419.07 328.771 417.84 331.181 416.48C337.921 412.78 346.001 408.28 354.551 403.48L360.141 400.27C389.751 383.27 414.031 367.04 414.031 358.14C414.031 343.23 403.221 314.86 387.961 286.47C377.761 267.47 369.271 252.24 369.271 252.24L333.011 274.44C333.011 274.44 345.361 290.95 358.011 309.13C372.771 330.34 387.941 353.78 384.471 356.13C381.821 357.91 368.331 368.46 353.421 380.26L350.711 382.38C342.711 388.75 334.361 395.38 327.191 401.03L321.351 405.61L307.671 416.45Z" fill="#F9B499"/>
<path d="M333.021 274.381C333.021 274.381 345.361 290.891 358.021 309.071L387.911 286.411C377.711 267.411 369.221 252.181 369.221 252.181L333.021 274.381Z" fill="#F7A48B"/>
<path d="M321.411 405.53L324.491 420.15C333.401 415.28 346.491 408.08 360.141 400.21C357.821 393.16 355.141 385.21 353.421 380.21C342.281 388.96 330.331 398.46 321.411 405.53Z" fill="#F7A48B"/>
<path d="M291.671 292.82L298.671 314.12L300.091 318.5L310.761 350.9L311.971 354.62L319.021 376.04L327.191 400.96L330.971 412.49C330.971 413.79 331.111 415.11 331.201 416.38C334.791 471.44 363.471 543.38 363.471 543.38L373.671 540.62C370.031 497.38 362.261 446.98 354.511 403.36C353.221 396.12 351.961 389.05 350.611 382.24C349.891 378.35 349.191 374.67 348.511 371.03C347.031 363.24 345.631 355.96 344.251 349.14C343.611 345.91 342.981 342.81 342.401 339.8C340.901 332.36 339.541 325.74 338.331 320.05C337.121 314.36 336.171 309.68 335.391 306.05C334.301 300.84 333.671 297.9 333.671 297.9L291.671 292.82Z" fill="#F9B499"/>
<path d="M320.031 405.76C321.351 405.76 320.551 422.11 320.551 422.11C320.551 422.11 310.491 432.32 308.351 442.11C306.211 451.9 300.271 446.53 300.091 435.63C299.911 424.73 299.801 416.41 299.681 408.63C299.561 400.85 306.241 405.64 320.031 405.76Z" fill="#2F2E41"/>
<path d="M360.671 538.831C360.671 537.511 377.031 538.541 377.031 538.541C377.031 538.541 387.031 548.761 396.831 551.061C406.631 553.361 401.131 559.201 390.231 559.201H363.131C355.391 559.201 360.211 552.601 360.671 538.831Z" fill="#2F2E41"/>
<path opacity="0.7" d="M348.961 304.62L351.341 306.84L386.581 282.9L382.061 272.03C382.122 275.862 381.561 279.678 380.401 283.33C378.441 287.9 355.091 301.15 348.961 304.62Z" fill="white"/>
<path d="M291.671 292.82L298.671 314.12C317.931 318.69 330.391 320.12 338.411 320.12C337.241 314.46 336.251 309.75 335.471 306.12C334.341 300.89 333.721 297.97 333.721 297.97L291.671 292.82Z" fill="#F7A48B"/>
<path d="M386.481 282.951L351.221 306.901L348.961 304.691L340.961 297.131V316.041L292.291 307.311C284.911 274.641 285.841 250.441 289.031 233.821C290.512 225.446 293.168 217.322 296.921 209.691L297.541 203.521L363.391 210.361L364.031 214.661L367.201 235.901L382.021 272.111L386.481 282.951Z" fill="#2F2E41"/>
<path opacity="0.2" d="M340.861 297.08V276.08C340.861 276.08 350.271 291.82 348.861 304.65L340.861 297.08Z" fill="black"/>
<path d="M348.321 305.62L385.931 278.32L389.121 283.56L351.261 310.07L348.321 305.62Z" fill="#0071F2"/>
<path d="M291.191 303.98L342.901 313.11V318.19L292.751 310.07L291.191 303.98Z" fill="#0071F2"/>
<path opacity="0.2" d="M310.801 211.431C310.801 211.431 305.951 229.271 288.961 233.771C290.434 225.395 293.087 217.271 296.841 209.641L310.801 211.431Z" fill="black"/>
<path opacity="0.2" d="M367.201 235.9C360.911 229.83 359.101 214.62 359.101 214.62H364.031L367.201 235.9Z" fill="black"/>
<path opacity="0.2" d="M342.911 213.5C342.913 213.911 342.793 214.312 342.567 214.654C342.34 214.996 342.017 215.263 341.638 215.421C341.259 215.579 340.842 215.621 340.44 215.541C340.037 215.462 339.668 215.264 339.378 214.974C339.088 214.684 338.89 214.314 338.811 213.912C338.731 213.509 338.773 213.092 338.931 212.714C339.089 212.335 339.356 212.012 339.698 211.785C340.039 211.558 340.441 211.438 340.851 211.44C341.397 211.443 341.919 211.661 342.305 212.047C342.691 212.432 342.909 212.955 342.911 213.5Z" fill="black"/>
<path d="M298.221 205.79C283.001 202.32 298.031 202.54 293.081 133.79C292.763 130.309 293.04 126.798 293.901 123.41C294.681 120.715 296.394 118.386 298.733 116.838C301.072 115.29 303.886 114.624 306.671 114.96C309.321 115.26 311.671 115.53 312.201 115.55C313.621 115.55 315.081 115.65 316.551 115.74C326.476 116.146 336.358 117.265 346.121 119.09C348.531 119.58 351.011 120.16 353.421 120.73C354.201 120.92 363.161 122.3 363.861 122.5C363.861 122.5 374.101 138.41 373.161 149.93C372.641 156.36 370.461 161.09 370.281 176.51C369.891 211.51 377.211 210.51 362.011 211.51L298.221 205.79Z" fill="#0071F2"/>
<path opacity="0.1" d="M330.411 163.13C330.411 163.13 316.891 177.79 294.101 164.03C294.101 157.41 294.101 149.68 293.551 140.66C302.375 137.509 311.515 135.33 320.811 134.16L330.411 163.13Z" fill="black"/>
<path d="M359.611 132.431L373.801 124.351L378.801 137.721C378.801 137.721 369.671 144.771 361.541 139.901L359.611 132.431Z" fill="#F9B499"/>
<path d="M385.431 124.04L386.751 134.9L378.811 137.76L373.801 124.39L385.431 124.04Z" fill="#F9B499"/>
<path d="M312.791 125.561C316.572 140.622 322.532 155.051 330.481 168.391L330.891 169.071C330.477 168.458 329.951 167.929 329.341 167.511C328.642 166.988 327.83 166.638 326.97 166.487C326.11 166.336 325.227 166.388 324.391 166.641C330.501 163.421 335.331 157.641 340.391 152.731C346.451 146.451 352.521 139.871 358.501 133.271C359.295 132.451 360.358 131.945 361.495 131.847C362.631 131.749 363.765 132.066 364.687 132.738C365.609 133.41 366.257 134.393 366.511 135.505C366.766 136.618 366.609 137.784 366.071 138.791C359.323 150.881 351.351 162.248 342.281 172.711C339.079 176.569 335.152 179.763 330.721 182.111C328.193 183.355 325.29 183.603 322.587 182.807C319.885 182.01 317.58 180.227 316.131 177.811C305.445 163.199 297.95 146.505 294.131 128.811C292.191 116.291 310.131 112.961 312.771 125.381L312.791 125.561Z" fill="#F9B499"/>
<path d="M305.121 114.9C294.801 113.67 288.491 125.68 291.741 153.27H324.001C324.001 153.27 322.091 116.9 305.121 114.9Z" fill="#0071F2"/>
<path opacity="0.7" d="M305.121 114.9C294.801 113.67 288.491 125.68 291.741 153.27H324.001C324.001 153.27 322.091 116.9 305.121 114.9Z" fill="white"/>
<path d="M290.111 146.931L325.091 151.101L325.211 155.811H290.881L290.111 146.931Z" fill="#2F2E41"/>
<path d="M331.221 36.1704C331.221 36.1704 338.641 30.8204 351.221 34.9204C363.801 39.0204 376.781 52.5404 371.041 71.9204C365.301 91.3004 366.041 103.65 366.041 103.65C366.041 103.65 322.871 96.5104 313.671 88.0804C304.471 79.6504 305.911 31.1904 331.221 36.1704Z" fill="#2F2E41"/>
<path d="M322.331 82.6309C323.831 92.3609 325.031 110.231 318.121 115.901C326.856 120.952 335.87 125.503 345.121 129.531C351.561 122.211 347.721 119.211 347.721 119.211C337.211 115.451 337.781 107.531 339.941 100.301L322.331 82.6309Z" fill="#F9B499"/>
<path d="M329.491 89.9004L339.891 100.35C339.372 102.049 339.001 103.788 338.781 105.55C334.781 104.55 329.351 99.3804 329.041 95.0604C328.875 93.3273 329.027 91.5785 329.491 89.9004Z" fill="#F7A48B"/>
<path d="M324.431 57.6804C321.311 73.1004 319.661 79.5704 325.051 89.7504C333.151 105.09 352.311 106.48 359.821 92.5404C366.621 79.9804 370.591 56.8504 357.741 46.1204C355.06 43.7237 351.787 42.0875 348.261 41.3812C344.735 40.6748 341.084 40.9241 337.686 42.1032C334.289 43.2822 331.268 45.3482 328.938 48.087C326.607 50.8259 325.051 54.138 324.431 57.6804Z" fill="#F9B499"/>
<path d="M328.011 69.0406C328.011 69.0406 339.381 62.0406 340.761 44.8506C340.761 44.8506 359.761 44.2506 366.391 61.0506C366.391 61.0506 364.011 36.8906 336.951 35.8806C309.891 34.8706 317.341 64.6206 319.431 67.7106C321.521 70.8006 328.011 69.0406 328.011 69.0406Z" fill="#2F2E41"/>
<path d="M316.231 68.5706C316.993 71.8034 319.003 74.6037 321.821 76.3606C325.501 78.5406 328.361 75.1106 328.191 70.7306C328.051 66.8406 325.971 60.8806 321.861 60.5106C317.751 60.1406 315.261 64.4406 316.231 68.5706Z" fill="#F9B499"/>
</svg>
