<svg width="866" height="683" viewBox="0 0 866 683" fill="none" xmlns="http://www.w3.org/2000/svg">
<path d="M438.496 662.687C601.025 659.254 732.242 630.971 731.577 599.514C730.913 568.057 598.619 545.34 436.09 548.773C273.561 552.205 142.344 580.489 143.009 611.946C143.673 643.402 275.967 666.12 438.496 662.687Z" fill="#0071F2"/>
<path opacity="0.7" d="M438.496 662.687C601.025 659.254 732.242 630.971 731.577 599.514C730.913 568.057 598.619 545.34 436.09 548.773C273.561 552.205 142.344 580.489 143.009 611.946C143.673 643.402 275.967 666.12 438.496 662.687Z" fill="white"/>
<path d="M763.6 415.72C763.6 415.72 856.4 328.15 805.41 211.87C791.25 179.56 768.34 151.87 739.85 131.05C676 84.4597 514.57 -7.72031 271.67 27.8797C245.578 31.6043 220.614 40.9792 198.52 55.3497C162.87 78.7397 125.08 121.7 141.15 195.35C146.83 221.35 145.55 248.5 136.15 273.43C126.87 298.14 109.29 328.43 76.57 361.12C76.57 361.12 6.84997 428.47 74.68 486.76C89.174 499.086 106.315 507.904 124.77 512.53C209.38 534.16 551.36 606 763.6 415.72Z" fill="#0071F2"/>
<path opacity="0.7" d="M763.6 415.72C763.6 415.72 856.4 328.15 805.41 211.87C791.25 179.56 768.34 151.87 739.85 131.05C676 84.4597 514.57 -7.72031 271.67 27.8797C245.578 31.6043 220.614 40.9792 198.52 55.3497C162.87 78.7397 125.08 121.7 141.15 195.35C146.83 221.35 145.55 248.5 136.15 273.43C126.87 298.14 109.29 328.43 76.57 361.12C76.57 361.12 6.84997 428.47 74.68 486.76C89.174 499.086 106.315 507.904 124.77 512.53C209.38 534.16 551.36 606 763.6 415.72Z" fill="white"/>
<path d="M280.08 621.19C280.08 621.19 283.82 625.38 283.77 626.93C278.582 628.112 273.309 628.884 268 629.24C260.94 629.53 250.28 626.88 248.41 626.02C246.54 625.16 247.08 622.79 247.08 622.79C247.08 622.79 252.87 620.17 257.08 620.19C261.29 620.21 273 621 280.08 621.19Z" fill="#F1F1F1"/>
<path d="M287.26 626.61C287.26 626.61 285.97 622.83 283.45 621.07C283.45 621.07 292.13 619.6 296.06 622.48C299.99 625.36 290.75 626.29 287.26 626.61Z" fill="#F1F1F1"/>
<path d="M336.27 611.38C336.27 611.38 339.66 607.38 339.47 605.8C334.17 604.47 328.779 603.534 323.34 603C316.18 602.47 305.66 604.74 303.85 605.54C302.04 606.34 302.85 608.71 302.85 608.71C302.85 608.71 308.93 611.51 313.15 611.63C317.37 611.75 329.13 611.3 336.27 611.38Z" fill="#F1F1F1"/>
<path d="M343 606.23C343 606.23 342 609.95 339.66 611.61C339.66 611.61 348.55 613.37 352.26 610.61C355.97 607.85 346.57 606.67 343 606.23Z" fill="#F1F1F1"/>
<path d="M172.26 618.65V613.65C173.652 613.845 174.981 614.35 176.15 615.13C178.72 617 175.67 618.06 172.26 618.65Z" fill="#F1F1F1"/>
<path d="M213.22 610.68C213.22 610.68 216.28 606.39 215.96 604.86C210.568 603.955 205.116 603.447 199.65 603.34C192.48 603.34 182.17 606.51 180.44 607.45C178.71 608.39 179.65 610.69 179.65 610.69C179.65 610.69 185.94 612.99 190.15 612.77C194.36 612.55 206.1 611.18 213.22 610.68Z" fill="#F1F1F1"/>
<path d="M219.53 605C219.53 605 218.88 608.78 216.63 610.63C216.63 610.63 225.63 611.63 229.12 608.63C232.61 605.63 223.11 605.16 219.53 605Z" fill="#F1F1F1"/>
<path d="M395.83 624.42C395.83 624.42 399.83 628.32 399.94 629.87C394.852 631.435 389.649 632.602 384.38 633.36C377.38 634.17 366.52 632.36 364.6 631.6C362.68 630.84 363.03 628.48 363.03 628.48C363.03 628.48 368.61 625.48 372.78 625.14C376.95 624.8 388.75 624.79 395.83 624.42Z" fill="#F1F1F1"/>
<path d="M403.39 629.3C403.39 629.3 401.82 625.62 399.18 624.06C399.18 624.06 407.72 621.94 411.86 624.52C416 627.1 406.85 628.72 403.39 629.3Z" fill="#F1F1F1"/>
<path d="M448.41 613.62C448.41 613.62 452.04 609.79 451.94 608.24C446.728 606.586 441.4 605.323 436 604.46C428.89 603.46 418.25 605.16 416.4 605.84C414.55 606.52 415.17 608.94 415.17 608.94C415.17 608.94 421.07 612.1 425.28 612.47C429.49 612.84 441.29 613.12 448.41 613.62Z" fill="#F1F1F1"/>
<path d="M455.46 608.88C455.46 608.88 454.28 612.54 451.8 614.05C451.8 614.05 460.58 616.33 464.44 613.83C468.3 611.33 459 609.53 455.46 608.88Z" fill="#F1F1F1"/>
<path d="M508.91 621.19C508.91 621.19 512.64 625.38 512.6 626.93C507.409 628.112 502.132 628.885 496.82 629.24C489.76 629.53 479.09 626.88 477.22 626.02C475.35 625.16 475.9 622.79 475.9 622.79C475.9 622.79 481.68 620.17 485.9 620.19C490.12 620.21 501.82 621 508.91 621.19Z" fill="#F1F1F1"/>
<path d="M516.08 626.61C516.08 626.61 514.79 622.83 512.27 621.07C512.27 621.07 520.95 619.6 524.89 622.48C528.83 625.36 519.57 626.29 516.08 626.61Z" fill="#F1F1F1"/>
<path d="M562 618C562 618 565.06 613.7 564.75 612.17C559.354 611.266 553.9 610.758 548.43 610.65C541.26 610.71 530.96 613.82 529.22 614.76C527.48 615.7 528.44 618 528.44 618C528.44 618 534.72 620.3 538.93 620.08C543.14 619.86 554.83 618.53 562 618Z" fill="#F1F1F1"/>
<path d="M568.27 612.36C568.27 612.36 567.61 616.14 565.37 617.99C565.37 617.99 574.37 618.99 577.85 615.99C581.33 612.99 571.84 612.51 568.27 612.36Z" fill="#F1F1F1"/>
<path d="M621.64 624.869C621.64 624.869 625.38 629.049 625.33 630.609C620.138 631.787 614.862 632.559 609.55 632.919C602.49 633.209 591.82 630.56 589.96 629.69C588.1 628.82 588.63 626.46 588.63 626.46C588.63 626.46 594.42 623.839 598.63 623.859C602.84 623.879 614.55 624.699 621.64 624.869Z" fill="#F1F1F1"/>
<path d="M628.82 630.29C628.82 630.29 627.53 626.5 625 624.75C625 624.75 633.68 623.28 637.62 626.16C641.56 629.04 632.3 630 628.82 630.29Z" fill="#F1F1F1"/>
<path d="M672.3 615.15V621.9C665.18 622.48 655.39 623.61 651.62 623.79C647.4 624.01 641.12 621.72 641.12 621.72C641.12 621.72 640.12 619.42 641.91 618.48C643.7 617.54 653.91 614.42 661.12 614.37C664.859 614.399 668.593 614.66 672.3 615.15Z" fill="#F1F1F1"/>
<path d="M630.62 605.78C630.709 601.572 630.031 597.384 628.62 593.42C627.92 591.42 604.47 600.3 602.18 601.05C594.44 603.61 588.73 608.1 582.06 612.88C578.9 615.15 575.69 617.45 572.06 618.75C568.43 620.05 564.06 620.32 560.26 621.64C556.46 622.96 552.67 625.87 552.26 629.91C560.34 632.49 569.06 634.45 577.26 632.22C585.18 630.07 591.54 624.31 598.8 620.49C603.845 617.915 609.233 616.077 614.8 615.03C614.8 616.6 614.88 618.18 614.93 619.75C619.052 619.744 623.153 619.155 627.11 618C627.635 617.883 628.127 617.651 628.55 617.32C628.945 616.909 629.233 616.407 629.39 615.86C630.546 612.633 630.966 609.189 630.62 605.78Z" fill="#0071F2"/>
<path d="M455 598.84C451.49 598.84 447.8 598.699 444.67 600.309C440.85 602.309 438.67 606.309 436.76 610.179C460.22 614.569 484.46 611.741 506.28 602.069C506.47 604.279 506.18 606.503 505.43 608.59C511.176 609.181 516.957 609.368 522.73 609.15C523.345 609.175 523.957 609.059 524.52 608.809C525.189 608.374 525.706 607.742 526 606.999C527.534 603.951 528.596 600.687 529.15 597.319C529.435 596.156 529.369 594.935 528.96 593.809C528.168 592.489 526.884 591.536 525.39 591.159C515.32 587.589 504.45 591.96 494.64 594.33C481.662 597.455 468.348 598.97 455 598.84Z" fill="#0071F2"/>
<path d="M413.27 366.38C403.343 366.1 393.417 366.033 383.49 366.18C382.305 366.053 381.117 366.386 380.17 367.11C379.17 368.16 379.33 369.86 379.74 371.27C381.64 377.82 389.36 387.98 397.19 385.62C405.27 383.2 411.64 374.31 413.27 366.38Z" fill="#F7A48B"/>
<path d="M361.44 354.67L403.63 387.18C404.083 387.53 404.453 387.975 404.716 388.484C404.978 388.992 405.126 389.552 405.149 390.124C405.171 390.696 405.069 391.266 404.848 391.794C404.627 392.322 404.293 392.795 403.87 393.18C403.171 393.819 402.264 394.183 401.317 394.205C400.371 394.227 399.448 393.905 398.72 393.3L357.6 359.12L361.44 354.67Z" fill="#2F2E41"/>
<path d="M417.28 353.15C413.64 354.4 408.62 355.83 405.41 357.96C402.2 360.09 399.32 355.5 396.04 354.52C392.53 353.52 389.43 354.23 385.83 354.75C381.3 355.41 377.91 357.75 374.24 360.52C370.545 363.287 366.326 365.274 361.84 366.36C359.47 374.11 378.37 368.41 380.77 367.97C383.32 367.5 385.18 367.39 387.58 368.52C393.23 371.19 395.72 371.71 402.2 371.11C406.27 373.78 411.42 375.87 415.68 371.43C418.11 368.9 422.68 366.43 424.73 363.81C425.91 362.26 426.03 363.31 424.84 360.41C423.36 356.77 420.55 355.22 417.28 353.15Z" fill="#F9B499"/>
<path d="M379.1 367.26C376.57 369.26 373 370.57 369.8 371.98C369.351 372.171 368.972 372.498 368.718 372.915C368.463 373.332 368.344 373.818 368.378 374.305C368.413 374.792 368.598 375.257 368.908 375.634C369.218 376.011 369.638 376.282 370.11 376.41C375.69 377.88 388.33 372.31 387.11 366.36C385.13 365.42 380.78 365.92 379.1 367.26Z" fill="#F9B499"/>
<path d="M374.61 375C373.35 376.82 372.98 380.7 374.61 382.39C379.81 387.77 388.85 379.1 391.77 375.2C397.62 367.38 388.41 369.2 383.91 371.28C381.25 372.45 378.18 373.7 374.61 375Z" fill="#F9B499"/>
<path d="M379.43 381.7C379.07 394.19 399.09 382.54 397.43 374.48C396.07 368 390.26 374.89 388.24 376.43C386.22 377.97 380.47 379.1 379.43 381.7Z" fill="#F9B499"/>
<path d="M387.12 384.91C390.19 393.67 402.63 383.66 401.24 376.91C400.66 374.11 399.05 373.01 396.49 375.14C395.14 376.27 394.57 378.26 393.4 379.56C391.81 381.38 387.18 382.53 387.12 384.91Z" fill="#F9B499"/>
<path d="M359.66 360.48C359.66 360.48 298.13 354.84 277.94 305.38L284.94 294.02C284.94 294.02 332.59 296.94 362.87 355.53L359.66 360.48Z" fill="#0071F2"/>
<path d="M284 306.75C284 306.75 321 319.23 351.53 354.48C351.54 354.48 302.52 344.82 284 306.75Z" fill="#E5E5E5"/>
<g opacity="0.3">
<path d="M305.17 302.66C303.08 301.66 300.9 300.75 298.58 299.9L294.13 307.17C296.4 308 298.73 308.89 301.13 309.84L305.17 302.66Z" fill="white"/>
<path d="M307.19 303.67L303.05 310.67C308.628 312.95 314.052 315.589 319.29 318.57L321.44 313.67C317.129 309.751 312.341 306.391 307.19 303.67Z" fill="white"/>
<path d="M323.41 321.08C325.662 322.521 327.833 324.087 329.91 325.77L331.53 323.77C329.39 321.41 327.34 319.27 325.32 317.28L323.41 321.08Z" fill="white"/>
</g>
<path d="M437.17 366.62C433.8 368.39 429.86 369.23 426.5 370.99C423.38 364.001 419.457 357.4 414.81 351.32L423.2 346.39C427.54 353.12 432.84 359.89 437.17 366.62Z" fill="white"/>
<path d="M546.39 413.74C518.628 427.916 486.855 432.175 456.34 425.81C459.74 398.07 456.08 370.01 452.44 342.3C449.02 316.387 445.607 290.48 442.2 264.58C440.79 253.89 436.3 242.26 435.48 231.51C434.66 220.76 438.83 208.25 448.99 204.64C457.99 201.44 467.86 206.46 475.31 212.48C500.66 232.96 513.31 265.05 522.8 296.23C534.36 334.15 541.05 374.45 546.39 413.74Z" fill="#0071F2"/>
<path opacity="0.2" d="M546.39 413.74C518.628 427.916 486.855 432.175 456.34 425.81C459.74 398.07 456.08 370.01 452.44 342.3C449.02 316.387 445.607 290.48 442.2 264.58C440.79 253.89 436.3 242.26 435.48 231.51C434.66 220.76 438.83 208.25 448.99 204.64C457.99 201.44 467.86 206.46 475.31 212.48C500.66 232.96 513.31 265.05 522.8 296.23C534.36 334.15 541.05 374.45 546.39 413.74Z" fill="black"/>
<path d="M532.47 370.22C525.094 403.77 520.654 437.899 519.2 472.22C518.74 483 518.58 493.82 517.29 504.53C515.59 518.66 511.96 532.53 508.34 546.24C504.34 561.573 500.307 576.907 496.24 592.24C504.317 594.491 512.545 596.162 520.86 597.24C526.956 598.064 533.128 598.175 539.25 597.57C556.18 595.57 571.37 585.31 588.35 583.82C588.26 555.99 588.17 528.14 586.65 500.35C585.55 480.783 583.763 461.267 581.29 441.8C579.39 426.93 577.05 412.06 572.98 397.63C571.21 391.37 569.04 385.06 564.98 379.94C557.93 370.94 543.45 366.94 532.47 370.22Z" fill="#2F2E41"/>
<path opacity="0.2" d="M532.47 370.22C525.094 403.77 520.654 437.899 519.2 472.22C518.74 483 518.58 493.82 517.29 504.53C515.59 518.66 511.96 532.53 508.34 546.24C504.34 561.573 500.307 576.907 496.24 592.24C504.317 594.491 512.545 596.162 520.86 597.24C526.956 598.064 533.128 598.175 539.25 597.57C556.18 595.57 571.37 585.31 588.35 583.82C588.26 555.99 588.17 528.14 586.65 500.35C585.55 480.783 583.763 461.267 581.29 441.8C579.39 426.93 577.05 412.06 572.98 397.63C571.21 391.37 569.04 385.06 564.98 379.94C557.93 370.94 543.45 366.94 532.47 370.22Z" fill="black"/>
<path opacity="0.2" d="M583.08 456.84C582.527 451.82 581.93 446.82 581.29 441.84C579.39 426.97 577.05 412.1 572.98 397.67C571.21 391.41 569.04 385.1 564.98 379.98C557.9 370.98 543.42 366.98 532.44 370.26C528.9 386.38 526.037 402.633 523.85 419.02C540.47 435.93 560.94 448.2 583.08 456.84Z" fill="black"/>
<path d="M647.89 588.15L628.42 596.81C624.8 598.42 621.18 600.03 617.42 601.31C608.34 604.426 598.684 605.501 589.14 604.46C585.753 593.46 582.36 582.46 578.96 571.46C576.53 563.59 574.1 555.71 572.45 547.65C570.35 537.45 569.51 527.03 568.67 516.65L562.04 434.36C583.04 414.14 606.14 398.83 633.49 388.79C636.07 387.79 638.84 386.94 641.49 387.54C647.183 411.811 647.357 437.051 642 461.4C640.22 469.4 637.87 477.32 636.82 485.46C635.11 498.72 636.89 512.15 638.68 525.39C641.39 545.68 645.16 567.86 647.89 588.15Z" fill="#2F2E41"/>
<path opacity="0.2" d="M641.06 465.34C641.38 464.03 641.69 462.72 641.98 461.4C647.36 437.057 647.21 411.818 641.54 387.54C638.86 386.94 636.09 387.84 633.54 388.79C606.19 398.79 583.07 414.14 562.09 434.36L564.09 459.11C589.31 463.06 615.31 465.93 641.06 465.34Z" fill="black"/>
<path d="M484.67 311.35C487.22 331.53 483.95 354.52 472.3 360.35C460.65 366.18 447.09 368.35 434.19 370.09C429.09 361.89 423.83 354.46 418.72 346.26C432.38 334.36 452.82 323.96 456.03 306.13C458.32 293.305 457.798 280.135 454.5 267.53C468.62 289.22 472.69 288.37 484.67 311.35Z" fill="#2F2E41"/>
<path opacity="0.2" d="M484.67 311.35C487.22 331.53 483.95 354.52 472.3 360.35C460.65 366.18 447.09 368.35 434.19 370.09C429.09 361.89 423.83 354.46 418.72 346.26C432.38 334.36 452.82 323.96 456.03 306.13C458.32 293.305 457.798 280.135 454.5 267.53C468.62 289.22 472.69 288.37 484.67 311.35Z" fill="black"/>
<path d="M529.13 352.71C522.13 359.48 512.28 362.86 502.54 362.63C494.4 340.35 480.38 320.81 467.71 300.75C455.04 280.69 443.38 259.11 440.88 235.52C440.25 229.52 435.6 224.2 435.12 218.18C434.64 212.16 436.7 205.55 441.75 202.18C446.8 198.81 454.05 199.65 459.39 202.81C464.73 205.97 468.64 211.01 472.24 216.07C500.82 256.27 515.76 305.27 529.13 352.71Z" fill="#2F2E41"/>
<path d="M468.36 277.47C467.26 256.91 465.91 235.47 455.59 217.65C453.33 213.75 450.42 209.89 446.21 208.29C427.76 201.29 438.83 233 441.51 239.81C447.209 254.39 456.434 267.329 468.36 277.47Z" fill="white"/>
<path d="M432.43 206.55C429.455 216.114 428.885 226.264 430.77 236.1C436.11 263.68 445.07 293.1 448.65 320.96C456.9 282.18 450.91 238.06 432.83 202.78C432.808 204.046 432.674 205.308 432.43 206.55Z" fill="#0071F2"/>
<path opacity="0.4" d="M432.43 206.55C429.455 216.114 428.885 226.264 430.77 236.1C436.11 263.68 445.07 293.1 448.65 320.96C456.9 282.18 450.91 238.06 432.83 202.78C432.808 204.046 432.674 205.308 432.43 206.55Z" fill="black"/>
<path d="M444.39 142.37C444.39 142.37 427.21 158.25 417.52 157.28C407.83 156.31 412.15 136.58 412.15 136.58C412.15 136.58 433.8 134.67 444.39 142.37Z" fill="#0071F2"/>
<path opacity="0.2" d="M444.39 142.37C444.39 142.37 427.21 158.25 417.52 157.28C407.83 156.31 412.15 136.58 412.15 136.58C412.15 136.58 433.8 134.67 444.39 142.37Z" fill="black"/>
<path d="M413.648 222.824C432.426 211.983 436.012 183.04 421.659 158.178C407.305 133.316 380.446 121.951 361.668 132.792C342.891 143.633 339.304 172.576 353.658 197.438C368.012 222.3 394.871 233.665 413.648 222.824Z" fill="#F9B499"/>
<path d="M376.1 229.68L375.62 226.68C376.379 227.713 377.347 228.575 378.46 229.21L378.6 226.61C379.074 227.098 379.664 227.456 380.315 227.652C380.966 227.848 381.656 227.875 382.32 227.73C383.646 227.419 384.908 226.881 386.05 226.14C387.02 225.652 387.881 224.972 388.58 224.14C388.917 223.722 389.12 223.213 389.163 222.677C389.206 222.142 389.086 221.607 388.82 221.14L391.99 224.08L390.19 218.78L392.41 221.09C393.13 221.937 394.023 222.619 395.03 223.09C395.538 223.308 396.101 223.359 396.64 223.237C397.179 223.115 397.665 222.826 398.03 222.41C399.03 221 397.78 219.12 396.49 217.98C393.356 215.268 389.638 213.317 385.626 212.28C381.613 211.242 377.415 211.147 373.36 212C371.89 212.31 367.97 213.12 367.25 214.63C366.76 215.63 368.02 218.56 368.44 219.63C369.247 221.615 370.313 223.485 371.61 225.19C372.33 226.07 376 228.76 376.1 229.68Z" fill="#2F2E41"/>
<path d="M361.53 161.58C363.33 165.81 366 170.01 370.19 171.9C372.91 173.12 375.98 173.24 378.96 173.24C382.54 173.24 386.117 173.11 389.69 172.85C394.69 178.29 398.98 184.02 401.76 190.85C404.48 189.23 407.59 187.12 410.32 185.5C407.5 179.37 405.13 172.81 402.32 166.69C410.11 172.42 421.32 173.75 430.41 170.48C424.47 158.12 417 146.62 407.27 137L361.53 161.58Z" fill="#2F2E41"/>
<path d="M405.71 171.58C403.224 168.212 401.174 164.543 399.61 160.66C398.76 158.57 400.19 155.77 401.14 153.72C401.587 152.676 402.261 151.745 403.114 150.996C403.967 150.247 404.977 149.698 406.07 149.39C407.116 149.275 408.168 149.553 409.02 150.17C412.89 154.03 413.94 159.83 414.52 165.27C414.84 167.468 414.84 169.701 414.52 171.9C414.194 174.12 413.009 176.124 411.22 177.48C409.117 175.78 407.262 173.794 405.71 171.58Z" fill="#F7B595"/>
<path d="M417.49 140.3C417.49 140.3 435.73 139.48 444.39 142.37C444.39 142.37 438.14 130.37 409.74 130.82C381.34 131.27 417.49 140.3 417.49 140.3Z" fill="#0071F2"/>
<path d="M417.49 140.3C386.4 144.23 356.99 167.15 347.99 197.17C345.1 196.17 342.83 193.39 340.47 191.42C333.37 185.51 323.33 180.98 322.41 171.79C320.93 157 324.64 142.24 328.31 127.84C337.31 119.93 347.02 110.4 358.79 108.09C372.67 105.38 386.63 111.29 399.53 117.09C404.44 119.3 408.32 123.64 411.38 127.95C411.93 128.74 418 140.23 417.49 140.3Z" fill="#0071F2"/>
<path opacity="0.3" d="M417.49 140.3C386.4 144.23 356.99 167.15 347.99 197.17C345.1 196.17 342.83 193.39 340.47 191.42C333.37 185.51 323.33 180.98 322.41 171.79C320.93 157 324.64 142.24 328.31 127.84C337.31 119.93 347.02 110.4 358.79 108.09C372.67 105.38 386.63 111.29 399.53 117.09C404.44 119.3 408.32 123.64 411.38 127.95C411.93 128.74 418 140.23 417.49 140.3Z" fill="white"/>
<path d="M399.53 117.1C386.63 111.29 372.67 105.38 358.79 108.1C352.66 109.3 347.1 112.47 341.9 116.34C338.973 120.334 336.39 124.569 334.18 129C329.24 139.1 326.72 150.73 329.09 161.73C331.78 174.18 340.2 184.31 349.21 193.55C355.9 175.04 370.36 159.55 387.94 150C383.716 137.354 378.679 124.995 372.86 113C381.62 116.333 390.333 119.723 399 123.17C403.37 124.92 407.76 126.72 411.94 128.88C411.67 128.4 411.48 128.07 411.4 127.96C408.32 123.65 404.44 119.31 399.53 117.1Z" fill="#0071F2"/>
<path d="M372.86 113C378.679 124.995 383.716 137.354 387.94 150C397.104 144.968 407.125 141.685 417.49 140.32C417.92 140.26 413.49 131.79 411.92 128.9C407.74 126.74 403.35 124.9 398.98 123.19C390.327 119.73 381.62 116.333 372.86 113Z" fill="#0071F2"/>
<path opacity="0.2" d="M368.8 164.26C364.31 154.7 356.61 147.05 348.6 140.16C345.21 137.23 341.43 134.28 336.97 133.88C333.35 133.56 329.1 135.11 327.43 138.34C335.07 142.07 341.74 145.56 348.53 150.98C351.88 153.66 355.12 156.48 358.68 158.88C360.35 160 368.16 162.88 368.8 164.26Z" fill="black"/>
<path d="M340.47 191.42L343.33 214.55C343.33 214.55 350.61 205.71 352.27 186.31C352.27 186.31 344.82 186.58 340.47 191.42Z" fill="#0071F2"/>
<path d="M394.05 147.37C386.423 154.732 377.584 160.723 367.92 165.08C360.26 157.6 351.5 148.5 341.54 144.55C338.971 143.568 336.355 142.717 333.7 142L324.88 139.49C324.647 133.862 325.671 128.252 327.88 123.07C329.64 118.89 334.77 116.28 338.39 113.56C346.45 107.56 359.76 106.23 369.77 107.37C374.19 113.78 393.44 141.53 394.9 145.54C394.89 145.15 394.08 147.8 394.05 147.37Z" fill="#0071F2"/>
<path opacity="0.3" d="M394.05 147.37C386.423 154.732 377.584 160.723 367.92 165.08C360.26 157.6 351.5 148.5 341.54 144.55C338.971 143.568 336.355 142.717 333.7 142L324.88 139.49C324.647 133.862 325.671 128.252 327.88 123.07C329.64 118.89 334.77 116.28 338.39 113.56C346.45 107.56 359.76 106.23 369.77 107.37C374.19 113.78 393.44 141.53 394.9 145.54C394.89 145.15 394.08 147.8 394.05 147.37Z" fill="white"/>
<path d="M369.8 107.41C368.35 107.25 366.8 107.14 365.26 107.08C362.639 107.44 360.046 107.981 357.5 108.7C347.7 111.47 338.5 117.36 333.29 126.11C340.766 119.174 349.966 114.37 359.93 112.2C349.73 118.99 339.19 126.2 333.01 136.73C345.01 137.16 354.22 147.1 361.96 156.29C364.314 158.998 366.524 161.829 368.58 164.77C377.986 160.44 386.596 154.558 394.05 147.37C394.05 147.77 394.78 145.51 394.91 145.54C393.35 141.39 374.2 113.8 369.8 107.41Z" fill="#0071F2"/>
<path d="M448.26 220.24C440.38 218.11 432.18 217.19 424.04 216.5C425.64 197.413 427.233 178.323 428.82 159.23C433.82 158.72 438.62 158.71 443.43 160.17C448.21 179 449.37 200.84 448.26 220.24Z" fill="white"/>
<path d="M439.11 184.12C438.7 193.73 438.55 203.66 442.11 212.58C445.67 221.5 453.98 229.22 463.6 229.18L450.79 171.82C449.96 168.12 449.11 164.34 447.17 161.08C443.1 154.21 437.83 154.02 438.75 162.52C439.415 169.7 439.535 176.921 439.11 184.12Z" fill="#402C35"/>
<path d="M444.44 159.1C446.043 181.286 446.197 203.553 444.9 225.76C473.72 257.22 495.49 294.23 510.33 334.23C525.17 374.23 534.78 415.94 544.33 457.51C567.6 460.13 588.02 446.93 606.33 432.33C624.64 417.73 641.84 400.65 663.83 392.59C657.41 364.2 651 334.83 640 307.91C631.87 288.13 622.25 268.45 607.13 253.33C593.4 239.61 575.9 230.41 558.69 221.43C520.84 201.68 482.25 178.85 444.44 159.1Z" fill="#0071F2"/>
<mask id="mask0_42_685" style="mask-type:luminance" maskUnits="userSpaceOnUse" x="444" y="159" width="200" height="175">
<path style="mix-blend-mode:multiply" d="M640 307.91C631.87 288.13 622.25 268.45 607.13 253.33C593.4 239.61 575.9 230.41 558.69 221.43C520.89 201.68 482.3 178.85 444.49 159.1C445.59 174.26 446.003 189.443 445.73 204.65C448.59 209.26 451.48 213.87 454.36 218.53C460.17 228 469.17 235 478 241.81C488.43 249.86 499 257.99 511 263.38C520.29 267.56 530.25 270.01 539.87 273.38C571.529 284.636 598.737 305.759 617.49 333.64C626.343 328.306 634.957 322.616 643.33 316.57C642.24 313.67 641.13 310.77 640 307.91Z" fill="url(#paint0_linear_42_685)"/>
</mask>
<g mask="url(#mask0_42_685)">
<path opacity="0.1" d="M640 307.91C631.87 288.13 622.25 268.45 607.13 253.33C593.4 239.61 575.9 230.41 558.69 221.43C520.89 201.68 482.3 178.85 444.49 159.1C445.59 174.26 446.003 189.443 445.73 204.65C448.59 209.26 451.48 213.87 454.36 218.53C460.17 228 469.17 235 478 241.81C488.43 249.86 499 257.99 511 263.38C520.29 267.56 530.25 270.01 539.87 273.38C571.529 284.636 598.737 305.759 617.49 333.64C626.343 328.306 634.957 322.616 643.33 316.57C642.24 313.67 641.13 310.77 640 307.91Z" fill="white"/>
</g>
<path d="M487.13 278.39C489.75 276.29 489.97 272.64 488.62 269.78C487.27 266.92 484.68 264.66 482.14 262.48C479.6 260.3 477 258 475.7 255.15C474.4 252.3 474.7 248.63 477.33 246.57C477.498 246.435 477.711 246.369 477.925 246.384C478.14 246.399 478.342 246.494 478.49 246.65C477.63 249.17 476.77 251.92 477.96 254.34C479.33 257.11 482.87 258.46 485.76 260.16C492.29 264 496.34 271.53 493.48 277.87C493.216 278.606 492.767 279.263 492.177 279.778C491.587 280.292 490.876 280.648 490.11 280.81C488.45 281 485.9 279.38 487.13 278.39Z" fill="#2F2E41"/>
<path d="M473.09 284.16C477.246 290.229 483.283 294.762 490.27 297.06C492.16 297.776 494.193 298.029 496.2 297.8C497.199 297.669 498.146 297.276 498.945 296.661C499.744 296.047 500.366 295.232 500.75 294.3C501.56 291.88 500.18 289.3 498.81 287.16C496.103 282.9 493.273 278.717 490.32 274.61L473.09 284.16Z" fill="#0071F2"/>
<path opacity="0.3" d="M473.09 284.16C477.246 290.229 483.283 294.762 490.27 297.06C492.16 297.776 494.193 298.029 496.2 297.8C497.199 297.669 498.146 297.276 498.945 296.661C499.744 296.047 500.366 295.232 500.75 294.3C501.56 291.88 500.18 289.3 498.81 287.16C496.103 282.9 493.273 278.717 490.32 274.61L473.09 284.16Z" fill="white"/>
<path d="M529.25 278.39C527.25 280.03 520.37 282.97 518.02 281.92C516.17 281.1 515.86 278.27 513.85 277.5C510.01 276.05 505.35 279.24 501.95 280.5C498.89 281.62 490.32 280.12 490.88 284.03C491.59 289.03 502.22 289.8 506.15 289.64C501.44 291.58 497.05 294.04 492.36 295.74C486.55 293.39 483.63 290.16 477 290.98C475.94 295.27 483.84 297.27 486.23 299.91C487.64 301.47 488.01 303.19 490.17 303.78C491.88 304.24 496.41 303.78 498.17 303.12C499.17 306.76 502.11 306.64 505.23 306.65C506.82 306.65 507.53 308.8 509.07 309.22C510.32 309.57 511.9 308.8 513.25 308.89C520.69 309.41 524.71 301.47 528.97 298.95C531.88 297.22 536.47 293.95 539.56 293.23C538.42 289.37 529.48 279.15 529.25 278.39Z" fill="#F9B499"/>
<g opacity="0.3">
<path d="M490.32 274.61L473.09 284.16C473.871 285.302 474.723 286.394 475.64 287.43C481.253 284.137 486.983 281.06 492.83 278.2C492 277 491.17 275.79 490.32 274.61Z" fill="white"/>
</g>
<path d="M547.39 293C544.18 294.45 540.52 296.33 537.31 297.77C533.66 290.85 529.87 284.56 526.22 277.64L536.7 273.51C540.72 279.71 543.37 286.82 547.39 293Z" fill="white"/>
<path d="M601 284.33C584.488 293.773 565.75 298.627 546.73 298.39C541.05 290.14 534.51 282.47 529.92 273.57C539.45 266.89 548.573 259.647 557.24 251.88C575.06 256.44 592.7 267.92 601 284.33Z" fill="#2F2E41"/>
<path d="M654.19 300.76L635.89 257.44C630.97 245.77 625.76 233.71 616.31 225.28C604.31 214.6 587.55 211.5 573.31 204.01C551.74 192.64 536.55 171.37 514.63 160.69C491.49 149.42 464.92 151.74 439.29 154.07C449.19 173.01 440.63 197.15 448.75 216.92C454.25 230.29 466.81 239.73 480.32 244.92C493.83 250.11 508.42 251.5 522.79 253.1C537.16 254.7 551.79 256.58 564.94 262.51C590.8 274.13 607.43 299.32 622.64 323.24C634 318.06 646.12 310.18 654.19 300.76Z" fill="#0071F2"/>
<path opacity="0.4" d="M654.19 300.76L635.89 257.44C630.97 245.77 625.76 233.71 616.31 225.28C604.31 214.6 587.55 211.5 573.31 204.01C551.74 192.64 536.55 171.37 514.63 160.69C491.49 149.42 464.92 151.74 439.29 154.07C449.19 173.01 440.63 197.15 448.75 216.92C454.25 230.29 466.81 239.73 480.32 244.92C493.83 250.11 508.42 251.5 522.79 253.1C537.16 254.7 551.79 256.58 564.94 262.51C590.8 274.13 607.43 299.32 622.64 323.24C634 318.06 646.12 310.18 654.19 300.76Z" fill="black"/>
<g opacity="0.2">
<path d="M467.86 222C475.592 218.343 482.855 213.767 489.49 208.37C484.05 203.75 481.16 196.88 478.49 190.27L462.95 152.27C455.09 152.59 447.18 153.27 439.36 154.01C449.26 172.95 440.7 197.09 448.82 216.86C454.32 230.23 466.88 239.67 480.39 244.86C488.97 248.13 497.99 249.86 507.12 251.17C492.52 243.61 479 234.49 467.86 222Z" fill="black"/>
</g>
<path d="M437.14 151.23C437.56 168.15 437.09 189.64 441.99 205.84C446.89 222.04 456.48 233.14 471.57 240.84C465.93 234.56 463.41 225.42 463.19 216.99C469.07 216.08 475.1 212.78 479.62 208.92C471.62 190.15 464.62 170.12 460.68 150.11L437.14 151.23Z" fill="#0071F2"/>
<path opacity="0.3" d="M437.14 151.23C437.56 168.15 437.09 189.64 441.99 205.84C446.89 222.04 456.48 233.14 471.57 240.84C465.93 234.56 463.41 225.42 463.19 216.99C469.07 216.08 475.1 212.78 479.62 208.92C471.62 190.15 464.62 170.12 460.68 150.11L437.14 151.23Z" fill="white"/>
<path opacity="0.2" d="M499.5 234.11C517.42 236.9 535.4 231.11 553.27 228.04C571.14 224.97 591.56 225.26 604.82 237.62C591.82 234.44 576.37 231.24 562.97 232.15C557.7 232.51 552.49 233.51 547.27 234.36C531.16 237 514.81 239.78 499.5 234.11Z" fill="black"/>
<path opacity="0.2" d="M587.09 218.31C579.31 216.207 571.151 215.913 563.24 217.45C549.89 220.06 537.69 227.82 524.12 228.56C541.88 225.18 560.98 222.62 578.75 219.24C581.69 218.68 584.31 217.18 587.09 218.31Z" fill="black"/>
<path opacity="0.2" d="M619.23 293.43C610.897 278.83 599.482 266.22 585.78 256.48C593.78 259.72 600.944 264.726 606.736 271.125C612.529 277.524 616.8 285.149 619.23 293.43Z" fill="black"/>
<mask id="mask1_42_685" style="mask-type:luminance" maskUnits="userSpaceOnUse" x="174" y="306" width="240" height="299">
<path style="mix-blend-mode:multiply" d="M284.01 306.75L174.41 604.85H413.85L351.54 354.48L284.01 306.75Z" fill="url(#paint1_linear_42_685)"/>
</mask>
<g mask="url(#mask1_42_685)">
<path opacity="0.5" d="M284.01 306.75L174.41 604.85H413.85L351.54 354.48L284.01 306.75Z" fill="#E5E5E5"/>
</g>
<path d="M385.87 370.44C382.342 373.264 378.286 375.355 373.94 376.59" stroke="#F7A48B" stroke-miterlimit="10"/>
<path d="M393.56 372.16C389.705 376.888 385.018 380.87 379.73 383.91" stroke="#F7A48B" stroke-miterlimit="10"/>
<path d="M387.77 386.35C387.77 386.35 394.86 382.26 397.4 374.48" stroke="#F7A48B" stroke-miterlimit="10"/>
<defs>
<linearGradient id="paint0_linear_42_685" x1="543.97" y1="258.39" x2="565.15" y2="347.9" gradientUnits="userSpaceOnUse">
<stop stop-color="white"/>
<stop offset="1"/>
</linearGradient>
<linearGradient id="paint1_linear_42_685" x1="358.29" y1="345.66" x2="322.2" y2="491.47" gradientUnits="userSpaceOnUse">
<stop stop-color="white"/>
<stop offset="1"/>
</linearGradient>
</defs>
</svg>
