<svg width="866" height="683" viewBox="0 0 866 683" fill="none" xmlns="http://www.w3.org/2000/svg">
<path d="M138.23 470.82C35.84 310.75 175.76 182.32 175.76 182.32C303.66 48.64 400.68 46 412.31 46.2C413.15 46.2 413.99 46.2 414.84 46.2C430.21 46.03 571.92 47.35 627.45 151.68C627.45 151.68 638.51 178.18 627.45 232.92C627.45 232.92 610.58 297.24 654.21 323.28C654.21 323.28 778.53 376.89 763.78 442.22C763.78 442.22 740.89 575.22 463.99 610.6C463.99 610.6 270.71 640.41 158.51 497.2L138.23 470.82Z" fill="#0071F2"/>
<path opacity="0.7" d="M763.78 442.23C763.78 442.23 756.27 485.85 697.84 529.77C691.55 534.51 684.67 539.24 677.14 543.91C674.073 545.83 670.89 547.737 667.59 549.63C623.08 575.2 558.25 598.57 463.99 610.63C463.99 610.63 270.71 640.44 158.51 497.23L138.23 470.83C35.84 310.75 175.76 182.33 175.76 182.33C242.49 112.57 300.83 78.5002 343 61.8802C350.06 59.1102 356.66 56.8202 362.78 54.9402C390.18 46.4802 407.78 46.1302 412.32 46.2002C413.17 46.2002 414.01 46.2002 414.84 46.2002C423.5 46.1102 472.19 46.4802 523.01 65.4602C528.15 67.3602 533.32 69.4602 538.46 71.8002C539.76 72.3802 541.07 72.9802 542.37 73.6002C543.32 74.0502 544.29 74.5102 545.24 74.9902C547.43 76.0602 549.62 77.1602 551.78 78.3102C581.3 94.0002 609.08 117.2 627.45 151.7C628.676 155.043 629.593 158.49 630.19 162C631.1 167.012 631.705 172.075 632 177.16C632.14 179.34 632.237 181.674 632.29 184.16C632.54 196.71 631.45 212.95 627.41 232.96C627.41 232.96 615.72 277.52 636.96 307.48C641.239 313.533 646.678 318.675 652.96 322.61L654.13 323.33C654.13 323.33 659.25 325.54 667.29 329.59L667.51 329.7C670.36 331.15 673.58 332.82 677.06 334.7C683.3 338.08 690.38 342.17 697.76 346.87C732.07 368.61 772.57 403.34 763.78 442.23Z" fill="white"/>
<path d="M653 322.59H362.77V307.46H637C641.279 313.513 646.718 318.655 653 322.59Z" fill="#E6E6E6"/>
<path d="M667.37 329.57H362.77V322.57H653L654.17 323.29C654.17 323.29 659.33 325.52 667.37 329.57Z" fill="white"/>
<path d="M632 177.16H362.77V162H630.19C631.101 167.012 631.705 172.075 632 177.16Z" fill="#E6E6E6"/>
<path d="M632.33 184.14H362.77V177.14H632C632.167 179.333 632.277 181.666 632.33 184.14Z" fill="white"/>
<path d="M362.77 54.9404V523.86H343V61.8604C350.05 59.1104 356.65 56.8204 362.77 54.9404Z" fill="white"/>
<path d="M697.84 346.87V529.77C691.55 534.51 684.67 539.24 677.14 543.91V334.7C683.38 338.08 690.46 342.17 697.84 346.87Z" fill="white"/>
<path d="M677.14 334.7V543.91C674.073 545.83 670.89 547.736 667.59 549.63V329.68C670.44 331.13 673.66 332.8 677.14 334.7Z" fill="#E6E6E6"/>
<path d="M610.43 205.08L490.93 206L482.01 206.07L538.45 131.78V71.7803C539.75 72.3603 541.06 72.9603 542.36 73.5803C543.31 74.0303 544.28 74.4903 545.23 74.9703C547.42 76.0403 549.61 77.1403 551.77 78.2903V130.59L610.43 205.08Z" fill="#0071F2"/>
<path opacity="0.2" d="M568.12 179.23C568.12 179.23 560.21 192.2 529 194L491 206L482.08 206.07L538.52 131.78V71.7803C539.82 72.3603 541.13 72.9603 542.43 73.5803C543.38 74.0303 544.35 74.4903 545.3 74.9703V131.46C545.3 131.46 578 165 568.12 179.23Z" fill="black"/>
<path d="M611.75 208C611.696 209.105 611.224 210.149 610.43 210.92C604.43 217.55 578.1 222.54 546.59 222.54C510.59 222.54 481.44 216.03 481.44 208C481.44 202.18 496.79 197.14 518.95 194.83C528.133 193.892 537.359 193.435 546.59 193.46C555.14 193.46 563.31 193.83 570.79 194.46C594.79 196.63 611.75 201.87 611.75 208Z" fill="white"/>
<path d="M611.75 208C611.696 209.105 611.224 210.149 610.43 210.92C571.89 195.81 545.43 196.92 545.43 196.92C516.34 196.92 481.43 207.97 481.43 207.97C481.43 202.15 496.78 197.11 518.94 194.8C528.123 193.862 537.349 193.405 546.58 193.43C555.13 193.43 563.3 193.8 570.78 194.43C594.79 196.63 611.75 201.87 611.75 208Z" fill="#CCCCCC"/>
<path d="M570.79 194.48C569.831 200.641 566.711 206.26 561.989 210.331C557.266 214.402 551.25 216.66 545.015 216.701C538.78 216.742 532.734 214.563 527.958 210.554C523.183 206.545 519.99 200.968 518.95 194.82C528.133 193.883 537.359 193.425 546.59 193.45C555.14 193.45 563.31 193.82 570.79 194.48Z" fill="#2F2E41"/>
<path d="M542.36 73.6097H362.77V65.4697H523C529.44 67.8597 535.93 70.5597 542.36 73.6097Z" fill="white"/>
<path d="M523 65.4698H362.77V54.9398C390.17 46.4798 407.77 46.1298 412.31 46.1998C413.16 46.1998 414 46.1998 414.83 46.1998C423.49 46.1198 472.18 46.4898 523 65.4698Z" fill="#E6E6E6"/>
<path d="M458.57 525.06H374.24V548.54H458.57V525.06Z" fill="#666666"/>
<path d="M374.24 548.55L399.86 573.38H490.63L458.57 548.55H374.24Z" fill="#808080"/>
<path d="M606.51 232.58H213.5C200.284 232.58 189.57 243.294 189.57 256.51V505.41C189.57 518.626 200.284 529.34 213.5 529.34H606.51C619.726 529.34 630.44 518.626 630.44 505.41V256.51C630.44 243.294 619.726 232.58 606.51 232.58Z" fill="#808080"/>
<path d="M600.76 245.39H217.1C209.556 245.39 203.44 251.505 203.44 259.05V480.45C203.44 487.994 209.556 494.11 217.1 494.11H600.76C608.304 494.11 614.42 487.994 614.42 480.45V259.05C614.42 251.505 608.304 245.39 600.76 245.39Z" fill="#EBEBEB"/>
<path d="M425.48 518.66C429.606 518.66 432.95 515.315 432.95 511.19C432.95 507.064 429.606 503.72 425.48 503.72C421.354 503.72 418.01 507.064 418.01 511.19C418.01 515.315 421.354 518.66 425.48 518.66Z" fill="#666666"/>
<path d="M456.44 516.53C459.389 516.53 461.78 514.139 461.78 511.19C461.78 508.24 459.389 505.85 456.44 505.85C453.491 505.85 451.1 508.24 451.1 511.19C451.1 514.139 453.491 516.53 456.44 516.53Z" fill="#666666"/>
<path d="M394.52 516.53C397.469 516.53 399.86 514.139 399.86 511.19C399.86 508.24 397.469 505.85 394.52 505.85C391.571 505.85 389.18 508.24 389.18 511.19C389.18 514.139 391.571 516.53 394.52 516.53Z" fill="#666666"/>
<path d="M400.88 313.28C397.575 316.205 393.596 318.267 389.3 319.28C375.3 322.5 360.5 313.66 350.99 298.12C347.126 291.743 344.32 284.783 342.68 277.51C336.35 249.98 346.95 224.02 366.36 219.51C385.77 215 406.66 233.74 413 261.28C417.92 282.71 412.61 303.15 400.88 313.28Z" fill="#F9B499"/>
<path d="M346.92 284.52C342.33 288.64 333.27 286.02 326.66 278.69C321.21 272.62 319.15 265.21 321.2 260.49C321.613 259.514 322.234 258.64 323.02 257.93C327.61 253.81 336.68 256.42 343.27 263.77C344.056 264.631 344.781 265.547 345.44 266.51C350.18 273.28 351 280.9 346.92 284.52Z" fill="#F9B499"/>
<path d="M416.94 249.66C416.94 249.66 404.13 248.59 397.73 238.98C397.73 238.98 379.9 265.2 363.99 240.71C363.97 240.681 363.941 240.659 363.907 240.647C363.873 240.635 363.837 240.633 363.803 240.643C363.768 240.653 363.738 240.674 363.716 240.702C363.694 240.73 363.681 240.765 363.68 240.8C363.88 242.89 363.55 248.59 353.96 248.59C353.96 248.59 364.7 267.34 345.45 266.51C344.791 265.548 344.066 264.632 343.28 263.77C336.69 256.42 327.62 253.77 323.03 257.93C322.244 258.641 321.623 259.515 321.21 260.49C321.21 260.49 310.87 251.11 321.21 234.9L412.68 189.9C412.68 189.9 431.89 185.63 427.62 209.11C427.62 209.11 442.57 206.98 444.7 219.79C444.69 219.77 449 249.66 416.94 249.66Z" fill="#2F2E41"/>
<path d="M444.88 204.2C441.876 203.985 438.86 204.379 436.013 205.358C433.166 206.338 430.546 207.883 428.31 209.9L427 208.26C429.15 206.45 430.49 203.62 431.39 200.95C432.308 198.048 432.849 195.04 433 192C433.203 195.085 433.008 198.184 432.42 201.22C431.73 204.38 430.66 207.51 428.33 209.92L426.97 208.27C429.538 206.408 432.458 205.086 435.552 204.385C438.646 203.683 441.85 203.617 444.97 204.19L444.88 204.2Z" fill="#2F2E41"/>
<path opacity="0.2" d="M370 239C381.24 250.3 390.71 242.72 396.94 231.11L397.59 229.96L398.59 230.88C411.99 242.79 427.45 244.72 439.41 229.77C428.73 246.84 410.68 244.94 397.13 232.36L398.77 232.13C392.18 244.29 380.56 252.13 370.02 239H370Z" fill="black"/>
<path d="M326.36 340.06C326.36 340.06 308.53 351.29 296.31 353.78C294.995 354.064 293.792 354.728 292.852 355.69C291.911 356.652 291.274 357.869 291.02 359.19C286.29 382.97 268.21 484.87 305.92 487.7L331.54 483.43L334.21 494.11H463.83V369.75C463.83 369.75 460.71 342.53 422.28 329.75L326.36 340.06Z" fill="#0071F2"/>
<path opacity="0.2" d="M335 372.52C334.77 372.42 351.85 360.67 362.53 367.08L392.39 382L370 365.37C368.248 363.791 366.212 362.559 364 361.74C360.568 360.467 356.858 360.135 353.254 360.776C349.65 361.418 346.282 363.011 343.5 365.39L335 372.52Z" fill="black"/>
<path opacity="0.2" d="M292.9 355.65C299.18 355.05 310.95 357.14 313.32 363.88C310.71 361.11 307.1 360.19 303.64 358.99C300.18 357.79 296.53 356.94 292.9 355.65Z" fill="black"/>
<path opacity="0.2" d="M323 373.48C331.295 395.83 338.205 418.67 343.69 441.87C335.399 419.519 328.49 396.679 323 373.48Z" fill="black"/>
<path opacity="0.2" d="M385.37 494.11L335 493L345.45 445L326.39 384.65C326.39 384.65 339.93 427.2 369.39 424.89L423.65 412.89L422.32 422.58L371.21 471.22C371.21 471.22 351.67 485.57 385.37 494.11Z" fill="black"/>
<path opacity="0.05" d="M614.42 259.05V480.44C614.42 484.063 612.981 487.539 610.42 490.102C607.858 492.666 604.384 494.107 600.76 494.11H591.76L592.95 493.82C597.362 492.605 601.248 489.968 604.006 486.316C606.764 482.665 608.238 478.205 608.2 473.63V269.39C607.3 247.51 591.76 245.39 591.76 245.39H600.76C604.383 245.39 607.857 246.829 610.419 249.391C612.981 251.952 614.42 255.427 614.42 259.05Z" fill="black"/>
<path d="M408.93 335L392.39 382C380.65 358.52 347.55 337.17 347.55 337.17L351 298.1C360.51 313.64 375.3 322.48 389.31 319.26C393.606 318.246 397.585 316.185 400.89 313.26L408.93 335Z" fill="#F9B499"/>
<path d="M408.93 335L405.86 343.75C363.81 335.44 351 298.1 351 298.1C360.51 313.64 375.3 322.48 389.31 319.26C393.606 318.246 397.585 316.185 400.89 313.26L408.93 335Z" fill="#F7A48B"/>
<path d="M349.52 310.51L327.64 337.73C327.06 338.448 326.661 339.296 326.477 340.201C326.292 341.106 326.328 342.041 326.58 342.93L335 372.52L347.55 362C347.55 362 358.23 356.23 369.97 365.41L392.39 382C392.39 382 384.92 362.79 347.55 337.17L349.52 310.51Z" fill="#0071F2"/>
<path d="M392.39 382C392.39 382 405.2 348.91 428.68 356.38L422.28 329.7L402.43 311.83L400.88 313.26L408.93 335C408.93 335 391.32 382 392.39 382Z" fill="#0071F2"/>
<g opacity="0.3">
<path d="M349.52 310.51L327.64 337.73C327.06 338.448 326.661 339.296 326.477 340.201C326.292 341.106 326.328 342.041 326.58 342.93L335 372.52L347.55 362C347.55 362 358.23 356.23 369.97 365.41L392.39 382C392.39 382 384.92 362.79 347.55 337.17L349.52 310.51Z" fill="white"/>
<path d="M392.39 382C392.39 382 405.2 348.91 428.68 356.38L422.28 329.7L402.43 311.83L400.88 313.26L408.93 335C408.93 335 391.32 382 392.39 382Z" fill="white"/>
</g>
<path d="M606.34 341.54H421.59V463.03H606.34V341.54Z" fill="white"/>
<path d="M607.41 464.09H420.52V340.47H607.41V464.09ZM422.66 462H605.27V342.6H422.66V462Z" fill="#2F2E41"/>
<path d="M593.89 456.74H434V456.47C434 454.855 433.358 453.306 432.216 452.164C431.074 451.022 429.525 450.38 427.91 450.38H427.7V354.09H427.87C428.673 354.095 429.469 353.942 430.213 353.638C430.956 353.334 431.632 352.887 432.202 352.321C432.772 351.755 433.224 351.081 433.533 350.34C433.841 349.598 434 348.803 434 348V347.83H593.89V348C593.89 349.615 594.532 351.164 595.674 352.306C596.816 353.448 598.365 354.09 599.98 354.09H600.15V450.36H600C598.384 450.363 596.835 451.007 595.693 452.15C594.551 453.294 593.91 454.844 593.91 456.46L593.89 456.74ZM434.38 456.4H593.55C593.57 454.732 594.235 453.137 595.406 451.95C596.577 450.762 598.163 450.074 599.83 450.03V354.44C598.18 354.395 596.611 353.72 595.443 352.554C594.275 351.388 593.598 349.82 593.55 348.17H434.38C434.332 349.82 433.655 351.388 432.487 352.554C431.319 353.72 429.749 354.395 428.1 354.44V450C429.772 450.044 431.362 450.736 432.534 451.93C433.706 453.125 434.368 454.727 434.38 456.4Z" fill="#0071F2"/>
<path d="M489.47 382.08C493.55 382.02 497.633 381.977 501.72 381.95H526.22C530.28 381.95 534.36 381.994 538.46 382.08C534.4 382.147 530.32 382.19 526.22 382.21H501.72C497.64 382.21 493.557 382.167 489.47 382.08Z" fill="#2F2E41"/>
<path d="M475.85 385.9L485.38 385.81L494.91 385.78L513.97 385.73L533.02 385.78L542.55 385.81L552.09 385.9L542.55 385.98L533.02 386L513.97 386.07L494.91 386L485.38 385.98L475.85 385.9Z" fill="#2F2E41"/>
<path d="M530.89 432.87C535.03 432.797 539.17 432.754 543.31 432.74H555.73H568.16C572.3 432.74 576.44 432.784 580.58 432.87C576.45 432.93 572.3 432.97 568.16 432.99H555.73L543.31 433C539.17 433 535.03 432.957 530.89 432.87Z" fill="#2F2E41"/>
<path d="M447.37 432.87C451.51 432.8 455.66 432.76 459.79 432.74H472.22H484.64C488.78 432.74 492.923 432.784 497.07 432.87C492.91 432.944 488.753 432.977 484.6 432.97H472.18H459.77C455.63 432.99 451.497 432.957 447.37 432.87Z" fill="#2F2E41"/>
<path d="M559.53 404.72L548.14 404.81L536.75 404.83L513.97 404.89L491.19 404.83L479.79 404.81L468.4 404.72L479.79 404.64L491.19 404.61L513.97 404.55L536.75 404.61L548.14 404.64L559.53 404.72Z" fill="#2F2E41"/>
<path d="M571.55 400.9L557.16 400.99L542.76 401.02L513.97 401.07L485.17 401.02L470.77 400.99L456.38 400.9L470.77 400.82L485.17 400.8L513.97 400.74L542.76 400.8L557.16 400.82L571.55 400.9Z" fill="#2F2E41"/>
<path d="M567.92 408.54L554.43 408.62L540.94 408.64L513.97 408.7L486.99 408.64L473.5 408.62L460.01 408.54L473.5 408.45L486.99 408.42L513.97 408.37L540.94 408.42L554.43 408.45L567.92 408.54Z" fill="#2F2E41"/>
<path d="M544.61 412.35L536.95 412.43L529.29 412.45L513.97 412.51L498.64 412.45L490.98 412.43L483.32 412.35L490.98 412.26L498.64 412.23L513.97 412.18L529.29 412.23L536.95 412.26L544.61 412.35Z" fill="#2F2E41"/>
<path d="M539.81 430.33C540.64 429.76 541.49 429.21 542.38 428.71C543.251 428.178 544.185 427.758 545.16 427.46C545.284 427.422 545.411 427.396 545.54 427.38C545.618 427.362 545.699 427.366 545.774 427.39C545.85 427.415 545.918 427.46 545.97 427.52C546.1 427.765 546.159 428.042 546.14 428.32C546.13 428.829 546.08 429.338 545.99 429.84C545.81 430.84 545.56 431.84 545.31 432.84C544.769 434.798 544.101 436.719 543.31 438.59C543.11 439.063 542.869 439.518 542.59 439.95C542.51 440.065 542.416 440.169 542.31 440.26C542.24 440.329 542.148 440.371 542.05 440.38C541.985 440.381 541.921 440.36 541.87 440.32L541.78 440.22C541.627 439.978 541.551 439.696 541.56 439.41C541.583 438.388 541.765 437.375 542.1 436.41C542.396 435.435 542.777 434.487 543.24 433.58C543.664 432.619 544.261 431.745 545 431C545.396 430.652 545.881 430.42 546.4 430.33C546.668 430.289 546.941 430.31 547.2 430.39C547.44 430.518 547.636 430.717 547.76 430.96C547.87 431.182 548.011 431.388 548.18 431.57C548.253 431.657 548.348 431.723 548.456 431.76C548.563 431.797 548.679 431.804 548.79 431.78C549.257 431.613 549.689 431.359 550.06 431.03C550.27 430.88 550.46 430.72 550.67 430.58C550.777 430.5 550.891 430.43 551.01 430.37C551.073 430.331 551.146 430.31 551.22 430.31C551.294 430.31 551.367 430.331 551.43 430.37C551.63 430.62 551.58 430.89 551.68 431.11C551.706 431.222 551.775 431.319 551.873 431.381C551.97 431.442 552.087 431.464 552.2 431.44C552.623 431.171 552.999 430.833 553.31 430.44C553.65 430.07 553.99 429.69 554.31 429.31C554.99 428.54 555.63 427.77 556.31 427.01C556.65 426.63 556.99 426.26 557.36 425.9C557.55 425.72 557.74 425.56 557.94 425.4C558.049 425.32 558.166 425.253 558.29 425.2C558.359 425.169 558.434 425.152 558.51 425.15C558.555 425.148 558.601 425.158 558.641 425.179C558.681 425.2 558.716 425.231 558.74 425.27C558.861 425.521 558.899 425.805 558.85 426.08C558.825 426.335 558.785 426.589 558.73 426.84C558.383 428.335 557.838 429.778 557.11 431.13C556.977 431.362 556.816 431.577 556.63 431.77C556.572 431.829 556.502 431.875 556.424 431.904C556.346 431.934 556.263 431.946 556.18 431.94C556.041 431.928 555.906 431.89 555.78 431.83C555.532 431.709 555.314 431.536 555.141 431.321C554.968 431.107 554.845 430.857 554.78 430.59C554.74 430.428 554.761 430.257 554.84 430.11C554.886 430.063 554.94 430.026 555 430C555.08 429.958 555.17 429.941 555.26 429.95C555.531 429.97 555.797 430.031 556.05 430.13C556.53 430.3 557.05 430.51 557.47 430.72L558.86 431.31L559.53 431.56L559.86 431.64C559.957 431.641 560.052 431.621 560.14 431.58C560.53 431.39 560.78 430.9 561.14 430.58C561.34 430.352 561.619 430.209 561.92 430.18C561.976 430.174 562.032 430.179 562.086 430.197C562.139 430.214 562.188 430.242 562.23 430.28C562.27 430.32 562.3 430.369 562.317 430.423C562.334 430.477 562.339 430.534 562.33 430.59C562.322 430.732 562.298 430.873 562.26 431.01C562.19 431.23 562.16 431.52 562.26 431.53C562.449 431.551 562.641 431.551 562.83 431.53C563.298 431.39 563.733 431.159 564.11 430.85C564.31 430.71 564.52 430.56 564.75 430.42C564.999 430.25 565.302 430.179 565.6 430.22C566.109 430.411 566.558 430.736 566.9 431.16C567.061 431.334 567.242 431.488 567.44 431.62C567.53 431.69 567.62 431.7 567.64 431.68C567.742 431.629 567.839 431.569 567.93 431.5C568.331 431.192 568.712 430.858 569.07 430.5C569.823 429.832 570.495 429.076 571.07 428.25C571.35 427.862 571.52 427.406 571.56 426.93C571.56 426.48 571.09 426.26 570.56 426.2C569.569 426.01 568.551 426.01 567.56 426.2C567.069 426.288 566.587 426.422 566.12 426.6C565.884 426.69 565.659 426.808 565.45 426.95C565.26 427.09 565.09 427.29 565.15 427.47C565.249 427.671 565.421 427.828 565.63 427.91C565.85 428.01 566.08 428.11 566.31 428.19C566.782 428.355 567.263 428.495 567.75 428.61C569.728 428.986 571.736 429.18 573.75 429.19C571.721 429.238 569.691 429.091 567.69 428.75C567.19 428.64 566.69 428.5 566.21 428.34C565.968 428.259 565.731 428.166 565.5 428.06C565.367 428.009 565.246 427.932 565.143 427.834C565.04 427.737 564.958 427.619 564.9 427.49C564.881 427.343 564.906 427.195 564.972 427.063C565.038 426.931 565.142 426.822 565.27 426.75C565.474 426.589 565.7 426.458 565.94 426.36C566.416 426.159 566.912 426.011 567.42 425.92C568.43 425.708 569.47 425.681 570.49 425.84C570.762 425.873 571.024 425.961 571.26 426.1C571.387 426.179 571.493 426.288 571.57 426.416C571.646 426.545 571.691 426.69 571.7 426.84C571.682 427.384 571.501 427.91 571.18 428.35C570.613 429.209 569.941 429.995 569.18 430.69C568.813 431.053 568.418 431.387 568 431.69C567.89 431.778 567.769 431.852 567.64 431.91C567.554 431.938 567.462 431.947 567.372 431.934C567.282 431.922 567.196 431.89 567.12 431.84C566.902 431.685 566.701 431.507 566.52 431.31C566.215 430.951 565.832 430.667 565.4 430.48C565.03 430.42 564.6 430.77 564.2 431.05C563.783 431.378 563.308 431.626 562.8 431.78C562.657 431.839 562.504 431.87 562.35 431.87C562.196 431.87 562.043 431.839 561.9 431.78C561.828 431.718 561.774 431.638 561.744 431.548C561.714 431.458 561.709 431.362 561.73 431.27C561.742 431.131 561.769 430.993 561.81 430.86C561.841 430.752 561.861 430.641 561.87 430.53C561.662 430.563 561.472 430.665 561.33 430.82C560.98 431.14 560.75 431.64 560.21 431.92C560.071 431.989 559.915 432.02 559.76 432.01C559.621 431.99 559.484 431.96 559.35 431.92C559.1 431.85 558.87 431.75 558.63 431.66L557.23 431.05C556.76 430.84 556.31 430.63 555.84 430.47C555.624 430.378 555.394 430.321 555.16 430.3C555 430.3 554.91 430.43 554.95 430.65C555.011 430.867 555.117 431.068 555.262 431.24C555.407 431.413 555.587 431.552 555.79 431.65C555.891 431.698 555.999 431.732 556.11 431.75C556.155 431.754 556.2 431.746 556.24 431.726C556.281 431.707 556.315 431.677 556.34 431.64C556.508 431.47 556.653 431.278 556.77 431.07C557.269 430.209 557.681 429.302 558 428.36C558.162 427.884 558.299 427.4 558.41 426.91C558.468 426.669 558.511 426.425 558.54 426.18C558.605 425.958 558.605 425.722 558.54 425.5C558.46 425.37 558.18 425.5 557.99 425.67C557.8 425.84 557.61 425.98 557.43 426.15C557.06 426.49 556.72 426.87 556.43 427.24C555.75 427.98 555.07 428.76 554.43 429.51C554.09 429.89 553.75 430.27 553.43 430.64C553.101 431.039 552.705 431.377 552.26 431.64C552.118 431.677 551.968 431.656 551.84 431.583C551.713 431.511 551.62 431.391 551.58 431.25C551.48 431.01 551.49 430.71 551.36 430.57C551.23 430.43 551.17 430.57 551.06 430.57L550.75 430.77C550.55 430.91 550.35 431.07 550.15 431.23C549.762 431.572 549.315 431.839 548.83 432.02C548.693 432.05 548.551 432.043 548.418 432.001C548.285 431.959 548.165 431.883 548.07 431.78C547.902 431.583 547.752 431.372 547.62 431.15C547.48 430.94 547.35 430.72 547.14 430.65C546.923 430.583 546.694 430.566 546.47 430.6C545.986 430.691 545.537 430.912 545.17 431.24C544.464 431.947 543.889 432.773 543.47 433.68C543.02 434.578 542.652 435.515 542.37 436.48C542.058 437.429 541.892 438.42 541.88 439.42C541.87 439.643 541.922 439.864 542.03 440.06V440.11C542.057 440.099 542.081 440.082 542.1 440.06C542.181 439.98 542.255 439.893 542.32 439.8C542.572 439.377 542.799 438.939 543 438.49C543.791 436.639 544.459 434.738 545 432.8C545.289 431.832 545.53 430.851 545.72 429.86C545.821 429.369 545.878 428.87 545.89 428.37C545.912 428.138 545.867 427.906 545.76 427.7C545.733 427.658 545.692 427.627 545.645 427.612C545.597 427.597 545.546 427.6 545.5 427.62C545.381 427.632 545.264 427.656 545.15 427.69C544.183 427.97 543.253 428.367 542.38 428.87C541.49 429.35 540.62 429.87 539.77 430.42L539.81 430.33Z" fill="#2F2E41"/>
<path d="M484.5 430.33C483.67 429.76 482.82 429.21 481.93 428.71C481.058 428.181 480.124 427.761 479.15 427.46C479.022 427.424 478.892 427.397 478.76 427.38C478.684 427.362 478.604 427.366 478.53 427.39C478.456 427.415 478.39 427.46 478.34 427.52C478.21 427.766 478.151 428.043 478.17 428.32C478.175 428.83 478.225 429.339 478.32 429.84C478.5 430.84 478.75 431.84 479 432.84C479.541 434.798 480.209 436.719 481 438.59C481.2 439.064 481.441 439.519 481.72 439.95C481.8 440.065 481.894 440.169 482 440.26C482.07 440.329 482.162 440.372 482.26 440.38C482.325 440.382 482.389 440.361 482.44 440.32L482.53 440.22C482.678 439.976 482.754 439.696 482.75 439.41C482.718 438.389 482.536 437.378 482.21 436.41C481.91 435.437 481.528 434.49 481.07 433.58C480.627 432.65 480.02 431.807 479.28 431.09C478.888 430.737 478.401 430.504 477.88 430.42C477.615 430.38 477.345 430.4 477.09 430.48C476.847 430.606 476.651 430.805 476.53 431.05C476.413 431.269 476.272 431.473 476.11 431.66C476.037 431.748 475.942 431.814 475.834 431.851C475.727 431.888 475.611 431.895 475.5 431.87C475.03 431.702 474.596 431.448 474.22 431.12C474.02 430.97 473.82 430.81 473.61 430.67C473.505 430.593 473.394 430.523 473.28 430.46C473.217 430.421 473.144 430.401 473.07 430.401C472.996 430.401 472.923 430.421 472.86 430.46C472.66 430.71 472.71 430.98 472.61 431.2C472.584 431.312 472.514 431.41 472.417 431.471C472.32 431.533 472.203 431.554 472.09 431.53C471.666 431.259 471.287 430.921 470.97 430.53C470.63 430.16 470.3 429.78 469.97 429.4C469.29 428.63 468.65 427.86 467.97 427.1C467.63 426.72 467.29 426.35 466.92 425.99C466.733 425.813 466.536 425.646 466.33 425.49C466.226 425.408 466.112 425.341 465.99 425.29C465.92 425.26 465.846 425.243 465.77 425.24C465.723 425.24 465.677 425.251 465.636 425.272C465.594 425.293 465.558 425.323 465.53 425.36C465.413 425.613 465.378 425.896 465.43 426.17C465.45 426.426 465.49 426.68 465.55 426.93C465.897 428.426 466.441 429.869 467.17 431.22C467.303 431.453 467.464 431.668 467.65 431.86C467.706 431.919 467.775 431.964 467.851 431.994C467.927 432.023 468.009 432.036 468.09 432.03C468.232 432.02 468.371 431.982 468.5 431.92C468.747 431.799 468.964 431.625 469.137 431.411C469.31 431.197 469.434 430.947 469.5 430.68C469.53 430.518 469.509 430.35 469.44 430.2C469.392 430.123 469.327 430.058 469.25 430.01C469.166 429.97 469.073 429.952 468.98 429.96C468.713 429.985 468.451 430.046 468.2 430.14C467.71 430.31 467.25 430.52 466.78 430.73L465.39 431.32C465.16 431.41 464.93 431.5 464.71 431.57C464.599 431.607 464.485 431.634 464.37 431.65C464.273 431.651 464.178 431.63 464.09 431.59C463.71 431.4 463.46 430.91 463.09 430.59C462.89 430.368 462.617 430.226 462.32 430.19C462.264 430.183 462.207 430.188 462.154 430.205C462.1 430.223 462.051 430.252 462.01 430.29C461.971 430.331 461.941 430.38 461.922 430.433C461.903 430.487 461.895 430.544 461.9 430.6C461.908 430.742 461.932 430.883 461.97 431.02C462.04 431.24 462.07 431.53 461.97 431.54C461.777 431.562 461.583 431.562 461.39 431.54C460.922 431.401 460.487 431.17 460.11 430.86C459.894 430.701 459.666 430.558 459.43 430.43C459.185 430.26 458.885 430.188 458.59 430.23C458.083 430.427 457.636 430.751 457.29 431.17C457.129 431.344 456.947 431.499 456.75 431.63C456.66 431.7 456.58 431.71 456.56 431.69C456.454 431.64 456.354 431.58 456.26 431.51C455.856 431.205 455.475 430.871 455.12 430.51C454.372 429.837 453.701 429.082 453.12 428.26C452.85 427.874 452.691 427.421 452.66 426.95C452.66 426.5 453.12 426.27 453.61 426.21C454.602 426.032 455.618 426.032 456.61 426.21C457.099 426.301 457.577 426.438 458.04 426.62C458.279 426.711 458.507 426.828 458.72 426.97C458.9 427.11 459.07 427.3 459.02 427.49C458.916 427.692 458.742 427.849 458.53 427.93C458.31 428.03 458.08 428.12 457.85 428.2C457.375 428.369 456.891 428.513 456.4 428.63C454.422 429.007 452.413 429.201 450.4 429.21C452.439 429.259 454.479 429.112 456.49 428.77C456.99 428.66 457.49 428.52 457.97 428.36C458.2 428.27 458.45 428.19 458.68 428.08C458.812 428.029 458.934 427.953 459.037 427.855C459.14 427.757 459.222 427.64 459.28 427.51C459.3 427.365 459.276 427.217 459.212 427.086C459.148 426.954 459.046 426.844 458.92 426.77C458.711 426.612 458.482 426.481 458.24 426.38C457.764 426.179 457.268 426.032 456.76 425.94C455.751 425.72 454.71 425.69 453.69 425.85C453.418 425.89 453.157 425.982 452.92 426.12C452.792 426.198 452.685 426.307 452.608 426.436C452.531 426.565 452.487 426.71 452.48 426.86C452.505 427.403 452.685 427.927 453 428.37C453.565 429.231 454.237 430.018 455 430.71C455.37 431.07 455.764 431.404 456.18 431.71C456.29 431.793 456.408 431.866 456.53 431.93C456.617 431.96 456.709 431.968 456.8 431.954C456.89 431.94 456.976 431.904 457.05 431.85C457.273 431.702 457.478 431.527 457.66 431.33C457.962 430.966 458.346 430.678 458.78 430.49C459.15 430.44 459.58 430.78 459.98 431.07C460.398 431.397 460.873 431.644 461.38 431.8C461.522 431.862 461.675 431.894 461.83 431.894C461.985 431.894 462.138 431.862 462.28 431.8C462.35 431.74 462.403 431.661 462.433 431.573C462.463 431.485 462.469 431.391 462.45 431.3C462.439 431.161 462.412 431.023 462.37 430.89C462.34 430.782 462.32 430.672 462.31 430.56C462.31 430.56 462.31 430.56 462.36 430.56C462.569 430.589 462.76 430.692 462.9 430.85C463.24 431.17 463.48 431.66 464.01 431.95C464.152 432.021 464.312 432.049 464.47 432.03C464.609 432.018 464.746 431.991 464.88 431.95C465.13 431.87 465.36 431.78 465.6 431.68C466.07 431.49 466.53 431.28 467 431.07C467.47 430.86 467.92 430.66 468.39 430.5C468.607 430.41 468.836 430.349 469.07 430.32C469.23 430.32 469.32 430.46 469.28 430.67C469.215 430.885 469.107 431.085 468.963 431.257C468.819 431.429 468.641 431.57 468.44 431.67C468.34 431.72 468.231 431.75 468.12 431.76C468.076 431.764 468.032 431.757 467.992 431.74C467.952 431.722 467.917 431.695 467.89 431.66C467.719 431.493 467.574 431.301 467.46 431.09C466.961 430.23 466.549 429.322 466.23 428.38C466.07 427.9 465.93 427.38 465.81 426.93C465.75 426.687 465.71 426.44 465.69 426.19C465.641 425.967 465.659 425.734 465.74 425.52C465.82 425.39 466.1 425.52 466.28 425.69C466.484 425.833 466.674 425.994 466.85 426.17C467.22 426.51 467.53 426.88 467.9 427.26C468.58 428 469.26 428.77 469.9 429.53C470.24 429.91 470.58 430.29 470.9 430.66C471.226 431.062 471.623 431.4 472.07 431.66C472.21 431.694 472.358 431.673 472.483 431.6C472.608 431.527 472.7 431.409 472.74 431.27C472.84 431.02 472.83 430.73 472.96 430.59C473.09 430.45 473.15 430.59 473.25 430.59C473.362 430.647 473.469 430.714 473.57 430.79C473.77 430.93 473.97 431.09 474.17 431.25C474.557 431.591 475.005 431.855 475.49 432.03C475.626 432.065 475.768 432.061 475.902 432.021C476.036 431.98 476.156 431.904 476.25 431.8C476.418 431.603 476.568 431.393 476.7 431.17C476.84 430.96 476.97 430.73 477.18 430.66C477.4 430.61 477.629 430.61 477.85 430.66C478.332 430.75 478.781 430.967 479.15 431.29C479.857 432 480.432 432.83 480.85 433.74C481.3 434.639 481.668 435.576 481.95 436.54C482.262 437.489 482.428 438.481 482.44 439.48C482.451 439.7 482.399 439.919 482.29 440.11V440.16C482.262 440.151 482.238 440.133 482.22 440.11C482.139 440.036 482.069 439.952 482.01 439.86C481.752 439.437 481.524 438.996 481.33 438.54C480.537 436.694 479.869 434.796 479.33 432.86C479.05 431.86 478.79 430.91 478.61 429.92C478.508 429.43 478.451 428.931 478.44 428.43C478.423 428.196 478.468 427.962 478.57 427.75C478.63 427.67 478.69 427.65 478.83 427.68C478.952 427.689 479.073 427.713 479.19 427.75C480.154 428.036 481.083 428.428 481.96 428.92C482.84 429.4 483.72 429.92 484.56 430.47L484.5 430.33Z" fill="#2F2E41"/>
<path d="M514.3 419.58C514.36 419.735 514.479 419.859 514.631 419.927C514.783 419.994 514.955 419.999 515.11 419.94C515.232 419.893 515.337 419.809 515.41 419.7C515.502 419.561 515.645 419.464 515.808 419.431C515.971 419.397 516.141 419.429 516.28 419.52C516.422 419.619 516.519 419.77 516.55 419.94C516.579 420.104 516.673 420.251 516.81 420.346C516.946 420.442 517.116 420.479 517.28 420.45C517.403 420.428 517.517 420.373 517.61 420.29C517.667 420.231 517.735 420.184 517.811 420.151C517.887 420.119 517.968 420.103 518.05 420.103C518.132 420.103 518.214 420.119 518.289 420.151C518.365 420.184 518.433 420.231 518.49 420.29C518.551 420.351 518.599 420.425 518.63 420.506C518.661 420.587 518.675 420.674 518.67 420.76C518.665 420.926 518.725 421.086 518.837 421.208C518.949 421.33 519.105 421.402 519.27 421.41C519.4 421.421 519.53 421.389 519.64 421.32C519.708 421.275 519.785 421.244 519.865 421.229C519.945 421.214 520.028 421.215 520.107 421.231C520.187 421.248 520.263 421.281 520.331 421.327C520.398 421.373 520.456 421.432 520.5 421.5C520.59 421.647 520.618 421.823 520.58 421.99C520.559 422.07 520.554 422.154 520.565 422.236C520.576 422.318 520.604 422.397 520.645 422.468C520.687 422.54 520.743 422.602 520.809 422.653C520.875 422.703 520.95 422.739 521.03 422.76C521.154 422.795 521.286 422.795 521.41 422.76C521.567 422.702 521.74 422.708 521.892 422.777C522.044 422.847 522.162 422.974 522.22 423.13C522.255 423.209 522.273 423.294 522.273 423.38C522.273 423.466 522.255 423.551 522.22 423.63C522.146 423.78 522.134 423.953 522.187 424.112C522.239 424.271 522.352 424.403 522.5 424.48C522.624 424.542 522.765 424.559 522.9 424.53C523.065 424.51 523.232 424.555 523.365 424.656C523.497 424.757 523.585 424.905 523.61 425.07C523.629 425.238 523.583 425.406 523.48 425.54C523.429 425.605 523.391 425.679 523.368 425.758C523.346 425.838 523.34 425.921 523.35 426.003C523.36 426.085 523.387 426.164 523.428 426.236C523.469 426.307 523.524 426.37 523.59 426.42C523.687 426.499 523.806 426.548 523.93 426.56C524.013 426.565 524.094 426.587 524.168 426.623C524.243 426.659 524.309 426.71 524.364 426.773C524.419 426.835 524.461 426.907 524.488 426.986C524.515 427.064 524.526 427.147 524.52 427.23C524.502 427.4 524.419 427.558 524.29 427.67C524.227 427.722 524.174 427.787 524.135 427.859C524.097 427.932 524.073 428.011 524.066 428.093C524.058 428.175 524.067 428.258 524.092 428.336C524.117 428.415 524.157 428.487 524.21 428.55C524.291 428.649 524.399 428.721 524.52 428.76C524.644 428.791 524.755 428.859 524.839 428.955C524.922 429.051 524.974 429.171 524.987 429.298C525 429.425 524.974 429.553 524.912 429.664C524.85 429.775 524.755 429.865 524.64 429.92C524.495 430 524.387 430.135 524.34 430.294C524.294 430.453 524.312 430.624 524.39 430.77C524.443 430.882 524.531 430.973 524.64 431.03C524.714 431.068 524.779 431.12 524.833 431.184C524.886 431.247 524.926 431.32 524.951 431.399C524.976 431.478 524.986 431.561 524.979 431.644C524.972 431.726 524.948 431.807 524.91 431.88C524.871 431.956 524.815 432.023 524.748 432.077C524.681 432.13 524.603 432.169 524.52 432.19C524.441 432.212 524.367 432.249 524.303 432.3C524.238 432.351 524.184 432.414 524.144 432.485C524.104 432.557 524.079 432.636 524.07 432.717C524.06 432.799 524.067 432.881 524.09 432.96C524.121 433.085 524.191 433.198 524.29 433.28C524.386 433.361 524.455 433.468 524.49 433.589C524.524 433.709 524.522 433.837 524.483 433.956C524.445 434.075 524.371 434.18 524.273 434.257C524.174 434.335 524.055 434.381 523.93 434.39C523.764 434.405 523.61 434.485 523.502 434.612C523.393 434.739 523.339 434.903 523.35 435.07C523.358 435.194 523.404 435.312 523.48 435.41C523.553 435.509 523.596 435.627 523.602 435.75C523.609 435.872 523.58 435.994 523.518 436.1C523.457 436.207 523.365 436.293 523.255 436.348C523.146 436.403 523.022 436.424 522.9 436.41C522.736 436.381 522.567 436.416 522.428 436.51C522.29 436.603 522.194 436.747 522.16 436.91C522.139 437.046 522.16 437.186 522.22 437.31C522.293 437.46 522.303 437.633 522.248 437.79C522.194 437.947 522.08 438.077 521.93 438.15C521.772 438.21 521.598 438.21 521.44 438.15C521.333 438.111 521.217 438.101 521.105 438.122C520.993 438.144 520.888 438.195 520.803 438.271C520.718 438.347 520.655 438.445 520.621 438.554C520.587 438.663 520.583 438.779 520.61 438.89C520.629 438.971 520.632 439.055 520.618 439.137C520.604 439.219 520.574 439.297 520.529 439.367C520.484 439.437 520.426 439.497 520.357 439.544C520.289 439.591 520.212 439.624 520.13 439.64C519.974 439.677 519.809 439.652 519.67 439.57C519.53 439.48 519.359 439.449 519.196 439.485C519.033 439.521 518.89 439.62 518.8 439.76C518.732 439.868 518.698 439.993 518.7 440.12C518.706 440.202 518.694 440.285 518.668 440.363C518.641 440.441 518.599 440.513 518.544 440.574C518.489 440.635 518.422 440.685 518.348 440.721C518.273 440.756 518.192 440.776 518.11 440.78C518.024 440.784 517.937 440.77 517.856 440.739C517.776 440.708 517.702 440.661 517.64 440.6C517.522 440.482 517.362 440.416 517.195 440.416C517.028 440.416 516.868 440.482 516.75 440.6C516.661 440.69 516.602 440.805 516.58 440.93C516.551 441.095 516.458 441.242 516.321 441.339C516.185 441.436 516.016 441.476 515.85 441.45C515.767 441.435 515.688 441.404 515.617 441.357C515.547 441.311 515.486 441.251 515.44 441.18C515.346 441.041 515.202 440.943 515.037 440.91C514.872 440.876 514.701 440.909 514.56 441C514.455 441.07 514.374 441.172 514.33 441.29C514.283 441.407 514.203 441.507 514.098 441.578C513.994 441.649 513.871 441.686 513.745 441.686C513.619 441.686 513.496 441.649 513.392 441.578C513.288 441.507 513.207 441.407 513.16 441.29C513.13 441.214 513.086 441.144 513.029 441.085C512.972 441.026 512.904 440.978 512.828 440.946C512.753 440.913 512.672 440.896 512.59 440.895C512.508 440.894 512.426 440.909 512.35 440.94C512.228 440.987 512.123 441.071 512.05 441.18C511.955 441.315 511.811 441.408 511.649 441.44C511.487 441.472 511.319 441.44 511.18 441.35C511.039 441.251 510.942 441.1 510.91 440.93C510.881 440.766 510.788 440.62 510.651 440.524C510.514 440.428 510.345 440.391 510.18 440.42C510.055 440.442 509.94 440.501 509.85 440.59C509.732 440.705 509.575 440.769 509.41 440.769C509.246 440.769 509.088 440.705 508.97 440.59C508.91 440.526 508.863 440.451 508.832 440.368C508.801 440.286 508.787 440.198 508.79 440.11C508.793 440.027 508.779 439.945 508.75 439.867C508.721 439.79 508.676 439.719 508.62 439.659C508.563 439.598 508.495 439.55 508.42 439.516C508.344 439.482 508.263 439.463 508.18 439.46C508.053 439.454 507.926 439.489 507.82 439.56C507.678 439.645 507.508 439.671 507.347 439.632C507.186 439.592 507.047 439.491 506.96 439.35C506.915 439.281 506.885 439.204 506.871 439.123C506.858 439.043 506.861 438.96 506.88 438.88C506.907 438.769 506.903 438.653 506.869 438.544C506.835 438.435 506.772 438.337 506.687 438.261C506.602 438.185 506.498 438.134 506.385 438.112C506.273 438.091 506.157 438.101 506.05 438.14C505.891 438.195 505.717 438.184 505.565 438.111C505.414 438.038 505.297 437.908 505.24 437.75C505.181 437.596 505.181 437.425 505.24 437.27C505.314 437.12 505.326 436.947 505.273 436.788C505.221 436.629 505.109 436.497 504.96 436.42C504.836 436.359 504.695 436.342 504.56 436.37C504.395 436.39 504.228 436.345 504.096 436.244C503.963 436.143 503.875 435.995 503.85 435.83C503.831 435.662 503.877 435.494 503.98 435.36C504.043 435.269 504.081 435.164 504.091 435.054C504.101 434.944 504.083 434.834 504.038 434.733C503.992 434.632 503.922 434.545 503.833 434.48C503.744 434.414 503.64 434.373 503.53 434.36C503.447 434.354 503.367 434.331 503.292 434.293C503.218 434.256 503.153 434.204 503.099 434.141C503.045 434.078 503.004 434.004 502.978 433.925C502.953 433.846 502.943 433.763 502.95 433.68C502.955 433.597 502.977 433.516 503.015 433.442C503.053 433.368 503.106 433.303 503.17 433.25C503.296 433.143 503.375 432.992 503.392 432.828C503.408 432.664 503.361 432.5 503.26 432.37C503.173 432.274 503.063 432.201 502.94 432.16C502.816 432.129 502.705 432.061 502.622 431.965C502.538 431.869 502.486 431.749 502.473 431.622C502.46 431.495 502.486 431.368 502.548 431.256C502.61 431.145 502.705 431.056 502.82 431C502.918 430.944 502.999 430.863 503.055 430.766C503.112 430.668 503.141 430.558 503.141 430.445C503.141 430.332 503.112 430.222 503.055 430.124C502.999 430.027 502.918 429.946 502.82 429.89C502.747 429.852 502.681 429.8 502.628 429.737C502.574 429.673 502.534 429.6 502.509 429.521C502.484 429.442 502.474 429.359 502.482 429.276C502.489 429.194 502.512 429.114 502.55 429.04C502.59 428.964 502.645 428.897 502.712 428.843C502.779 428.79 502.857 428.751 502.94 428.73C503.101 428.684 503.236 428.575 503.317 428.429C503.397 428.283 503.416 428.111 503.37 427.95C503.339 427.828 503.269 427.719 503.17 427.64C503.106 427.587 503.053 427.522 503.015 427.448C502.976 427.375 502.952 427.294 502.945 427.212C502.938 427.129 502.947 427.046 502.971 426.966C502.996 426.887 503.037 426.814 503.09 426.75C503.145 426.686 503.212 426.633 503.288 426.595C503.363 426.558 503.446 426.535 503.53 426.53C503.696 426.515 503.85 426.435 503.958 426.308C504.067 426.181 504.121 426.017 504.11 425.85C504.102 425.726 504.057 425.608 503.98 425.51C503.907 425.411 503.865 425.293 503.858 425.171C503.851 425.048 503.88 424.926 503.942 424.82C504.004 424.713 504.095 424.628 504.205 424.573C504.315 424.518 504.438 424.496 504.56 424.51C504.723 424.539 504.891 424.503 505.028 424.41C505.164 424.316 505.259 424.173 505.29 424.01C505.319 423.875 505.302 423.734 505.24 423.61C505.185 423.497 505.164 423.371 505.182 423.246C505.199 423.122 505.253 423.005 505.337 422.912C505.42 422.818 505.53 422.752 505.652 422.721C505.774 422.691 505.902 422.697 506.02 422.74C506.177 422.798 506.35 422.792 506.502 422.723C506.654 422.653 506.772 422.526 506.83 422.37C506.865 422.246 506.865 422.114 506.83 421.99C506.791 421.831 506.816 421.663 506.9 421.522C506.985 421.382 507.121 421.28 507.28 421.24C507.363 421.216 507.449 421.21 507.534 421.224C507.619 421.238 507.7 421.271 507.77 421.32C507.868 421.387 507.984 421.426 508.103 421.431C508.222 421.436 508.34 421.408 508.444 421.35C508.548 421.292 508.633 421.206 508.691 421.101C508.748 420.997 508.776 420.879 508.77 420.76C508.765 420.678 508.776 420.596 508.803 420.519C508.83 420.442 508.872 420.37 508.927 420.31C508.982 420.249 509.049 420.2 509.123 420.166C509.198 420.132 509.278 420.113 509.36 420.11C509.447 420.104 509.534 420.117 509.615 420.148C509.696 420.179 509.769 420.228 509.83 420.29C509.948 420.408 510.108 420.474 510.275 420.474C510.442 420.474 510.602 420.408 510.72 420.29C510.809 420.2 510.869 420.085 510.89 419.96C510.903 419.879 510.933 419.802 510.976 419.732C511.02 419.662 511.077 419.602 511.144 419.555C511.211 419.507 511.286 419.473 511.366 419.456C511.446 419.438 511.529 419.436 511.61 419.45C511.696 419.461 511.778 419.491 511.851 419.538C511.923 419.584 511.985 419.647 512.03 419.72C512.094 419.816 512.183 419.892 512.287 419.941C512.391 419.989 512.507 420.008 512.621 419.996C512.736 419.984 512.845 419.94 512.936 419.87C513.027 419.801 513.098 419.707 513.14 419.6C513.201 419.445 513.319 419.321 513.471 419.254C513.623 419.186 513.795 419.181 513.95 419.24C514.104 419.308 514.228 419.428 514.3 419.58Z" fill="#0071F2"/>
<path d="M513.71 439.58C511.904 439.58 510.138 439.045 508.637 438.041C507.135 437.037 505.965 435.611 505.274 433.942C504.583 432.273 504.403 430.437 504.756 428.665C505.109 426.894 505.98 425.267 507.258 423.991C508.536 422.714 510.163 421.846 511.935 421.495C513.707 421.143 515.543 421.326 517.211 422.018C518.879 422.711 520.304 423.883 521.306 425.385C522.308 426.888 522.842 428.654 522.84 430.46C522.837 432.88 521.874 435.2 520.162 436.91C518.451 438.62 516.13 439.58 513.71 439.58ZM513.71 421.67C511.968 421.67 510.264 422.187 508.816 423.155C507.367 424.123 506.238 425.499 505.571 427.109C504.904 428.719 504.729 430.49 505.069 432.199C505.409 433.908 506.248 435.478 507.48 436.71C508.713 437.942 510.282 438.781 511.991 439.121C513.7 439.461 515.472 439.287 517.082 438.62C518.691 437.953 520.067 436.824 521.035 435.375C522.003 433.926 522.52 432.223 522.52 430.48C522.52 428.144 521.592 425.903 519.94 424.251C518.288 422.599 516.047 421.67 513.71 421.67Z" fill="#0071F2"/>
<path d="M502.81 430.52C502.815 430.091 502.989 429.682 503.294 429.38C503.6 429.079 504.011 428.91 504.44 428.91C504.802 428.917 505.153 429.039 505.44 429.26C505.484 429.31 505.509 429.374 505.509 429.44C505.509 429.507 505.484 429.571 505.44 429.62C505.392 429.664 505.33 429.688 505.265 429.688C505.2 429.688 505.138 429.664 505.09 429.62C504.886 429.457 504.631 429.372 504.37 429.38C504.072 429.378 503.785 429.493 503.57 429.7C503.467 429.8 503.386 429.92 503.331 430.052C503.276 430.185 503.249 430.327 503.25 430.47C503.245 430.614 503.271 430.757 503.326 430.89C503.381 431.023 503.464 431.142 503.57 431.24C503.786 431.446 504.072 431.563 504.37 431.57C504.631 431.57 504.885 431.482 505.09 431.32C505.116 431.3 505.146 431.286 505.178 431.278C505.21 431.27 505.243 431.268 505.275 431.273C505.308 431.277 505.339 431.288 505.367 431.305C505.396 431.322 505.42 431.344 505.44 431.37C505.484 431.418 505.508 431.48 505.508 431.545C505.508 431.61 505.484 431.672 505.44 431.72C505.153 431.941 504.802 432.064 504.44 432.07C504.021 432.071 503.618 431.91 503.315 431.621C503.011 431.333 502.831 430.938 502.81 430.52Z" fill="#0071F2"/>
<path d="M506.38 431.87V429.25C506.38 429.186 506.405 429.125 506.45 429.08C506.495 429.035 506.556 429.01 506.62 429.01H508.08C508.143 429.022 508.199 429.058 508.236 429.11C508.273 429.162 508.289 429.226 508.28 429.29C508.271 429.341 508.248 429.388 508.212 429.425C508.176 429.463 508.13 429.489 508.08 429.5H506.87V430.31H507.87C507.935 430.322 507.992 430.359 508.03 430.414C508.067 430.468 508.082 430.535 508.07 430.6C508.061 430.651 508.037 430.698 508.002 430.735C507.966 430.773 507.92 430.799 507.87 430.81H506.87V431.62H508.08C508.136 431.631 508.187 431.662 508.224 431.707C508.26 431.751 508.28 431.807 508.28 431.865C508.28 431.922 508.26 431.978 508.224 432.023C508.187 432.068 508.136 432.098 508.08 432.11H506.62C506.556 432.11 506.495 432.084 506.45 432.039C506.405 431.994 506.38 431.933 506.38 431.87Z" fill="#0071F2"/>
<path d="M511.16 431.75C511.179 431.812 511.173 431.879 511.143 431.937C511.113 431.995 511.062 432.039 511 432.06H510.91C510.85 432.058 510.791 432.041 510.74 432.01C510.681 431.97 510.63 431.919 510.59 431.86C510.521 431.689 510.49 431.504 510.5 431.32C510.5 431.252 510.479 431.185 510.44 431.13C510.41 431.075 510.365 431.03 510.31 431C510.239 430.948 510.157 430.914 510.07 430.9H509.54V431.9C509.525 431.954 509.492 432.002 509.447 432.036C509.401 432.07 509.347 432.088 509.29 432.088C509.234 432.088 509.179 432.07 509.133 432.036C509.088 432.002 509.056 431.954 509.04 431.9V429.29C509.043 429.225 509.07 429.164 509.117 429.119C509.163 429.075 509.225 429.05 509.29 429.05H510.09C510.339 429.05 510.578 429.149 510.755 429.325C510.931 429.501 511.03 429.741 511.03 429.99C511.033 430.129 511.004 430.268 510.945 430.394C510.886 430.521 510.799 430.632 510.69 430.72C510.752 430.76 510.804 430.815 510.84 430.88C510.939 431.024 510.991 431.195 510.99 431.37C510.98 431.456 510.98 431.543 510.99 431.63C511.026 431.635 511.06 431.649 511.089 431.669C511.119 431.69 511.143 431.718 511.16 431.75ZM510.54 429.96C510.537 429.839 510.488 429.723 510.402 429.637C510.317 429.552 510.201 429.502 510.08 429.5H509.53V430.41H510.08C510.194 430.41 510.304 430.369 510.389 430.293C510.474 430.217 510.528 430.113 510.54 430V429.96Z" fill="#0071F2"/>
<path d="M514.7 429.25C514.699 429.213 514.707 429.176 514.722 429.141C514.738 429.107 514.761 429.077 514.79 429.053C514.819 429.029 514.853 429.012 514.889 429.003C514.925 428.994 514.963 428.993 515 429C515.065 429 515.127 429.025 515.173 429.07C515.22 429.115 515.247 429.176 515.25 429.24V431.86C515.247 431.925 515.22 431.986 515.173 432.031C515.127 432.075 515.065 432.1 515 432.1C514.968 432.102 514.937 432.097 514.907 432.086C514.878 432.075 514.851 432.058 514.827 432.037C514.804 432.016 514.785 431.99 514.772 431.961C514.759 431.933 514.751 431.902 514.75 431.87L514.7 429.25Z" fill="#0071F2"/>
<path d="M518.75 429.25C518.75 429.184 518.776 429.12 518.823 429.073C518.87 429.026 518.934 429 519 429C519.065 429 519.127 429.025 519.173 429.07C519.22 429.114 519.247 429.175 519.25 429.24V431.86C519.247 431.925 519.22 431.986 519.173 432.03C519.127 432.075 519.065 432.1 519 432.1C518.968 432.101 518.937 432.096 518.907 432.086C518.878 432.075 518.851 432.058 518.827 432.037C518.804 432.015 518.785 431.99 518.772 431.961C518.759 431.932 518.751 431.902 518.75 431.87V429.25Z" fill="#0071F2"/>
<path d="M520.08 431.87V429.25C520.079 429.219 520.084 429.188 520.095 429.159C520.106 429.13 520.122 429.103 520.144 429.081C520.165 429.058 520.191 429.04 520.22 429.028C520.248 429.016 520.279 429.01 520.31 429.01H521.77C521.835 429.02 521.893 429.055 521.932 429.107C521.971 429.159 521.989 429.225 521.98 429.29C521.972 429.343 521.947 429.392 521.91 429.429C521.872 429.467 521.823 429.492 521.77 429.5H520.57V430.31H521.57C521.636 430.31 521.7 430.336 521.747 430.383C521.794 430.43 521.82 430.493 521.82 430.56C521.82 430.626 521.794 430.69 521.747 430.737C521.7 430.783 521.636 430.81 521.57 430.81H520.57V431.62H521.77C521.834 431.62 521.895 431.645 521.94 431.69C521.985 431.735 522.01 431.796 522.01 431.86C522.011 431.892 522.006 431.924 521.995 431.955C521.983 431.985 521.966 432.013 521.943 432.036C521.921 432.059 521.894 432.078 521.864 432.091C521.834 432.103 521.802 432.11 521.77 432.11H520.32C520.289 432.111 520.258 432.106 520.229 432.095C520.2 432.084 520.173 432.068 520.151 432.046C520.128 432.025 520.111 431.999 520.098 431.97C520.086 431.942 520.08 431.911 520.08 431.88V431.87Z" fill="#0071F2"/>
<path d="M396.66 406.57L348.24 439.05C343.64 442.137 338.722 444.722 333.57 446.76C321.35 451.61 297.89 461.97 296.32 470.62C296.32 470.62 305.92 500.51 323 497.31C323 497.31 339 504.02 373.18 462.77L410.26 421C411.775 419.292 413.816 418.138 416.06 417.72C419.93 417.01 426.28 415.62 430.5 413.55C432.077 412.756 433.413 411.554 434.37 410.07L445.76 392.67C445.76 392.67 446.83 391.6 444.69 386.26C444.69 386.26 446.83 380.93 442.56 378.79C442.56 378.79 444.24 373.45 440.73 369.72C440.73 369.72 441.49 364.91 438.29 363.85C438.29 363.85 437.22 357.44 431.88 358.51L413.74 363.85C411.751 364.302 409.957 365.371 408.613 366.905C407.27 368.439 406.446 370.359 406.26 372.39L396.66 406.57Z" fill="#F9B499"/>
<path d="M408.93 379.51C411.85 376 414.93 372.63 418.03 369.3C424.73 367.3 431.45 365.37 438.29 363.88C432.16 366.11 424.07 368.8 418.68 370.1C415.51 373.31 412.29 376.48 408.93 379.51Z" fill="#F7A48B"/>
<path d="M415.87 390.56C416.23 388.099 417.075 385.735 418.358 383.604C419.64 381.473 421.334 379.619 423.34 378.15C429.04 375.15 434.81 372.29 440.73 369.75C437.99 371.44 435.18 373 432.38 374.57C429.58 376.14 426.5 377.73 423.9 379.03C419.9 381.69 417.34 386.03 415.9 390.56H415.87Z" fill="#F7A48B"/>
<path d="M425 397.58C426.11 392.92 427.82 387.97 431.62 384.8C435.2 382.67 438.84 380.64 442.62 378.8C440.94 380.04 439.22 381.2 437.48 382.34C435.74 383.48 433.78 384.71 432.26 385.63C428.74 388.63 426.86 393.36 425.01 397.56L425 397.58Z" fill="#F7A48B"/>
<path d="M431.35 403.91C433.27 396.68 438.06 389.91 444.69 386.29C439.083 391.187 434.542 397.184 431.35 403.91Z" fill="#F7A48B"/>
<path d="M586.62 384.65C586.62 384.65 575.73 373.48 585.21 373.48C585.47 373.48 594.66 372.48 600.74 371.81C602.521 371.606 604.322 371.928 605.922 372.736C607.521 373.545 608.849 374.805 609.74 376.36C612.902 382.094 614.518 388.552 614.43 395.1C614.43 395.1 611.23 416.18 605.89 418.32C605.89 418.32 572.73 420.52 585.57 407.68C585.57 407.68 572.04 401.77 584.16 395.1C584.16 395.1 576.78 395.9 577.46 390.56C577.45 390.56 575.9 385.14 586.62 384.65Z" fill="#F9B499"/>
<path d="M600.73 386.29C595.97 386.476 591.21 385.923 586.62 384.65C591.38 384.468 596.139 385.021 600.73 386.29Z" fill="#F7A48B"/>
<path d="M599.32 395.11C594.29 395.845 589.18 395.845 584.15 395.11C589.18 394.375 594.29 394.375 599.32 395.11Z" fill="#F7A48B"/>
<path d="M585.56 407.68C590.117 406.945 594.763 406.945 599.32 407.68C594.762 408.41 590.118 408.41 585.56 407.68Z" fill="#F7A48B"/>
<path d="M585.86 590.35L596.03 590.85" stroke="#FF0000" stroke-width="0.25" stroke-miterlimit="10"/>
<path d="M503.84 561.13V579.66L619.65 585.95L619.04 558.89L503.84 561.13Z" fill="#0071F2"/>
<path d="M496.26 585.95L619.65 592V585.95L503.84 579.66L496.26 585.95Z" fill="#CCCCCC"/>
<path d="M496.26 585.95L497.69 601.58L619.04 610.29L619.65 592L496.26 585.95Z" fill="#B3B3B3"/>
<path d="M468.26 537.51L550.52 550.33L622.63 540.33L584.28 530.33L468.28 537.45C468.28 537.45 468.23 537.51 468.26 537.51Z" fill="#2F2E41"/>
<path d="M549.09 568.88L465.8 554.61L468.26 537.51L550.51 550.33L549.09 568.88Z" fill="white"/>
<path d="M545.44 556.58H545.33L469 545.32C468.815 545.288 468.649 545.186 468.538 545.035C468.426 544.884 468.377 544.696 468.4 544.51C468.413 544.417 468.445 544.328 468.493 544.247C468.541 544.167 468.605 544.097 468.68 544.041C468.755 543.985 468.841 543.945 468.932 543.922C469.023 543.9 469.117 543.895 469.21 543.91L545.51 555.16C545.603 555.166 545.694 555.191 545.778 555.233C545.861 555.274 545.936 555.332 545.997 555.403C546.059 555.473 546.105 555.555 546.135 555.644C546.165 555.733 546.176 555.826 546.17 555.92C546.163 556.013 546.138 556.104 546.097 556.187C546.055 556.271 545.997 556.346 545.927 556.407C545.856 556.468 545.774 556.515 545.685 556.545C545.597 556.574 545.503 556.586 545.41 556.58H545.44Z" fill="#E6E6E6"/>
<path d="M544.81 562.46H544.67L469 548.29C468.814 548.255 468.65 548.149 468.543 547.993C468.436 547.837 468.395 547.646 468.43 547.46C468.464 547.274 468.571 547.11 468.727 547.003C468.883 546.896 469.074 546.855 469.26 546.89L544.94 561C545.109 561.04 545.258 561.139 545.359 561.28C545.461 561.421 545.508 561.594 545.492 561.766C545.476 561.939 545.398 562.101 545.273 562.221C545.148 562.341 544.983 562.411 544.81 562.42V562.46Z" fill="#E6E6E6"/>
<path d="M463.43 504.64L497.69 530.34L612.92 523.48L580.5 501.79L463.43 504.64Z" fill="#5D6166"/>
<path d="M462 518.92C462 518.92 496.93 545.49 497 546.2C497 546.76 497.73 530.34 497.73 530.34L463.47 504.64L462 518.92Z" fill="#E6E6E6"/>
<g opacity="0.21">
<path d="M494.84 533.91C494.681 533.91 494.526 533.857 494.4 533.76L464.4 510.92C464.268 510.799 464.186 510.632 464.17 510.453C464.154 510.274 464.206 510.096 464.315 509.953C464.424 509.81 464.582 509.713 464.759 509.681C464.936 509.649 465.118 509.685 465.27 509.78L495.27 532.63C495.345 532.687 495.407 532.758 495.454 532.839C495.501 532.921 495.531 533.01 495.543 533.103C495.555 533.196 495.549 533.291 495.524 533.381C495.5 533.472 495.458 533.556 495.4 533.63C495.335 533.717 495.25 533.788 495.153 533.836C495.056 533.885 494.949 533.91 494.84 533.91Z" fill="black"/>
</g>
<g opacity="0.21">
<path d="M494.84 538.19C494.681 538.189 494.527 538.137 494.4 538.04L464.4 515.2C464.25 515.085 464.152 514.914 464.128 514.727C464.104 514.539 464.155 514.35 464.27 514.2C464.385 514.05 464.556 513.952 464.743 513.928C464.931 513.903 465.12 513.955 465.27 514.07L495.27 536.91C495.418 537.026 495.515 537.196 495.539 537.383C495.564 537.57 495.514 537.759 495.4 537.91C495.335 537.997 495.25 538.067 495.153 538.116C495.056 538.165 494.949 538.19 494.84 538.19Z" fill="black"/>
</g>
<g opacity="0.21">
<path d="M493.41 541.05C493.254 541.05 493.103 540.997 492.98 540.9L462.98 518.06C462.905 518.004 462.842 517.933 462.795 517.852C462.747 517.772 462.716 517.682 462.703 517.589C462.677 517.402 462.726 517.212 462.84 517.06C462.954 516.909 463.124 516.81 463.311 516.783C463.499 516.757 463.689 516.806 463.84 516.92L493.84 539.76C493.915 539.817 493.979 539.887 494.027 539.968C494.074 540.049 494.106 540.138 494.119 540.231C494.132 540.324 494.126 540.419 494.102 540.51C494.079 540.6 494.037 540.686 493.98 540.76C493.914 540.849 493.828 540.922 493.729 540.972C493.63 541.022 493.521 541.049 493.41 541.05Z" fill="black"/>
</g>
<path d="M496.96 546.201L497.69 530.341L612.92 523.48V539.771L496.96 546.201Z" fill="#525659"/>
<path d="M550.51 550.33L549.09 568.88L619.04 558.89L622.63 540.33L550.51 550.33Z" fill="#2F2E41"/>
<path opacity="0.2" d="M550.51 550.33L549.09 568.88L619.04 558.89L622.63 540.33L550.51 550.33Z" fill="black"/>
<path d="M543.38 565.32H543.26L469 552.94C468.831 552.891 468.685 552.781 468.592 552.631C468.498 552.481 468.463 552.302 468.493 552.128C468.522 551.954 468.615 551.797 468.753 551.687C468.89 551.577 469.064 551.521 469.24 551.53L543.47 563.9C543.563 563.915 543.652 563.948 543.732 563.997C543.812 564.046 543.881 564.111 543.936 564.187C543.991 564.263 544.03 564.35 544.052 564.441C544.073 564.533 544.076 564.628 544.06 564.72C544.033 564.883 543.95 565.032 543.826 565.141C543.703 565.25 543.545 565.313 543.38 565.32Z" fill="#E6E6E6"/>
<path d="M637.25 636.7C663.075 636.7 684.01 615.129 684.01 588.52C684.01 561.911 663.075 540.34 637.25 540.34C611.425 540.34 590.49 561.911 590.49 588.52C590.49 615.129 611.425 636.7 637.25 636.7Z" fill="#0071F2"/>
<path opacity="0.2" d="M637.25 636.7C663.075 636.7 684.01 615.129 684.01 588.52C684.01 561.911 663.075 540.34 637.25 540.34C611.425 540.34 590.49 561.911 590.49 588.52C590.49 615.129 611.425 636.7 637.25 636.7Z" fill="black"/>
<path d="M605 550.75C604.856 550.75 604.715 550.706 604.597 550.624C604.479 550.542 604.389 550.425 604.34 550.29C604.24 550.03 601.95 543.83 603.34 528.84C603.34 528.23 603.04 511.94 610.8 509.67L611.62 509.43C618.73 507.33 627.62 504.73 646.98 507.5C647.33 507.57 654.32 509.21 653.8 521.8L654.73 539.58C654.73 539.83 654.34 542.85 653.15 544.35C653.025 544.475 652.858 544.549 652.682 544.559C652.506 544.569 652.332 544.514 652.193 544.404C652.055 544.294 651.962 544.137 651.932 543.963C651.902 543.789 651.937 543.61 652.03 543.46C652.733 542.256 653.169 540.916 653.31 539.53L652.38 521.81C652.84 510.43 646.98 508.96 646.73 508.91C627.73 506.19 619 508.74 612.02 510.8L611.2 511.04C604.49 513.04 604.76 528.74 604.77 528.89C603.37 543.63 605.62 549.72 605.64 549.78C605.674 549.867 605.69 549.96 605.688 550.054C605.685 550.147 605.665 550.239 605.626 550.325C605.588 550.411 605.534 550.488 605.466 550.552C605.398 550.616 605.318 550.666 605.23 550.7C605.157 550.731 605.079 550.748 605 550.75Z" fill="#0071F2"/>
<path d="M595.35 535.22L592.68 528.67C592.537 528.319 592.539 527.925 592.685 527.575C592.832 527.225 593.11 526.946 593.46 526.8L596.36 525.62C596.712 525.478 597.105 525.48 597.455 525.626C597.806 525.772 598.084 526.05 598.23 526.4L600.79 532.55L595.35 535.22Z" fill="#2F2E41"/>
<path d="M606.91 553.89C606.639 553.892 606.373 553.815 606.144 553.67C605.915 553.524 605.733 553.316 605.62 553.07L601.39 544.07C601.23 543.728 601.212 543.336 601.34 542.981C601.468 542.625 601.733 542.335 602.075 542.175C602.417 542.014 602.809 541.996 603.164 542.125C603.52 542.253 603.809 542.518 603.97 542.86L608.2 551.86C608.36 552.203 608.378 552.596 608.248 552.953C608.119 553.309 607.853 553.599 607.51 553.76C607.322 553.847 607.117 553.891 606.91 553.89Z" fill="#2F2E41"/>
<path d="M587.79 550.26L618.88 536.06C618.155 534.219 616.956 532.603 615.406 531.374C613.855 530.145 612.008 529.347 610.05 529.06C607.452 528.737 604.818 529.259 602.54 530.55L594.36 534C591.922 534.996 589.864 536.743 588.485 538.987C587.106 541.23 586.477 543.855 586.69 546.48C586.69 546.79 586.77 547.11 586.83 547.48L587.79 550.26Z" fill="#0071F2"/>
<path opacity="0.2" d="M587.79 550.26L618.88 536.06C618.155 534.219 616.956 532.603 615.406 531.374C613.855 530.145 612.008 529.347 610.05 529.06C607.452 528.737 604.818 529.259 602.54 530.55L594.36 534C591.922 534.996 589.864 536.743 588.485 538.987C587.106 541.23 586.477 543.855 586.69 546.48C586.69 546.79 586.77 547.11 586.83 547.48L587.79 550.26Z" fill="black"/>
<path d="M629.39 633.13C654.817 633.13 675.43 612.997 675.43 588.16C675.43 563.324 654.817 543.19 629.39 543.19C603.963 543.19 583.35 563.324 583.35 588.16C583.35 612.997 603.963 633.13 629.39 633.13Z" fill="#0071F2"/>
<path opacity="0.2" d="M629.39 633.13C654.817 633.13 675.43 612.997 675.43 588.16C675.43 563.324 654.817 543.19 629.39 543.19C603.963 543.19 583.35 563.324 583.35 588.16C583.35 612.997 603.963 633.13 629.39 633.13Z" fill="white"/>
<path opacity="0.2" d="M629.39 628.13C651.995 628.13 670.32 610.235 670.32 588.16C670.32 566.086 651.995 548.19 629.39 548.19C606.785 548.19 588.46 566.086 588.46 588.16C588.46 610.235 606.785 628.13 629.39 628.13Z" fill="white"/>
<path d="M630.46 589.59C632.432 589.59 634.03 587.992 634.03 586.02C634.03 584.049 632.432 582.45 630.46 582.45C628.488 582.45 626.89 584.049 626.89 586.02C626.89 587.992 628.488 589.59 630.46 589.59Z" fill="#2F2E41"/>
<path d="M618.88 607.43C618.75 607.43 618.622 607.395 618.51 607.33C618.428 607.281 618.356 607.216 618.3 607.138C618.243 607.061 618.202 606.973 618.18 606.88C618.158 606.787 618.154 606.691 618.169 606.596C618.185 606.502 618.219 606.411 618.27 606.33L630.79 585.44C630.866 585.317 630.978 585.219 631.11 585.16L655.56 574.43C655.645 574.392 655.737 574.371 655.831 574.368C655.924 574.366 656.017 574.382 656.105 574.415C656.192 574.449 656.272 574.499 656.34 574.563C656.407 574.628 656.462 574.705 656.5 574.79C656.538 574.875 656.559 574.967 656.562 575.061C656.564 575.154 656.548 575.247 656.515 575.334C656.481 575.422 656.431 575.502 656.367 575.569C656.302 575.637 656.225 575.692 656.14 575.73L631.9 586.39L619.49 607.08C619.428 607.187 619.339 607.276 619.232 607.337C619.125 607.399 619.004 607.431 618.88 607.43Z" fill="#0071F2"/>
<path d="M649.07 562.46C648.898 562.463 648.73 562.402 648.6 562.289C648.457 562.167 648.368 561.994 648.353 561.806C648.338 561.619 648.398 561.433 648.52 561.289L654.52 554.15C654.641 554.005 654.814 553.914 655.001 553.897C655.189 553.881 655.375 553.939 655.52 554.06C655.662 554.182 655.751 554.355 655.768 554.541C655.785 554.728 655.728 554.914 655.61 555.06L649.61 562.2C649.544 562.279 649.461 562.343 649.368 562.388C649.275 562.433 649.173 562.458 649.07 562.46Z" fill="#0071F2"/>
<path d="M633.83 556.58C633.642 556.58 633.461 556.505 633.328 556.372C633.195 556.239 633.12 556.059 633.12 555.87V546.2C633.12 546.107 633.138 546.015 633.174 545.929C633.21 545.842 633.262 545.764 633.328 545.698C633.394 545.632 633.472 545.58 633.558 545.544C633.644 545.509 633.737 545.49 633.83 545.49C633.923 545.49 634.016 545.509 634.102 545.544C634.188 545.58 634.266 545.632 634.332 545.698C634.398 545.764 634.45 545.842 634.486 545.929C634.522 546.015 634.54 546.107 634.54 546.2V555.87C634.54 556.059 634.465 556.239 634.332 556.372C634.199 556.505 634.018 556.58 633.83 556.58Z" fill="#0071F2"/>
<path d="M597 614.71C596.814 614.708 596.636 614.637 596.5 614.51C596.368 614.377 596.294 614.197 596.294 614.01C596.294 613.823 596.368 613.643 596.5 613.51L603.5 606.23C603.563 606.154 603.641 606.092 603.73 606.049C603.818 606.005 603.915 605.98 604.013 605.975C604.112 605.971 604.21 605.987 604.302 606.023C604.394 606.058 604.478 606.113 604.547 606.183C604.617 606.252 604.672 606.336 604.707 606.428C604.743 606.52 604.759 606.618 604.755 606.717C604.75 606.815 604.725 606.912 604.681 607C604.638 607.088 604.576 607.167 604.5 607.23L597.5 614.51C597.435 614.576 597.357 614.627 597.271 614.661C597.185 614.696 597.093 614.712 597 614.71Z" fill="#0071F2"/>
<path d="M661.34 618C661.24 618 661.141 617.978 661.049 617.937C660.958 617.896 660.876 617.835 660.81 617.76L654.57 610.83C654.437 610.69 654.366 610.502 654.372 610.309C654.377 610.116 654.459 609.933 654.6 609.8C654.74 609.668 654.928 609.596 655.121 609.602C655.314 609.607 655.497 609.69 655.63 609.83L661.87 616.76C661.964 616.862 662.025 616.989 662.048 617.126C662.07 617.263 662.052 617.403 661.995 617.529C661.939 617.655 661.847 617.763 661.731 617.838C661.614 617.912 661.478 617.952 661.34 617.95V618Z" fill="#0071F2"/>
<path d="M659.73 574.6C659.555 574.596 659.388 574.528 659.259 574.41C659.131 574.291 659.05 574.13 659.032 573.956C659.013 573.782 659.059 573.608 659.16 573.465C659.261 573.322 659.41 573.221 659.58 573.18L670.17 570.83C670.354 570.791 670.547 570.826 670.705 570.928C670.864 571.03 670.975 571.191 671.015 571.375C671.055 571.56 671.02 571.752 670.917 571.911C670.815 572.069 670.654 572.181 670.47 572.22L659.89 574.58L659.73 574.6Z" fill="#0071F2"/>
<path d="M672.58 594.58H672.45L662.16 592.72C661.989 592.671 661.843 592.56 661.749 592.409C661.655 592.258 661.62 592.078 661.651 591.903C661.682 591.728 661.777 591.57 661.917 591.461C662.057 591.352 662.233 591.298 662.41 591.31L672.71 593.18C672.895 593.217 673.058 593.324 673.164 593.479C673.271 593.634 673.312 593.825 673.28 594.01C673.248 594.172 673.16 594.317 673.032 594.421C672.905 594.525 672.745 594.581 672.58 594.58Z" fill="#0071F2"/>
<path d="M596.92 590.3H596.79L586.49 588.43C586.304 588.395 586.14 588.288 586.033 588.133C585.926 587.977 585.885 587.785 585.92 587.599C585.954 587.414 586.061 587.25 586.217 587.143C586.373 587.036 586.564 586.995 586.75 587.03L597 588.88C597.168 588.919 597.317 589.017 597.419 589.157C597.521 589.297 597.569 589.469 597.554 589.641C597.54 589.814 597.464 589.975 597.34 590.096C597.216 590.217 597.053 590.289 596.88 590.3H596.92Z" fill="#0071F2"/>
<path d="M600.2 573.42C600.053 573.42 599.91 573.375 599.79 573.29L591.46 567.46C591.38 567.408 591.312 567.34 591.26 567.261C591.208 567.182 591.172 567.093 591.155 566.999C591.138 566.905 591.141 566.809 591.162 566.717C591.184 566.624 591.224 566.537 591.28 566.46C591.333 566.382 591.401 566.315 591.481 566.263C591.56 566.212 591.649 566.176 591.742 566.16C591.835 566.143 591.931 566.145 592.023 566.166C592.116 566.186 592.203 566.225 592.28 566.28L600.62 572.11C600.748 572.196 600.844 572.32 600.895 572.465C600.946 572.61 600.949 572.768 600.902 572.914C600.856 573.06 600.764 573.188 600.639 573.278C600.514 573.367 600.364 573.414 600.21 573.41L600.2 573.42Z" fill="#0071F2"/>
<path d="M614.05 628.85C613.938 628.849 613.829 628.821 613.73 628.77C613.64 628.729 613.56 628.67 613.494 628.596C613.429 628.522 613.379 628.435 613.349 628.341C613.319 628.247 613.309 628.147 613.319 628.049C613.33 627.951 613.361 627.856 613.41 627.77L617.69 619.21C617.786 619.062 617.934 618.954 618.105 618.907C618.276 618.861 618.458 618.879 618.616 618.958C618.775 619.037 618.898 619.172 618.963 619.337C619.029 619.501 619.031 619.684 618.97 619.85L614.68 628.41C614.629 628.537 614.543 628.646 614.431 628.724C614.319 628.803 614.186 628.846 614.05 628.85Z" fill="#0071F2"/>
<path d="M639.87 630C639.776 630.001 639.683 629.984 639.595 629.948C639.508 629.913 639.428 629.861 639.361 629.795C639.294 629.729 639.241 629.65 639.205 629.564C639.169 629.477 639.15 629.384 639.15 629.29V619.56C639.138 619.459 639.148 619.356 639.178 619.259C639.209 619.162 639.259 619.073 639.327 618.997C639.394 618.921 639.477 618.86 639.57 618.818C639.663 618.776 639.763 618.755 639.865 618.755C639.967 618.755 640.067 618.776 640.16 618.818C640.253 618.86 640.336 618.921 640.403 618.997C640.471 619.073 640.521 619.162 640.552 619.259C640.582 619.356 640.592 619.459 640.58 619.56V629.29C640.58 629.383 640.562 629.475 640.526 629.561C640.49 629.647 640.438 629.726 640.372 629.792C640.306 629.858 640.228 629.91 640.142 629.946C640.056 629.981 639.963 630 639.87 630Z" fill="#0071F2"/>
<path d="M614.05 560.32C613.945 560.321 613.841 560.297 613.746 560.252C613.651 560.207 613.567 560.142 613.5 560.06L607.41 552.69C607.293 552.544 607.238 552.357 607.257 552.17C607.275 551.983 607.366 551.811 607.51 551.69C607.582 551.63 607.665 551.585 607.754 551.557C607.844 551.529 607.938 551.52 608.031 551.529C608.124 551.538 608.215 551.566 608.297 551.611C608.379 551.656 608.452 551.717 608.51 551.79L614.6 559.16C614.715 559.308 614.768 559.494 614.749 559.68C614.731 559.866 614.642 560.038 614.5 560.16C614.374 560.266 614.214 560.322 614.05 560.32Z" fill="#0071F2"/>
<g opacity="0.2">
<path d="M649.07 562.461C648.898 562.464 648.73 562.403 648.6 562.29C648.457 562.168 648.368 561.994 648.353 561.807C648.338 561.62 648.398 561.434 648.52 561.29L654.52 554.151C654.641 554.006 654.814 553.915 655.001 553.898C655.189 553.881 655.375 553.94 655.52 554.06C655.662 554.183 655.751 554.355 655.768 554.542C655.785 554.729 655.728 554.915 655.61 555.06L649.61 562.2C649.544 562.28 649.461 562.344 649.368 562.389C649.275 562.434 649.173 562.458 649.07 562.461Z" fill="white"/>
<path d="M633.83 556.58C633.642 556.58 633.461 556.505 633.328 556.372C633.195 556.239 633.12 556.059 633.12 555.87V546.2C633.12 546.107 633.138 546.015 633.174 545.929C633.21 545.842 633.262 545.764 633.328 545.698C633.394 545.632 633.472 545.58 633.558 545.544C633.644 545.509 633.737 545.49 633.83 545.49C633.923 545.49 634.015 545.509 634.102 545.544C634.188 545.58 634.266 545.632 634.332 545.698C634.398 545.764 634.45 545.842 634.486 545.929C634.522 546.015 634.54 546.107 634.54 546.2V555.87C634.54 556.059 634.465 556.239 634.332 556.372C634.199 556.505 634.018 556.58 633.83 556.58Z" fill="white"/>
<path d="M597 614.71C596.814 614.708 596.636 614.637 596.5 614.51C596.368 614.377 596.294 614.197 596.294 614.01C596.294 613.823 596.368 613.643 596.5 613.51L603.5 606.23C603.563 606.154 603.641 606.092 603.73 606.049C603.818 606.005 603.915 605.98 604.013 605.975C604.112 605.971 604.21 605.987 604.302 606.023C604.394 606.058 604.477 606.113 604.547 606.183C604.617 606.252 604.671 606.336 604.707 606.428C604.743 606.52 604.759 606.618 604.754 606.717C604.75 606.815 604.725 606.912 604.681 607C604.637 607.088 604.576 607.167 604.5 607.23L597.5 614.51C597.435 614.576 597.356 614.627 597.271 614.661C597.185 614.696 597.092 614.712 597 614.71Z" fill="white"/>
<path d="M661.34 618C661.24 618 661.141 617.978 661.049 617.937C660.958 617.896 660.876 617.835 660.81 617.76L654.57 610.83C654.437 610.69 654.366 610.502 654.372 610.309C654.377 610.116 654.459 609.933 654.6 609.8C654.74 609.668 654.928 609.596 655.121 609.602C655.314 609.607 655.497 609.69 655.63 609.83L661.87 616.76C661.964 616.862 662.025 616.989 662.048 617.126C662.07 617.263 662.052 617.403 661.995 617.529C661.939 617.655 661.847 617.763 661.731 617.838C661.614 617.912 661.478 617.952 661.34 617.95V618Z" fill="white"/>
<path d="M659.73 574.6C659.555 574.596 659.388 574.528 659.259 574.41C659.131 574.291 659.05 574.13 659.032 573.956C659.013 573.782 659.059 573.608 659.16 573.465C659.261 573.322 659.41 573.221 659.58 573.18L670.17 570.83C670.354 570.791 670.547 570.826 670.705 570.928C670.864 571.03 670.975 571.191 671.015 571.375C671.055 571.56 671.02 571.752 670.917 571.911C670.815 572.069 670.654 572.181 670.47 572.22L659.89 574.58L659.73 574.6Z" fill="white"/>
<path d="M672.58 594.58H672.45L662.16 592.72C661.989 592.671 661.843 592.56 661.749 592.409C661.655 592.258 661.62 592.078 661.651 591.903C661.682 591.728 661.777 591.57 661.917 591.461C662.057 591.352 662.233 591.298 662.41 591.31L672.71 593.18C672.895 593.217 673.058 593.324 673.164 593.479C673.271 593.634 673.312 593.825 673.28 594.01C673.248 594.172 673.16 594.317 673.032 594.421C672.905 594.525 672.745 594.581 672.58 594.58Z" fill="white"/>
<path d="M596.92 590.3H596.79L586.49 588.43C586.304 588.396 586.14 588.289 586.033 588.134C585.926 587.978 585.885 587.786 585.92 587.6C585.954 587.415 586.061 587.251 586.217 587.144C586.373 587.037 586.564 586.996 586.75 587.031L597 588.881C597.168 588.92 597.317 589.018 597.419 589.158C597.521 589.298 597.569 589.47 597.554 589.642C597.54 589.815 597.464 589.976 597.34 590.097C597.216 590.218 597.053 590.29 596.88 590.3H596.92Z" fill="white"/>
<path d="M600.2 573.42C600.053 573.42 599.91 573.375 599.79 573.29L591.46 567.46C591.38 567.408 591.312 567.34 591.26 567.261C591.207 567.182 591.172 567.093 591.155 566.999C591.138 566.905 591.14 566.809 591.162 566.717C591.183 566.624 591.224 566.537 591.28 566.46C591.333 566.382 591.401 566.315 591.481 566.263C591.56 566.212 591.649 566.176 591.742 566.16C591.835 566.143 591.931 566.145 592.023 566.166C592.115 566.186 592.203 566.225 592.28 566.28L600.62 572.11C600.748 572.196 600.844 572.32 600.895 572.465C600.946 572.61 600.948 572.768 600.902 572.914C600.856 573.06 600.764 573.188 600.639 573.278C600.514 573.367 600.363 573.414 600.21 573.41L600.2 573.42Z" fill="white"/>
<path d="M614.05 628.85C613.938 628.849 613.829 628.821 613.73 628.77C613.64 628.729 613.56 628.67 613.494 628.596C613.429 628.522 613.379 628.435 613.349 628.341C613.319 628.247 613.309 628.147 613.319 628.049C613.33 627.951 613.361 627.856 613.41 627.77L617.69 619.21C617.786 619.062 617.934 618.954 618.105 618.907C618.276 618.861 618.458 618.879 618.616 618.958C618.775 619.037 618.898 619.172 618.963 619.337C619.029 619.501 619.031 619.684 618.97 619.85L614.68 628.41C614.629 628.537 614.543 628.646 614.431 628.724C614.319 628.803 614.186 628.846 614.05 628.85Z" fill="white"/>
<path d="M639.87 630.001C639.776 630.002 639.683 629.984 639.595 629.949C639.508 629.914 639.428 629.862 639.361 629.796C639.294 629.73 639.241 629.651 639.205 629.565C639.169 629.478 639.15 629.385 639.15 629.291V619.561C639.138 619.46 639.148 619.357 639.178 619.26C639.209 619.163 639.259 619.074 639.327 618.998C639.394 618.922 639.477 618.861 639.57 618.819C639.663 618.777 639.763 618.756 639.865 618.756C639.967 618.756 640.067 618.777 640.16 618.819C640.253 618.861 640.336 618.922 640.403 618.998C640.471 619.074 640.521 619.163 640.552 619.26C640.582 619.357 640.592 619.46 640.58 619.561V629.291C640.58 629.384 640.562 629.476 640.526 629.562C640.49 629.648 640.438 629.727 640.372 629.793C640.306 629.859 640.228 629.911 640.142 629.947C640.056 629.982 639.963 630.001 639.87 630.001Z" fill="white"/>
<path d="M614.05 560.32C613.945 560.321 613.841 560.297 613.746 560.252C613.65 560.207 613.567 560.142 613.5 560.06L607.41 552.69C607.293 552.544 607.238 552.357 607.257 552.17C607.275 551.983 607.366 551.811 607.51 551.69C607.581 551.63 607.665 551.585 607.754 551.557C607.844 551.529 607.938 551.52 608.031 551.529C608.124 551.538 608.215 551.566 608.297 551.611C608.379 551.656 608.452 551.717 608.51 551.79L614.6 559.16C614.714 559.308 614.768 559.494 614.749 559.68C614.731 559.866 614.641 560.038 614.5 560.16C614.374 560.266 614.214 560.322 614.05 560.32Z" fill="white"/>
</g>
<path d="M652.59 546.76C652.382 546.756 652.178 546.709 651.99 546.62C651.649 546.459 651.386 546.171 651.256 545.817C651.127 545.463 651.143 545.072 651.3 544.73L654.55 537.73C654.629 537.559 654.74 537.405 654.878 537.278C655.016 537.15 655.178 537.051 655.355 536.986C655.531 536.921 655.719 536.891 655.907 536.899C656.095 536.906 656.279 536.951 656.45 537.03C656.621 537.108 656.775 537.22 656.902 537.358C657.029 537.497 657.128 537.659 657.192 537.836C657.256 538.012 657.285 538.2 657.276 538.388C657.267 538.576 657.221 538.76 657.14 538.93L653.89 545.93C653.775 546.178 653.592 546.388 653.362 546.535C653.131 546.682 652.863 546.76 652.59 546.76Z" fill="#2F2E41"/>
<path d="M641.17 531.05L671.81 546.2C672.789 544.475 673.293 542.522 673.272 540.539C673.251 538.556 672.705 536.614 671.69 534.91C670.301 532.69 668.231 530.978 665.79 530.03L655.1 525.65C655.1 525.65 648.62 520.28 642.75 528.52L641.17 531.05Z" fill="#0071F2"/>
<path opacity="0.2" d="M641.17 531.05L671.81 546.2C672.789 544.475 673.293 542.522 673.272 540.539C673.251 538.556 672.705 536.614 671.69 534.91C670.301 532.69 668.231 530.978 665.79 530.03L655.1 525.65C655.1 525.65 648.62 520.28 642.75 528.52L641.17 531.05Z" fill="black"/>
<path d="M246.14 551.36C246.14 550.78 244.14 493.36 234.77 484.22C225.57 475.22 214.99 483.87 214.55 484.22L213.91 483.45C214.02 483.36 225.61 473.89 235.46 483.45C245.14 492.87 247.06 548.9 247.14 551.28L246.14 551.36Z" fill="#2F2E41"/>
<path d="M247 562.69C246.94 562.01 240.63 493.89 265.47 465.37L266.23 466.03C241.69 494.22 248 561.91 248 562.59L247 562.69Z" fill="#2F2E41"/>
<path d="M245.58 555.48L244.58 555.41C244.58 554.64 249.46 477.73 231.11 460.86L231.79 460.13C250.49 477.32 245.79 552.29 245.58 555.48Z" fill="#2F2E41"/>
<path d="M248 555.45H247C247 553.34 247.6 503.65 261.62 495.69C262.936 494.849 264.433 494.334 265.988 494.188C267.543 494.041 269.111 494.269 270.56 494.85C278.98 498.36 283.16 513.4 283.33 514.04L282.33 514.3C282.33 514.15 278.11 499.09 270.13 495.77C268.82 495.253 267.406 495.055 266.005 495.192C264.603 495.329 263.254 495.798 262.07 496.56C248.61 504.23 248 554.94 248 555.45Z" fill="#2F2E41"/>
<path d="M242.44 555.47L241.44 555.41C241.44 555.02 243.59 516.02 233.03 502.24C230.43 498.85 227.59 497.24 224.6 497.45C217.6 497.94 211.78 508.12 211.72 508.22L210.85 507.73C211.1 507.29 216.99 496.98 224.53 496.45C227.89 496.21 231.01 497.96 233.82 501.63C244.61 515.71 242.54 553.86 242.44 555.47Z" fill="#2F2E41"/>
<path d="M245.22 560.77C244.94 557 238.35 468.2 249.88 452.61L250.69 453.21C239.37 468.5 246.15 559.77 246.22 560.69L245.22 560.77Z" fill="#2F2E41"/>
<path d="M273.74 503.59C273.74 503.59 266.8 506.16 268.92 512.2C271.04 518.24 293 528.27 293 528.27C293 528.27 302.19 519.84 293.75 506.13C285.31 492.42 273.94 499.27 273.74 503.59Z" fill="#0071F2"/>
<path d="M243.55 492.08C243.55 492.08 250.94 491.78 251.38 498.16C251.82 504.54 235.31 522.16 235.31 522.16C235.31 522.16 223.58 517.91 226.1 502.01C228.62 486.11 241.72 488.16 243.55 492.08Z" fill="#0071F2"/>
<path d="M237.28 461.65C237.28 461.65 242.22 461.12 241.83 458.12C241.44 455.12 222.66 447.38 211.57 459.88C211.57 459.88 218.68 472.06 228.93 472.22C239.18 472.38 237.28 461.65 237.28 461.65Z" fill="#0071F2"/>
<path d="M246.48 454.28C246.48 454.28 242.01 456.44 240.77 453.68C239.53 450.92 251.36 434.4 267.36 439.22C267.36 439.22 267.78 453.31 259.17 458.86C250.56 464.41 246.48 454.28 246.48 454.28Z" fill="#0071F2"/>
<path d="M223.13 501.16C223.13 501.16 226.53 498.42 222.87 497.08C219.21 495.74 201.18 496.08 200.99 513.97C200.99 513.97 221.99 517.46 224.57 510.66C227.15 503.86 223.13 501.16 223.13 501.16Z" fill="#0071F2"/>
<path d="M265.93 461.12C265.93 461.12 262.53 458.37 266.21 457.04C269.89 455.71 287.9 456.04 288.08 473.93C288.08 473.93 267.08 477.41 264.5 470.62C261.92 463.83 265.93 461.12 265.93 461.12Z" fill="#0071F2"/>
<path d="M254.83 475.5C254.83 475.5 254.54 472.16 257.24 473.5C259.94 474.84 269.32 484.94 259.59 494.56C259.59 494.56 246.48 484.84 248.84 479.8C251.2 474.76 254.83 475.5 254.83 475.5Z" fill="#0071F2"/>
<path d="M220.09 480.27C220.09 480.27 222.09 477.61 219.09 477.27C216.09 476.93 202.77 480.48 205.87 493.84C205.87 493.84 222.15 492.62 222.87 487.07C223.59 481.52 220.09 480.27 220.09 480.27Z" fill="#0071F2"/>
<path opacity="0.2" d="M273.74 503.59C273.74 503.59 266.8 506.16 268.92 512.2C271.04 518.24 293 528.27 293 528.27C293 528.27 302.19 519.84 293.75 506.13C285.31 492.42 273.94 499.27 273.74 503.59Z" fill="white"/>
<path opacity="0.2" d="M243.55 492.08C243.55 492.08 250.94 491.78 251.38 498.16C251.82 504.54 235.31 522.16 235.31 522.16C235.31 522.16 223.58 517.91 226.1 502.01C228.62 486.11 241.72 488.16 243.55 492.08Z" fill="white"/>
<path opacity="0.2" d="M237.28 461.65C237.28 461.65 242.22 461.12 241.83 458.12C241.44 455.12 222.66 447.38 211.57 459.88C211.57 459.88 218.68 472.06 228.93 472.22C239.18 472.38 237.28 461.65 237.28 461.65Z" fill="white"/>
<path opacity="0.2" d="M246.48 454.28C246.48 454.28 242.01 456.44 240.77 453.68C239.53 450.92 251.36 434.4 267.36 439.22C267.36 439.22 267.78 453.31 259.17 458.86C250.56 464.41 246.48 454.28 246.48 454.28Z" fill="white"/>
<path opacity="0.2" d="M223.13 501.16C223.13 501.16 226.53 498.42 222.87 497.08C219.21 495.74 201.18 496.08 200.99 513.97C200.99 513.97 221.99 517.46 224.57 510.66C227.15 503.86 223.13 501.16 223.13 501.16Z" fill="white"/>
<path opacity="0.2" d="M265.93 461.12C265.93 461.12 262.53 458.37 266.21 457.04C269.89 455.71 287.9 456.04 288.08 473.93C288.08 473.93 267.08 477.41 264.5 470.62C261.92 463.83 265.93 461.12 265.93 461.12Z" fill="white"/>
<path opacity="0.2" d="M254.83 475.5C254.83 475.5 254.54 472.16 257.24 473.5C259.94 474.84 269.32 484.94 259.59 494.56C259.59 494.56 246.48 484.84 248.84 479.8C251.2 474.76 254.83 475.5 254.83 475.5Z" fill="white"/>
<path opacity="0.2" d="M220.09 480.27C220.09 480.27 222.09 477.61 219.09 477.27C216.09 476.93 202.77 480.48 205.87 493.84C205.87 493.84 222.15 492.62 222.87 487.07C223.59 481.52 220.09 480.27 220.09 480.27Z" fill="white"/>
<path d="M275.05 604.93H219.24L213.21 543.83H281.07L275.05 604.93Z" fill="#407BFF"/>
<path d="M275.05 604.93H219.24L213.21 543.83H281.07L275.05 604.93Z" fill="#2F2E41"/>
<path d="M284.04 537.08H210.22V550.56H284.04V537.08Z" fill="#2F2E41"/>
<path opacity="0.2" d="M284.04 537.08H210.22V550.56H284.04V537.08Z" fill="white"/>
<path d="M460.075 360.2L463.875 370.975H464.025L467.825 360.2H469.45L464.75 373H463.15L458.45 360.2H460.075ZM473.175 373.225C472.567 373.225 472.015 373.11 471.519 372.881C471.023 372.648 470.629 372.312 470.338 371.875C470.046 371.433 469.9 370.9 469.9 370.275C469.9 369.725 470.008 369.279 470.225 368.937C470.442 368.592 470.731 368.321 471.094 368.125C471.456 367.929 471.856 367.783 472.294 367.687C472.735 367.587 473.179 367.508 473.625 367.45C474.208 367.375 474.681 367.319 475.044 367.281C475.41 367.24 475.677 367.171 475.844 367.075C476.015 366.979 476.1 366.812 476.1 366.575V366.525C476.1 365.908 475.931 365.429 475.594 365.087C475.26 364.746 474.754 364.575 474.075 364.575C473.371 364.575 472.819 364.729 472.419 365.037C472.019 365.346 471.738 365.675 471.575 366.025L470.175 365.525C470.425 364.942 470.758 364.487 471.175 364.162C471.596 363.833 472.054 363.604 472.55 363.475C473.05 363.342 473.542 363.275 474.025 363.275C474.333 363.275 474.688 363.312 475.088 363.387C475.492 363.458 475.881 363.606 476.256 363.831C476.635 364.056 476.95 364.396 477.2 364.85C477.45 365.304 477.575 365.912 477.575 366.675V373H476.1V371.7H476.025C475.925 371.908 475.758 372.131 475.525 372.369C475.292 372.606 474.981 372.808 474.594 372.975C474.206 373.142 473.733 373.225 473.175 373.225ZM473.4 371.9C473.983 371.9 474.475 371.785 474.875 371.556C475.279 371.327 475.583 371.031 475.788 370.669C475.996 370.306 476.1 369.925 476.1 369.525V368.175C476.038 368.25 475.9 368.319 475.688 368.381C475.479 368.44 475.238 368.492 474.963 368.537C474.692 368.579 474.427 368.617 474.169 368.65C473.915 368.679 473.708 368.704 473.55 368.725C473.167 368.775 472.808 368.856 472.475 368.969C472.146 369.077 471.879 369.242 471.675 369.462C471.475 369.679 471.375 369.975 471.375 370.35C471.375 370.862 471.565 371.25 471.944 371.512C472.327 371.771 472.813 371.9 473.4 371.9ZM484.167 373.2C483.267 373.2 482.492 372.988 481.842 372.562C481.192 372.137 480.692 371.552 480.342 370.806C479.992 370.06 479.817 369.208 479.817 368.25C479.817 367.275 479.996 366.415 480.355 365.669C480.717 364.919 481.221 364.333 481.867 363.912C482.517 363.487 483.276 363.275 484.142 363.275C484.817 363.275 485.426 363.4 485.967 363.65C486.509 363.9 486.953 364.25 487.298 364.7C487.644 365.15 487.859 365.675 487.942 366.275H486.467C486.355 365.837 486.105 365.45 485.717 365.112C485.334 364.771 484.817 364.6 484.167 364.6C483.592 364.6 483.088 364.75 482.655 365.05C482.226 365.346 481.89 365.765 481.648 366.306C481.411 366.844 481.292 367.475 481.292 368.2C481.292 368.942 481.409 369.587 481.642 370.137C481.88 370.687 482.213 371.115 482.642 371.419C483.076 371.723 483.584 371.875 484.167 371.875C484.551 371.875 484.898 371.808 485.211 371.675C485.523 371.542 485.788 371.35 486.005 371.1C486.221 370.85 486.376 370.55 486.467 370.2H487.942C487.859 370.767 487.653 371.277 487.323 371.731C486.998 372.181 486.567 372.54 486.03 372.806C485.496 373.069 484.876 373.2 484.167 373.2ZM493.998 373.2C493.098 373.2 492.323 372.988 491.673 372.562C491.023 372.137 490.523 371.552 490.173 370.806C489.823 370.06 489.648 369.208 489.648 368.25C489.648 367.275 489.828 366.415 490.186 365.669C490.548 364.919 491.053 364.333 491.698 363.912C492.348 363.487 493.107 363.275 493.973 363.275C494.648 363.275 495.257 363.4 495.798 363.65C496.34 363.9 496.784 364.25 497.13 364.7C497.476 365.15 497.69 365.675 497.773 366.275H496.298C496.186 365.837 495.936 365.45 495.548 365.112C495.165 364.771 494.648 364.6 493.998 364.6C493.423 364.6 492.919 364.75 492.486 365.05C492.057 365.346 491.721 365.765 491.48 366.306C491.242 366.844 491.123 367.475 491.123 368.2C491.123 368.942 491.24 369.587 491.473 370.137C491.711 370.687 492.044 371.115 492.473 371.419C492.907 371.723 493.415 371.875 493.998 371.875C494.382 371.875 494.73 371.808 495.042 371.675C495.355 371.542 495.619 371.35 495.836 371.1C496.053 370.85 496.207 370.55 496.298 370.2H497.773C497.69 370.767 497.484 371.277 497.155 371.731C496.83 372.181 496.398 372.54 495.861 372.806C495.328 373.069 494.707 373.2 493.998 373.2ZM499.93 373V363.4H501.405V373H499.93ZM500.68 361.8C500.392 361.8 500.144 361.702 499.936 361.506C499.732 361.31 499.63 361.075 499.63 360.8C499.63 360.525 499.732 360.29 499.936 360.094C500.144 359.898 500.392 359.8 500.68 359.8C500.967 359.8 501.213 359.898 501.417 360.094C501.626 360.29 501.73 360.525 501.73 360.8C501.73 361.075 501.626 361.31 501.417 361.506C501.213 361.702 500.967 361.8 500.68 361.8ZM505.581 367.225V373H504.106V363.4H505.531V364.9H505.656C505.881 364.412 506.223 364.021 506.681 363.725C507.14 363.425 507.731 363.275 508.456 363.275C509.106 363.275 509.675 363.408 510.163 363.675C510.65 363.937 511.029 364.337 511.3 364.875C511.571 365.408 511.706 366.083 511.706 366.9V373H510.231V367C510.231 366.246 510.035 365.658 509.644 365.237C509.252 364.812 508.715 364.6 508.031 364.6C507.56 364.6 507.14 364.702 506.769 364.906C506.402 365.11 506.113 365.408 505.9 365.8C505.688 366.192 505.581 366.667 505.581 367.225ZM518.427 373.2C517.502 373.2 516.704 372.996 516.033 372.587C515.366 372.175 514.852 371.6 514.489 370.862C514.131 370.121 513.952 369.258 513.952 368.275C513.952 367.292 514.131 366.425 514.489 365.675C514.852 364.921 515.356 364.333 516.002 363.912C516.652 363.487 517.41 363.275 518.277 363.275C518.777 363.275 519.27 363.358 519.758 363.525C520.245 363.692 520.689 363.962 521.089 364.337C521.489 364.708 521.808 365.2 522.045 365.812C522.283 366.425 522.402 367.179 522.402 368.075V368.7H515.002V367.425H520.902C520.902 366.883 520.793 366.4 520.577 365.975C520.364 365.55 520.06 365.215 519.664 364.969C519.272 364.723 518.81 364.6 518.277 364.6C517.689 364.6 517.181 364.746 516.752 365.037C516.327 365.325 515.999 365.7 515.77 366.162C515.541 366.625 515.427 367.121 515.427 367.65V368.5C515.427 369.225 515.552 369.84 515.802 370.344C516.056 370.844 516.408 371.225 516.858 371.487C517.308 371.746 517.831 371.875 518.427 371.875C518.814 371.875 519.164 371.821 519.477 371.712C519.793 371.6 520.066 371.433 520.295 371.212C520.524 370.987 520.702 370.708 520.827 370.375L522.252 370.775C522.102 371.258 521.849 371.683 521.495 372.05C521.141 372.412 520.704 372.696 520.183 372.9C519.662 373.1 519.077 373.2 518.427 373.2ZM540.095 364.2H538.545C538.454 363.754 538.293 363.362 538.064 363.025C537.839 362.687 537.564 362.404 537.239 362.175C536.918 361.942 536.562 361.767 536.17 361.65C535.779 361.533 535.37 361.475 534.945 361.475C534.17 361.475 533.468 361.671 532.839 362.062C532.214 362.454 531.716 363.031 531.345 363.794C530.979 364.556 530.795 365.492 530.795 366.6C530.795 367.708 530.979 368.644 531.345 369.406C531.716 370.169 532.214 370.746 532.839 371.137C533.468 371.529 534.17 371.725 534.945 371.725C535.37 371.725 535.779 371.667 536.17 371.55C536.562 371.433 536.918 371.26 537.239 371.031C537.564 370.798 537.839 370.512 538.064 370.175C538.293 369.833 538.454 369.442 538.545 369H540.095C539.979 369.654 539.766 370.24 539.458 370.756C539.149 371.273 538.766 371.712 538.308 372.075C537.849 372.433 537.335 372.706 536.764 372.894C536.197 373.081 535.591 373.175 534.945 373.175C533.854 373.175 532.883 372.908 532.033 372.375C531.183 371.842 530.514 371.083 530.027 370.1C529.539 369.117 529.295 367.95 529.295 366.6C529.295 365.25 529.539 364.083 530.027 363.1C530.514 362.117 531.183 361.358 532.033 360.825C532.883 360.292 533.854 360.025 534.945 360.025C535.591 360.025 536.197 360.119 536.764 360.306C537.335 360.494 537.849 360.769 538.308 361.131C538.766 361.49 539.149 361.927 539.458 362.444C539.766 362.956 539.979 363.542 540.095 364.2ZM545.225 373.225C544.617 373.225 544.065 373.11 543.569 372.881C543.073 372.648 542.679 372.312 542.388 371.875C542.096 371.433 541.95 370.9 541.95 370.275C541.95 369.725 542.058 369.279 542.275 368.937C542.492 368.592 542.781 368.321 543.144 368.125C543.506 367.929 543.906 367.783 544.344 367.687C544.785 367.587 545.229 367.508 545.675 367.45C546.258 367.375 546.731 367.319 547.094 367.281C547.46 367.24 547.727 367.171 547.894 367.075C548.065 366.979 548.15 366.812 548.15 366.575V366.525C548.15 365.908 547.981 365.429 547.644 365.087C547.31 364.746 546.804 364.575 546.125 364.575C545.421 364.575 544.869 364.729 544.469 365.037C544.069 365.346 543.788 365.675 543.625 366.025L542.225 365.525C542.475 364.942 542.808 364.487 543.225 364.162C543.646 363.833 544.104 363.604 544.6 363.475C545.1 363.342 545.592 363.275 546.075 363.275C546.383 363.275 546.738 363.312 547.138 363.387C547.542 363.458 547.931 363.606 548.306 363.831C548.685 364.056 549 364.396 549.25 364.85C549.5 365.304 549.625 365.912 549.625 366.675V373H548.15V371.7H548.075C547.975 371.908 547.808 372.131 547.575 372.369C547.342 372.606 547.031 372.808 546.644 372.975C546.256 373.142 545.783 373.225 545.225 373.225ZM545.45 371.9C546.033 371.9 546.525 371.785 546.925 371.556C547.329 371.327 547.633 371.031 547.838 370.669C548.046 370.306 548.15 369.925 548.15 369.525V368.175C548.088 368.25 547.95 368.319 547.738 368.381C547.529 368.44 547.288 368.492 547.013 368.537C546.742 368.579 546.477 368.617 546.219 368.65C545.965 368.679 545.758 368.704 545.6 368.725C545.217 368.775 544.858 368.856 544.525 368.969C544.196 369.077 543.929 369.242 543.725 369.462C543.525 369.679 543.425 369.975 543.425 370.35C543.425 370.862 543.615 371.25 543.994 371.512C544.377 371.771 544.863 371.9 545.45 371.9ZM552.317 373V363.4H553.742V364.85H553.842C554.017 364.375 554.334 363.99 554.792 363.694C555.251 363.398 555.767 363.25 556.342 363.25C556.451 363.25 556.586 363.252 556.748 363.256C556.911 363.26 557.034 363.267 557.117 363.275V364.775C557.067 364.762 556.953 364.744 556.773 364.719C556.598 364.69 556.413 364.675 556.217 364.675C555.751 364.675 555.334 364.773 554.967 364.969C554.605 365.16 554.317 365.427 554.105 365.769C553.896 366.106 553.792 366.492 553.792 366.925V373H552.317ZM562.198 373.2C561.398 373.2 560.692 372.998 560.08 372.594C559.467 372.185 558.988 371.61 558.642 370.869C558.296 370.123 558.123 369.242 558.123 368.225C558.123 367.217 558.296 366.342 558.642 365.6C558.988 364.858 559.469 364.285 560.086 363.881C560.703 363.477 561.415 363.275 562.223 363.275C562.848 363.275 563.342 363.379 563.705 363.587C564.071 363.792 564.351 364.025 564.542 364.287C564.738 364.546 564.89 364.758 564.998 364.925H565.123V360.2H566.598V373H565.173V371.525H564.998C564.89 371.7 564.736 371.921 564.536 372.187C564.336 372.45 564.051 372.685 563.68 372.894C563.309 373.098 562.815 373.2 562.198 373.2ZM562.398 371.875C562.99 371.875 563.49 371.721 563.898 371.412C564.307 371.1 564.617 370.669 564.83 370.119C565.042 369.565 565.148 368.925 565.148 368.2C565.148 367.483 565.044 366.856 564.836 366.319C564.628 365.777 564.319 365.356 563.911 365.056C563.503 364.752 562.998 364.6 562.398 364.6C561.773 364.6 561.253 364.76 560.836 365.081C560.423 365.398 560.113 365.829 559.905 366.375C559.701 366.917 559.598 367.525 559.598 368.2C559.598 368.883 559.703 369.504 559.911 370.062C560.123 370.617 560.436 371.058 560.848 371.387C561.265 371.712 561.782 371.875 562.398 371.875Z" fill="black"/>
</svg>
